<svg xmlns="http://www.w3.org/2000/svg" viewBox="0 0 154.59 70"><defs><style>.cls-1{fill:none;}.cls-2{fill:#2a363b;}.cls-3{fill:#f68865;}</style></defs><title>logo_medicon</title><g id="Capa_2" data-name="Capa 2"><g id="Capa_1-2" data-name="Capa 1"><path class="cls-1" d="M10.64,48.49l.76.15a11.66,11.66,0,0,0,1.35.1,10,10,0,0,1-1.3-.1Z"/><path class="cls-1" d="M29.77,41.49a1.65,1.65,0,0,1,.32-.06,2.25,2.25,0,0,0-.36.06,1.64,1.64,0,0,0-.57.33c-2.7,2.56-7.49,4.25-11.41,5.28,3.93-1,8.74-2.71,11.44-5.28A1.59,1.59,0,0,1,29.77,41.49Z"/><path class="cls-1" d="M30.47,50.78c-7.33,4.29-15.81,2.73-19.09,1.86-4.3-1.15-7.32-2.94-8-4C1.29,44.92.55,38.76.93,38.07c-.38.69.36,6.81,2.45,10.57.64,1.1,3.68,2.9,8,4,3.28.88,11.71,2.42,19.08-1.86l6.16-3.74a1.07,1.07,0,0,0,.33-.34,0,0,0,0,0,0,0,1.11,1.11,0,0,1-.3.31Z"/><path class="cls-1" d="M38.37,38.28a.41.41,0,0,0-.34.16.4.4,0,0,1,.3-.1,5.07,5.07,0,0,0,3.73-2.06A5.08,5.08,0,0,1,38.37,38.28Z"/><path class="cls-1" d="M7.82,38.61a1.55,1.55,0,0,0-.74-.27l-3.93-.58a1.67,1.67,0,0,0-.83,0,1.65,1.65,0,0,0-.7.46,1.67,1.67,0,0,0-.36.76,1.48,1.48,0,0,0,.09.83L2.51,43v0a2.37,2.37,0,0,0,1.7,1.12,2.39,2.39,0,0,0,1-.08,2.3,2.3,0,0,0,.91-.52l2-2.77A1.58,1.58,0,0,0,8.47,40a1.54,1.54,0,0,0-.14-.79A1.58,1.58,0,0,0,7.82,38.61Zm.35,2.15L6.11,43.53a2.42,2.42,0,0,1-.9.5,2.56,2.56,0,0,1-1,.06,2.51,2.51,0,0,1-1-.38A2.42,2.42,0,0,1,2.51,43L1.35,39.75a1.45,1.45,0,0,1,0-.8,1.47,1.47,0,0,1,.37-.71,1.43,1.43,0,0,1,.67-.44,1.67,1.67,0,0,1,.8,0L7,38.34a1.55,1.55,0,0,1,.75.27,1.58,1.58,0,0,1,.51.61,1.66,1.66,0,0,1,.14.79A1.7,1.7,0,0,1,8.17,40.76Z"/><path class="cls-1" d="M11.76,48.34l-.34,0-.79.1h0l.83-.1Z"/><path class="cls-1" d="M13.86,48.73c3-.08,8.5-.84,15.71-4.57a1.3,1.3,0,0,1,.39-.09,1,1,0,0,0-.41.09C22.34,47.89,16.82,48.65,13.86,48.73Z"/><path class="cls-1" d="M37.53,34.64a1.82,1.82,0,0,0,0,.77,2,2,0,0,0,.29.7,2,2,0,0,0,.55.53,1.81,1.81,0,0,0,.71.27,1.9,1.9,0,0,0,.75,0,2,2,0,0,1-.73-.09v0a1.88,1.88,0,0,1-1.15-.77,1.92,1.92,0,0,1-.3-1.36,1.9,1.9,0,0,1,.71-1.19,1.72,1.72,0,0,1,.37-.22,2,2,0,0,0-.41.21A1.86,1.86,0,0,0,37.53,34.64Z"/><path class="cls-1" d="M32.66,44l.44,1a2.4,2.4,0,0,1-.18,1.35,2.35,2.35,0,0,1-.89,1,26.17,26.17,0,0,1-11.94,3.49h0a26.26,26.26,0,0,0,12-3.5,2.37,2.37,0,0,0,.9-1A2.31,2.31,0,0,0,33.12,45Z"/><path class="cls-1" d="M26,47.53h0a17.56,17.56,0,0,0,5.32-2h0A17.58,17.58,0,0,1,26,47.53Z"/><path class="cls-1" d="M13.57,23c1.28.19,2.78.62,3.11,1.69a6.67,6.67,0,0,1-.31,3.7,2.17,2.17,0,0,0-.11.42,5.07,5.07,0,0,1-1.45,2.87l0,0a5.15,5.15,0,0,0,1.46-2.87,2.13,2.13,0,0,0,.1-.42,6.67,6.67,0,0,0,.31-3.7c-.33-1.09-1.82-1.5-3.11-1.69a8,8,0,0,0-1.18-.14H12.2v0h.19C12.73,22.93,13.13,23,13.57,23Z"/><path class="cls-1" d="M27.36,36.39a6.88,6.88,0,0,1-3-1.47,6.11,6.11,0,0,1-1.62-2.14,8.13,8.13,0,0,1-.31-1,7.61,7.61,0,0,0,.31,1A6.16,6.16,0,0,0,24.4,35a6.92,6.92,0,0,0,3,1.46,7,7,0,0,0,3.28-.07A6.87,6.87,0,0,1,27.36,36.39Z"/><path class="cls-1" d="M8.86,30.75c1.15-.89,2.08-1.64,2.32-1.9a18.33,18.33,0,0,0,.16-4.12c0-.63,0-1.26,0-1.88-1-.07-2.1.06-2.35,1.13a3.75,3.75,0,0,0-.13.6C8.5,26.23,8,28.32,8.5,29.92A3.21,3.21,0,0,0,8.86,30.75Z"/><path class="cls-1" d="M138,33.6a6.93,6.93,0,0,0,2.28,1.74,6.66,6.66,0,0,0,2.78.61,7,7,0,0,0,2.86-.6,6.72,6.72,0,0,0,2.3-1.72,8.34,8.34,0,0,0,1.54-2.74,10.76,10.76,0,0,0,.56-3.6,11.46,11.46,0,0,0-.56-3.72,7.71,7.71,0,0,0-1.53-2.72,6.21,6.21,0,0,0-2.3-1.62,7.53,7.53,0,0,0-5.65,0A6.55,6.55,0,0,0,138,20.88a7.59,7.59,0,0,0-1.56,2.73,10.94,10.94,0,0,0-.57,3.68,10.37,10.37,0,0,0,.57,3.58A8.08,8.08,0,0,0,138,33.6Z"/><path class="cls-1" d="M1.65,37.45l1.22-1Z"/><path class="cls-1" d="M17.59,28.11a9.17,9.17,0,0,1,.74-2.71,1.29,1.29,0,0,1,.22-.3,1.59,1.59,0,0,0-.28.36,9.22,9.22,0,0,0-.73,2.72,13.25,13.25,0,0,1-.49,2.14,5.47,5.47,0,0,1-.81,1.62,5.2,5.2,0,0,0,.86-1.69A13,13,0,0,0,17.59,28.11Z"/><path class="cls-1" d="M36.93,30.24a25.69,25.69,0,0,0,.37-2.64h0c0,.68-.37,2.71-.37,2.71a11.19,11.19,0,0,1-.94,3.21,9.16,9.16,0,0,1-1.31,2A9,9,0,0,0,36,33.45,11.28,11.28,0,0,0,36.93,30.24Z"/><path class="cls-1" d="M8.5,32.43a5,5,0,0,0,2,1.25,5,5,0,0,1-1.94-1.25l-.14-.17,0,0S8.5,32.37,8.5,32.43Z"/><path class="cls-1" d="M2.87,36.49,5,34.83Z"/><path class="cls-1" d="M38.6,25.54l-.09-.14h0l-1.81-.47a44.7,44.7,0,0,0-6.16-1.31c-1.48-.19-3-.3-4.47-.37H24.27a23.86,23.86,0,0,1-2.54-.08,27,27,0,0,1-4.79-1.07l-1.27-.35c-1-.27-2.07-.49-3.08-.68l.14-.25a2,2,0,0,0-.18.32c1,.19,2,.4,3.07.67l1.28.35a27.07,27.07,0,0,0,4.78,1.07q1.28.11,2.55.09H26c1.49.06,3,.18,4.47.36A47.85,47.85,0,0,1,36.61,25l1.81.47h0l.08.14-.32,2.07h.05Z"/><path class="cls-1" d="M12.71,29.32a.73.73,0,0,0,.22.16,1.18,1.18,0,0,0,.27.06h1.17a.69.69,0,0,0,.49-.19h0a.64.64,0,0,1-.45.16H13.23a.86.86,0,0,1-.27-.05.89.89,0,0,1-.22-.16.58.58,0,0,1-.14-.24.51.51,0,0,1,0-.27c0-.87.32-2.18,1.09-2.48-.83.25-1.05,1.59-1.13,2.5a.84.84,0,0,0,0,.27A.61.61,0,0,0,12.71,29.32Z"/><path class="cls-1" d="M114.78,18.85a7,7,0,0,0-2.76.54,6.56,6.56,0,0,0-2.26,1.6,7.32,7.32,0,0,0-1.52,2.56,10,10,0,0,0-.56,3.47,12,12,0,0,0,.54,3.77,7.76,7.76,0,0,0,1.48,2.72,5.94,5.94,0,0,0,2.3,1.66,7.5,7.5,0,0,0,2.92.55,7.64,7.64,0,0,0,3.09-.54,7.14,7.14,0,0,0,2.29-1.64V20.63a7,7,0,0,0-2.56-1.36A10.64,10.64,0,0,0,114.78,18.85Z"/><path class="cls-1" d="M123.44,54.12a2.87,2.87,0,0,0-1.06-.76,4.14,4.14,0,0,0-1.6-.26,4.52,4.52,0,0,0-1.54.25,3,3,0,0,0-1.06.72,3.25,3.25,0,0,0-.74,1.14,6.73,6.73,0,0,0-.42,1.52h7.28a6.48,6.48,0,0,0-.25-1.45A3.23,3.23,0,0,0,123.44,54.12Z"/><path class="cls-1" d="M86.79,48.09a4.25,4.25,0,0,0-2.94-.85l-3.36,0v6.47h3.69a4.59,4.59,0,0,0,1.43-.22,3.12,3.12,0,0,0,1.06-.61,2.94,2.94,0,0,0,.74-1,3.6,3.6,0,0,0,.26-1.41,3.22,3.22,0,0,0-.19-1.27A3,3,0,0,0,86.79,48.09Z"/><path class="cls-1" d="M25.15,30.19a.26.26,0,0,0,.11.07l.08,0a.27.27,0,0,1-.17-.08.31.31,0,0,1-.09-.22.29.29,0,0,1,.08-.19.09.09,0,0,1,0-.07,3.42,3.42,0,0,1,.89-.76,4.56,4.56,0,0,1,1.2-.57,3.9,3.9,0,0,1,1.31-.2,5.29,5.29,0,0,1,1.76.48,5.35,5.35,0,0,0-1.78-.49,3.9,3.9,0,0,0-1.31.2A4.41,4.41,0,0,0,26,29a3.64,3.64,0,0,0-.9.76v.07a.4.4,0,0,0-.07.18.51.51,0,0,0,0,.13A.36.36,0,0,0,25.15,30.19Z"/><path class="cls-1" d="M32.14,25.56c1.67.37,3.57,1.06,3.57,3.06a8.52,8.52,0,0,1-.33,2.13,10.52,10.52,0,0,1-1.14,2.75,6.17,6.17,0,0,1-3.54,2.82,6.17,6.17,0,0,0,3.56-2.82,10.52,10.52,0,0,0,1.14-2.75,8.52,8.52,0,0,0,.33-2.13c0-2-1.9-2.69-3.56-3.06-.72-.16-1.43-.29-2.14-.38a23.61,23.61,0,0,0-4-.28h0a23.61,23.61,0,0,1,4,.28C30.72,25.27,31.43,25.4,32.14,25.56Z"/><path class="cls-1" d="M150.72,54.5a3.81,3.81,0,0,0-1.4-1,4.74,4.74,0,0,0-1.75-.34,4.47,4.47,0,0,0-1.69.34,4,4,0,0,0-1.4,1,4.75,4.75,0,0,0-.94,1.65,7,7,0,0,0,0,4.36,5.25,5.25,0,0,0,.94,1.66,4.43,4.43,0,0,0,1.4,1.07,4.21,4.21,0,0,0,3.43,0,4.09,4.09,0,0,0,1.4-1.07,4.8,4.8,0,0,0,.94-1.66,6.73,6.73,0,0,0,.34-2.13,7,7,0,0,0-.34-2.27A4.45,4.45,0,0,0,150.72,54.5Z"/><path class="cls-1" d="M30.71,30.2a3.76,3.76,0,0,0-.5-.31,4.8,4.8,0,0,1,.48.3c.2.14.4.3.6.45a.69.69,0,0,0,.19.1.56.56,0,0,1-.17-.09C31.11,30.5,30.92,30.34,30.71,30.2Z"/><path class="cls-1" d="M29.58,31.15c.16.11.36.28.38.44a.25.25,0,0,1-.16.26c.14,0,.27-.08.25-.25S29.74,31.25,29.58,31.15Z"/><path class="cls-1" d="M25.85,31h0a.2.2,0,0,1,.08,0Z"/><polygon class="cls-2" points="100.06 29.29 95.5 29.29 95.5 35 83.45 35 83.45 23.51 93.58 23.51 93.58 19.71 83.45 19.71 83.45 8.92 95.5 8.92 95.5 14.62 100.06 14.62 100.06 5.07 75.88 5.07 75.88 8.92 79.09 8.92 79.09 35 75.88 35 75.88 38.82 100.06 38.82 100.06 29.29"/><path class="cls-2" d="M124.45,4.18h-7.29l0,3.82h3.14v8.82a7.64,7.64,0,0,0-2.65-1.27A12.64,12.64,0,0,0,110,16a10.41,10.41,0,0,0-3.51,2.42,10.77,10.77,0,0,0-2.28,3.74,14.23,14.23,0,0,0-.8,4.88,14.9,14.9,0,0,0,.84,5.21,11.26,11.26,0,0,0,2.31,3.86,9.77,9.77,0,0,0,3.5,2.38,11.37,11.37,0,0,0,4.36.81,8.29,8.29,0,0,0,3.33-.63,7.77,7.77,0,0,0,2.58-1.77v1.89h7.48V35h-3.37ZM120.3,33.54A7.14,7.14,0,0,1,118,35.18a7.64,7.64,0,0,1-3.09.54,7.5,7.5,0,0,1-2.92-.55,5.94,5.94,0,0,1-2.3-1.66,7.76,7.76,0,0,1-1.48-2.72,12,12,0,0,1-.54-3.77,10,10,0,0,1,.56-3.47A7.32,7.32,0,0,1,109.76,21a6.56,6.56,0,0,1,2.26-1.6,7,7,0,0,1,2.76-.54,10.64,10.64,0,0,1,3,.42,7,7,0,0,1,2.56,1.36Z"/><path class="cls-2" d="M134.71,36.12a10.4,10.4,0,0,0,3.63,2.5,12.12,12.12,0,0,0,4.72.9,11.72,11.72,0,0,0,4.68-.91,10.49,10.49,0,0,0,3.65-2.52,11.94,11.94,0,0,0,2.36-3.89,14,14,0,0,0,.84-5,13.83,13.83,0,0,0-.84-5,11.4,11.4,0,0,0-2.36-3.85A10.42,10.42,0,0,0,147.74,16a13.07,13.07,0,0,0-9.34,0,10.61,10.61,0,0,0-3.65,2.48,11.67,11.67,0,0,0-2.39,3.87,14.18,14.18,0,0,0-.88,5,14.46,14.46,0,0,0,.86,5A11.61,11.61,0,0,0,134.71,36.12Zm1.73-12.51A7.59,7.59,0,0,1,138,20.88a6.55,6.55,0,0,1,2.28-1.65,7.53,7.53,0,0,1,5.65,0,6.21,6.21,0,0,1,2.3,1.62,7.71,7.71,0,0,1,1.53,2.72,11.46,11.46,0,0,1,.56,3.72,10.76,10.76,0,0,1-.56,3.6,8.34,8.34,0,0,1-1.54,2.74,6.72,6.72,0,0,1-2.3,1.72,7,7,0,0,1-2.86.6,6.66,6.66,0,0,1-2.78-.61A6.93,6.93,0,0,1,138,33.6a8.08,8.08,0,0,1-1.56-2.73,10.37,10.37,0,0,1-.57-3.58A10.94,10.94,0,0,1,136.44,23.61Z"/><path class="cls-2" d="M88.74,46.3a6.19,6.19,0,0,0-2-1.07,8.82,8.82,0,0,0-2.55-.35h-8.3v2.31h2V63.05h-2V65.4h6.67V63.05H80.49V55.94h3.64a7.11,7.11,0,0,0,2.62-.44,6.24,6.24,0,0,0,2-1.17,5.34,5.34,0,0,0,1.3-1.75,5.07,5.07,0,0,0,.46-2.13A5.7,5.7,0,0,0,90.05,48,4.88,4.88,0,0,0,88.74,46.3Zm-1.33,5.55a2.94,2.94,0,0,1-.74,1,3.12,3.12,0,0,1-1.06.61,4.59,4.59,0,0,1-1.43.22H80.49V47.22l3.36,0a4.25,4.25,0,0,1,2.94.85,3,3,0,0,1,.69,1.08,3.22,3.22,0,0,1,.19,1.27A3.6,3.6,0,0,1,87.41,51.85Z"/><path class="cls-2" d="M100.06,51.24a3,3,0,0,0-1,.16,2.93,2.93,0,0,0-.82.43,3.55,3.55,0,0,0-.69.65,6.34,6.34,0,0,0-.54.81V51.35H92.54v2.32h1.93v9.38H92.54V65.4h7V63.05H97.12V56.26A4,4,0,0,1,97.56,55a3.57,3.57,0,0,1,.71-.89,2.93,2.93,0,0,1,.87-.51,2.67,2.67,0,0,1,.92-.17v.89h2.58V51.24h-2.58Z"/><polygon class="cls-2" points="110.01 51.34 105.44 51.34 105.44 53.69 107.48 53.69 107.48 63.05 105.47 63.05 105.47 65.4 112.15 65.4 112.15 63.05 110.01 63.05 110.01 51.34"/><path class="cls-2" d="M108.09,48a1.65,1.65,0,0,0,.69.15,1.56,1.56,0,0,0,.67-.15,1.73,1.73,0,0,0,.55-.39,2.22,2.22,0,0,0,.39-.57,1.63,1.63,0,0,0,.13-.69,1.59,1.59,0,0,0-.13-.68,2.12,2.12,0,0,0-.39-.55,1.87,1.87,0,0,0-.55-.38,1.92,1.92,0,0,0-.67-.15,1.87,1.87,0,0,0-1.26.53,1.84,1.84,0,0,0-.37.55,1.57,1.57,0,0,0-.15.68,1.65,1.65,0,0,0,.15.69,1.93,1.93,0,0,0,.37.57A1.7,1.7,0,0,0,108.09,48Z"/><path class="cls-2" d="M126.86,56.66a9.24,9.24,0,0,0-.48-2.08,5.36,5.36,0,0,0-1.07-1.81,4.89,4.89,0,0,0-1.73-1.28,6.49,6.49,0,0,0-2.65-.48,6.6,6.6,0,0,0-2.87.59A5.89,5.89,0,0,0,116,53.17a6.68,6.68,0,0,0-1.27,2.34,9.37,9.37,0,0,0-.41,2.83,9.7,9.7,0,0,0,.49,3.21,6.7,6.7,0,0,0,1.37,2.33,5.71,5.71,0,0,0,2.14,1.41,7.07,7.07,0,0,0,2.62.47,9,9,0,0,0,2.91-.46,11.2,11.2,0,0,0,2.78-1.41l-1.07-1.72a9.8,9.8,0,0,1-2.14,1,7.68,7.68,0,0,1-2.14.3,4.62,4.62,0,0,1-2.5-.68,3.9,3.9,0,0,1-1.6-2,5.19,5.19,0,0,1-.24-.94,5.54,5.54,0,0,1-.1-1.07l10.12.09c0-.37,0-.69,0-1.07S126.86,57,126.86,56.66Zm-9.84.07a6.73,6.73,0,0,1,.42-1.52,3.25,3.25,0,0,1,.74-1.14,3,3,0,0,1,1.06-.72,4.52,4.52,0,0,1,1.54-.25,4.14,4.14,0,0,1,1.6.26,2.87,2.87,0,0,1,1.06.76,3.23,3.23,0,0,1,.61,1.16,6.48,6.48,0,0,1,.25,1.45Z"/><path class="cls-2" d="M137.22,63.69a4.27,4.27,0,0,1-1,.09,2.2,2.2,0,0,1-.94-.19,1.33,1.33,0,0,1-.38-.29,1.27,1.27,0,0,1-.24-.42,4.38,4.38,0,0,1-.18-1.34V53.43h3.32V51.35h-3.34l0-4.52L132,48v3.36h-2.26v2.08H132v7.72a9.2,9.2,0,0,0,.23,2.22,3.44,3.44,0,0,0,.7,1.42,2.57,2.57,0,0,0,1.16.75,5.11,5.11,0,0,0,1.6.22,6.4,6.4,0,0,0,1.69-.19,7.05,7.05,0,0,0,1.38-.54l-.59-1.7A5.78,5.78,0,0,1,137.22,63.69Z"/><path class="cls-2" d="M152.64,53a6.42,6.42,0,0,0-2.21-1.5,7.56,7.56,0,0,0-2.86-.53,7.41,7.41,0,0,0-2.83.53A6.26,6.26,0,0,0,142.52,53a7.11,7.11,0,0,0-1.47,2.35,9.06,9.06,0,0,0-.53,3.05,8.88,8.88,0,0,0,.53,3,7,7,0,0,0,1.44,2.35,6.41,6.41,0,0,0,2.21,1.53,7.77,7.77,0,0,0,5.73,0,6.63,6.63,0,0,0,2.21-1.54,7.12,7.12,0,0,0,1.44-2.37,9.23,9.23,0,0,0,0-6A6.59,6.59,0,0,0,152.64,53Zm-1,7.55a4.8,4.8,0,0,1-.94,1.66,4.09,4.09,0,0,1-1.4,1.07,4.21,4.21,0,0,1-3.43,0,4.43,4.43,0,0,1-1.4-1.07,5.25,5.25,0,0,1-.94-1.66,7,7,0,0,1,0-4.36,4.75,4.75,0,0,1,.94-1.65,4,4,0,0,1,1.4-1,4.47,4.47,0,0,1,1.69-.34,4.74,4.74,0,0,1,1.75.34,3.81,3.81,0,0,1,1.4,1,4.45,4.45,0,0,1,.93,1.62,7,7,0,0,1,.34,2.27A6.73,6.73,0,0,1,151.65,60.52Z"/><path class="cls-2" d="M27.12,0S25.65,3.41,15,5.78A14.45,14.45,0,0,0,3.58,18.17S9.35,15,13.26,19a4.71,4.71,0,0,0-1.56,1.92,33.9,33.9,0,0,0-4.15-.41.72.72,0,0,0-.43.09c-.11.08-.16.31-.28,1.33a2.11,2.11,0,0,1-.09.61v.18h.44a2.52,2.52,0,0,1,.61.11c-.07.24-.17.78-.36,2S7.13,27,7.1,27.23a6.77,6.77,0,0,0,.83,4.27L5.54,33.32C3.15,35.15.87,36.88.29,37.45s-.28,4.38.77,7.77C4.52,66.59,20.85,66.68,25.7,69.8c2.32,1.47,27.68-4.71,35-34.68.41-1.71-2.67-2.83-2.57-6.57C58.85,3.11,27.12,0,27.12,0ZM12,29.13a19.28,19.28,0,0,0,.16-4.49V22.9h0v0h.22A8,8,0,0,1,13.6,23c1.29.19,2.78.6,3.11,1.69a6.67,6.67,0,0,1-.31,3.7,2.13,2.13,0,0,1-.1.42,5.15,5.15,0,0,1-1.46,2.87l0,0h0a4.28,4.28,0,0,1-1.52.73,4.33,4.33,0,0,1-1.68.09,4,4,0,0,1-2.23-1.06C11.66,29.73,12,29.4,12,29.13ZM8.86,24.58A3.75,3.75,0,0,1,9,24c.25-1.07,1.31-1.2,2.35-1.13,0,.62,0,1.25,0,1.88a18.33,18.33,0,0,1-.16,4.12c-.24.26-1.17,1-2.32,1.9a3.21,3.21,0,0,1-.36-.83C8,28.32,8.5,26.23,8.86,24.58Zm33.2,11.7a5.07,5.07,0,0,1-3.73,2.06.4.4,0,0,0-.3.1c-.31.41-.58,1.92-.93,7.78a.93.93,0,0,1-.15.45s0,0,0,0a0,0,0,0,1,0,0,1.07,1.07,0,0,1-.33.34l-6.16,3.74c-7.37,4.28-15.8,2.74-19.08,1.86-4.28-1.14-7.32-2.94-8-4C1.29,44.88.55,38.76.93,38.07c.14-.13.39-.35.72-.62l1.22-1L5,34.83l1-.8,2.28-1.77,0,0,0,0,.14.17a5,5,0,0,0,1.94,1.25,5.34,5.34,0,0,0,.53.16,5,5,0,0,0,2.88-.18,5.15,5.15,0,0,0,2-1.32c.12-.13.23-.26.34-.4a5.47,5.47,0,0,0,.81-1.62,13.25,13.25,0,0,0,.49-2.14,9.22,9.22,0,0,1,.73-2.72,1.59,1.59,0,0,1,.28-.36,1.53,1.53,0,0,1,2.2.2,1.39,1.39,0,0,1,.27,1c-.38,2.7-.54,5.6.52,8.05a6.7,6.7,0,0,0,1.76,2.23,6.45,6.45,0,0,0,2.52,1.3,8,8,0,0,0,1.29.29,8.61,8.61,0,0,0,5.68-1.07,9,9,0,0,0,1.84-1.6,9.16,9.16,0,0,0,1.31-2,11.19,11.19,0,0,0,.94-3.21s.33-2,.37-2.71h0s0-.05,0-.07l.91.14.32-2.07-.08-.14h0L36.61,25a47.85,47.85,0,0,0-6.16-1.31c-1.48-.18-3-.3-4.47-.36H24.23q-1.28,0-2.55-.09a27.07,27.07,0,0,1-4.78-1.07l-1.28-.35c-1.06-.27-2.06-.48-3.07-.67a2,2,0,0,1,.18-.32c.79-1.3,2.64-2.38,6.8-3.56C28,14.85,32.39,19.07,33.88,21a1.88,1.88,0,0,0,.72.56,1.79,1.79,0,0,0,.91.15c4-.32,10.44,2.5,11.31,3.33C45,31.14,43.55,34.48,42.06,36.28ZM22.87,26a3.87,3.87,0,0,1,1.44-.87A3.93,3.93,0,0,1,26,24.9h0a23.61,23.61,0,0,1,4,.28c.71.09,1.42.22,2.14.38,1.66.37,3.58,1.07,3.56,3.06a8.52,8.52,0,0,1-.33,2.13,10.52,10.52,0,0,1-1.14,2.75,6.17,6.17,0,0,1-3.56,2.82h-.06a7,7,0,0,1-3.28.07,6.92,6.92,0,0,1-3-1.46,6.16,6.16,0,0,1-1.62-2.13,7.61,7.61,0,0,1-.31-1,7.73,7.73,0,0,1-.24-2.3v-.21A5.6,5.6,0,0,1,22.87,26Z"/><path class="cls-3" d="M35.51,21.72a1.79,1.79,0,0,1-.91-.15,1.88,1.88,0,0,1-.72-.56c-1.49-1.94-5.86-6.16-14.35-3.75-4.16,1.18-6,2.26-6.8,3.56l-.14.25c1,.19,2,.41,3.08.68l1.27.35a27,27,0,0,0,4.79,1.07,23.86,23.86,0,0,0,2.54.08H26c1.5.07,3,.18,4.47.37a44.7,44.7,0,0,1,6.16,1.31l1.81.47h0l.09.14-.33,2.14h-.05l-.91-.14s0,0,0,.07a25.69,25.69,0,0,1-.37,2.64A11.28,11.28,0,0,1,36,33.45a8.89,8.89,0,0,1-3.2,3.69,8.61,8.61,0,0,1-5.68,1.07,8,8,0,0,1-1.29-.29,6.45,6.45,0,0,1-2.52-1.3,6.7,6.7,0,0,1-1.76-2.23c-1.06-2.45-.9-5.35-.52-8a1.39,1.39,0,0,0-.27-1,1.41,1.41,0,0,0-2.2-.2,1.29,1.29,0,0,0-.22.3,9.17,9.17,0,0,0-.74,2.71,13,13,0,0,1-.49,2.14,5.2,5.2,0,0,1-.86,1.69c-.11.14-.22.27-.34.4a5.15,5.15,0,0,1-2,1.32,5,5,0,0,1-2.88.18,5.34,5.34,0,0,1-.53-.16,5,5,0,0,1-2-1.25c0-.06-.07-.1-.12-.15l0,0L6.08,34l-1,.8L2.87,36.49l-1.22,1c-.33.27-.58.49-.72.62-.38.69.36,6.85,2.49,10.53.64,1.1,3.66,2.89,8,4,3.28.87,11.76,2.43,19.09-1.86L36.62,47a1.11,1.11,0,0,0,.3-.31s0,0,0,0a.93.93,0,0,0,.15-.45c.35-5.86.62-7.37.93-7.78a.41.41,0,0,1,.34-.16,5.08,5.08,0,0,0,3.69-2c1.49-1.8,3-5.14,4.76-11.23C46,24.22,39.53,21.4,35.51,21.72ZM8.2,40.76l-2,2.77a2.3,2.3,0,0,1-.91.52,2.39,2.39,0,0,1-1,.08A2.37,2.37,0,0,1,2.51,43v0l-1.16-3.2A1.48,1.48,0,0,1,1.26,39a1.67,1.67,0,0,1,.36-.76,1.65,1.65,0,0,1,.7-.46,1.67,1.67,0,0,1,.83,0l3.93.58a1.55,1.55,0,0,1,.74.27,1.58,1.58,0,0,1,.51.61,1.54,1.54,0,0,1,.14.79A1.58,1.58,0,0,1,8.2,40.76ZM33,46.35a2.37,2.37,0,0,1-.9,1,26.26,26.26,0,0,1-12,3.5h0v-.26a43.45,43.45,0,0,0,11.14-3.93c.19-.14.24-.59.07-1.2a17.56,17.56,0,0,1-5.32,2h0l-.07-.25c3.43-1,4.8-2.29,5.09-2.6a1.08,1.08,0,0,0-.6-.55,1.34,1.34,0,0,0-.4-.06,1.3,1.3,0,0,0-.39.09c-7.21,3.73-12.73,4.49-15.71,4.57-.42,0-.8,0-1.11,0a11.66,11.66,0,0,1-1.35-.1l-.76-.15h0l.79-.1.34,0c.81-.12,3.17-.51,6-1.24,3.92-1,8.71-2.72,11.41-5.28a1.64,1.64,0,0,1,.57-.33,2.25,2.25,0,0,1,.36-.06,1.22,1.22,0,0,1,.33,0,2.41,2.41,0,0,1,.91.36,2.56,2.56,0,0,1,.68.71L32.66,44l.46,1A2.31,2.31,0,0,1,33,46.35Zm6.73-13.22a1.88,1.88,0,0,1,1.43.65,1.79,1.79,0,0,1,.38.72,1.81,1.81,0,0,1,0,.8,1.79,1.79,0,0,1-.3.76,1.9,1.9,0,0,1-.58.55,1.78,1.78,0,0,1-.77.27s0,0-.07,0a1.9,1.9,0,0,1-.75,0,1.81,1.81,0,0,1-.71-.27,2,2,0,0,1-.55-.53,2,2,0,0,1-.29-.7,1.82,1.82,0,0,1,0-.77,1.86,1.86,0,0,1,.78-1.14,2,2,0,0,1,.41-.21A1.86,1.86,0,0,1,39.68,33.13Z"/><path class="cls-3" d="M11.61,32.55a4.33,4.33,0,0,0,1.68-.09,4.28,4.28,0,0,0,1.52-.73h0a5.07,5.07,0,0,0,1.45-2.87,2.17,2.17,0,0,1,.11-.42,6.67,6.67,0,0,0,.31-3.7c-.33-1.07-1.83-1.5-3.11-1.69-.44-.07-.84-.11-1.18-.14h-.22v1.74A19.28,19.28,0,0,1,12,29.13c0,.27-.35.6-2.63,2.36A4,4,0,0,0,11.61,32.55Zm2-6.24a1,1,0,0,1,.39-.07c1.07.07,1.07,1.67,1.07,2.62a.69.69,0,0,1-.22.47l0,0h0a.69.69,0,0,1-.49.19H13.2a1.18,1.18,0,0,1-.27-.06.73.73,0,0,1-.22-.16.61.61,0,0,1-.15-.24.84.84,0,0,1,0-.27C12.6,27.9,12.82,26.56,13.65,26.31Z"/><path class="cls-3" d="M22.47,31.79a8.13,8.13,0,0,0,.31,1,6.11,6.11,0,0,0,1.62,2.14,7,7,0,0,0,6.24,1.42h.06a6.17,6.17,0,0,0,3.54-2.82,10.52,10.52,0,0,0,1.14-2.75,8.52,8.52,0,0,0,.33-2.13c0-2-1.9-2.69-3.57-3.06-.71-.16-1.42-.29-2.13-.38a23.61,23.61,0,0,0-4-.28h0a3.93,3.93,0,0,0-1.67.2,3.87,3.87,0,0,0-1.44.87,5.6,5.6,0,0,0-.64,3.31v.21A7.73,7.73,0,0,0,22.47,31.79Zm7.33.06a.33.33,0,0,1-.14,0,1.17,1.17,0,0,1-.55-.13A4.77,4.77,0,0,0,28,31.31a3.4,3.4,0,0,0-1.19,0,3.58,3.58,0,0,0-.54.14l-.52.18a.27.27,0,0,1-.2,0,.29.29,0,0,1-.15-.14.32.32,0,0,1,.15-.34,1,1,0,0,1,.22-.14h0l.07,0a3.73,3.73,0,0,1,1.34-.41,3.79,3.79,0,0,1,2.27.58l0,0c.16.1.45.24.47.45S29.94,31.82,29.8,31.85Zm-4.67-2.07v-.07A3.64,3.64,0,0,1,26,29a4.41,4.41,0,0,1,1.2-.57,3.9,3.9,0,0,1,1.31-.2,5.35,5.35,0,0,1,1.78.49,5.17,5.17,0,0,1,1.5,1.08,1,1,0,0,1,.27.31.45.45,0,0,1,0,.23.46.46,0,0,1-.06.23.43.43,0,0,1-.15.18.58.58,0,0,1-.21.1.86.86,0,0,1-.23-.06.69.69,0,0,1-.19-.1c-.2-.15-.4-.31-.6-.45a4.8,4.8,0,0,0-.48-.3,4.25,4.25,0,0,0-1.63-.47,4.82,4.82,0,0,0-2.39.51,3.46,3.46,0,0,1-.72.36h-.13l-.08,0a.26.26,0,0,1-.11-.07.36.36,0,0,1-.07-.1.51.51,0,0,1,0-.13A.4.4,0,0,1,25.13,29.78Z"/><path class="cls-2" d="M37.64,34.7a1.92,1.92,0,0,0,.3,1.36,1.88,1.88,0,0,0,1.15.77v0a2,2,0,0,0,.73.09s0,0,.07,0a1.78,1.78,0,0,0,.77-.27,1.9,1.9,0,0,0,.58-.55,1.79,1.79,0,0,0,.3-.76,1.81,1.81,0,0,0,0-.8,1.84,1.84,0,0,0-1-1.2,1.81,1.81,0,0,0-.79-.17,1.86,1.86,0,0,0-1,.16,1.72,1.72,0,0,0-.37.22A1.9,1.9,0,0,0,37.64,34.7Z"/><path class="cls-2" d="M7.79,38.61A1.55,1.55,0,0,0,7,38.34l-3.89-.58a1.67,1.67,0,0,0-.8,0,1.43,1.43,0,0,0-.67.44,1.47,1.47,0,0,0-.37.71,1.45,1.45,0,0,0,0,.8L2.51,43a2.42,2.42,0,0,0,.71.75,2.51,2.51,0,0,0,1,.38,2.56,2.56,0,0,0,1-.06,2.42,2.42,0,0,0,.9-.5l2.06-2.77A1.7,1.7,0,0,0,8.44,40a1.66,1.66,0,0,0-.14-.79A1.58,1.58,0,0,0,7.79,38.61Z"/><path class="cls-2" d="M32.92,46.35A2.4,2.4,0,0,0,33.1,45l-.44-1L32,42.51a2.56,2.56,0,0,0-.68-.71,2.41,2.41,0,0,0-.91-.36,1.22,1.22,0,0,0-.33,0,1.65,1.65,0,0,0-.32.06,1.59,1.59,0,0,0-.58.33c-2.7,2.57-7.51,4.26-11.44,5.28-2.82.73-5.18,1.12-6,1.24l-.3,0-.83.1h0l.81.15a10,10,0,0,0,1.3.1c.31,0,.69,0,1.11,0,3-.08,8.48-.84,15.69-4.57a1,1,0,0,1,.41-.09,1.34,1.34,0,0,1,.4.06,1.08,1.08,0,0,1,.6.55c-.29.31-1.66,1.61-5.09,2.6l.07.25h0a17.58,17.58,0,0,0,5.32-2.05h0c.17.61.12,1.06-.07,1.2a43.45,43.45,0,0,1-11.14,3.93v.26h0A26.17,26.17,0,0,0,32,47.38,2.35,2.35,0,0,0,32.92,46.35Z"/><path class="cls-2" d="M12.56,28.79a.51.51,0,0,0,0,.27.58.58,0,0,0,.14.24.89.89,0,0,0,.22.16.86.86,0,0,0,.27.05h1.18a.64.64,0,0,0,.45-.16l0,0a.69.69,0,0,0,.22-.47c0-.95,0-2.55-1.07-2.62a1,1,0,0,0-.39.07C12.88,26.61,12.6,27.92,12.56,28.79Z"/><path class="cls-2" d="M27.25,28.39a4.56,4.56,0,0,0-1.2.57,3.42,3.42,0,0,0-.89.76.09.09,0,0,0,0,.07.29.29,0,0,0-.08.19.31.31,0,0,0,.09.22.27.27,0,0,0,.17.08h.13a3.46,3.46,0,0,0,.72-.36,4.82,4.82,0,0,1,2.39-.51,4.25,4.25,0,0,1,1.63.47,3.76,3.76,0,0,1,.5.31c.21.14.4.3.6.45a.56.56,0,0,0,.17.09.86.86,0,0,0,.23.06.58.58,0,0,0,.21-.1.43.43,0,0,0,.15-.18.46.46,0,0,0,.06-.23.45.45,0,0,0,0-.23,1,1,0,0,0-.27-.31,5.17,5.17,0,0,0-1.5-1.08,5.29,5.29,0,0,0-1.76-.48A3.9,3.9,0,0,0,27.25,28.39Z"/><path class="cls-2" d="M30,31.59c0-.16-.22-.33-.38-.44l0,0a3.79,3.79,0,0,0-2.27-.58,3.73,3.73,0,0,0-1.34.41.2.2,0,0,0-.08,0h0a1,1,0,0,0-.22.14.32.32,0,0,0-.15.34.29.29,0,0,0,.15.14.27.27,0,0,0,.2,0l.52-.18a3.58,3.58,0,0,1,.54-.14,3.4,3.4,0,0,1,1.19,0,4.77,4.77,0,0,1,1.07.45,1.17,1.17,0,0,0,.55.13.33.33,0,0,0,.14,0A.25.25,0,0,0,30,31.59Z"/></g></g></svg>