<svg xmlns="http://www.w3.org/2000/svg" viewBox="0 0 44 50"><defs><style>.cls-1{fill:none;}.cls-2{fill:#2a363b;}.cls-3{fill:#f68865;}</style></defs><title>logo_smallicon</title><g id="Capa_2" data-name="Capa 2"><g id="Capa_1-2" data-name="Capa 1"><path class="cls-1" d="M2.54,34.72C1,32.11.43,27.74.71,27.2h0c-.28.49.27,4.89,1.81,7.52a5.49,5.49,0,0,0,2.16,1.57A5.39,5.39,0,0,1,2.54,34.72Z"/><path class="cls-1" d="M12.77,20.13a6.29,6.29,0,0,1,.53-1.94.9.9,0,0,1,.46-.42.73.73,0,0,1,.29-.07.88.88,0,0,0-.32.07,1,1,0,0,0-.46.43,6.21,6.21,0,0,0-.53,1.94,9,9,0,0,1-.35,1.52,0,0,0,0,0,0,0,0,0,0,0,1,0,0A9,9,0,0,0,12.77,20.13Z"/><path class="cls-1" d="M8.28,37.61h0c2.37.62,8.47,1.74,13.81-1.33l1.44-.86-1.44.86C16.75,39.35,10.65,38.23,8.28,37.61Z"/><path class="cls-1" d="M1.88,30.72,1,28.39a1.06,1.06,0,0,1,0-.56,1.1,1.1,0,0,1,.26-.5A1.19,1.19,0,0,1,1.73,27h0a1.14,1.14,0,0,0-.47.31,1,1,0,0,0-.25.51,1.07,1.07,0,0,0,0,.56l.84,2.33a1.66,1.66,0,0,0,1.65.8A1.6,1.6,0,0,1,1.88,30.72Z"/><path class="cls-1" d="M9.54,34.37c-.74.14-1.21.2-1.23.2h0S8.8,34.51,9.54,34.37Z"/><path class="cls-1" d="M21.42,31.56C15,34.84,10.38,34.9,8.85,34.8c1.5.1,6.11.06,12.6-3.24a.73.73,0,0,1,.29-.07h0A.74.74,0,0,0,21.42,31.56Z"/><path class="cls-1" d="M26.1,23.93a7.8,7.8,0,0,0,.69-2.31s.23-1.42.26-1.92h0c0,.49-.27,1.94-.27,1.94a8.08,8.08,0,0,1-.68,2.31,6.42,6.42,0,0,1-2.34,2.64,6.18,6.18,0,0,1-2,.73,6.18,6.18,0,0,0,2-.74A6.29,6.29,0,0,0,26.1,23.93Z"/><polygon class="cls-1" points="4.96 30.45 5.95 29.12 5.96 29.11 5.95 29.12 4.96 30.45"/><path class="cls-1" d="M28,18.26l-.06-.11h0c-.43-.1-.88-.21-1.31-.33a33.66,33.66,0,0,0-4.48-1c-1.06-.12-2.15-.22-3.23-.26H17.61c-.61,0-1.24,0-1.84-.05a21.3,21.3,0,0,1-3.46-.74l-.79-.22.78.24a21.06,21.06,0,0,0,3.44.74c.6.06,1.23.06,1.84.06h1.26c1.08,0,2.17.13,3.23.26a32.58,32.58,0,0,1,4.47.94l1.31.33h0l.07.1-.25,1.52h.05Z"/><path class="cls-1" d="M18.84,34h0a13,13,0,0,0,3.86-1.45v0A13.09,13.09,0,0,1,18.84,34Z"/><path class="cls-1" d="M8.87,17.61c0-.46,0-.87,0-1.25H9l.85.09a3.11,3.11,0,0,1,2.12.94,3,3,0,0,0-2.13-.95c-.31-.05-.6-.07-.85-.1H8.84c0,.39,0,.8,0,1.25a12.53,12.53,0,0,1,0,2.45A13.16,13.16,0,0,0,8.87,17.61Z"/><path class="cls-1" d="M10.18,18.76c.76,0,.82,1.2.79,1.87a.52.52,0,0,1-.16.33.5.5,0,0,1-.35.12H9.62a.45.45,0,0,1-.2,0,.61.61,0,0,1-.16-.12.42.42,0,0,1-.09-.14h0a.59.59,0,0,0,.1.17.91.91,0,0,0,.16.11.48.48,0,0,0,.2,0h.84a.49.49,0,0,0,.35-.13.5.5,0,0,0,.16-.34c0-.67,0-1.82-.79-1.87h0c-.63,0-.89.65-1,1.3C9.31,19.42,9.59,18.73,10.18,18.76Z"/><path class="cls-1" d="M6.86,22.49h0a2.78,2.78,0,0,0,1.58.77,3,3,0,0,0,.52,0,2.27,2.27,0,0,1-.52,0A2.86,2.86,0,0,1,6.86,22.49Z"/><path class="cls-1" d="M24.56,15a1.38,1.38,0,0,0,.52.41,1.46,1.46,0,0,0,.65.1,1.28,1.28,0,0,1-.64-.11,1.45,1.45,0,0,1-.52-.4A8.84,8.84,0,0,0,23,13.51,8.39,8.39,0,0,1,24.56,15Z"/><path class="cls-1" d="M1.53,26.52l1.15-.88Z"/><path class="cls-1" d="M6.42,22c.58-.43,1.15-.88,1.68-1.36a13.09,13.09,0,0,0,.11-3,10,10,0,0,1,0-1.34c-.74-.05-1.51,0-1.69.81,0,.13-.07.27-.1.42a8.1,8.1,0,0,0-.26,3.83A2.53,2.53,0,0,0,6.42,22Z"/><path class="cls-1" d="M25.88,20.42h0v0Z"/><path class="cls-1" d="M16.21,22.27a5.26,5.26,0,0,0,.32,1.16A4.34,4.34,0,0,0,17.69,25a4.37,4.37,0,0,1-1.16-1.57A5.18,5.18,0,0,1,16.21,22.27Z"/><path class="cls-1" d="M33.92,17.91c-2.17,7.24-3.67,9-5.7,9.39,2-.36,3.54-2.15,5.71-9.39a18.11,18.11,0,0,0-7.09-2.37A18,18,0,0,1,33.92,17.91Z"/><path class="cls-1" d="M29,23.7a1.4,1.4,0,0,0-1.47.35h0A1.4,1.4,0,0,1,29,23.7a1.39,1.39,0,0,1,.62.47,1.33,1.33,0,0,1,.26.74,1,1,0,0,1,0,.29,1,1,0,0,0,0-.29,1.33,1.33,0,0,0-.26-.74A1.39,1.39,0,0,0,29,23.7Z"/><path class="cls-1" d="M23.09,21.24a3.83,3.83,0,0,0-2.39-1.12,3.06,3.06,0,0,0-1.8.56,2.26,2.26,0,0,0-.65.54l0,.06h0a.3.3,0,0,0,0,.1.3.3,0,0,1,0-.1l0-.05a2.56,2.56,0,0,1,.65-.54,3.37,3.37,0,0,1,.85-.42,3.08,3.08,0,0,1,.95-.14,3.75,3.75,0,0,1,2.36,1.12.67.67,0,0,1,.19.22.45.45,0,0,1,0,.16.33.33,0,0,1,0,.17.43.43,0,0,1-.11.12A.26.26,0,0,1,23,22h0a.41.41,0,0,0,.15-.07.37.37,0,0,0,.12-.13.42.42,0,0,0,0-.16.51.51,0,0,0,0-.17A.79.79,0,0,0,23.09,21.24Z"/><path class="cls-1" d="M18.92,21.42l.09,0a3.51,3.51,0,0,1,.82-.3,3.66,3.66,0,0,0-.84.3Z"/><path class="cls-1" d="M21.74,22.54a.21.21,0,0,1-.22.21.9.9,0,0,1-.4-.09,3.62,3.62,0,0,0-.81-.33,2.37,2.37,0,0,0-.84,0l-.39.1-.38.13a.23.23,0,0,1-.14,0,.19.19,0,0,1-.1-.1h0a.21.21,0,0,0,.25.11l.37-.12a2.6,2.6,0,0,1,.4-.1,2.37,2.37,0,0,1,.84,0,4.71,4.71,0,0,1,.81.32.66.66,0,0,0,.39.09c.12,0,.26,0,.24-.19a.31.31,0,0,0-.12-.18C21.69,22.44,21.74,22.49,21.74,22.54Z"/><path class="cls-1" d="M27.2,24.75h0a1,1,0,0,1,.06-.18A1,1,0,0,0,27.2,24.75Z"/><path class="cls-1" d="M23.21,30.37a1.67,1.67,0,0,0-.49-.5,1.74,1.74,0,0,0-.65-.26h0a1.63,1.63,0,0,1,.64.26,1.67,1.67,0,0,1,.49.5L24,32.14a1.65,1.65,0,0,1-.78,1.7,19.19,19.19,0,0,1-8.62,2.5h0a19.29,19.29,0,0,0,8.65-2.5,1.65,1.65,0,0,0,.78-1.7Z"/><path class="cls-2" d="M42.12,20.41C42.62,2.22,19.67,0,19.67,0S18.6,2.44,10.92,4.13A10.36,10.36,0,0,0,2.63,13s4.18-2.27,7,.61A3.38,3.38,0,0,0,8.49,15a27.2,27.2,0,0,0-3-.29.54.54,0,0,0-.31.06c-.08.06-.12.23-.2.95a3.35,3.35,0,0,1-.07.44l0,.13H5l.23,0a2,2,0,0,1,.42.07,11.62,11.62,0,0,0-.27,1.43c-.11.74-.23,1.55-.24,1.71a4.71,4.71,0,0,0,.6,3.05L4,23.78c-1.74,1.31-3.37,2.54-3.79,3s-.19,3.15.57,5.57C3.32,47.56,15.15,47.63,18.64,49.85c1.68,1.07,20-3.35,25.33-24.75C44.28,23.87,42,23.08,42.12,20.41ZM8.61,21a.66.66,0,0,0,.12-.16.25.25,0,0,0,0-.07c0-.25.05-.51.08-.77a12.53,12.53,0,0,0,0-2.45c0-.45,0-.86,0-1.25H9c.25,0,.54.05.85.1a3,3,0,0,1,2.13.95.84.84,0,0,1,.13.27,4.78,4.78,0,0,1-.22,2.65c0,.1-.06.2-.08.3a3.68,3.68,0,0,1-1.05,2.05,3.2,3.2,0,0,1-1.1.53,3.17,3.17,0,0,1-.69.08,3,3,0,0,1-.52,0,2.78,2.78,0,0,1-1.58-.77h0A14.72,14.72,0,0,0,8.61,21ZM6.42,17.52c0-.15.07-.29.1-.42.18-.8,1-.86,1.69-.81a10,10,0,0,0,0,1.34,13.09,13.09,0,0,1-.11,3c-.53.48-1.1.93-1.68,1.36a2.53,2.53,0,0,1-.26-.64A8.1,8.1,0,0,1,6.42,17.52Zm21.8,9.78a2.7,2.7,0,0,1-.41.06c-.31,0-.55.05-.86,4.68q0,.47-.06,1a.75.75,0,0,1-.1.33.85.85,0,0,1-.25.25l-3,1.81-1.44.86c-5.34,3.07-11.44,1.95-13.81,1.33h0a19.41,19.41,0,0,1-3.59-1.32,5.49,5.49,0,0,1-2.16-1.57C1,32.09.43,27.69.71,27.2h0c.14-.13.43-.37.81-.67l1.15-.88L4.44,24.3l1.69-1.25.1.12a3.68,3.68,0,0,0,3.8.93,3.68,3.68,0,0,0,1.47-.94,3.75,3.75,0,0,0,.88-1.47,0,0,0,0,1,0,0,9,9,0,0,0,.35-1.52,6.21,6.21,0,0,1,.53-1.94,1,1,0,0,1,.46-.43.88.88,0,0,1,.32-.07,1,1,0,0,1,.34,0,1,1,0,0,1,.85,1.15,10.31,10.31,0,0,0,.37,5.74,4.71,4.71,0,0,0,1.28,1.59,4.81,4.81,0,0,0,1.83.93,5.93,5.93,0,0,0,.93.2,6.43,6.43,0,0,0,2.1,0,6.18,6.18,0,0,0,2-.73,6.42,6.42,0,0,0,2.34-2.64,8.08,8.08,0,0,0,.68-2.31s.24-1.45.27-1.94h0v0l.65.1L28,18.26l-.07-.1h0l-1.31-.33a32.58,32.58,0,0,0-4.47-.94c-1.06-.13-2.15-.22-3.23-.26H17.58c-.61,0-1.24,0-1.84-.06a21.06,21.06,0,0,1-3.44-.74l-.78-.24-.14,0c-.74-.19-1.49-.35-2.22-.48.51-1,1.82-1.83,5-2.72a13,13,0,0,1,3.16-.51h.91c.24,0,.47,0,.7.06l.15,0,.13,0A8.58,8.58,0,0,1,23,13.51,8.84,8.84,0,0,1,24.57,15a1.45,1.45,0,0,0,.52.4,1.28,1.28,0,0,0,.64.11h0a8.12,8.12,0,0,1,1.1,0,18.11,18.11,0,0,1,7.09,2.37C31.76,25.15,30.25,26.94,28.22,27.3Zm-2.34-6.88v.08A6.7,6.7,0,0,1,25.66,22a7.73,7.73,0,0,1-.84,2,4.46,4.46,0,0,1-2.58,2,5.08,5.08,0,0,1-2.39.06,5.15,5.15,0,0,1-2.16-1,4.34,4.34,0,0,1-1.16-1.56,5.26,5.26,0,0,1-.32-1.16,5.43,5.43,0,0,1-.07-1.21v-.15a4,4,0,0,1,.47-2.36,2.85,2.85,0,0,1,2.24-.79,17.76,17.76,0,0,1,2.92.19c.5.07,1,.17,1.53.28a3.5,3.5,0,0,1,2.35,1.28l0,0a1.61,1.61,0,0,1,.15.36,1.46,1.46,0,0,1,0,.31,1,1,0,0,1,0,.18h0Z"/><path class="cls-3" d="M33.92,17.91a18,18,0,0,0-7.08-2.37,8.12,8.12,0,0,0-1.1,0h0a1.46,1.46,0,0,1-.65-.1,1.38,1.38,0,0,1-.52-.41A8.39,8.39,0,0,0,23,13.51,8.58,8.58,0,0,0,19.23,12l-.13,0-.15,0c-.23,0-.46-.05-.7-.06h-.91a13,13,0,0,0-3.16.51c-3.2.89-4.51,1.72-5,2.72.73.13,1.48.29,2.22.48l.14,0,.79.22a21.3,21.3,0,0,0,3.46.74c.6.05,1.23.05,1.84.05h1.26c1.08,0,2.17.14,3.23.26a33.66,33.66,0,0,1,4.48,1c.43.12.88.23,1.31.33h0l.06.11-.24,1.53H27.7l-.65-.1v0c0,.5-.26,1.9-.26,1.92a7.8,7.8,0,0,1-.69,2.31,6.29,6.29,0,0,1-2.34,2.64,6.18,6.18,0,0,1-2,.74,6.43,6.43,0,0,1-2.1,0,5.93,5.93,0,0,1-.93-.2,4.81,4.81,0,0,1-1.83-.93,4.71,4.71,0,0,1-1.28-1.59,10.31,10.31,0,0,1-.37-5.74,1,1,0,0,0-.85-1.15,1,1,0,0,0-.34,0,.73.73,0,0,0-.29.07.9.9,0,0,0-.46.42,6.29,6.29,0,0,0-.53,1.94,9,9,0,0,1-.38,1.53,0,0,0,0,0,0,0,3.75,3.75,0,0,1-.88,1.47A3.68,3.68,0,0,1,10,24.1a3.68,3.68,0,0,1-3.8-.93l-.1-.12L4.44,24.3,2.68,25.64l-1.15.88c-.38.3-.67.54-.81.67h0c-.28.54.28,4.91,1.83,7.52a5.39,5.39,0,0,0,2.14,1.57,19.41,19.41,0,0,0,3.59,1.32h0c2.37.62,8.47,1.74,13.81-1.33l1.44-.86,3-1.81a.85.85,0,0,0,.25-.25.75.75,0,0,0,.1-.33q0-.53.06-1c.31-4.63.55-4.65.86-4.68a2.7,2.7,0,0,0,.41-.06C30.25,26.94,31.75,25.15,33.92,17.91ZM6,29.11H6L5,30.45l-.49.66a1.24,1.24,0,0,1-1,.42,1.66,1.66,0,0,1-1.65-.8L1,28.4a1.07,1.07,0,0,1,0-.56,1,1,0,0,1,.25-.51A1.14,1.14,0,0,1,1.71,27h0a1.22,1.22,0,0,1,.57,0l2.84.42a1.08,1.08,0,0,1,.54.2A1.07,1.07,0,0,1,6,28a1.1,1.1,0,0,1,.11.56A1.25,1.25,0,0,1,6,29.11Zm17.31,4.74a19.29,19.29,0,0,1-8.65,2.5h0v-.18a31.62,31.62,0,0,0,8.06-2.81c.13-.06.17-.41.05-.84A13,13,0,0,1,18.84,34h0l0-.18a8.13,8.13,0,0,0,3.68-1.86.81.81,0,0,0-.17-.24,1,1,0,0,0-.26-.16.63.63,0,0,0-.27,0,.73.73,0,0,0-.29.07C15,34.86,10.35,34.9,8.85,34.8c-.35,0-.54,0-.55,0l-.58-.1.57-.08h0s.49-.06,1.23-.2c2.61-.46,8.73-1.81,11.57-4.49a1.07,1.07,0,0,1,.9-.27h.06a1.74,1.74,0,0,1,.65.26,1.67,1.67,0,0,1,.49.5l.84,1.78A1.65,1.65,0,0,1,23.27,33.85Zm6.59-8.65a1.28,1.28,0,0,1-.17.46,1.37,1.37,0,0,1-.58.51,1.41,1.41,0,0,1-.78.11,1.43,1.43,0,0,1-.5-.18,1.33,1.33,0,0,1-.39-.36,1.35,1.35,0,0,1-.22-.47,1.3,1.3,0,0,1,0-.52h0a1,1,0,0,1,.06-.18,1.17,1.17,0,0,1,.06-.2.94.94,0,0,1,.09-.12,1.37,1.37,0,0,1,.13-.2h0A1.4,1.4,0,0,1,29,23.7a1.39,1.39,0,0,1,.62.47,1.33,1.33,0,0,1,.26.74A1,1,0,0,1,29.86,25.2Z"/><path class="cls-3" d="M6.86,22.49a2.86,2.86,0,0,0,1.58.76,2.27,2.27,0,0,0,.52,0,3.17,3.17,0,0,0,.69-.08,3.2,3.2,0,0,0,1.1-.53,3.68,3.68,0,0,0,1.05-2.05c0-.1,0-.2.08-.3a4.78,4.78,0,0,0,.22-2.65.84.84,0,0,0-.13-.27,3.11,3.11,0,0,0-2.12-.94L9,16.36H8.85c0,.38,0,.79,0,1.25a13.16,13.16,0,0,1,0,2.43c0,.26,0,.52-.08.77a.25.25,0,0,1,0,.07.66.66,0,0,1-.12.16,14.72,14.72,0,0,1-1.76,1.44Zm2.33-2.43c.1-.65.36-1.33,1-1.3h0c.76,0,.82,1.2.79,1.87a.5.5,0,0,1-.16.34.49.49,0,0,1-.35.13H9.63a.48.48,0,0,1-.2,0A.91.91,0,0,1,9.27,21a.59.59,0,0,1-.1-.17h0s0,0,0,0a.64.64,0,0,1,0-.2C9.14,20.41,9.16,20.24,9.19,20.06Z"/><path class="cls-3" d="M25.86,20.23a1.46,1.46,0,0,0,0-.31,1.61,1.61,0,0,0-.15-.36l0,0a3.5,3.5,0,0,0-2.35-1.28c-.52-.11-1-.21-1.53-.28a17.76,17.76,0,0,0-2.92-.19,2.85,2.85,0,0,0-2.24.79,4,4,0,0,0-.47,2.36v.15a5.43,5.43,0,0,0,.07,1.21,5.18,5.18,0,0,0,.32,1.15A4.37,4.37,0,0,0,17.69,25a5.15,5.15,0,0,0,2.16,1A5.08,5.08,0,0,0,22.24,26a4.46,4.46,0,0,0,2.58-2,7.73,7.73,0,0,0,.84-2,6.7,6.7,0,0,0,.22-1.48v-.09h0A1,1,0,0,0,25.86,20.23Zm-4.34,2.53a.66.66,0,0,1-.39-.09,4.71,4.71,0,0,0-.81-.32,2.37,2.37,0,0,0-.84,0,2.6,2.6,0,0,0-.4.1l-.37.12a.21.21,0,0,1-.25-.11h0a.23.23,0,0,1,.11-.25l.16-.1a2.53,2.53,0,0,1,1.05-.29,2.73,2.73,0,0,1,1.64.42,2.44,2.44,0,0,1,.23.16.31.31,0,0,1,.12.18C21.78,22.73,21.64,22.75,21.52,22.76Zm1.75-1a.37.37,0,0,1-.12.13A.41.41,0,0,1,23,22h0a.43.43,0,0,1-.28-.11l-.42-.31A3.08,3.08,0,0,0,20.71,21a3.69,3.69,0,0,0-.88.07,3.51,3.51,0,0,0-.82.3l-.09,0a2.42,2.42,0,0,1-.45.24h-.06l-.09,0-.08-.05a.22.22,0,0,1,0-.08.14.14,0,0,1,0-.09s0,0,0,0a.3.3,0,0,1,0-.1h0l0-.06a2.26,2.26,0,0,1,.65-.54,3.06,3.06,0,0,1,1.8-.56,3.83,3.83,0,0,1,2.39,1.12.79.79,0,0,1,.19.22.51.51,0,0,1,0,.17A.42.42,0,0,1,23.27,21.79Z"/><path class="cls-2" d="M29.63,24.17A1.39,1.39,0,0,0,29,23.7a1.4,1.4,0,0,0-1.47.35h0a1.37,1.37,0,0,0-.13.2.94.94,0,0,0-.09.12,1.17,1.17,0,0,0-.06.2,1,1,0,0,0-.06.18,1.3,1.3,0,0,0,0,.52,1.35,1.35,0,0,0,.22.47,1.33,1.33,0,0,0,.39.36,1.43,1.43,0,0,0,.5.18,1.41,1.41,0,0,0,.78-.11,1.37,1.37,0,0,0,.58-.51,1.28,1.28,0,0,0,.17-.46,1,1,0,0,0,0-.29A1.33,1.33,0,0,0,29.63,24.17Z"/><path class="cls-2" d="M5.68,27.59a1.08,1.08,0,0,0-.54-.2L2.3,27a1.22,1.22,0,0,0-.57,0h0a1.19,1.19,0,0,0-.47.32,1.1,1.1,0,0,0-.26.5,1.06,1.06,0,0,0,0,.56l.85,2.33a1.6,1.6,0,0,0,1.63.81,1.24,1.24,0,0,0,1-.42L5,30.45l1-1.33H6a1.25,1.25,0,0,0,.19-.53A1.1,1.1,0,0,0,6,28,1.07,1.07,0,0,0,5.68,27.59Z"/><path class="cls-2" d="M24,32.14l-.84-1.77a1.67,1.67,0,0,0-.49-.5,1.63,1.63,0,0,0-.64-.26h0a1.07,1.07,0,0,0-.9.27c-2.84,2.68-9,4-11.57,4.49-.74.14-1.21.2-1.23.2h0l-.57.08.58.1s.2,0,.55,0c1.53.1,6.14,0,12.57-3.24a.74.74,0,0,1,.29-.08h0a.63.63,0,0,1,.27,0,1,1,0,0,1,.26.16.81.81,0,0,1,.17.24,8.13,8.13,0,0,1-3.68,1.86l0,.18h0a13.09,13.09,0,0,0,3.86-1.46v0c.12.43.08.78-.05.84a31.62,31.62,0,0,1-8.06,2.81v.18h0a19.19,19.19,0,0,0,8.62-2.5A1.65,1.65,0,0,0,24,32.14Z"/><path class="cls-2" d="M9.17,20.78a.42.42,0,0,0,.09.14.61.61,0,0,0,.16.12.45.45,0,0,0,.2,0h.84a.5.5,0,0,0,.35-.12.52.52,0,0,0,.16-.33c0-.67,0-1.82-.79-1.87-.59,0-.87.66-1,1.3,0,.18,0,.35-.06.5a.64.64,0,0,0,0,.2S9.17,20.77,9.17,20.78Z"/><path class="cls-2" d="M23.25,21.8a.33.33,0,0,0,0-.17.45.45,0,0,0,0-.16.67.67,0,0,0-.19-.22,3.75,3.75,0,0,0-2.36-1.12,3.08,3.08,0,0,0-.95.14,3.37,3.37,0,0,0-.85.42,2.56,2.56,0,0,0-.65.54l0,.05a.3.3,0,0,0,0,.1s0,0,0,0a.14.14,0,0,0,0,.09.22.22,0,0,0,0,.08l.08.05.09,0h.06a2.42,2.42,0,0,0,.45-.24l.07,0A3.38,3.38,0,0,1,20.71,21a3.08,3.08,0,0,1,1.57.56l.42.31A.43.43,0,0,0,23,22h0a.26.26,0,0,0,.15-.07A.43.43,0,0,0,23.25,21.8Z"/><path class="cls-2" d="M18.7,22.56l.38-.13.39-.1a2.37,2.37,0,0,1,.84,0,3.62,3.62,0,0,1,.81.33.9.9,0,0,0,.4.09.21.21,0,0,0,.22-.21c0-.05,0-.1-.1-.15a2.44,2.44,0,0,0-.23-.16,2.73,2.73,0,0,0-1.64-.42,2.53,2.53,0,0,0-1.05.29l-.16.1a.23.23,0,0,0-.11.25h0a.19.19,0,0,0,.1.1A.23.23,0,0,0,18.7,22.56Z"/></g></g></svg>