<svg xmlns="http://www.w3.org/2000/svg" viewBox="0 0 44 50"><defs><style>.cls-1{fill:none;}.cls-2{fill:#f5f5f5;}.cls-3{fill:#f68865;}</style></defs><title>logo_small_inverticon</title><g id="Capa_2" data-name="Capa 2"><g id="Capa_1-2" data-name="Capa 1"><path class="cls-1" d="M24.56,15a1.38,1.38,0,0,0,.52.41,1.46,1.46,0,0,0,.65.1,1.28,1.28,0,0,1-.64-.11,1.45,1.45,0,0,1-.52-.4A8.3,8.3,0,0,0,23,13.51,7.9,7.9,0,0,1,24.56,15Z"/><path class="cls-1" d="M28,18.26l-.06-.11h0c-.43-.1-.88-.21-1.31-.33a33.66,33.66,0,0,0-4.48-1c-1.06-.12-2.15-.22-3.23-.26H17.61c-.61,0-1.24,0-1.84-.05a21.3,21.3,0,0,1-3.46-.74l-.79-.22.78.24a21.06,21.06,0,0,0,3.44.74c.6.06,1.23.06,1.84.06h1.26c1.08,0,2.17.13,3.23.26a32.58,32.58,0,0,1,4.47.94l1.31.33h0l.07.1-.25,1.52h.05Z"/><path class="cls-1" d="M26.1,23.93a7.8,7.8,0,0,0,.69-2.31s.23-1.42.26-1.92h0c0,.49-.27,1.94-.27,1.94a8.08,8.08,0,0,1-.68,2.31,6.42,6.42,0,0,1-2.34,2.64,6.18,6.18,0,0,1-2,.73,6.18,6.18,0,0,0,2-.74A6.29,6.29,0,0,0,26.1,23.93Z"/><path class="cls-1" d="M12.77,20.13a6.29,6.29,0,0,1,.53-1.94.9.9,0,0,1,.46-.42.73.73,0,0,1,.29-.07.88.88,0,0,0-.32.07,1,1,0,0,0-.46.43,6.21,6.21,0,0,0-.53,1.94,9,9,0,0,1-.35,1.52h0A9,9,0,0,0,12.77,20.13Z"/><path class="cls-1" d="M2.54,34.72C1,32.11.43,27.74.71,27.2h0c-.28.49.27,4.89,1.81,7.52a5.42,5.42,0,0,0,2.15,1.56A5.32,5.32,0,0,1,2.54,34.72Z"/><path class="cls-1" d="M11.75,38.22c-.82-.08-1.57-.2-2.2-.32C10.18,38,10.93,38.14,11.75,38.22Z"/><path class="cls-1" d="M6.86,22.49h0a2.78,2.78,0,0,0,1.58.77,3,3,0,0,0,.52,0,2.27,2.27,0,0,1-.52,0A2.86,2.86,0,0,1,6.86,22.49Z"/><path class="cls-1" d="M8.87,17.61c0-.46,0-.87,0-1.25H9l.85.09a3.11,3.11,0,0,1,2.12.94,3,3,0,0,0-2.13-.95c-.31-.05-.6-.07-.85-.1H8.84c0,.39,0,.8,0,1.25a12.64,12.64,0,0,1,0,2.46A13.26,13.26,0,0,0,8.87,17.61Z"/><path class="cls-1" d="M6.42,22c.58-.43,1.15-.88,1.68-1.36a13.09,13.09,0,0,0,.11-3,10,10,0,0,1,0-1.34c-.74-.05-1.51,0-1.69.81,0,.13-.07.27-.1.42a8.1,8.1,0,0,0-.26,3.83A2.53,2.53,0,0,0,6.42,22Z"/><path class="cls-1" d="M9.27,21a.91.91,0,0,0,.16.11.48.48,0,0,0,.2,0h.84a.49.49,0,0,0,.35-.13.5.5,0,0,0,.16-.34c0-.67,0-1.82-.79-1.87h0c-.82-.05-1,1.11-1,1.82a.64.64,0,0,0,0,.2A.59.59,0,0,0,9.27,21Z"/><path class="cls-1" d="M23.54,35.41l-1.45.87Z"/><path class="cls-1" d="M1.53,26.52l1.16-.88Z"/><path class="cls-1" d="M16.21,22.27a5.26,5.26,0,0,0,.32,1.16A4.34,4.34,0,0,0,17.69,25a4.37,4.37,0,0,1-1.16-1.57A5.18,5.18,0,0,1,16.21,22.27Z"/><path class="cls-1" d="M21.41,22.24a2.77,2.77,0,0,0-1.64-.41,2.58,2.58,0,0,0-1.05.29l-.15.09c-.08.07-.15.15-.11.25a.21.21,0,0,0,.25.11l.37-.12a2.6,2.6,0,0,1,.4-.1,2.37,2.37,0,0,1,.84,0,4.71,4.71,0,0,1,.81.32.66.66,0,0,0,.39.09c.12,0,.26,0,.24-.19S21.53,22.31,21.41,22.24Z"/><path class="cls-1" d="M23.09,21.24a3.83,3.83,0,0,0-2.39-1.12,3.06,3.06,0,0,0-1.8.56,2.26,2.26,0,0,0-.65.54l0,.06h0a.26.26,0,0,0-.05.12.29.29,0,0,0,0,.09.18.18,0,0,0,.05.07.14.14,0,0,0,.08.05.15.15,0,0,0,.09,0h.06a3.65,3.65,0,0,0,.53-.25A3.41,3.41,0,0,1,20.73,21a3.12,3.12,0,0,1,1.56.55c.14.1.28.22.43.32A.39.39,0,0,0,23,22a.41.41,0,0,0,.15-.07.37.37,0,0,0,.12-.13.42.42,0,0,0,0-.16.51.51,0,0,0,0-.17A.79.79,0,0,0,23.09,21.24Z"/><path class="cls-1" d="M25.88,20.42h0v0Z"/><path class="cls-1" d="M8.27,37.61h0l.67.16-.67-.16Z"/><path class="cls-1" d="M5.66,27.58a1.13,1.13,0,0,0-.54-.19L2.28,27a1.23,1.23,0,0,0-.57.05,1.14,1.14,0,0,0-.47.31,1,1,0,0,0-.25.51,1.07,1.07,0,0,0,0,.56l.84,2.33a1.74,1.74,0,0,0,2.61.38l1.48-2A1.12,1.12,0,0,0,6,28,1.24,1.24,0,0,0,5.66,27.58Z"/><path class="cls-1" d="M29,23.7a1.4,1.4,0,0,0-1.47.35,1.32,1.32,0,0,0-.34.7,1.3,1.3,0,0,0,0,.52,1.35,1.35,0,0,0,.22.47,1.33,1.33,0,0,0,.39.36,1.43,1.43,0,0,0,.5.18,1.41,1.41,0,0,0,.78-.11,1.37,1.37,0,0,0,.58-.51,1.34,1.34,0,0,0,.2-.75,1.33,1.33,0,0,0-.26-.74A1.39,1.39,0,0,0,29,23.7Z"/><path class="cls-1" d="M23.21,30.37a1.67,1.67,0,0,0-.49-.5,1.74,1.74,0,0,0-.65-.26h0a1.11,1.11,0,0,0-.48,0,1.1,1.1,0,0,0-.42.24C17.46,33.32,8.4,34.57,8.31,34.57l-.56.08.58.1s5.18.85,13.12-3.19a.73.73,0,0,1,.29-.07.63.63,0,0,1,.3,0,.76.76,0,0,1,.26.15.81.81,0,0,1,.17.24,8,8,0,0,1-3.68,1.86l.05.18a12.91,12.91,0,0,0,3.89-1.47c.12.45.08.8-.05.87a31.6,31.6,0,0,1-8.06,2.8v.19a19.29,19.29,0,0,0,8.65-2.5,1.67,1.67,0,0,0,.78-1.7Z"/><path class="cls-1" d="M33.92,17.91c-2.17,7.24-3.67,9-5.7,9.39,2-.36,3.54-2.15,5.71-9.39a18,18,0,0,0-7-2.37A17.89,17.89,0,0,1,33.92,17.91Z"/><path class="cls-2" d="M42.12,20.41C42.62,2.22,19.66,0,19.66,0S18.6,2.44,10.92,4.13A10.36,10.36,0,0,0,2.63,13s4.18-2.27,7,.61A3.38,3.38,0,0,0,8.49,15a27.44,27.44,0,0,0-3-.29.54.54,0,0,0-.31.06c-.08.06-.12.23-.2.95a3.35,3.35,0,0,1-.07.44l0,.13H5l.23,0a2,2,0,0,1,.42.07,11.62,11.62,0,0,0-.27,1.43c-.11.74-.23,1.55-.24,1.71a4.71,4.71,0,0,0,.6,3.05L4,23.78c-1.74,1.31-3.37,2.54-3.79,3s-.19,3.15.57,5.57C3.32,47.56,15.15,47.63,18.64,49.85c1.68,1.07,20-3.35,25.33-24.75C44.28,23.87,42,23.08,42.12,20.41ZM8.61,21a.66.66,0,0,0,.12-.16.25.25,0,0,0,0-.07c0-.25.05-.51.08-.76a12.64,12.64,0,0,0,0-2.46c0-.45,0-.86,0-1.25H9c.25,0,.54.05.85.1a3,3,0,0,1,2.13.95.84.84,0,0,1,.13.27,4.78,4.78,0,0,1-.22,2.65c0,.1-.06.2-.08.3a3.68,3.68,0,0,1-1.05,2.05,3.2,3.2,0,0,1-1.1.53,3.17,3.17,0,0,1-.69.08,3,3,0,0,1-.52,0,2.78,2.78,0,0,1-1.58-.77h0A14.72,14.72,0,0,0,8.61,21ZM6.42,17.52c0-.15.07-.29.1-.42.18-.8,1-.86,1.69-.81a10,10,0,0,0,0,1.34,13.09,13.09,0,0,1-.11,3c-.53.48-1.1.93-1.68,1.36a2.53,2.53,0,0,1-.26-.64A8.1,8.1,0,0,1,6.42,17.52Zm21.8,9.78a2.7,2.7,0,0,1-.41.06c-.31,0-.55.05-.86,4.68q0,.47-.06,1a.75.75,0,0,1-.1.33.85.85,0,0,1-.25.25l-3,1.8-1.45.87h0c-.34.19-.67.37-1,.53a14.76,14.76,0,0,1-2.88,1c-.51.13-1,.23-1.54.31s-.88.11-1.32.14-.75,0-1.11,0h-.94c-.54,0-1,0-1.54-.1-.82-.08-1.57-.2-2.2-.32L9,37.77l-.67-.16h0a19.06,19.06,0,0,1-3.6-1.33,5.42,5.42,0,0,1-2.15-1.56C1,32.09.43,27.69.71,27.2h0c.14-.13.43-.37.81-.67l1.16-.88L4.44,24.3l1.69-1.25.1.12a3.68,3.68,0,0,0,3.8.93,3.74,3.74,0,0,0,2.35-2.43h0a9,9,0,0,0,.35-1.52,6.21,6.21,0,0,1,.53-1.94,1,1,0,0,1,.46-.43.88.88,0,0,1,.32-.07,1,1,0,0,1,.34,0,1,1,0,0,1,.66.41,1,1,0,0,1,.18.74,10.41,10.41,0,0,0,.38,5.74,4.71,4.71,0,0,0,1.28,1.59,4.81,4.81,0,0,0,1.83.93,5.93,5.93,0,0,0,.93.2,6.43,6.43,0,0,0,2.1,0,6.18,6.18,0,0,0,2-.73,6.42,6.42,0,0,0,2.34-2.64,8.08,8.08,0,0,0,.68-2.31s.24-1.45.27-1.94h0v0l.65.1L28,18.26l-.07-.1h0l-1.31-.33a32.58,32.58,0,0,0-4.47-.94c-1.06-.13-2.15-.22-3.23-.26H17.58c-.61,0-1.24,0-1.84-.06a21.06,21.06,0,0,1-3.44-.74l-.78-.24-.14,0c-.74-.19-1.49-.35-2.22-.48.51-1,1.82-1.83,5-2.72a13,13,0,0,1,3.16-.51h.91c.24,0,.47,0,.7.06l.15,0,.12,0A8.52,8.52,0,0,1,24.57,15a1.45,1.45,0,0,0,.52.4,1.28,1.28,0,0,0,.64.11h0a7.4,7.4,0,0,1,1.15,0,18,18,0,0,1,7,2.37C31.76,25.15,30.25,26.94,28.22,27.3Zm-2.34-6.88v.08A6.7,6.7,0,0,1,25.66,22a7.73,7.73,0,0,1-.84,2,4.46,4.46,0,0,1-2.58,2,5.08,5.08,0,0,1-2.39.06,5.15,5.15,0,0,1-2.16-1,4.34,4.34,0,0,1-1.16-1.56,5.26,5.26,0,0,1-.32-1.16,5.43,5.43,0,0,1-.07-1.21v-.15a4,4,0,0,1,.47-2.36,2.85,2.85,0,0,1,2.24-.79,17.76,17.76,0,0,1,2.92.19c.5.07,1,.17,1.53.28a3.5,3.5,0,0,1,2.35,1.28l0,.06a1.35,1.35,0,0,1,.14.35,1.65,1.65,0,0,1,0,.31,1.1,1.1,0,0,1,0,.18h0Z"/><path class="cls-3" d="M33.92,17.91a17.89,17.89,0,0,0-7-2.37,7.4,7.4,0,0,0-1.15,0h0a1.46,1.46,0,0,1-.65-.1,1.38,1.38,0,0,1-.52-.41A7.9,7.9,0,0,0,23,13.51,8.26,8.26,0,0,0,19.22,12l-.12,0-.15,0c-.23,0-.46-.05-.7-.06h-.91a13,13,0,0,0-3.16.51c-3.2.89-4.51,1.72-5,2.72.73.13,1.48.29,2.22.48l.14,0,.79.22a21.3,21.3,0,0,0,3.46.74c.6.05,1.23.05,1.84.05h1.26c1.08,0,2.17.14,3.23.26a33.66,33.66,0,0,1,4.48,1c.43.12.88.23,1.31.33h0l.06.11-.24,1.53H27.7l-.65-.1v0c0,.5-.26,1.9-.26,1.92a7.8,7.8,0,0,1-.69,2.31,6.29,6.29,0,0,1-2.34,2.64,6.18,6.18,0,0,1-2,.74,6.43,6.43,0,0,1-2.1,0,5.93,5.93,0,0,1-.93-.2,4.81,4.81,0,0,1-1.83-.93,4.71,4.71,0,0,1-1.28-1.59,10.41,10.41,0,0,1-.38-5.74,1,1,0,0,0-.18-.74,1,1,0,0,0-.66-.41,1,1,0,0,0-.34,0,.73.73,0,0,0-.29.07.9.9,0,0,0-.46.42,6.29,6.29,0,0,0-.53,1.94,9,9,0,0,1-.38,1.53h0A3.74,3.74,0,0,1,10,24.1a3.68,3.68,0,0,1-3.8-.93l-.1-.12L4.44,24.3,2.69,25.64l-1.16.88c-.38.3-.67.54-.81.67h0c-.28.54.28,4.91,1.83,7.52a5.32,5.32,0,0,0,2.13,1.56,19.06,19.06,0,0,0,3.6,1.33h0l.67.16.6.13c.63.12,1.38.24,2.2.32.49.05,1,.09,1.54.1h.94c.36,0,.73,0,1.11,0s.88-.08,1.32-.14,1-.18,1.54-.31a14.76,14.76,0,0,0,2.88-1c.34-.16.67-.34,1-.53h0l1.45-.87,3-1.8a.85.85,0,0,0,.25-.25.75.75,0,0,0,.1-.33q0-.53.06-1c.31-4.63.55-4.65.86-4.68a2.7,2.7,0,0,0,.41-.06C30.25,26.94,31.75,25.15,33.92,17.91ZM6,29.12l-1.48,2a1.74,1.74,0,0,1-2.61-.38L1,28.4a1.07,1.07,0,0,1,0-.56,1,1,0,0,1,.25-.51A1.14,1.14,0,0,1,1.71,27,1.23,1.23,0,0,1,2.28,27l2.84.42a1.13,1.13,0,0,1,.54.19A1.24,1.24,0,0,1,6,28,1.12,1.12,0,0,1,6,29.12Zm17.32,4.73a19.29,19.29,0,0,1-8.65,2.5v-.19a31.6,31.6,0,0,0,8.06-2.8c.13-.07.17-.42.05-.87A12.91,12.91,0,0,1,18.84,34l-.05-.18a8,8,0,0,0,3.68-1.86.81.81,0,0,0-.17-.24.76.76,0,0,0-.26-.15.63.63,0,0,0-.3,0,.73.73,0,0,0-.29.07c-7.94,4-13.08,3.2-13.12,3.19l-.58-.1.56-.08c.09,0,9.15-1.25,12.83-4.68a1.1,1.1,0,0,1,.42-.24,1.11,1.11,0,0,1,.48,0h0a1.74,1.74,0,0,1,.65.26,1.67,1.67,0,0,1,.49.5l.84,1.78A1.67,1.67,0,0,1,23.27,33.85Zm6.42-8.19a1.37,1.37,0,0,1-.58.51,1.41,1.41,0,0,1-.78.11,1.43,1.43,0,0,1-.5-.18,1.33,1.33,0,0,1-.39-.36,1.35,1.35,0,0,1-.22-.47,1.3,1.3,0,0,1,0-.52,1.32,1.32,0,0,1,.34-.7A1.4,1.4,0,0,1,29,23.7a1.39,1.39,0,0,1,.62.47,1.33,1.33,0,0,1,.26.74A1.34,1.34,0,0,1,29.69,25.66Z"/><path class="cls-3" d="M6.86,22.49a2.86,2.86,0,0,0,1.58.76,2.27,2.27,0,0,0,.52,0,3.17,3.17,0,0,0,.69-.08,3.2,3.2,0,0,0,1.1-.53,3.68,3.68,0,0,0,1.05-2.05c0-.1,0-.2.08-.3a4.78,4.78,0,0,0,.22-2.65.84.84,0,0,0-.13-.27,3.11,3.11,0,0,0-2.12-.94L9,16.36H8.85c0,.38,0,.79,0,1.25a13.26,13.26,0,0,1,0,2.44c0,.25,0,.51-.08.76a.25.25,0,0,1,0,.07.66.66,0,0,1-.12.16,14.72,14.72,0,0,1-1.76,1.44Zm3.32-3.73h0c.76,0,.82,1.2.79,1.87a.5.5,0,0,1-.16.34.49.49,0,0,1-.35.13H9.63a.48.48,0,0,1-.2,0A.91.91,0,0,1,9.27,21a.59.59,0,0,1-.1-.17.64.64,0,0,1,0-.2C9.17,19.87,9.36,18.71,10.18,18.76Z"/><path class="cls-3" d="M25.86,20.23a1.65,1.65,0,0,0,0-.31,1.35,1.35,0,0,0-.14-.35l0-.06a3.5,3.5,0,0,0-2.35-1.28c-.52-.11-1-.21-1.53-.28a17.76,17.76,0,0,0-2.92-.19,2.85,2.85,0,0,0-2.24.79,4,4,0,0,0-.47,2.36v.15a5.43,5.43,0,0,0,.07,1.21,5.18,5.18,0,0,0,.32,1.15A4.37,4.37,0,0,0,17.69,25a5.15,5.15,0,0,0,2.16,1A5.08,5.08,0,0,0,22.24,26a4.46,4.46,0,0,0,2.58-2,7.73,7.73,0,0,0,.84-2,6.7,6.7,0,0,0,.22-1.48v-.09h0A1.1,1.1,0,0,0,25.86,20.23Zm-4.34,2.53a.66.66,0,0,1-.39-.09,4.71,4.71,0,0,0-.81-.32,2.37,2.37,0,0,0-.84,0,2.6,2.6,0,0,0-.4.1l-.37.12a.21.21,0,0,1-.25-.11c0-.1,0-.18.11-.25l.15-.09a2.58,2.58,0,0,1,1.05-.29,2.77,2.77,0,0,1,1.64.41c.12.07.34.18.35.33S21.64,22.75,21.52,22.76Zm1.75-1a.37.37,0,0,1-.12.13A.41.41,0,0,1,23,22a.39.39,0,0,1-.28-.11c-.15-.1-.29-.22-.43-.32A3.12,3.12,0,0,0,20.73,21a3.41,3.41,0,0,0-1.72.37,3.65,3.65,0,0,1-.53.25h-.06a.15.15,0,0,1-.09,0,.14.14,0,0,1-.08-.05.18.18,0,0,1-.05-.07.29.29,0,0,1,0-.09.26.26,0,0,1,.05-.12h0l0-.06a2.26,2.26,0,0,1,.65-.54,3.06,3.06,0,0,1,1.8-.56,3.83,3.83,0,0,1,2.39,1.12.79.79,0,0,1,.19.22.51.51,0,0,1,0,.17A.42.42,0,0,1,23.27,21.79Z"/></g></g></svg>