<svg xmlns="http://www.w3.org/2000/svg" viewBox="0 0 242.22 100"><defs><style>.cls-1{fill:none;}.cls-2{fill:#2a363b;}.cls-3{fill:#f68865;}</style></defs><title>logo_bigicon</title><g id="Capa_2" data-name="Capa 2"><g id="Capa_1-2" data-name="Capa 1"><path class="cls-1" d="M131.68,48c-1-.93-2.58-1.38-4.78-1.38l-5.46,0V57.11h6a7.46,7.46,0,0,0,2.3-.35,5.1,5.1,0,0,0,1.81-1,4.65,4.65,0,0,0,1.2-1.65,5.82,5.82,0,0,0,.43-2.29,4.94,4.94,0,0,0-.33-2.09A4.79,4.79,0,0,0,131.68,48Z"/><path class="cls-1" d="M225.47,71a6.86,6.86,0,0,0,2.27,1.73,6.37,6.37,0,0,0,2.75.6,6.53,6.53,0,0,0,2.81-.58A6.65,6.65,0,0,0,235.59,71a8.18,8.18,0,0,0,1.53-2.71,10.57,10.57,0,0,0,.55-3.57,11.22,11.22,0,0,0-.55-3.68,7.41,7.41,0,0,0-1.52-2.69,6.27,6.27,0,0,0-2.27-1.64,7.29,7.29,0,0,0-2.84-.55,6.82,6.82,0,0,0-2.75.55,6.27,6.27,0,0,0-2.27,1.64,7.61,7.61,0,0,0-1.54,2.69,10.93,10.93,0,0,0-.52,3.68h0a10.73,10.73,0,0,0,.57,3.55A7.76,7.76,0,0,0,225.47,71Z"/><path class="cls-1" d="M13.61,45c3.15-2.45,3.57-2.91,3.64-3.28a27.47,27.47,0,0,0,.23-6.47c-.05-.9-.05-1.73-.05-2.5h.31c.49.05,1.07.11,1.68.2,1.84.24,4,.85,4.46,2.4A3.71,3.71,0,0,1,24,36a3.82,3.82,0,0,0-.16-.73c-.48-1.55-2.62-2.13-4.46-2.4a12.52,12.52,0,0,0-1.68-.19h-.31c0,.76,0,1.59,0,2.5a26.88,26.88,0,0,1-.24,6.46c0,.42-.45.84-3.71,3.29Z"/><path class="cls-1" d="M12.15,42.7A5.34,5.34,0,0,0,12.71,44q1.72-1.28,3.31-2.71a26.84,26.84,0,0,0,.2-6,24,24,0,0,1,0-2.68c-1.49-.09-3,0-3.35,1.62l-.19.85c-.52,2.39-1.23,5.38-.52,7.66Z"/><path class="cls-1" d="M52.85,43.23c0-.08.45-2.86.52-3.85C53.3,40.37,52.86,43.17,52.85,43.23Z"/><path class="cls-1" d="M58,47.77a3.1,3.1,0,0,0-.69-.38,2.76,2.76,0,0,0-1.17-.15,2.76,2.76,0,0,1,1.17.15A3.1,3.1,0,0,1,58,47.77Z"/><path class="cls-1" d="M139.53,93.22a1.32,1.32,0,0,0,.91,1.36,2.45,2.45,0,0,0,1.42,0,3.92,3.92,0,0,0,.74-.29,4.61,4.61,0,0,0,.62-.44l.52-.49,0-1.94a9.35,9.35,0,0,0-3.23.57C139.85,92.3,139.53,92.69,139.53,93.22Z"/><path class="cls-1" d="M21.35,41.89a1,1,0,0,1-.69.27H19a1.1,1.1,0,0,1-.4-.08,1.08,1.08,0,0,1-.32-.24,1,1,0,0,1-.2-.35,1,1,0,0,1,0-.39v0a1.09,1.09,0,0,0,0,.4.94.94,0,0,0,.2.35,1.08,1.08,0,0,0,.32.24,1.1,1.1,0,0,0,.4.08h1.69a1,1,0,0,0,1-.93c0-.18,0-.36,0-.56,0,.18,0,.35,0,.51A.94.94,0,0,1,21.35,41.89Z"/><path class="cls-1" d="M45.87,67.7a37.19,37.19,0,0,1-17.07,5v-.33h0v.37a37.2,37.2,0,0,0,17.08-5,3.74,3.74,0,0,0,1.3-1.48A3.78,3.78,0,0,1,45.87,67.7Z"/><path class="cls-1" d="M37.25,33.23H34.74c-1.19,0-2.43,0-3.63-.12q-.62-.07-1.23-.18.61.1,1.23.18c1.2.12,2.44.12,3.63.12h2.51c2.07.09,4.23.26,6.38.52,1.34.19,2.68.43,4,.7-1.33-.27-2.67-.51-4-.7C41.56,33.49,39.41,33.32,37.25,33.23Z"/><path class="cls-1" d="M32.78,37.14c1-1.27,2.94-1.58,4.44-1.58A35.84,35.84,0,0,1,43,36c1,.14,2,.33,3,.56a12.45,12.45,0,0,1,2.2.62A15.12,15.12,0,0,0,46,36.48c-1-.22-2-.42-3-.56a36.89,36.89,0,0,0-5.75-.4c-1.5,0-3.48.32-4.44,1.59h0a6.2,6.2,0,0,0-.92,3.55A6.25,6.25,0,0,1,32.78,37.14Z"/><path class="cls-1" d="M42.5,45.49a1.46,1.46,0,0,1-.77-.18,7.24,7.24,0,0,0-1.61-.65,4.8,4.8,0,0,0-1.69,0,5.58,5.58,0,0,0-.78.2c-.25.07-.49.19-.75.25a.36.36,0,0,1-.29,0,.41.41,0,0,1-.18-.19v0a.4.4,0,0,0,.49.23c.26-.07.51-.19.75-.26a7.44,7.44,0,0,1,.78-.2,4.8,4.8,0,0,1,1.69,0,7.24,7.24,0,0,1,1.61.65,1.37,1.37,0,0,0,.77.18c.22,0,.45-.08.42-.38v0A.41.41,0,0,1,42.5,45.49Z"/><path class="cls-1" d="M36,42.55a.44.44,0,0,0,.08-.11,4.75,4.75,0,0,1,1.28-1.08,7.17,7.17,0,0,1,1.7-.81,5.29,5.29,0,0,1,1.89-.28h0a5.4,5.4,0,0,0-1.91.28,7.17,7.17,0,0,0-1.7.81,4.75,4.75,0,0,0-1.28,1.08.44.44,0,0,1-.08.11.79.79,0,0,0-.08.26.47.47,0,0,0,0,.17h0a.41.41,0,0,1,0-.16A.71.71,0,0,1,36,42.55Z"/><path class="cls-1" d="M32.62,46.84A8.65,8.65,0,0,0,34.93,50,8.65,8.65,0,0,1,32.62,46.84Z"/><path class="cls-1" d="M28.83,32.75a37.29,37.29,0,0,1-4.55-1.12A37.29,37.29,0,0,0,28.83,32.75Z"/><path class="cls-1" d="M45.44,44a.89.89,0,0,1-.56-.2c-.29-.22-.56-.45-.85-.65A6,6,0,0,0,40.94,42,6.09,6.09,0,0,1,44,43.16c.29.21.56.43.85.65a.89.89,0,0,0,.56.2.7.7,0,0,0,.32-.13.75.75,0,0,0,.23-.27.11.11,0,0,1,0,0,.67.67,0,0,1-.22.25A.71.71,0,0,1,45.44,44Z"/><path class="cls-1" d="M49,47.88a8.83,8.83,0,0,1-5.1,4,9.91,9.91,0,0,1-9-2,9.91,9.91,0,0,0,9,2,8.83,8.83,0,0,0,5.1-4A15.38,15.38,0,0,0,50.64,44h0A15.38,15.38,0,0,1,49,47.88Z"/><path class="cls-1" d="M53.7,49.5a2.65,2.65,0,0,1,.67-1.41,2.73,2.73,0,0,1,1.35-.79l.39-.06-.39.06a2.73,2.73,0,0,0-1.35.79,2.65,2.65,0,0,0-.67,1.41,2.48,2.48,0,0,0,0,.9A2.48,2.48,0,0,1,53.7,49.5Z"/><path class="cls-1" d="M18.08,40.43a4.59,4.59,0,0,1,1-2.59A4.17,4.17,0,0,0,18.08,40.43Z"/><path class="cls-1" d="M18.05,30.17c1.47.26,2.93.57,4.4,1-1.47-.39-2.93-.7-4.4-1Z"/><path class="cls-1" d="M54.18,51.49a1.68,1.68,0,0,1-.2-.34,1.68,1.68,0,0,0,.2.34,2.63,2.63,0,0,0,.66.63A2.63,2.63,0,0,1,54.18,51.49Z"/><path class="cls-1" d="M175.37,31a6.71,6.71,0,0,0,2.28,1.71,6.36,6.36,0,0,0,2.75.62,6.92,6.92,0,0,0,2.83-.6,6.58,6.58,0,0,0,2.27-1.71,8.14,8.14,0,0,0,1.53-2.7,10.83,10.83,0,0,0,.55-3.57A11.22,11.22,0,0,0,187,21.1a7.85,7.85,0,0,0-1.52-2.7,6.11,6.11,0,0,0-2.27-1.62,7.12,7.12,0,0,0-2.84-.56,6.64,6.64,0,0,0-2.75.56,6.47,6.47,0,0,0-2.28,1.62,7.56,7.56,0,0,0-1.54,2.7,11.21,11.21,0,0,0-.54,3.68h0a10.69,10.69,0,0,0,.57,3.55A8.24,8.24,0,0,0,175.37,31Z"/><path class="cls-1" d="M223.22,93.22a1.57,1.57,0,0,0,.13.65,1.12,1.12,0,0,0,.33.45,1.17,1.17,0,0,0,.46.26,2.49,2.49,0,0,0,1.43,0,3.92,3.92,0,0,0,.74-.29,5.35,5.35,0,0,0,.62-.44l.51-.49,0-1.94a9.59,9.59,0,0,0-3.23.57C223.56,92.3,223.22,92.69,223.22,93.22Z"/><path class="cls-1" d="M15.74,48.37a7.4,7.4,0,0,0,2,.2,7.12,7.12,0,0,1-2-.2,7.2,7.2,0,0,1-3.5-2c-.08-.07-.13-.16-.21-.24l0,0,.2.22A7.17,7.17,0,0,0,15.74,48.37Z"/><path class="cls-1" d="M159.43,88h0a2.69,2.69,0,0,0-1.25-.31,2.79,2.79,0,0,0-1.24.26,2.53,2.53,0,0,0-.87.72,3.4,3.4,0,0,0-.53,1.08,5.78,5.78,0,0,0-.18,1.43,4.36,4.36,0,0,0,.65,2.64,2.17,2.17,0,0,0,.84.63,2.14,2.14,0,0,0,1,.18,2.5,2.5,0,0,0,1.4-.42,4,4,0,0,0,1.08-1.08v-4.2A2.85,2.85,0,0,0,159.43,88Z"/><path class="cls-1" d="M36.93,54.27a12,12,0,0,0,1.85.41,12.22,12.22,0,0,0,8.07-1.52,12.22,12.22,0,0,1-8.09,1.5,13,13,0,0,1-1.85-.41,9.57,9.57,0,0,1-3.61-1.86,9.46,9.46,0,0,1-.74-.68,10,10,0,0,0,.76.7A9.57,9.57,0,0,0,36.93,54.27Z"/><path class="cls-1" d="M59,49.81h0s0,0,0-.05S59,49.79,59,49.81Z"/><path class="cls-1" d="M240.59,88.4a2.09,2.09,0,0,0-.75-.53,3,3,0,0,0-2.07,0,2.38,2.38,0,0,0-.83.54,2.79,2.79,0,0,0-.57.87,4.44,4.44,0,0,0-.25.86l5.16,0a2.83,2.83,0,0,0-.18-.91A2.3,2.3,0,0,0,240.59,88.4Z"/><path class="cls-1" d="M54.9,54.67c-.67.07-1.15.11-1.82,11.36a1.34,1.34,0,0,1-.2.65,1.44,1.44,0,0,1-.49.49c-1.89,1.21-8.17,5-8.79,5.39-9.67,5.6-20.63,4.24-26,3,5.35,1.26,16.31,2.63,26-2.94.63-.41,6.9-4.22,8.8-5.39a1.47,1.47,0,0,0,.48-.48,1.41,1.41,0,0,0,.2-.66c.67-11.25,1.16-11.29,1.83-11.36,4.38-.39,7.46-3.43,12-18.83h0C62.43,51.24,59.32,54.27,54.9,54.67Z"/><path class="cls-1" d="M28.69,35.53l-.29-.08a2,2,0,0,0-.64-.07,1.73,1.73,0,0,1,.6.07Z"/><path class="cls-1" d="M4.41,68.41c.18.35.36.69.55,1l.11.16L5,69.43C4.77,69.1,4.59,68.76,4.41,68.41Z"/><path class="cls-1" d="M147.39,31a6.05,6.05,0,0,0,2.27,1.63,7.36,7.36,0,0,0,2.89.55,7.43,7.43,0,0,0,3.06-.53A7.35,7.35,0,0,0,157.89,31V18.21a6.68,6.68,0,0,0-2.55-1.35,10.33,10.33,0,0,0-2.93-.42,7.07,7.07,0,0,0-2.73.54,6.37,6.37,0,0,0-2.23,1.57,7.34,7.34,0,0,0-1.51,2.55,9.76,9.76,0,0,0-.56,3.43,11.74,11.74,0,0,0,.54,3.73A7.7,7.7,0,0,0,147.39,31Z"/><path class="cls-1" d="M168.66,88.4a2.18,2.18,0,0,0-.75-.53,3,3,0,0,0-2.08,0,2.38,2.38,0,0,0-.83.54,2.76,2.76,0,0,0-.56.87,3.55,3.55,0,0,0-.25.86l5.15,0a3.12,3.12,0,0,0-.17-.91A2.71,2.71,0,0,0,168.66,88.4Z"/><path class="cls-1" d="M44.3,63.84a0,0,0,0,0,0,0c-.44.46-2.4,2.29-7.24,3.71v0C41.94,66.13,43.89,64.28,44.3,63.84Z"/><path class="cls-1" d="M192.19,59.72a5,5,0,0,0-1-1.87,4.35,4.35,0,0,0-1.69-1.24,6.45,6.45,0,0,0-2.57-.44,6.87,6.87,0,0,0-2.5.41,5,5,0,0,0-1.82,1.16,5.76,5.76,0,0,0-1.2,1.87,11.17,11.17,0,0,0-.68,2.47H192.6A10,10,0,0,0,192.19,59.72Z"/><path class="cls-1" d="M41.79,59.81a2.11,2.11,0,0,1,.82-.47,2.22,2.22,0,0,1,.81-.08,2.1,2.1,0,0,0-1.68.51c-7.28,6.89-25.17,9.36-25.36,9.36l-1.12.12.28,0,.9-.13C16.62,69.15,34.52,66.71,41.79,59.81Z"/><polygon class="cls-1" points="11.73 58.19 11.74 58.18 11.74 58.18 11.74 58.18 11.73 58.19"/><polygon class="cls-1" points="55.02 36.3 52.74 35.71 55.02 36.3 55.1 36.3 55.1 36.3 55.02 36.3"/><path class="cls-1" d="M172.28,93.22a1.57,1.57,0,0,0,.13.65,1.2,1.2,0,0,0,.32.45,1.45,1.45,0,0,0,.47.26,2.49,2.49,0,0,0,1.43,0,3.83,3.83,0,0,0,.73-.29,5.47,5.47,0,0,0,.63-.44l.5-.49,0-1.94a9.65,9.65,0,0,0-3.24.57C172.62,92.3,172.28,92.69,172.28,93.22Z"/><path class="cls-1" d="M1.9,56.2a2.35,2.35,0,0,0,.1.59l1.66,4.63L2,56.75A2.05,2.05,0,0,1,1.9,56.2Z"/><path class="cls-2" d="M38.78,0S36.63,4.88,21.54,8.26A20.68,20.68,0,0,0,5.18,25.86S13.43,21.32,19,27.08a6.63,6.63,0,0,0-2.26,2.79,48,48,0,0,0-6-.55,1,1,0,0,0-.6.13c-.17.11-.23.44-.4,1.89a4.1,4.1,0,0,1-.12.88l0,.25h.17l.45.06a4.4,4.4,0,0,1,.88.16,25.14,25.14,0,0,0-.58,2.87c-.23,1.47-.45,3.1-.49,3.42a9.72,9.72,0,0,0,1.19,6.11C10.23,46,9,46.84,8,47.64c-3.43,2.6-6.67,5.07-7.54,5.9S0,59.8,1.51,64.64c5,30.5,28.29,30.65,35.22,35.09a2.14,2.14,0,0,0,1,.27H39c8.8-.51,38.48-11.73,47.77-49.83.66-2.43-3.79-4-3.61-9.37C84.17,4.44,38.78,0,38.78,0ZM17.23,41.6a26.88,26.88,0,0,0,.24-6.46c0-.91-.08-1.74,0-2.5h.31a12.52,12.52,0,0,1,1.68.19c1.84.27,4,.85,4.46,2.4A3.82,3.82,0,0,1,24,36a11.21,11.21,0,0,1-.6,4.67l-.16.6a7.2,7.2,0,0,1-2.07,4.11,6,6,0,0,1-4.55,1.16,5.55,5.55,0,0,1-3.15-1.44l.11-.09-.09-.08C16.78,42.44,17.23,42,17.23,41.6ZM12.68,35l.19-.85c.36-1.6,1.86-1.71,3.35-1.62a24,24,0,0,0,0,2.68,26.84,26.84,0,0,1-.2,6Q14.43,42.7,12.71,44a5.34,5.34,0,0,1-.56-1.27h0C11.45,40.42,12.16,37.43,12.68,35ZM67,35.88c-4.54,15.4-7.62,18.44-12,18.83-.67.07-1.16.11-1.83,11.36a1.41,1.41,0,0,1-.2.66,1.47,1.47,0,0,1-.48.48c-1.9,1.17-8.17,5-8.8,5.39-9.71,5.57-20.67,4.2-26,2.94l-1.29-.32a39.45,39.45,0,0,1-5.56-1.91c-.32-.14-.63-.28-.93-.43l-.79-.38-.68-.36-.78-.46a13.76,13.76,0,0,1-1.23-.83,7.43,7.43,0,0,1-.9-.78l0,0a3.15,3.15,0,0,1-.35-.43L5,69.43c-.19-.33-.37-.67-.55-1-2.62-5.29-3.53-13.09-3-14,.8-.79,4.12-3.32,7.35-5.77L12,46.09v0l0,0c.08.08.13.17.21.24a7.2,7.2,0,0,0,3.5,2,7.12,7.12,0,0,0,2,.2,7.28,7.28,0,0,0,2-.37,7.48,7.48,0,0,0,2.91-1.89,7.26,7.26,0,0,0,1.74-3,15.93,15.93,0,0,0,.69-3,13.74,13.74,0,0,1,1.08-3.88,1.84,1.84,0,0,1,1.55-1,2,2,0,0,1,.64.07l.29.08.07,0,.11.05a2.13,2.13,0,0,1,.82.64,2.08,2.08,0,0,1,.38,1.49c-.55,4-.84,8,.74,11.5a9.51,9.51,0,0,0,2.49,3.16,9.57,9.57,0,0,0,3.61,1.86,13,13,0,0,0,1.85.41,12.22,12.22,0,0,0,8.09-1.5h0a12.64,12.64,0,0,0,4.64-5.29c.17-.37.32-.74.46-1.11a15.84,15.84,0,0,0,.88-3.51h0c0-.06.45-2.86.52-3.85v0l1.37.22.49-3.08-.13-.2H55l-2.28-.59-.29-.08c-1.59-.45-3.2-.84-4.81-1.18-1.33-.27-2.67-.51-4-.7-2.15-.26-4.31-.43-6.38-.52H34.74c-1.19,0-2.43,0-3.63-.12q-.62-.07-1.23-.18t-1.05-.18a37.29,37.29,0,0,1-4.55-1.12l-1.83-.5c-1.47-.39-2.93-.7-4.4-1h0c1-2,3.6-3.69,10-5.52C40.12,21.26,46.33,27.29,48.48,30a2.54,2.54,0,0,0,1,.79,2.59,2.59,0,0,0,1.29.19c5.73-.45,14.92,3.59,16.16,4.75l0,.1ZM32.74,37.11c1-1.27,2.94-1.56,4.44-1.59a36.89,36.89,0,0,1,5.75.4c1,.14,2,.34,3,.56a15.12,15.12,0,0,1,2.24.67c1.6.64,2.91,1.71,2.91,3.69A13.22,13.22,0,0,1,50.64,44h0A15.38,15.38,0,0,1,49,47.88a8.83,8.83,0,0,1-5.1,4,9.91,9.91,0,0,1-9-2,8.65,8.65,0,0,1-2.31-3.11A11.41,11.41,0,0,1,32,44.57v0a10.55,10.55,0,0,1-.12-1.13s0,0,0,0a10.84,10.84,0,0,1,0-1.14s0,0,0,0v-.3c0-.2,0-.41,0-.62v-.1c0-.16,0-.33,0-.49a6.2,6.2,0,0,1,.92-3.55Z"/><path class="cls-3" d="M50.81,31a2.59,2.59,0,0,1-1.29-.19,2.54,2.54,0,0,1-1-.79c-2.15-2.75-8.36-8.78-20.47-5.39-6.36,1.83-8.94,3.48-10,5.52h0c1.47.26,2.93.57,4.4,1l1.83.5a37.29,37.29,0,0,0,4.55,1.12q.53.11,1.05.18t1.23.18c1.2.12,2.44.12,3.63.12h2.51c2.16.09,4.31.26,6.38.52,1.34.19,2.68.43,4,.7,1.61.34,3.22.73,4.81,1.18l.29.08L55,36.3h.08l.13.2-.49,3.08-1.37-.22v0c-.07,1-.51,3.77-.52,3.85h0A15.84,15.84,0,0,1,52,46.75c-.14.37-.29.74-.46,1.11a12.64,12.64,0,0,1-4.64,5.29h0a12.22,12.22,0,0,1-8.07,1.52,12,12,0,0,1-1.85-.41,9.57,9.57,0,0,1-3.61-1.86,10,10,0,0,1-.76-.7,9.43,9.43,0,0,1-1.75-2.48c-1.58-3.5-1.29-7.54-.74-11.5a2.08,2.08,0,0,0-.38-1.49,2.13,2.13,0,0,0-.82-.64l-.11-.05-.07,0-.33-.08a1.73,1.73,0,0,0-.6-.07,1.84,1.84,0,0,0-1.55,1,13.74,13.74,0,0,0-1.08,3.88,15.93,15.93,0,0,1-.69,3,7.26,7.26,0,0,1-1.74,3,7.48,7.48,0,0,1-2.91,1.89,7.28,7.28,0,0,1-2,.37,7.4,7.4,0,0,1-2-.2,7.17,7.17,0,0,1-3.49-2l-.2-.22v0L8.75,48.63c-3.23,2.45-6.55,5-7.35,5.77-.52.92.39,8.72,3,14,.18.35.36.69.55,1l.11.16a3.15,3.15,0,0,0,.35.43l0,0a7.43,7.43,0,0,0,.9.78,13.76,13.76,0,0,0,1.23.83l.78.46.68.36.79.38c.3.15.61.29.93.43a39.45,39.45,0,0,0,5.56,1.91l1.29.32c5.35,1.26,16.31,2.62,26-3,.62-.37,6.9-4.18,8.79-5.39a1.44,1.44,0,0,0,.49-.49,1.34,1.34,0,0,0,.2-.65c.67-11.25,1.15-11.29,1.82-11.36,4.42-.4,7.53-3.43,12-18.8l0-.1C65.73,34.61,56.54,30.57,50.81,31ZM11.74,58.18h0l-2.93,4c-1,1.39-4.09,1-5-.48a1.77,1.77,0,0,1-.15-.31L2,56.79a2.35,2.35,0,0,1-.1-.59A2.28,2.28,0,0,1,2,55.62a2.16,2.16,0,0,1,.51-1A2.13,2.13,0,0,1,3.4,54a2.07,2.07,0,0,1,1.13-.08l5.6.83a2.11,2.11,0,0,1,1.09.36A2.07,2.07,0,0,1,12,56a2.09,2.09,0,0,1,.19,1.13A2.18,2.18,0,0,1,11.74,58.18Zm35.41,8.08a3.74,3.74,0,0,1-1.3,1.48,37.2,37.2,0,0,1-17.08,5v-.37h0v0a62.39,62.39,0,0,0,15.91-5.61c.26-.13.36-.84.1-1.73a25.57,25.57,0,0,1-7.69,2.94L37,67.57h0v0c4.84-1.42,6.8-3.25,7.24-3.71a1.39,1.39,0,0,0-.33-.46,1.36,1.36,0,0,0-.5-.31,1.49,1.49,0,0,0-.59-.09,1.42,1.42,0,0,0-.57.15c-15.68,8.09-25.81,6.4-25.85,6.43l-1.17-.2.27,0-.28,0,1.12-.12c.19,0,18.08-2.47,25.36-9.36a2.1,2.1,0,0,1,1.68-.51h.14a3.23,3.23,0,0,1,1.26.51,3.29,3.29,0,0,1,1,1l1.65,3.55A2.56,2.56,0,0,1,47.15,66.26ZM59,49.81a2.68,2.68,0,0,1-1.57,2.54,2.72,2.72,0,0,1-1.54.21,2.57,2.57,0,0,1-1.08-.44,2.63,2.63,0,0,1-.66-.63,1.68,1.68,0,0,1-.2-.34,1.94,1.94,0,0,1-.15-.36,1.9,1.9,0,0,1-.11-.39,2.48,2.48,0,0,1,0-.9,2.65,2.65,0,0,1,.67-1.41,2.73,2.73,0,0,1,1.35-.79l.39-.06a2.76,2.76,0,0,1,1.17.15,3.1,3.1,0,0,1,.69.38,2.71,2.71,0,0,1,.55.57c.07.09.12.19.18.28l0,.05a.36.36,0,0,0,0,.09,2.86,2.86,0,0,1,.15.41,2.91,2.91,0,0,1,.1.59s0,0,0,.05Z"/><path class="cls-3" d="M19.42,32.92c-.61-.09-1.19-.15-1.68-.2h-.31c0,.77,0,1.6.05,2.5a27.47,27.47,0,0,1-.23,6.47c-.07.37-.49.83-3.64,3.28l-.11.09a5.55,5.55,0,0,0,3.15,1.44,6,6,0,0,0,4.55-1.16,7.2,7.2,0,0,0,2.07-4.11l.16-.6A11.21,11.21,0,0,0,24,36a3.71,3.71,0,0,0-.15-.64C23.4,33.77,21.26,33.16,19.42,32.92Zm2.24,8.35a1,1,0,0,1-1,.93H19a1.1,1.1,0,0,1-.4-.08,1.08,1.08,0,0,1-.32-.24.94.94,0,0,1-.2-.35,1.09,1.09,0,0,1,0-.4v-.05c0-.14,0-.3,0-.46a.13.13,0,0,0,0-.06.59.59,0,0,1,0-.13,4.17,4.17,0,0,1,1-2.59,1.28,1.28,0,0,1,1-.35c1.33.08,1.58,1.87,1.58,3.22C21.67,40.91,21.67,41.09,21.66,41.27Z"/><path class="cls-3" d="M43,36a35.84,35.84,0,0,0-5.76-.41c-1.5,0-3.48.31-4.44,1.58a6.25,6.25,0,0,0-.92,3.52c0,.16,0,.33,0,.49v.1c0,.21,0,.42,0,.62v.3s0,0,0,0a10.84,10.84,0,0,0,0,1.14s0,0,0,0A10.55,10.55,0,0,0,32,44.54v0a11.41,11.41,0,0,0,.62,2.27A8.65,8.65,0,0,0,34.93,50a9.91,9.91,0,0,0,9,2,8.83,8.83,0,0,0,5.1-4A15.38,15.38,0,0,0,50.64,44h0a13.22,13.22,0,0,0,.46-3.12c0-2-1.31-3.05-2.91-3.69a12.45,12.45,0,0,0-2.2-.62C45,36.3,44,36.11,43,36Zm0,9.18c0,.3-.2.35-.42.38a1.37,1.37,0,0,1-.77-.18,7.24,7.24,0,0,0-1.61-.65,4.8,4.8,0,0,0-1.69,0,7.44,7.44,0,0,0-.78.2c-.24.07-.49.19-.75.26a.4.4,0,0,1-.49-.23v0h0a.48.48,0,0,1,0-.29.55.55,0,0,1,.19-.21l.32-.18A5.11,5.11,0,0,1,39,43.63a5.26,5.26,0,0,1,3.23.83c.23.14.64.35.67.6,0,0,0,0,0,.07ZM46,43.55h0a.11.11,0,0,0,0,0,.75.75,0,0,1-.23.27.7.7,0,0,1-.32.13.89.89,0,0,1-.56-.2c-.29-.22-.56-.44-.85-.65A6.09,6.09,0,0,0,40.94,42h0a6.83,6.83,0,0,0-3.41.74,4.61,4.61,0,0,1-1.07.52h-.12a.48.48,0,0,1-.32-.13.51.51,0,0,1-.09-.16h0a.47.47,0,0,1,0-.17.79.79,0,0,1,.08-.26.44.44,0,0,0,.08-.11,4.75,4.75,0,0,1,1.28-1.08,7.17,7.17,0,0,1,1.7-.81,5.4,5.4,0,0,1,1.91-.28h0a7.56,7.56,0,0,1,4.68,2.16,1.54,1.54,0,0,1,.36.44.76.76,0,0,1,0,.68Z"/><path class="cls-2" d="M58.92,49.17a2.86,2.86,0,0,0-.15-.41.36.36,0,0,1,0-.09l0-.05c-.06-.09-.11-.19-.18-.28a2.71,2.71,0,0,0-.55-.57,3.1,3.1,0,0,0-.69-.38,2.76,2.76,0,0,0-1.17-.15l-.39.06a2.73,2.73,0,0,0-1.35.79,2.65,2.65,0,0,0-.67,1.41,2.48,2.48,0,0,0,0,.9,1.9,1.9,0,0,0,.11.39,1.94,1.94,0,0,0,.15.36,1.68,1.68,0,0,0,.2.34,2.63,2.63,0,0,0,.66.63,2.57,2.57,0,0,0,1.08.44,2.72,2.72,0,0,0,1.54-.21A2.68,2.68,0,0,0,59,49.81s0,0,0-.05A2.91,2.91,0,0,0,58.92,49.17Z"/><path class="cls-2" d="M11.22,55.1a2.11,2.11,0,0,0-1.09-.36l-5.6-.83A2.07,2.07,0,0,0,3.4,54a2.13,2.13,0,0,0-.94.62,2.16,2.16,0,0,0-.51,1,2.28,2.28,0,0,0-.05.58,2.05,2.05,0,0,0,.1.55l1.66,4.67a1.77,1.77,0,0,0,.15.31c.91,1.51,4,1.87,5,.48l2.93-4h0a2.18,2.18,0,0,0,.42-1.07A2.09,2.09,0,0,0,12,56,2.07,2.07,0,0,0,11.22,55.1Z"/><path class="cls-2" d="M45.78,60.74a3.29,3.29,0,0,0-1-1,3.23,3.23,0,0,0-1.26-.51h-.14a2.22,2.22,0,0,0-.81.08,2.11,2.11,0,0,0-.82.47c-7.27,6.9-25.17,9.34-25.35,9.36l-.9.13-.27,0,1.17.2s10.17,1.66,25.85-6.43a1.42,1.42,0,0,1,.57-.15,1.49,1.49,0,0,1,.59.09,1.36,1.36,0,0,1,.5.31,1.39,1.39,0,0,1,.33.46,0,0,0,0,1,0,0c-.41.44-2.36,2.29-7.25,3.73h0l.08.35A25.57,25.57,0,0,0,44.81,65c.26.89.16,1.6-.1,1.73A62.39,62.39,0,0,1,28.8,72.32v.37a37.19,37.19,0,0,0,17.07-5,3.78,3.78,0,0,0,1.28-1.44,2.56,2.56,0,0,0,.28-2Z"/><path class="cls-2" d="M20.09,37.49a1.28,1.28,0,0,0-1,.35,4.59,4.59,0,0,0-1,2.59.59.59,0,0,0,0,.13.13.13,0,0,1,0,.06c0,.16,0,.32,0,.46v0a1,1,0,0,0,0,.39,1,1,0,0,0,.2.35,1.08,1.08,0,0,0,.32.24,1.1,1.1,0,0,0,.4.08h1.69a1,1,0,0,0,.69-.27.94.94,0,0,0,.31-.67c0-.16,0-.33,0-.51C21.67,39.36,21.42,37.57,20.09,37.49Z"/><path class="cls-2" d="M45.63,42.43A7.56,7.56,0,0,0,41,40.27h0a5.29,5.29,0,0,0-1.89.28,7.17,7.17,0,0,0-1.7.81,4.75,4.75,0,0,0-1.28,1.08.44.44,0,0,1-.08.11.71.71,0,0,0-.09.28.41.41,0,0,0,0,.16.51.51,0,0,0,.09.16.48.48,0,0,0,.32.13h.12a4.61,4.61,0,0,0,1.07-.52A6.83,6.83,0,0,1,40.94,42h0A6,6,0,0,1,44,43.1c.29.2.56.43.85.65a.89.89,0,0,0,.56.2.71.71,0,0,0,.32-.14.67.67,0,0,0,.22-.25h0a.76.76,0,0,0,0-.68A1.54,1.54,0,0,0,45.63,42.43Z"/><path class="cls-2" d="M42.26,44.46A5.26,5.26,0,0,0,39,43.63a5.11,5.11,0,0,0-2.08.58l-.32.18a.55.55,0,0,0-.19.21.48.48,0,0,0,0,.29h0a.41.41,0,0,0,.18.19.36.36,0,0,0,.29,0c.26-.06.5-.18.75-.25a5.58,5.58,0,0,1,.78-.2,4.8,4.8,0,0,1,1.69,0,7.24,7.24,0,0,1,1.61.65,1.46,1.46,0,0,0,.77.18.41.41,0,0,0,.42-.36s0-.05,0-.07C42.9,44.81,42.49,44.6,42.26,44.46Z"/><polygon class="cls-2" points="133.34 32.43 121.42 32.43 121.42 21.1 131.45 21.1 131.45 17.3 121.39 17.3 121.39 6.61 133.32 6.61 133.32 12.25 137.84 12.25 137.84 2.79 113.89 2.79 113.89 6.57 117.13 6.57 117.13 32.43 113.89 32.43 113.89 36.23 137.86 36.23 137.86 26.79 133.34 26.79 133.34 32.43"/><path class="cls-2" d="M144.25,33.56a9.84,9.84,0,0,0,3.45,2.36,11.41,11.41,0,0,0,4.31.81,8.3,8.3,0,0,0,3.31-.63,8.2,8.2,0,0,0,2.57-1.75v1.87h7.45V32.43H162V1.91h-7.22V5.7h3.12v8.76a7.82,7.82,0,0,0-2.63-1.27,11.41,11.41,0,0,0-3-.37,11.92,11.92,0,0,0-4.57.85,10.12,10.12,0,0,0-3.5,2.38,10.48,10.48,0,0,0-2.25,3.71,13.9,13.9,0,0,0-.8,4.82,15.14,15.14,0,0,0,.83,5.17A10.78,10.78,0,0,0,144.25,33.56Zm1.69-12.46a7.34,7.34,0,0,1,1.51-2.55A6.37,6.37,0,0,1,149.68,17a7.07,7.07,0,0,1,2.73-.54,10.33,10.33,0,0,1,2.93.42,6.68,6.68,0,0,1,2.55,1.35V31a7.35,7.35,0,0,1-2.28,1.62,7.43,7.43,0,0,1-3.06.53,7.36,7.36,0,0,1-2.89-.55A6.05,6.05,0,0,1,147.39,31a7.7,7.7,0,0,1-1.47-2.71,11.74,11.74,0,0,1-.54-3.73A9.76,9.76,0,0,1,145.94,21.1Z"/><path class="cls-2" d="M172.15,33.51a10.41,10.41,0,0,0,3.6,2.48,12.68,12.68,0,0,0,9.31,0,10.41,10.41,0,0,0,3.61-2.5A11.71,11.71,0,0,0,191,29.64a13.93,13.93,0,0,0,.84-4.91,14.1,14.1,0,0,0-.84-4.94,11.08,11.08,0,0,0-2.34-3.8,10.13,10.13,0,0,0-3.61-2.44,12.43,12.43,0,0,0-4.63-.86,12.1,12.1,0,0,0-4.61.86A10.22,10.22,0,0,0,172.2,16a11.28,11.28,0,0,0-2.37,3.83,14.35,14.35,0,0,0,0,9.84A11.52,11.52,0,0,0,172.15,33.51Zm1.14-8.73a11.21,11.21,0,0,1,.54-3.68,7.56,7.56,0,0,1,1.54-2.7,6.47,6.47,0,0,1,2.28-1.62,6.64,6.64,0,0,1,2.75-.56,7.12,7.12,0,0,1,2.84.56,6.11,6.11,0,0,1,2.27,1.62A7.85,7.85,0,0,1,187,21.1a11.22,11.22,0,0,1,.55,3.68,10.83,10.83,0,0,1-.55,3.57,8.14,8.14,0,0,1-1.53,2.7,6.58,6.58,0,0,1-2.27,1.71,6.92,6.92,0,0,1-2.83.6,6.36,6.36,0,0,1-2.75-.62A6.71,6.71,0,0,1,175.37,31a8.24,8.24,0,0,1-1.54-2.7,10.69,10.69,0,0,1-.57-3.55Z"/><path class="cls-2" d="M134.78,45.05a9.38,9.38,0,0,0-3.24-1.72,14.08,14.08,0,0,0-4.13-.59H113.89v3.77h3.24V72.37h-3.24v3.8h10.84v-3.8h-3.35V60.69h5.93a12,12,0,0,0,4.24-.71,10,10,0,0,0,3.24-1.92,8.55,8.55,0,0,0,2.15-2.83,8.05,8.05,0,0,0,.74-3.45,9.32,9.32,0,0,0-.75-3.9A8,8,0,0,0,134.78,45.05Zm-1.59,6.77a5.82,5.82,0,0,1-.43,2.29,4.65,4.65,0,0,1-1.2,1.65,5.1,5.1,0,0,1-1.81,1,7.46,7.46,0,0,1-2.3.35h-6V46.56l5.46,0c2.2,0,3.79.45,4.78,1.38a4.79,4.79,0,0,1,1.18,1.76A4.94,4.94,0,0,1,133.19,51.82Z"/><path class="cls-2" d="M157.42,58.18l-.06-5h-4.18a5.14,5.14,0,0,0-1.6.25,4.67,4.67,0,0,0-1.34.71,6.13,6.13,0,0,0-1.08,1.08,8.82,8.82,0,0,0-.88,1.31V53.32H141v3.8h3.18V72.37H141v3.8h11.34v-3.8h-3.88V61.32a6.54,6.54,0,0,1,.71-2.06,5.38,5.38,0,0,1,1.16-1.4,4.57,4.57,0,0,1,1.43-.84,4.37,4.37,0,0,1,1.48-.28v1.44Z"/><path class="cls-2" d="M164.52,45.25a2.83,2.83,0,0,0,.24,1.08,3.3,3.3,0,0,0,.63.94,2.7,2.7,0,0,0,.92.65,2.65,2.65,0,0,0,1.11.22,2.86,2.86,0,0,0,1.08-.22,3.09,3.09,0,0,0,.91-.65,3.27,3.27,0,0,0,.62-.94,2.87,2.87,0,0,0,.23-1.08,2.64,2.64,0,0,0-.23-1.07,3,3,0,0,0-1.58-1.53,2.65,2.65,0,0,0-2.16,0,3,3,0,0,0-1.54,1.53A2.64,2.64,0,0,0,164.52,45.25Z"/><polygon class="cls-2" points="162.04 72.37 162.04 76.17 172.89 76.17 172.89 72.37 169.44 72.37 169.44 53.32 161.99 53.32 161.96 57.11 165.27 57.11 165.27 72.37 162.04 72.37"/><path class="cls-2" d="M196.43,73.72l-1.65-2.8a16.51,16.51,0,0,1-3.55,1.56,12.27,12.27,0,0,1-3.46.5,7.59,7.59,0,0,1-4.08-1.08,6.28,6.28,0,0,1-2.61-3.32,10.13,10.13,0,0,1-.4-1.53,9.64,9.64,0,0,1-.14-1.78l16.38,0c0-.59,0-1,0-1.67a15,15,0,0,0-.14-1.7,16.81,16.81,0,0,0-.77-3.37,9.06,9.06,0,0,0-1.66-3,8.06,8.06,0,0,0-2.82-2.08,12.21,12.21,0,0,0-9,.18,9.8,9.8,0,0,0-3.36,2.56,11.06,11.06,0,0,0-2,3.79,15.15,15.15,0,0,0-.69,4.63,15.89,15.89,0,0,0,.81,5.29,10.7,10.7,0,0,0,2.23,3.79A9.14,9.14,0,0,0,182.88,76a11.58,11.58,0,0,0,4.31.78,14.8,14.8,0,0,0,4.72-.75A17.84,17.84,0,0,0,196.43,73.72Zm-15-14.11a5.76,5.76,0,0,1,1.2-1.87,5,5,0,0,1,1.82-1.16,6.87,6.87,0,0,1,2.5-.41,6.45,6.45,0,0,1,2.57.44,4.35,4.35,0,0,1,1.69,1.24,5,5,0,0,1,1,1.87,10,10,0,0,1,.41,2.36H180.75A11.17,11.17,0,0,1,181.43,59.61Z"/><path class="cls-2" d="M215.05,72.74a7.67,7.67,0,0,1-1.54.56,7,7,0,0,1-1.64.17,3.55,3.55,0,0,1-1.54-.32,2,2,0,0,1-.62-.48,1.83,1.83,0,0,1-.37-.67,6.62,6.62,0,0,1-.32-2.16l.15-13.19h5.39V53.32h-5.39V46l-4,1.9v5.46h-3.69v3.3h3.6L205,69.2a14.45,14.45,0,0,0,.36,3.59,5.69,5.69,0,0,0,1.14,2.31,4.37,4.37,0,0,0,1.88,1.23,8.49,8.49,0,0,0,2.61.36,10.19,10.19,0,0,0,2.75-.32A11,11,0,0,0,216,75.5Z"/><path class="cls-2" d="M222.26,73.48A10.15,10.15,0,0,0,225.85,76a12.59,12.59,0,0,0,9.31,0,10.41,10.41,0,0,0,3.61-2.5,11.41,11.41,0,0,0,2.34-3.84,14.86,14.86,0,0,0,0-9.85A11,11,0,0,0,238.77,56a10.1,10.1,0,0,0-3.61-2.43,12.84,12.84,0,0,0-9.24,0A10.22,10.22,0,0,0,222.3,56a11.3,11.3,0,0,0-2.37,3.82,14.3,14.3,0,0,0,0,9.85A11.32,11.32,0,0,0,222.26,73.48Zm1.15-8.73a10.93,10.93,0,0,1,.52-3.68,7.61,7.61,0,0,1,1.54-2.69,6.27,6.27,0,0,1,2.27-1.64,6.82,6.82,0,0,1,2.75-.55,7.29,7.29,0,0,1,2.84.55,6.27,6.27,0,0,1,2.27,1.64,7.41,7.41,0,0,1,1.52,2.69,11.22,11.22,0,0,1,.55,3.68,10.57,10.57,0,0,1-.55,3.57A8.18,8.18,0,0,1,235.59,71a6.65,6.65,0,0,1-2.29,1.71,6.53,6.53,0,0,1-2.81.58,6.37,6.37,0,0,1-2.75-.6A6.86,6.86,0,0,1,225.47,71a7.76,7.76,0,0,1-1.54-2.69,10.73,10.73,0,0,1-.57-3.55Z"/><path class="cls-2" d="M117.54,96.54a.34.34,0,0,0-.18,0c-.13,0-.23.07-.38.24a3,3,0,0,1-1,.61,2.7,2.7,0,0,1-1.64,0,2.3,2.3,0,0,1-.63-.35,1.61,1.61,0,0,1-.43-.54,1.57,1.57,0,0,1-.16-.74,1.8,1.8,0,0,1,.09-.65,2,2,0,0,1,.27-.53,2.19,2.19,0,0,1,.38-.42l.47-.37.48-.32a4.06,4.06,0,0,0,.46-.36,1.78,1.78,0,0,0,.35-.42,1,1,0,0,0,.14-.57V90.43h-.81l-.09,1.62a.52.52,0,0,1-.14.33c-.13.12-.28.25-.46.39l-.64.43a4.23,4.23,0,0,0-.68.59,3,3,0,0,0-.55.82,2.88,2.88,0,0,0-.21,1.16,2.34,2.34,0,0,0,.25,1.07,2.37,2.37,0,0,0,.65.82,2.82,2.82,0,0,0,.93.51,3.59,3.59,0,0,0,1.08.17,3.69,3.69,0,0,0,.87-.1,3.21,3.21,0,0,0,.73-.27,4,4,0,0,0,.63-.37l.47-.44.15-.16-.23-.35A.33.33,0,0,0,117.54,96.54Z"/><path class="cls-2" d="M115,88.5a.75.75,0,0,0,.33.07.77.77,0,0,0,.34-.07.79.79,0,0,0,.29-.18,1,1,0,0,0,.2-.29.84.84,0,0,0,0-.67,1,1,0,0,0-.2-.29.81.81,0,0,0-.29-.19.8.8,0,0,0-.34-.07.75.75,0,0,0-.33.07.81.81,0,0,0-.29.19.91.91,0,0,0-.25.63,1,1,0,0,0,.06.33,1.12,1.12,0,0,0,.19.29A.79.79,0,0,0,115,88.5Z"/><path class="cls-2" d="M127.14,90.9a4.58,4.58,0,0,1-.25,1.47,3.17,3.17,0,0,1-.68,1.18,3.22,3.22,0,0,1-1.08.78,3.86,3.86,0,0,1-2.91,0,3.08,3.08,0,0,1-1.07-.78,3.29,3.29,0,0,1-.68-1.19,4.19,4.19,0,0,1-.24-1.49V83.56h-1V90.9a5.29,5.29,0,0,0,.34,1.76,4.51,4.51,0,0,0,.89,1.49,4.09,4.09,0,0,0,1.4,1,4.79,4.79,0,0,0,3.69,0,4.37,4.37,0,0,0,1.4-1,4.61,4.61,0,0,0,.89-1.49,5.29,5.29,0,0,0,.3-1.81V83.56h-1Z"/><path class="cls-2" d="M136.29,87.7a2.21,2.21,0,0,0-.91-.66,3.2,3.2,0,0,0-1.26-.23,3.49,3.49,0,0,0-1.81.49,4.26,4.26,0,0,0-.95.74v-.69a.41.41,0,0,0,0-.16.71.71,0,0,0-.1-.14.39.39,0,0,0-.14-.08.45.45,0,0,0-.16,0h-.48v8.47h1v-6.2a4.16,4.16,0,0,1,1.18-1.07,2.64,2.64,0,0,1,1.46-.42,2.19,2.19,0,0,1,.91.16,1.6,1.6,0,0,1,.61.44,2.29,2.29,0,0,1,.37.73,3.94,3.94,0,0,1,.13,1.08v5.39h1V90.13a4.69,4.69,0,0,0-.17-1.34A2.68,2.68,0,0,0,136.29,87.7Z"/><path class="cls-2" d="M144,87.67a2.26,2.26,0,0,0-.86-.64,3,3,0,0,0-1.19-.22,3.56,3.56,0,0,0-1.6.35,4.76,4.76,0,0,0-1.33,1l-.15.15.21.3a.54.54,0,0,0,.15.15.66.66,0,0,0,.2.06.62.62,0,0,0,.26-.09.79.79,0,0,0,.2-.17l.44-.36a2.41,2.41,0,0,1,.65-.35,2.77,2.77,0,0,1,.94-.16,1.65,1.65,0,0,1,.73.12,1.61,1.61,0,0,1,.59.44,2.68,2.68,0,0,1,.46,1.69v.67a14.65,14.65,0,0,0-2.1.22,6.09,6.09,0,0,0-1.67.51,2.52,2.52,0,0,0-1.08.83,1.8,1.8,0,0,0-.35,1.07,2.37,2.37,0,0,0,.21,1.08,1.92,1.92,0,0,0,.55.71,2.38,2.38,0,0,0,.75.41,2.92,2.92,0,0,0,.83.12,3.82,3.82,0,0,0,1-.11,3.7,3.7,0,0,0,.86-.32,3.11,3.11,0,0,0,.74-.5l.26-.21V95a.41.41,0,0,0,.15.29.46.46,0,0,0,.3.11h.42V89.93a4.45,4.45,0,0,0-.16-1.26A2.46,2.46,0,0,0,144,87.67Zm-.3,5.69-.52.49a4.61,4.61,0,0,1-.62.44,3.92,3.92,0,0,1-.74.29,2.45,2.45,0,0,1-1.42,0,1.32,1.32,0,0,1-.91-1.36c0-.53.32-.92,1-1.23a9.35,9.35,0,0,1,3.23-.57Z"/><path class="cls-2" d="M152.55,83.76a.68.68,0,0,0-.26-.18.84.84,0,0,0-.47,0,.91.91,0,0,0-.42.23.8.8,0,0,0-.18.27.78.78,0,0,0-.07.31.82.82,0,0,0,.07.31.8.8,0,0,0,.18.27,1,1,0,0,0,.27.18.81.81,0,0,0,.31.06.88.88,0,0,0,.57-.24.83.83,0,0,0,.18-.25.73.73,0,0,0,.08-.33,1,1,0,0,0-.07-.33A.92.92,0,0,0,152.55,83.76Z"/><rect class="cls-2" x="151.51" y="86.94" width="0.96" height="8.47"/><path class="cls-2" d="M160.39,87.65a3.22,3.22,0,0,0-.68-.48,3.41,3.41,0,0,0-1.6-.36,3.64,3.64,0,0,0-1.62.35,3.37,3.37,0,0,0-1.18.94,4.36,4.36,0,0,0-.71,1.39,6.51,6.51,0,0,0-.23,1.7,5.09,5.09,0,0,0,.88,3.23,3.07,3.07,0,0,0,2.53,1.08,3.38,3.38,0,0,0,1.77-.49,4.33,4.33,0,0,0,.88-.72V95a.51.51,0,0,0,0,.17.64.64,0,0,0,.1.13.42.42,0,0,0,.14.09.51.51,0,0,0,.17,0h.46V83.23h-1Zm0,5.44a4,4,0,0,1-1.08,1.08,2.5,2.5,0,0,1-1.4.42,2.14,2.14,0,0,1-1-.18,2.17,2.17,0,0,1-.84-.63,4.36,4.36,0,0,1-.65-2.64,5.78,5.78,0,0,1,.18-1.43,3.4,3.4,0,0,1,.53-1.08,2.53,2.53,0,0,1,.87-.72,2.79,2.79,0,0,1,1.24-.26,2.69,2.69,0,0,1,1.25.31h0a2.85,2.85,0,0,1,1,.93Z"/><path class="cls-2" d="M170,89a3.34,3.34,0,0,0-.67-1.17,3,3,0,0,0-1.08-.73,3.93,3.93,0,0,0-2.9.07,3.39,3.39,0,0,0-1.19.89,3.81,3.81,0,0,0-.75,1.33,5.59,5.59,0,0,0-.25,1.67,6.62,6.62,0,0,0,.26,1.88,4.51,4.51,0,0,0,.77,1.41,3.27,3.27,0,0,0,1.22.89,3.92,3.92,0,0,0,1.58.32,4.32,4.32,0,0,0,.95-.1,5.2,5.2,0,0,0,.85-.26,3.73,3.73,0,0,0,.72-.36,1.87,1.87,0,0,0,.51-.46l.14-.17-.25-.28c-.15-.18-.32-.26-.7.05a3,3,0,0,1-.44.28,4.11,4.11,0,0,1-.73.29,3.66,3.66,0,0,1-2.22-.1,2.39,2.39,0,0,1-.9-.67,3.42,3.42,0,0,1-.58-1.08,5.7,5.7,0,0,1-.22-1.59h5.76a.45.45,0,0,0,.19,0,.29.29,0,0,0,.14-.13.29.29,0,0,0,.07-.18.32.32,0,0,0,0-.19A4.36,4.36,0,0,0,170,89Zm-5.79,1.19a3.55,3.55,0,0,1,.25-.86,2.76,2.76,0,0,1,.56-.87,2.38,2.38,0,0,1,.83-.54,3,3,0,0,1,2.08,0,2.18,2.18,0,0,1,.75.53,2.71,2.71,0,0,1,.51.85,3.12,3.12,0,0,1,.17.91Z"/><path class="cls-2" d="M176.81,87.67A2.26,2.26,0,0,0,176,87a3.22,3.22,0,0,0-1.19-.22,3.64,3.64,0,0,0-1.62.35,4.67,4.67,0,0,0-1.31,1l-.15.15.19.3a.46.46,0,0,0,.16.15.39.39,0,0,0,.21.06.73.73,0,0,0,.25-.08.67.67,0,0,0,.2-.17,3,3,0,0,1,.43-.37,2.52,2.52,0,0,1,.67-.35,2.73,2.73,0,0,1,.94-.16,1.59,1.59,0,0,1,.72.12,1.61,1.61,0,0,1,.59.44,2.67,2.67,0,0,1,.45,1.69v.67a14.67,14.67,0,0,0-2.09.22,6.27,6.27,0,0,0-1.68.51,2.49,2.49,0,0,0-1.07.83,1.81,1.81,0,0,0-.36,1.07,2.51,2.51,0,0,0,.21,1.08A1.89,1.89,0,0,0,172,95a2.48,2.48,0,0,0,.77.41,2.92,2.92,0,0,0,.83.12,4.2,4.2,0,0,0,1-.11,3.63,3.63,0,0,0,.85-.32,3.23,3.23,0,0,0,.76-.5l.26-.21V95a.4.4,0,0,0,.14.29.41.41,0,0,0,.31.11h.41V89.93a4.83,4.83,0,0,0-.15-1.26A2.75,2.75,0,0,0,176.81,87.67Zm-.32,5.69-.5.49a5.47,5.47,0,0,1-.63.44,3.83,3.83,0,0,1-.73.29,2.49,2.49,0,0,1-1.43,0,1.45,1.45,0,0,1-.47-.26,1.2,1.2,0,0,1-.32-.45,1.57,1.57,0,0,1-.13-.65c0-.53.34-.92,1-1.23a9.65,9.65,0,0,1,3.24-.57Z"/><path class="cls-2" d="M183.54,84.12a2.8,2.8,0,0,0-.94-.52,3.59,3.59,0,0,0-1.95-.07,4.07,4.07,0,0,0-.74.26,6.33,6.33,0,0,0-.61.39,4.07,4.07,0,0,0-.49.43l-.14.15.22.36a.35.35,0,0,0,.14.13.43.43,0,0,0,.19,0c.13,0,.23-.07.39-.22a3,3,0,0,1,.39-.32,3.64,3.64,0,0,1,.63-.3,2.53,2.53,0,0,1,1.63,0,2,2,0,0,1,.64.35,1.59,1.59,0,0,1,.59,1.27,2,2,0,0,1-.17.87,2.58,2.58,0,0,1-.46.67,3.86,3.86,0,0,1-.6.54l-.65.48a4.51,4.51,0,0,0-.54.53,1.18,1.18,0,0,0-.23.74v1.66h.79l.08-1.62a.54.54,0,0,1,.09-.25,1.2,1.2,0,0,1,.29-.26,3.22,3.22,0,0,1,.41-.32c.17-.12.33-.24.5-.38a5.47,5.47,0,0,0,.51-.45,2.5,2.5,0,0,0,.46-.57,2.41,2.41,0,0,0,.33-.71,3.13,3.13,0,0,0,.13-.91,2.8,2.8,0,0,0-.89-2Z"/><path class="cls-2" d="M181.89,94a.87.87,0,0,0-.28-.19,1,1,0,0,0-.34-.07,1,1,0,0,0-.34.07.91.91,0,0,0-.29.19.93.93,0,0,0,0,1.25.93.93,0,0,0,.63.25.89.89,0,0,0,.62-.25.69.69,0,0,0,.2-.28.83.83,0,0,0,.07-.34.77.77,0,0,0-.07-.34A.72.72,0,0,0,181.89,94Z"/><path class="cls-2" d="M198.79,90.9a4.58,4.58,0,0,1-.25,1.47,3.17,3.17,0,0,1-.68,1.18,3.12,3.12,0,0,1-1.08.78,3.88,3.88,0,0,1-2.92,0,3.18,3.18,0,0,1-1.07-.78,3.29,3.29,0,0,1-.68-1.19,4.43,4.43,0,0,1-.24-1.49V83.56h-1V90.9a5.37,5.37,0,0,0,.3,1.81,4.57,4.57,0,0,0,.89,1.48,4.09,4.09,0,0,0,1.4,1,4.79,4.79,0,0,0,3.69,0,4.09,4.09,0,0,0,1.4-1,4.57,4.57,0,0,0,.89-1.48,5.63,5.63,0,0,0,.3-1.81V83.56h-1Z"/><path class="cls-2" d="M208,87.7A2.41,2.41,0,0,0,207,87a3.2,3.2,0,0,0-1.26-.23,3.59,3.59,0,0,0-1.81.49,4.5,4.5,0,0,0-1,.74v-.69a.41.41,0,0,0,0-.16.45.45,0,0,0-.1-.14.32.32,0,0,0-.14-.08.41.41,0,0,0-.16,0h-.47v8.47h1v-6.2a4.42,4.42,0,0,1,1.17-1.07,2.65,2.65,0,0,1,1.47-.42,2.14,2.14,0,0,1,.9.16,1.5,1.5,0,0,1,.62.44,2.08,2.08,0,0,1,.36.73,3.94,3.94,0,0,1,.13,1.08v5.39h1V90.13a4.69,4.69,0,0,0-.17-1.34A2.66,2.66,0,0,0,208,87.7Z"/><path class="cls-2" d="M221.07,93.79a.34.34,0,0,0-.19-.05.62.62,0,0,0-.4.22,2.66,2.66,0,0,1-.38.28,2.7,2.7,0,0,1-.62.29,3.23,3.23,0,0,1-2.06-.1,2.17,2.17,0,0,1-.84-.66,2.86,2.86,0,0,1-.56-1.08,5.83,5.83,0,0,1,0-3,3,3,0,0,1,.56-1.08,2.42,2.42,0,0,1,.87-.68,3.43,3.43,0,0,1,2-.14A3.65,3.65,0,0,1,220,88a2.64,2.64,0,0,1,.35.23.63.63,0,0,0,.37.17h.16l.42-.48-.17-.17a3.68,3.68,0,0,0-1.08-.67,4.09,4.09,0,0,0-3,.07,3.3,3.3,0,0,0-1.2.9,4.1,4.1,0,0,0-.74,1.38,6.34,6.34,0,0,0,0,3.56,4.19,4.19,0,0,0,.72,1.37,3.35,3.35,0,0,0,1.17.87,3.59,3.59,0,0,0,1.48.29,4.08,4.08,0,0,0,.93-.1,3.85,3.85,0,0,0,.79-.26,3.66,3.66,0,0,0,.67-.37,2.18,2.18,0,0,0,.45-.46l.12-.16-.23-.28A.47.47,0,0,0,221.07,93.79Z"/><path class="cls-2" d="M227.75,87.67a2.26,2.26,0,0,0-.86-.64,3.22,3.22,0,0,0-1.19-.22,3.6,3.6,0,0,0-1.61.35,4.58,4.58,0,0,0-1.32,1l-.15.15.2.3a.43.43,0,0,0,.15.15.42.42,0,0,0,.21.06.67.67,0,0,0,.45-.25,3.08,3.08,0,0,1,.44-.37,2.47,2.47,0,0,1,.66-.35,2.73,2.73,0,0,1,.94-.16,1.65,1.65,0,0,1,.73.12,1.61,1.61,0,0,1,.59.44,2.73,2.73,0,0,1,.45,1.69v.67a14.67,14.67,0,0,0-2.09.22,6.16,6.16,0,0,0-1.68.51,2.6,2.6,0,0,0-1.08.83,2,2,0,0,0-.35,1.07,2.51,2.51,0,0,0,.21,1.08A1.92,1.92,0,0,0,223,95a2,2,0,0,0,.76.41,2.92,2.92,0,0,0,.83.12,4.28,4.28,0,0,0,1-.11,4,4,0,0,0,1.6-.82l.26-.21V95a.44.44,0,0,0,.14.29.41.41,0,0,0,.31.11h.51V89.93a5.3,5.3,0,0,0-.15-1.26A2.9,2.9,0,0,0,227.75,87.67Zm-.31,5.69-.51.49a5.35,5.35,0,0,1-.62.44,3.92,3.92,0,0,1-.74.29,2.49,2.49,0,0,1-1.43,0,1.17,1.17,0,0,1-.46-.26,1.12,1.12,0,0,1-.33-.45,1.57,1.57,0,0,1-.13-.65c0-.53.34-.92,1-1.23a9.59,9.59,0,0,1,3.23-.57Z"/><path class="cls-2" d="M234.05,83.48a3,3,0,0,0-1.54.13,2.17,2.17,0,0,0-.83.57,2.4,2.4,0,0,0-.51.94,4.14,4.14,0,0,0-.19,1.26v.9h-1.39v.43c0,.16.1.35.41.38h1V95.4h1V88.1h2.71v-.82h-2.72v-.87a3.39,3.39,0,0,1,.13-1,1.7,1.7,0,0,1,.35-.63,1.36,1.36,0,0,1,.48-.34,2.09,2.09,0,0,1,1.08-.07h.46a.41.41,0,0,0,.21-.1.33.33,0,0,0,.09-.21l.06-.37-.19-.09A1.69,1.69,0,0,0,234.05,83.48Z"/><path class="cls-2" d="M242,89a3.24,3.24,0,0,0-.71-1.18,3,3,0,0,0-1.08-.73,3.88,3.88,0,0,0-2.88.07,3.12,3.12,0,0,0-1.2.89,3.79,3.79,0,0,0-.74,1.33A5.29,5.29,0,0,0,235.1,91a6.28,6.28,0,0,0,.26,1.88,4.1,4.1,0,0,0,.76,1.41,3.27,3.27,0,0,0,1.22.89,3.87,3.87,0,0,0,1.57.32,4.32,4.32,0,0,0,1-.1,5.31,5.31,0,0,0,.86-.26,3.64,3.64,0,0,0,.71-.36,2.29,2.29,0,0,0,.52-.46l.14-.17-.25-.28a.26.26,0,0,0-.14-.11.33.33,0,0,0-.17,0c-.11,0-.2,0-.4.2a2,2,0,0,1-.44.28,3.27,3.27,0,0,1-.73.29,3.63,3.63,0,0,1-2.21-.1,2.39,2.39,0,0,1-.9-.67,3.45,3.45,0,0,1-.59-1.08,5.69,5.69,0,0,1-.2-1.59l5.74-.1a.47.47,0,0,0,.17,0,.45.45,0,0,0,.14-.1.42.42,0,0,0,.09-.14.33.33,0,0,0,0-.17A4.37,4.37,0,0,0,242,89Zm-5.84,1.18a4.44,4.44,0,0,1,.25-.86,2.79,2.79,0,0,1,.57-.87,2.38,2.38,0,0,1,.83-.54,3,3,0,0,1,2.07,0,2.09,2.09,0,0,1,.75.53,2.3,2.3,0,0,1,.51.85,2.83,2.83,0,0,1,.18.91Z"/><path class="cls-2" d="M238.27,83.5a.83.83,0,0,0-.38-.07h-1l2,2.46a.52.52,0,0,0,.19.14.46.46,0,0,0,.23,0h.75l-1.58-2.32A.85.85,0,0,0,238.27,83.5Z"/></g></g></svg>