<svg width="181" height="300" viewBox="0 0 181 300" fill="none" xmlns="http://www.w3.org/2000/svg">
<rect x="1.7193" y="1" width="178" height="298" rx="4" fill="#161413" stroke="#F5F5F5" stroke-width="2"/>
<g filter="url(#filter0_d)">
<path d="M110.578 252.41C111.073 234.216 88.4141 232 88.4141 232C88.4141 232 87.3645 234.437 79.7836 236.132C72.2027 237.827 71.5945 244.95 71.5945 244.95C71.5945 244.95 75.7224 242.684 78.5173 245.558C78.019 245.911 77.6271 246.393 77.3843 246.954C76.4024 246.797 75.4121 246.698 74.4186 246.658C74.3129 246.649 74.2069 246.672 74.1146 246.724C74.0354 246.779 73.9979 246.945 73.9146 247.67C73.9025 247.817 73.8816 247.963 73.8521 248.107L73.8272 248.236H73.9188L74.1395 248.266C74.2804 248.278 74.4198 248.303 74.5561 248.341C74.4424 248.81 74.3548 249.286 74.2937 249.765C74.1812 250.507 74.0687 251.319 74.0521 251.481C73.907 252.537 74.1165 253.611 74.6477 254.534L72.9816 255.784C71.2655 257.092 69.6493 258.325 69.2328 258.737C68.7538 259.25 69.0495 261.886 69.7951 264.31C72.2735 279.556 83.9572 279.635 87.3978 281.855C89.0639 282.917 107.191 278.498 112.411 257.096C112.71 255.871 110.503 255.076 110.578 252.41ZM69.7035 259.204C70.12 258.787 71.7861 257.538 73.3815 256.313L75.0476 255.063L75.1476 255.184C75.6207 255.678 76.224 256.027 76.8875 256.191C77.5511 256.356 78.2476 256.328 78.8963 256.113C79.4518 255.918 79.9531 255.594 80.3587 255.168C80.7642 254.741 81.0625 254.224 81.2289 253.66C81.3889 253.163 81.5046 252.653 81.5747 252.135C81.6506 251.466 81.829 250.813 82.1036 250.198C82.199 250.009 82.3567 249.858 82.5502 249.772C82.7437 249.685 82.9612 249.668 83.1658 249.723C83.4264 249.768 83.6592 249.913 83.8147 250.127C83.9703 250.341 84.0363 250.607 83.9989 250.869C83.724 252.818 83.5823 254.863 84.3738 256.613C84.6732 257.228 85.1011 257.771 85.6285 258.207C86.1559 258.642 86.7706 258.959 87.4311 259.137C87.7339 259.228 88.043 259.296 88.3558 259.341C89.7551 259.566 91.1892 259.298 92.4128 258.583C93.416 257.937 94.2171 257.022 94.7246 255.942C95.0627 255.208 95.2901 254.427 95.3994 253.626C95.3994 253.626 95.6326 252.177 95.6618 251.689L96.3491 251.798L96.5906 250.265L96.524 250.161H96.4907C96.0741 250.057 95.6285 249.944 95.1994 249.832C93.7542 249.415 92.2816 249.099 90.7925 248.886C89.7387 248.761 88.6682 248.67 87.6019 248.628C87.1853 248.628 86.7688 248.628 86.3523 248.628C85.7566 248.628 85.136 248.628 84.5362 248.574C83.3866 248.423 82.2522 248.174 81.1456 247.828L80.2501 247.553C79.5128 247.358 78.7797 247.203 78.0508 247.07C78.5548 246.066 79.8502 245.242 83.0117 244.346C89.0764 242.63 92.1754 245.646 93.2584 247.02C93.3931 247.195 93.5691 247.333 93.7706 247.422C93.972 247.512 94.1925 247.549 94.4122 247.532C97.2821 247.303 101.872 249.328 102.493 249.907C100.214 257.638 98.6691 259.158 96.4574 259.358C96.1241 259.387 95.8825 259.408 95.5493 265.031C95.5413 265.147 95.5057 265.26 95.4456 265.36C95.3855 265.46 95.3026 265.544 95.2036 265.606C94.2497 266.185 91.1174 268.105 90.805 268.28C85.54 271.346 79.517 270.229 77.1719 269.609C74.0937 268.776 71.9444 267.526 71.4862 266.718C69.9659 264.094 69.4202 259.687 69.7035 259.204ZM77.6426 252.797C77.8063 251.738 77.8426 250.663 77.7509 249.594C77.7259 249.14 77.7092 248.728 77.7259 248.345H77.88C78.1216 248.37 78.4132 248.395 78.7131 248.441C79.6336 248.578 80.6999 248.857 80.9415 249.644C81.2123 250.507 80.9415 251.498 80.7166 252.298C80.6916 252.398 80.6624 252.498 80.6375 252.598C80.4375 253.36 80.2209 254.151 79.6003 254.651C79.2814 254.897 78.9169 255.077 78.5279 255.18C78.1389 255.284 77.7332 255.309 77.3344 255.255C76.7438 255.176 76.1945 254.909 75.7682 254.493C77.3968 253.243 77.6093 252.989 77.6426 252.797ZM85.3984 250.557C85.8774 249.919 86.8688 249.773 87.6144 249.765C88.5775 249.752 89.5401 249.818 90.4926 249.961C90.9883 250.032 91.4923 250.127 92.0046 250.24C93.1959 250.507 94.5621 250.994 94.5538 252.418C94.542 252.947 94.4637 253.472 94.3205 253.98C94.1329 254.669 93.8527 255.329 93.4875 255.942C92.9271 256.915 92.017 257.637 90.9425 257.962C90.1734 258.169 89.3662 258.188 88.5881 258.019C87.8099 257.851 87.0834 257.498 86.4689 256.992C85.9735 256.563 85.5794 256.03 85.3151 255.43C85.0242 254.682 84.895 253.882 84.9361 253.081V252.931C84.9319 252.144 84.9236 251.185 85.3984 250.557ZM75.0809 253.351C74.7269 252.206 75.0809 250.715 75.3392 249.515C75.3725 249.374 75.4058 249.232 75.435 249.099C75.6141 248.299 76.3722 248.241 77.1011 248.291C77.0786 248.736 77.0786 249.182 77.1011 249.628C77.1824 250.629 77.1489 251.637 77.0011 252.631C76.4692 253.112 75.9131 253.565 75.335 253.989C75.2232 253.788 75.1378 253.574 75.0809 253.351V253.351Z" fill="#F5F5F5"/>
<path d="M96.9655 258.279C97.2266 258.32 97.4939 258.283 97.7339 258.172C97.9738 258.061 98.1756 257.882 98.3136 257.657C98.4517 257.431 98.5199 257.17 98.5096 256.906C98.4993 256.642 98.4109 256.387 98.2557 256.173C98.1005 255.959 97.8854 255.796 97.6376 255.704C97.3897 255.613 97.1203 255.596 96.8632 255.658C96.6062 255.719 96.373 255.855 96.1933 256.049C96.0136 256.243 95.8953 256.485 95.8534 256.746C95.8255 256.92 95.8321 257.097 95.8729 257.269C95.9138 257.44 95.988 257.601 96.0913 257.743C96.1946 257.886 96.325 258.006 96.475 258.098C96.625 258.19 96.7917 258.252 96.9655 258.279V258.279Z" fill="#F5F5F5"/>
<path d="M73.4106 263.107L74.8768 261.116C74.9855 260.957 75.051 260.773 75.0669 260.581C75.0828 260.389 75.0485 260.197 74.9673 260.022C74.8862 259.848 74.7611 259.698 74.6043 259.586C74.4474 259.475 74.2643 259.406 74.0729 259.387L71.2696 258.97C71.0818 258.936 70.8883 258.951 70.708 259.014C70.5276 259.076 70.3667 259.185 70.2408 259.328C70.1148 259.472 70.0283 259.646 69.9896 259.833C69.9509 260.019 69.9614 260.213 70.02 260.395L70.8531 262.723C71.1447 263.59 72.8691 263.844 73.4106 263.107Z" fill="#F5F5F5"/>
<path d="M90.1469 263.557C90.2366 263.512 90.3342 263.487 90.434 263.481C90.5338 263.476 90.6336 263.49 90.7277 263.524C90.8217 263.558 90.908 263.61 90.9814 263.678C91.0548 263.746 91.1138 263.828 91.1549 263.919C90.9508 264.144 89.9761 265.069 87.5228 265.781L87.5686 265.96C88.9196 265.68 90.2164 265.183 91.409 264.49C91.534 264.935 91.4923 265.285 91.359 265.352C88.8485 266.648 86.1714 267.593 83.4032 268.159V268.342C87.0437 268.292 90.5801 266.676 91.9422 265.843C92.4128 265.552 92.9335 264.764 92.7169 264.144L91.8839 262.365C91.7596 262.167 91.5948 261.996 91.4003 261.866C91.2058 261.735 90.9859 261.647 90.755 261.607H90.7259C90.5675 261.584 90.4059 261.596 90.253 261.644C90.1001 261.691 89.9599 261.773 89.8428 261.882C86.2357 265.323 77.2886 266.572 77.2011 266.572L76.6179 266.647L77.1969 266.751C77.2469 266.755 82.3328 267.597 90.1469 263.557Z" fill="#F5F5F5"/>
<path d="M78.4923 253.081H79.3254C79.4517 253.085 79.575 253.041 79.6696 252.958C79.7642 252.874 79.8229 252.757 79.8336 252.631C79.8627 251.96 79.8044 250.815 79.0547 250.765C78.3049 250.715 78.0508 251.869 78.0133 252.564C78.0094 252.63 78.0188 252.696 78.041 252.758C78.0632 252.82 78.0977 252.877 78.1425 252.925C78.1872 252.973 78.2413 253.012 78.3014 253.039C78.3616 253.065 78.4265 253.08 78.4923 253.081Z" fill="#F5F5F5"/>
<path d="M87.1728 253.66H87.2353C87.4155 253.585 87.5873 253.492 87.7476 253.381C88.2717 253.11 88.8582 252.984 89.4471 253.014C90.0034 253.053 90.5383 253.244 90.9924 253.568C91.1382 253.668 91.2715 253.78 91.409 253.885C91.4865 253.952 91.5852 253.99 91.688 253.993C91.7439 253.982 91.7966 253.959 91.8423 253.925C91.888 253.891 91.9254 253.847 91.9518 253.797C91.9782 253.746 91.9929 253.69 91.9948 253.634C91.9968 253.577 91.9859 253.52 91.9629 253.468C91.9173 253.383 91.8549 253.308 91.7797 253.247C91.1592 252.61 90.3324 252.215 89.4471 252.131C89.1277 252.126 88.8096 252.174 88.5057 252.273C88.2102 252.373 87.9299 252.513 87.6727 252.689C87.4275 252.827 87.2099 253.009 87.0312 253.226L86.9937 253.285C86.9667 253.326 86.9496 253.373 86.9437 253.422C86.942 253.453 86.9467 253.484 86.9575 253.513C86.9683 253.542 86.9849 253.569 87.0064 253.591C87.028 253.613 87.0538 253.631 87.0825 253.643C87.1111 253.655 87.1419 253.66 87.1728 253.66V253.66Z" fill="#F5F5F5"/>
<path d="M90.1344 254.226C89.6519 253.919 89.0846 253.774 88.5141 253.81C88.152 253.835 87.799 253.934 87.4769 254.101C87.4253 254.131 87.3753 254.163 87.327 254.197C87.2478 254.264 87.1812 254.347 87.2187 254.447C87.2396 254.492 87.276 254.527 87.3212 254.547C87.3664 254.567 87.4173 254.57 87.4644 254.555C87.5894 254.522 87.7102 254.468 87.8351 254.43C87.9616 254.389 88.0911 254.357 88.2225 254.334C88.4979 254.284 88.7801 254.284 89.0556 254.334C89.3329 254.412 89.601 254.52 89.8553 254.655C89.9729 254.722 90.1074 254.754 90.2427 254.747C90.351 254.747 90.476 254.659 90.4635 254.539C90.451 254.418 90.2469 254.297 90.1344 254.226Z" fill="#F5F5F5"/>
</g>
<g filter="url(#filter1_d)">
<path d="M29.5593 40.584H30.8313V26.64H29.5593V25.2H34.9353C35.7033 25.2 36.3993 25.28 37.0233 25.44C37.6633 25.6 38.2073 25.848 38.6553 26.184C39.1193 26.52 39.4713 26.96 39.7113 27.504C39.9673 28.032 40.0953 28.664 40.0953 29.4C40.0953 30.392 39.8553 31.264 39.3753 32.016C38.8953 32.768 38.1593 33.28 37.1673 33.552C37.6313 33.648 38.0713 33.808 38.4873 34.032C38.9193 34.256 39.2953 34.544 39.6153 34.896C39.9513 35.248 40.2153 35.656 40.4073 36.12C40.5993 36.584 40.6953 37.104 40.6953 37.68C40.6953 38.4 40.5433 39.032 40.2393 39.576C39.9513 40.104 39.5593 40.552 39.0633 40.92C38.5673 41.272 37.9993 41.544 37.3593 41.736C36.7193 41.912 36.0553 42 35.3673 42H29.5593V40.584ZM32.3193 34.272V40.584H35.2473C35.7913 40.584 36.3033 40.52 36.7833 40.392C37.2633 40.264 37.6793 40.072 38.0313 39.816C38.3993 39.56 38.6873 39.24 38.8953 38.856C39.1033 38.456 39.2073 38 39.2073 37.488C39.2073 36.928 39.0873 36.448 38.8473 36.048C38.6073 35.632 38.2793 35.296 37.8633 35.04C37.4633 34.768 36.9993 34.576 36.4713 34.464C35.9593 34.336 35.4313 34.272 34.8873 34.272H32.3193ZM32.3193 26.64V32.832H35.1993C36.2393 32.832 37.0633 32.536 37.6713 31.944C38.2793 31.336 38.5833 30.552 38.5833 29.592C38.5833 28.536 38.2633 27.784 37.6233 27.336C36.9833 26.872 36.1513 26.64 35.1273 26.64H32.3193ZM42.3796 40.584H43.6516V26.64H42.3796V25.2H47.4196C47.9476 25.2 48.5236 25.288 49.1476 25.464C49.7716 25.624 50.3556 25.888 50.8996 26.256C51.4596 26.608 51.9236 27.064 52.2916 27.624C52.6596 28.184 52.8436 28.864 52.8436 29.664C52.8436 30.848 52.5396 31.832 51.9316 32.616C51.3236 33.4 50.4436 33.92 49.2916 34.176L52.2916 40.584H54.4756V42H51.3556L47.7076 34.272C47.5316 34.288 47.3556 34.296 47.1796 34.296C47.0036 34.296 46.8276 34.296 46.6516 34.296H45.1396V40.584H47.7076V42H42.3796V40.584ZM45.1396 32.856H47.4196C48.1876 32.856 48.8276 32.76 49.3396 32.568C49.8516 32.36 50.2516 32.104 50.5396 31.8C50.8436 31.48 51.0516 31.136 51.1636 30.768C51.2916 30.384 51.3556 30.016 51.3556 29.664C51.3556 29.264 51.2516 28.88 51.0436 28.512C50.8516 28.144 50.5796 27.824 50.2276 27.552C49.8916 27.28 49.4836 27.064 49.0036 26.904C48.5236 26.728 48.0036 26.64 47.4436 26.64H45.1396V32.856ZM56.1609 40.584H58.0809C59.2169 37.864 60.3529 35.176 61.4889 32.52C62.6249 29.848 63.7689 27.152 64.9209 24.432C66.0729 27.152 67.2089 29.848 68.3289 32.52C69.4649 35.176 70.6089 37.864 71.7609 40.584H73.6809V42H68.6889V40.584H70.2489C69.8489 39.656 69.4569 38.736 69.0729 37.824C68.7049 36.912 68.3209 35.992 67.9209 35.064H61.9209C61.5209 35.992 61.1289 36.912 60.7449 37.824C60.3609 38.736 59.9689 39.656 59.5689 40.584H61.1529V42H56.1609V40.584ZM65.1369 28.488L64.8969 27.744C64.8809 27.776 64.8649 27.832 64.8489 27.912C64.8329 27.992 64.8089 28.072 64.7769 28.152L64.6809 28.488C64.6009 28.696 64.4729 29 64.2969 29.4C64.1369 29.784 63.9529 30.216 63.7449 30.696C63.5529 31.176 63.3449 31.68 63.1209 32.208C62.9129 32.72 62.7129 33.2 62.5209 33.648H67.3209L65.1369 28.488ZM75.3562 40.584H77.3722V26.64H75.3562V25.2H78.0442L90.1642 38.832L90.6202 39.456L90.5482 38.688V26.64H88.7722V25.2H94.0762V26.64H92.0362V42.768L79.2442 28.584L78.8122 27.984L78.8602 28.728V40.584H80.6842V42H75.3562V40.584ZM95.7468 40.56H97.0668V26.64H95.7468V25.2H100.787C101.939 25.2 103.027 25.4 104.051 25.8C105.075 26.184 105.971 26.744 106.739 27.48C107.507 28.216 108.115 29.104 108.563 30.144C109.011 31.168 109.235 32.328 109.235 33.624C109.235 34.568 109.067 35.536 108.731 36.528C108.411 37.52 107.883 38.424 107.147 39.24C106.411 40.04 105.451 40.704 104.267 41.232C103.099 41.744 101.667 42 99.9708 42H95.7468V40.56ZM98.5548 26.64V40.56H100.427C101.563 40.56 102.579 40.376 103.475 40.008C104.387 39.64 105.155 39.144 105.779 38.52C106.419 37.896 106.907 37.16 107.243 36.312C107.579 35.464 107.747 34.56 107.747 33.6C107.747 32.544 107.563 31.584 107.195 30.72C106.827 29.856 106.323 29.128 105.683 28.536C105.043 27.928 104.291 27.464 103.427 27.144C102.563 26.808 101.643 26.64 100.667 26.64H98.5548ZM110.911 40.584H112.783V26.64H110.911V25.2H116.239V26.64H114.295V40.584H116.239V42H110.911V40.584ZM117.919 40.584H119.935V26.64H117.919V25.2H120.607L132.727 38.832L133.183 39.456L133.111 38.688V26.64H131.335V25.2H136.639V26.64H134.599V42.768L121.807 28.584L121.375 27.984L121.423 28.728V40.584H123.247V42H117.919V40.584ZM151.245 34.848V41.04C150.605 41.408 149.917 41.704 149.181 41.928C148.461 42.136 147.693 42.24 146.877 42.24C145.693 42.24 144.581 42.016 143.541 41.568C142.501 41.12 141.589 40.512 140.805 39.744C140.037 38.96 139.429 38.048 138.981 37.008C138.533 35.968 138.309 34.856 138.309 33.672C138.309 32.488 138.533 31.376 138.981 30.336C139.429 29.28 140.037 28.368 140.805 27.6C141.589 26.816 142.501 26.2 143.541 25.752C144.581 25.288 145.693 25.056 146.877 25.056C147.693 25.056 148.461 25.16 149.181 25.368C149.917 25.576 150.613 25.872 151.269 26.256L150.429 27.48C149.357 26.824 148.173 26.496 146.877 26.496C145.901 26.496 144.981 26.688 144.117 27.072C143.269 27.44 142.525 27.952 141.885 28.608C141.245 29.264 140.733 30.032 140.349 30.912C139.981 31.776 139.797 32.696 139.797 33.672C139.797 34.664 139.981 35.592 140.349 36.456C140.717 37.32 141.221 38.08 141.861 38.736C142.501 39.376 143.245 39.888 144.093 40.272C144.957 40.64 145.877 40.824 146.853 40.824C147.893 40.824 148.861 40.608 149.757 40.176V36.288H146.781V34.848H151.245Z" fill="#F5F5F5"/>
</g>
<path d="M29.62 84V74.095H32.469C33.0336 74.095 33.5213 74.151 33.932 74.263C34.3473 74.375 34.6903 74.5407 34.961 74.76C35.2316 74.9747 35.4323 75.2383 35.563 75.551C35.6983 75.8637 35.766 76.2183 35.766 76.615C35.766 76.8763 35.7193 77.1283 35.626 77.371C35.5373 77.6137 35.4066 77.8377 35.234 78.043C35.0613 78.2483 34.849 78.428 34.597 78.582C34.3496 78.7313 34.065 78.8457 33.743 78.925C34.5223 79.0417 35.122 79.3007 35.542 79.702C35.962 80.1033 36.172 80.633 36.172 81.291C36.172 81.711 36.0973 82.089 35.948 82.425C35.7986 82.761 35.5816 83.0457 35.297 83.279C35.0123 83.5123 34.6623 83.692 34.247 83.818C33.8316 83.9393 33.3603 84 32.833 84H29.62ZM30.334 79.254V83.426H32.819C33.6916 83.426 34.3496 83.2393 34.793 82.866C35.2363 82.488 35.458 81.9583 35.458 81.277C35.458 80.9643 35.3973 80.6843 35.276 80.437C35.1593 80.185 34.989 79.9727 34.765 79.8C34.541 79.6227 34.2656 79.4873 33.939 79.394C33.6123 79.3007 33.2413 79.254 32.826 79.254H30.334ZM30.334 78.729H32.483C32.9403 78.729 33.33 78.6707 33.652 78.554C33.9786 78.4373 34.2446 78.2833 34.45 78.092C34.66 77.9007 34.814 77.6837 34.912 77.441C35.01 77.1983 35.059 76.9487 35.059 76.692C35.059 76.0247 34.8466 75.5207 34.422 75.18C34.002 74.8347 33.351 74.662 32.469 74.662H30.334V78.729ZM39.5127 79.52V84H38.7987V74.095H41.3257C42.469 74.095 43.323 74.3167 43.8877 74.76C44.4524 75.1987 44.7347 75.845 44.7347 76.699C44.7347 77.077 44.6694 77.4223 44.5387 77.735C44.408 78.0477 44.219 78.323 43.9717 78.561C43.729 78.7943 43.435 78.988 43.0897 79.142C42.7444 79.2913 42.3547 79.3893 41.9207 79.436C42.0327 79.506 42.133 79.5993 42.2217 79.716L45.6307 84H45.0077C44.933 84 44.8677 83.986 44.8117 83.958C44.7604 83.93 44.709 83.8833 44.6577 83.818L41.4867 79.8C41.4074 79.6973 41.321 79.625 41.2277 79.583C41.139 79.541 40.999 79.52 40.8077 79.52H39.5127ZM39.5127 78.988H41.2347C41.6734 78.988 42.0654 78.9367 42.4107 78.834C42.7607 78.7267 43.0547 78.575 43.2927 78.379C43.5354 78.183 43.7197 77.9473 43.8457 77.672C43.9717 77.3967 44.0347 77.0863 44.0347 76.741C44.0347 76.0363 43.8037 75.5137 43.3417 75.173C42.8797 74.8323 42.2077 74.662 41.3257 74.662H39.5127V78.988ZM54.8757 84H54.3227C54.2574 84 54.2037 83.9837 54.1617 83.951C54.1197 83.9137 54.0871 83.867 54.0637 83.811L52.8947 80.934H48.0297L46.8677 83.811C46.8491 83.8623 46.8164 83.9067 46.7697 83.944C46.7231 83.9813 46.6671 84 46.6017 84H46.0557L50.1087 74.095H50.8227L54.8757 84ZM48.2467 80.402H52.6847L50.6617 75.397C50.6291 75.3177 50.5964 75.229 50.5637 75.131C50.5311 75.0283 50.4984 74.921 50.4657 74.809C50.4331 74.921 50.4004 75.0283 50.3677 75.131C50.3351 75.229 50.3024 75.32 50.2697 75.404L48.2467 80.402ZM56.7942 74.095C56.8595 74.095 56.9108 74.1043 56.9482 74.123C56.9855 74.137 57.0252 74.172 57.0672 74.228L63.4792 82.81C63.4652 82.67 63.4582 82.5347 63.4582 82.404V74.095H64.0882V84H63.7452C63.6378 84 63.5515 83.9533 63.4862 83.86L57.0462 75.264C57.0602 75.404 57.0672 75.537 57.0672 75.663V84H56.4442V74.095H56.7942ZM75.3632 79.044C75.3632 79.8093 75.2489 80.4977 75.0202 81.109C74.7915 81.7203 74.4695 82.2407 74.0542 82.67C73.6389 83.0993 73.1419 83.4283 72.5632 83.657C71.9845 83.8857 71.3429 84 70.6382 84H67.0262V74.095H70.6382C71.3429 74.095 71.9845 74.2093 72.5632 74.438C73.1419 74.6667 73.6389 74.9957 74.0542 75.425C74.4695 75.8543 74.7915 76.3747 75.0202 76.986C75.2489 77.5973 75.3632 78.2833 75.3632 79.044ZM74.6212 79.044C74.6212 78.3533 74.5255 77.7373 74.3342 77.196C74.1429 76.6547 73.8722 76.1973 73.5222 75.824C73.1769 75.4507 72.7592 75.166 72.2692 74.97C71.7792 74.774 71.2355 74.676 70.6382 74.676H67.7472V83.419H70.6382C71.2355 83.419 71.7792 83.321 72.2692 83.125C72.7592 82.929 73.1769 82.6443 73.5222 82.271C73.8722 81.8977 74.1429 81.4403 74.3342 80.899C74.5255 80.3577 74.6212 79.7393 74.6212 79.044ZM78.6429 84H77.9219V74.095H78.6429V84ZM82.1965 74.095C82.2619 74.095 82.3132 74.1043 82.3505 74.123C82.3879 74.137 82.4275 74.172 82.4695 74.228L88.8815 82.81C88.8675 82.67 88.8605 82.5347 88.8605 82.404V74.095H89.4905V84H89.1475C89.0402 84 88.9539 83.9533 88.8885 83.86L82.4485 75.264C82.4625 75.404 82.4695 75.537 82.4695 75.663V84H81.8465V74.095H82.1965ZM96.6846 83.531C97.0252 83.531 97.3356 83.5147 97.6156 83.482C97.8956 83.4447 98.1546 83.391 98.3926 83.321C98.6352 83.251 98.8639 83.167 99.0786 83.069C99.2979 82.9663 99.5172 82.852 99.7366 82.726V80.059H97.8326C97.7812 80.059 97.7369 80.0427 97.6996 80.01C97.6669 79.9773 97.6506 79.94 97.6506 79.898V79.506H100.388V83.027C100.14 83.1997 99.8836 83.3537 99.6176 83.489C99.3516 83.6243 99.0669 83.7387 98.7636 83.832C98.4602 83.9207 98.1336 83.9883 97.7836 84.035C97.4336 84.0863 97.0509 84.112 96.6356 84.112C95.9216 84.112 95.2682 83.993 94.6756 83.755C94.0876 83.5123 93.5812 83.1717 93.1566 82.733C92.7366 82.2897 92.4099 81.7553 92.1766 81.13C91.9432 80.5047 91.8266 79.8093 91.8266 79.044C91.8266 78.2787 91.9432 77.5857 92.1766 76.965C92.4099 76.3397 92.7412 75.8077 93.1706 75.369C93.5999 74.9257 94.1202 74.585 94.7316 74.347C95.3476 74.1043 96.0359 73.983 96.7966 73.983C97.1746 73.983 97.5222 74.0087 97.8396 74.06C98.1616 74.1113 98.4602 74.1883 98.7356 74.291C99.0109 74.389 99.2676 74.5127 99.5056 74.662C99.7436 74.8067 99.9722 74.9747 100.192 75.166L100.003 75.474C99.9606 75.544 99.9022 75.579 99.8276 75.579C99.7856 75.579 99.7459 75.5697 99.7086 75.551C99.6386 75.523 99.5359 75.4577 99.4006 75.355C99.2699 75.2523 99.0902 75.145 98.8616 75.033C98.6376 74.921 98.3552 74.8207 98.0146 74.732C97.6739 74.6433 97.2609 74.599 96.7756 74.599C96.1316 74.599 95.5506 74.7017 95.0326 74.907C94.5146 75.1123 94.0712 75.4063 93.7026 75.789C93.3386 76.1717 93.0562 76.6383 92.8556 77.189C92.6596 77.7397 92.5616 78.358 92.5616 79.044C92.5616 79.744 92.6619 80.3717 92.8626 80.927C93.0632 81.4823 93.3432 81.9537 93.7026 82.341C94.0666 82.7237 94.5006 83.0177 95.0046 83.223C95.5132 83.4283 96.0732 83.531 96.6846 83.531ZM110.368 81.116C110.438 81.2467 110.499 81.3867 110.55 81.536C110.578 81.4613 110.606 81.389 110.634 81.319C110.667 81.2443 110.702 81.1743 110.739 81.109L114.631 74.228C114.669 74.1673 114.706 74.13 114.743 74.116C114.781 74.102 114.832 74.095 114.897 74.095H115.394V84H114.764V75.558C114.764 75.4367 114.771 75.3083 114.785 75.173L110.886 82.096C110.821 82.2173 110.728 82.278 110.606 82.278H110.494C110.378 82.278 110.284 82.2173 110.214 82.096L106.21 75.166C106.224 75.3013 106.231 75.432 106.231 75.558V84H105.608V74.095H106.098C106.164 74.095 106.215 74.102 106.252 74.116C106.294 74.13 106.334 74.1673 106.371 74.228L110.368 81.116ZM125.792 84H125.239C125.173 84 125.12 83.9837 125.078 83.951C125.036 83.9137 125.003 83.867 124.98 83.811L123.811 80.934H118.946L117.784 83.811C117.765 83.8623 117.732 83.9067 117.686 83.944C117.639 83.9813 117.583 84 117.518 84H116.972L121.025 74.095H121.739L125.792 84ZM119.163 80.402H123.601L121.578 75.397C121.545 75.3177 121.512 75.229 121.48 75.131C121.447 75.0283 121.414 74.921 121.382 74.809C121.349 74.921 121.316 75.0283 121.284 75.131C121.251 75.229 121.218 75.32 121.186 75.404L119.163 80.402ZM128.284 79.52V84H127.57V74.095H130.097C131.241 74.095 132.095 74.3167 132.659 74.76C133.224 75.1987 133.506 75.845 133.506 76.699C133.506 77.077 133.441 77.4223 133.31 77.735C133.18 78.0477 132.991 78.323 132.743 78.561C132.501 78.7943 132.207 78.988 131.861 79.142C131.516 79.2913 131.126 79.3893 130.692 79.436C130.804 79.506 130.905 79.5993 130.993 79.716L134.402 84H133.779C133.705 84 133.639 83.986 133.583 83.958C133.532 83.93 133.481 83.8833 133.429 83.818L130.258 79.8C130.179 79.6973 130.093 79.625 129.999 79.583C129.911 79.541 129.771 79.52 129.579 79.52H128.284ZM128.284 78.988H130.006C130.445 78.988 130.837 78.9367 131.182 78.834C131.532 78.7267 131.826 78.575 132.064 78.379C132.307 78.183 132.491 77.9473 132.617 77.672C132.743 77.3967 132.806 77.0863 132.806 76.741C132.806 76.0363 132.575 75.5137 132.113 75.173C131.651 74.8323 130.979 74.662 130.097 74.662H128.284V78.988ZM143.087 82.334C143.134 82.334 143.174 82.3503 143.206 82.383L143.486 82.684C143.281 82.9033 143.057 83.1017 142.814 83.279C142.572 83.4517 142.306 83.601 142.016 83.727C141.732 83.8483 141.417 83.9417 141.071 84.007C140.731 84.077 140.355 84.112 139.944 84.112C139.258 84.112 138.628 83.993 138.054 83.755C137.485 83.5123 136.995 83.1717 136.584 82.733C136.178 82.2897 135.861 81.7553 135.632 81.13C135.404 80.5047 135.289 79.8093 135.289 79.044C135.289 78.2927 135.406 77.6067 135.639 76.986C135.877 76.3653 136.209 75.8333 136.633 75.39C137.063 74.942 137.574 74.5967 138.166 74.354C138.764 74.1067 139.422 73.983 140.14 73.983C140.5 73.983 140.829 74.011 141.127 74.067C141.426 74.1183 141.704 74.1953 141.96 74.298C142.222 74.396 142.467 74.5197 142.695 74.669C142.924 74.8183 143.148 74.991 143.367 75.187L143.15 75.502C143.113 75.558 143.055 75.586 142.975 75.586C142.933 75.586 142.88 75.5627 142.814 75.516C142.749 75.4647 142.665 75.404 142.562 75.334C142.464 75.2593 142.343 75.18 142.198 75.096C142.058 75.0073 141.89 74.928 141.694 74.858C141.498 74.7833 141.272 74.7227 141.015 74.676C140.759 74.6247 140.467 74.599 140.14 74.599C139.538 74.599 138.985 74.704 138.481 74.914C137.977 75.1193 137.543 75.4157 137.179 75.803C136.815 76.1857 136.531 76.6523 136.325 77.203C136.125 77.749 136.024 78.3627 136.024 79.044C136.024 79.744 136.125 80.3693 136.325 80.92C136.526 81.4707 136.804 81.9373 137.158 82.32C137.513 82.698 137.931 82.9897 138.411 83.195C138.897 83.3957 139.422 83.496 139.986 83.496C140.341 83.496 140.656 83.4727 140.931 83.426C141.211 83.3793 141.468 83.3093 141.701 83.216C141.935 83.1227 142.152 83.0083 142.352 82.873C142.553 82.7377 142.751 82.579 142.947 82.397C142.971 82.3783 142.992 82.3643 143.01 82.355C143.034 82.341 143.059 82.334 143.087 82.334ZM153.19 84H152.637C152.572 84 152.518 83.9837 152.476 83.951C152.434 83.9137 152.402 83.867 152.378 83.811L151.209 80.934H146.344L145.182 83.811C145.164 83.8623 145.131 83.9067 145.084 83.944C145.038 83.9813 144.982 84 144.916 84H144.37L148.423 74.095H149.137L153.19 84ZM146.561 80.402H150.999L148.976 75.397C148.944 75.3177 148.911 75.229 148.878 75.131C148.846 75.0283 148.813 74.921 148.78 74.809C148.748 74.921 148.715 75.0283 148.682 75.131C148.65 75.229 148.617 75.32 148.584 75.404L146.561 80.402ZM53.2132 91.095V91.69H47.9982V95.694H52.3382V96.275H47.9982V100.405H53.2132V101H47.2772V91.095H53.2132ZM59.2357 101H58.5147V91.095H59.2357V101ZM70.7763 96.044C70.7763 96.8093 70.662 97.4977 70.4333 98.109C70.2046 98.7203 69.8826 99.2407 69.4673 99.67C69.052 100.099 68.555 100.428 67.9763 100.657C67.3976 100.886 66.756 101 66.0513 101H62.4393V91.095H66.0513C66.756 91.095 67.3976 91.2093 67.9763 91.438C68.555 91.6667 69.052 91.9957 69.4673 92.425C69.8826 92.8543 70.2046 93.3747 70.4333 93.986C70.662 94.5973 70.7763 95.2833 70.7763 96.044ZM70.0343 96.044C70.0343 95.3533 69.9386 94.7373 69.7473 94.196C69.556 93.6547 69.2853 93.1973 68.9353 92.824C68.59 92.4507 68.1723 92.166 67.6823 91.97C67.1923 91.774 66.6486 91.676 66.0513 91.676H63.1603V100.419H66.0513C66.6486 100.419 67.1923 100.321 67.6823 100.125C68.1723 99.929 68.59 99.6443 68.9353 99.271C69.2853 98.8977 69.556 98.4403 69.7473 97.899C69.9386 97.3577 70.0343 96.7393 70.0343 96.044ZM79.012 91.095V91.69H73.797V95.694H78.137V96.275H73.797V100.405H79.012V101H73.076V91.095H79.012ZM81.6975 91.095C81.7628 91.095 81.8142 91.1043 81.8515 91.123C81.8888 91.137 81.9285 91.172 81.9705 91.228L88.3825 99.81C88.3685 99.67 88.3615 99.5347 88.3615 99.404V91.095H88.9915V101H88.6485C88.5412 101 88.4548 100.953 88.3895 100.86L81.9495 92.264C81.9635 92.404 81.9705 92.537 81.9705 92.663V101H81.3475V91.095H81.6975ZM98.3975 91.095V91.704H94.9185V101H94.2045V91.704H90.7045V91.095H98.3975ZM101.099 101H100.378V91.095H101.099V101ZM112.64 96.044C112.64 96.8093 112.525 97.4977 112.297 98.109C112.068 98.7203 111.746 99.2407 111.331 99.67C110.915 100.099 110.418 100.428 109.84 100.657C109.261 100.886 108.619 101 107.915 101H104.303V91.095H107.915C108.619 91.095 109.261 91.2093 109.84 91.438C110.418 91.6667 110.915 91.9957 111.331 92.425C111.746 92.8543 112.068 93.3747 112.297 93.986C112.525 94.5973 112.64 95.2833 112.64 96.044ZM111.898 96.044C111.898 95.3533 111.802 94.7373 111.611 94.196C111.419 93.6547 111.149 93.1973 110.799 92.824C110.453 92.4507 110.036 92.166 109.546 91.97C109.056 91.774 108.512 91.676 107.915 91.676H105.024V100.419H107.915C108.512 100.419 109.056 100.321 109.546 100.125C110.036 99.929 110.453 99.6443 110.799 99.271C111.149 98.8977 111.419 98.4403 111.611 97.899C111.802 97.3577 111.898 96.7393 111.898 96.044ZM122.189 101H121.636C121.571 101 121.517 100.984 121.475 100.951C121.433 100.914 121.401 100.867 121.377 100.811L120.208 97.934H115.343L114.181 100.811C114.163 100.862 114.13 100.907 114.083 100.944C114.037 100.981 113.981 101 113.915 101H113.369L117.422 91.095H118.136L122.189 101ZM115.56 97.402H119.998L117.975 92.397C117.943 92.3177 117.91 92.229 117.877 92.131C117.845 92.0283 117.812 91.921 117.779 91.809C117.747 91.921 117.714 92.0283 117.681 92.131C117.649 92.229 117.616 92.32 117.583 92.404L115.56 97.402ZM132.095 96.044C132.095 96.8093 131.98 97.4977 131.752 98.109C131.523 98.7203 131.201 99.2407 130.786 99.67C130.37 100.099 129.873 100.428 129.295 100.657C128.716 100.886 128.074 101 127.37 101H123.758V91.095H127.37C128.074 91.095 128.716 91.2093 129.295 91.438C129.873 91.6667 130.37 91.9957 130.786 92.425C131.201 92.8543 131.523 93.3747 131.752 93.986C131.98 94.5973 132.095 95.2833 132.095 96.044ZM131.353 96.044C131.353 95.3533 131.257 94.7373 131.066 94.196C130.874 93.6547 130.604 93.1973 130.254 92.824C129.908 92.4507 129.491 92.166 129.001 91.97C128.511 91.774 127.967 91.676 127.37 91.676H124.479V100.419H127.37C127.967 100.419 128.511 100.321 129.001 100.125C129.491 99.929 129.908 99.6443 130.254 99.271C130.604 98.8977 130.874 98.4403 131.066 97.899C131.257 97.3577 131.353 96.7393 131.353 96.044ZM40.9288 125.095H41.4958C41.5611 125.095 41.6148 125.114 41.6568 125.151C41.6988 125.184 41.7315 125.228 41.7548 125.284L45.1288 133.502C45.2175 133.717 45.2898 133.945 45.3458 134.188C45.3971 133.936 45.4648 133.707 45.5488 133.502L48.9158 125.284C48.9391 125.233 48.9718 125.188 49.0138 125.151C49.0605 125.114 49.1165 125.095 49.1818 125.095H49.7418L45.6538 135H45.0168L40.9288 125.095ZM52.2972 135H51.5762V125.095H52.2972V135ZM60.2888 126.299C60.2468 126.378 60.1862 126.418 60.1068 126.418C60.0462 126.418 59.9668 126.376 59.8688 126.292C59.7755 126.203 59.6472 126.108 59.4838 126.005C59.3205 125.898 59.1152 125.8 58.8678 125.711C58.6252 125.622 58.3242 125.578 57.9648 125.578C57.6055 125.578 57.2882 125.629 57.0128 125.732C56.7422 125.835 56.5135 125.975 56.3268 126.152C56.1448 126.329 56.0048 126.535 55.9068 126.768C55.8135 127.001 55.7668 127.246 55.7668 127.503C55.7668 127.839 55.8368 128.117 55.9768 128.336C56.1215 128.555 56.3105 128.742 56.5438 128.896C56.7772 129.05 57.0408 129.181 57.3348 129.288C57.6335 129.391 57.9392 129.493 58.2518 129.596C58.5645 129.699 58.8678 129.813 59.1618 129.939C59.4605 130.06 59.7265 130.214 59.9598 130.401C60.1932 130.588 60.3798 130.819 60.5198 131.094C60.6645 131.365 60.7368 131.703 60.7368 132.109C60.7368 132.524 60.6645 132.916 60.5198 133.285C60.3798 133.649 60.1745 133.966 59.9038 134.237C59.6332 134.508 59.3018 134.722 58.9098 134.881C58.5178 135.035 58.0698 135.112 57.5658 135.112C56.9125 135.112 56.3502 134.998 55.8788 134.769C55.4075 134.536 54.9945 134.218 54.6398 133.817L54.8358 133.509C54.8918 133.439 54.9572 133.404 55.0318 133.404C55.0738 133.404 55.1275 133.432 55.1928 133.488C55.2582 133.544 55.3375 133.614 55.4308 133.698C55.5242 133.777 55.6362 133.866 55.7668 133.964C55.8975 134.057 56.0492 134.146 56.2218 134.23C56.3945 134.309 56.5928 134.377 56.8168 134.433C57.0408 134.489 57.2952 134.517 57.5798 134.517C57.9718 134.517 58.3218 134.459 58.6298 134.342C58.9378 134.221 59.1968 134.057 59.4068 133.852C59.6215 133.647 59.7848 133.404 59.8968 133.124C60.0088 132.839 60.0648 132.536 60.0648 132.214C60.0648 131.864 59.9925 131.577 59.8478 131.353C59.7078 131.124 59.5212 130.935 59.2878 130.786C59.0545 130.632 58.7885 130.504 58.4898 130.401C58.1958 130.298 57.8925 130.198 57.5798 130.1C57.2672 130.002 56.9615 129.892 56.6628 129.771C56.3688 129.65 56.1052 129.496 55.8718 129.309C55.6385 129.118 55.4495 128.882 55.3048 128.602C55.1648 128.317 55.0948 127.963 55.0948 127.538C55.0948 127.207 55.1578 126.887 55.2838 126.579C55.4098 126.271 55.5942 126 55.8368 125.767C56.0795 125.529 56.3782 125.34 56.7328 125.2C57.0922 125.055 57.5005 124.983 57.9578 124.983C58.4712 124.983 58.9308 125.065 59.3368 125.228C59.7475 125.391 60.1208 125.641 60.4568 125.977L60.2888 126.299ZM66.4763 134.489C66.9523 134.489 67.3769 134.407 67.7503 134.244C68.1283 134.076 68.4479 133.845 68.7093 133.551C68.9706 133.257 69.1689 132.912 69.3043 132.515C69.4443 132.114 69.5143 131.682 69.5143 131.22V125.095H70.2283V131.22C70.2283 131.766 70.1419 132.277 69.9693 132.753C69.7966 133.224 69.5469 133.637 69.2203 133.992C68.8983 134.342 68.5039 134.617 68.0373 134.818C67.5753 135.019 67.0549 135.119 66.4763 135.119C65.8976 135.119 65.3749 135.019 64.9083 134.818C64.4463 134.617 64.0519 134.342 63.7253 133.992C63.4033 133.637 63.1559 133.224 62.9833 132.753C62.8106 132.277 62.7243 131.766 62.7243 131.22V125.095H63.4453V131.213C63.4453 131.675 63.5129 132.107 63.6483 132.508C63.7883 132.905 63.9866 133.25 64.2433 133.544C64.5046 133.838 64.8219 134.069 65.1953 134.237C65.5733 134.405 66.0003 134.489 66.4763 134.489ZM80.1277 135H79.5747C79.5094 135 79.4557 134.984 79.4137 134.951C79.3717 134.914 79.339 134.867 79.3157 134.811L78.1467 131.934H73.2817L72.1197 134.811C72.101 134.862 72.0684 134.907 72.0217 134.944C71.975 134.981 71.919 135 71.8537 135H71.3077L75.3607 125.095H76.0747L80.1277 135ZM73.4987 131.402H77.9367L75.9137 126.397C75.881 126.318 75.8484 126.229 75.8157 126.131C75.783 126.028 75.7504 125.921 75.7177 125.809C75.685 125.921 75.6524 126.028 75.6197 126.131C75.587 126.229 75.5544 126.32 75.5217 126.404L73.4987 131.402ZM82.4101 134.391H87.1071V135H81.6961V125.095H82.4101V134.391ZM92.2812 134.391H96.9782V135H91.5672V125.095H92.2812V134.391ZM107.005 130.044C107.005 130.809 106.89 131.505 106.662 132.13C106.433 132.751 106.111 133.283 105.696 133.726C105.28 134.165 104.783 134.505 104.205 134.748C103.626 134.986 102.984 135.105 102.28 135.105C101.584 135.105 100.947 134.986 100.369 134.748C99.7901 134.505 99.2931 134.165 98.8777 133.726C98.4624 133.283 98.1381 132.751 97.9047 132.13C97.6761 131.505 97.5617 130.809 97.5617 130.044C97.5617 129.283 97.6761 128.593 97.9047 127.972C98.1381 127.347 98.4624 126.815 98.8777 126.376C99.2931 125.933 99.7901 125.59 100.369 125.347C100.947 125.104 101.584 124.983 102.28 124.983C102.984 124.983 103.626 125.104 104.205 125.347C104.783 125.585 105.28 125.926 105.696 126.369C106.111 126.812 106.433 127.347 106.662 127.972C106.89 128.593 107.005 129.283 107.005 130.044ZM106.263 130.044C106.263 129.353 106.167 128.733 105.976 128.182C105.784 127.631 105.514 127.165 105.164 126.782C104.818 126.399 104.401 126.108 103.911 125.907C103.421 125.702 102.877 125.599 102.28 125.599C101.692 125.599 101.153 125.702 100.663 125.907C100.177 126.108 99.7574 126.399 99.4027 126.782C99.0527 127.165 98.7797 127.631 98.5837 128.182C98.3924 128.733 98.2967 129.353 98.2967 130.044C98.2967 130.739 98.3924 131.362 98.5837 131.913C98.7797 132.459 99.0527 132.923 99.4027 133.306C99.7574 133.689 100.177 133.98 100.663 134.181C101.153 134.382 101.692 134.482 102.28 134.482C102.877 134.482 103.421 134.382 103.911 134.181C104.401 133.98 104.818 133.689 105.164 133.306C105.514 132.923 105.784 132.459 105.976 131.913C106.167 131.362 106.263 130.739 106.263 130.044ZM113.597 134.531C113.937 134.531 114.248 134.515 114.528 134.482C114.808 134.445 115.067 134.391 115.305 134.321C115.547 134.251 115.776 134.167 115.991 134.069C116.21 133.966 116.429 133.852 116.649 133.726V131.059H114.745C114.693 131.059 114.649 131.043 114.612 131.01C114.579 130.977 114.563 130.94 114.563 130.898V130.506H117.3V134.027C117.052 134.2 116.796 134.354 116.53 134.489C116.264 134.624 115.979 134.739 115.676 134.832C115.372 134.921 115.046 134.988 114.696 135.035C114.346 135.086 113.963 135.112 113.548 135.112C112.834 135.112 112.18 134.993 111.588 134.755C111 134.512 110.493 134.172 110.069 133.733C109.649 133.29 109.322 132.755 109.089 132.13C108.855 131.505 108.739 130.809 108.739 130.044C108.739 129.279 108.855 128.586 109.089 127.965C109.322 127.34 109.653 126.808 110.083 126.369C110.512 125.926 111.032 125.585 111.644 125.347C112.26 125.104 112.948 124.983 113.709 124.983C114.087 124.983 114.434 125.009 114.752 125.06C115.074 125.111 115.372 125.188 115.648 125.291C115.923 125.389 116.18 125.513 116.418 125.662C116.656 125.807 116.884 125.975 117.104 126.166L116.915 126.474C116.873 126.544 116.814 126.579 116.74 126.579C116.698 126.579 116.658 126.57 116.621 126.551C116.551 126.523 116.448 126.458 116.313 126.355C116.182 126.252 116.002 126.145 115.774 126.033C115.55 125.921 115.267 125.821 114.927 125.732C114.586 125.643 114.173 125.599 113.688 125.599C113.044 125.599 112.463 125.702 111.945 125.907C111.427 126.112 110.983 126.406 110.615 126.789C110.251 127.172 109.968 127.638 109.768 128.189C109.572 128.74 109.474 129.358 109.474 130.044C109.474 130.744 109.574 131.372 109.775 131.927C109.975 132.482 110.255 132.954 110.615 133.341C110.979 133.724 111.413 134.018 111.917 134.223C112.425 134.428 112.985 134.531 113.597 134.531ZM128.647 130.044C128.647 130.809 128.533 131.505 128.304 132.13C128.076 132.751 127.754 133.283 127.338 133.726C126.923 134.165 126.426 134.505 125.847 134.748C125.269 134.986 124.627 135.105 123.922 135.105C123.227 135.105 122.59 134.986 122.011 134.748C121.433 134.505 120.936 134.165 120.52 133.726C120.105 133.283 119.781 132.751 119.547 132.13C119.319 131.505 119.204 130.809 119.204 130.044C119.204 129.283 119.319 128.593 119.547 127.972C119.781 127.347 120.105 126.815 120.52 126.376C120.936 125.933 121.433 125.59 122.011 125.347C122.59 125.104 123.227 124.983 123.922 124.983C124.627 124.983 125.269 125.104 125.847 125.347C126.426 125.585 126.923 125.926 127.338 126.369C127.754 126.812 128.076 127.347 128.304 127.972C128.533 128.593 128.647 129.283 128.647 130.044ZM127.905 130.044C127.905 129.353 127.81 128.733 127.618 128.182C127.427 127.631 127.156 127.165 126.806 126.782C126.461 126.399 126.043 126.108 125.553 125.907C125.063 125.702 124.52 125.599 123.922 125.599C123.334 125.599 122.795 125.702 122.305 125.907C121.82 126.108 121.4 126.399 121.045 126.782C120.695 127.165 120.422 127.631 120.226 128.182C120.035 128.733 119.939 129.353 119.939 130.044C119.939 130.739 120.035 131.362 120.226 131.913C120.422 132.459 120.695 132.923 121.045 133.306C121.4 133.689 121.82 133.98 122.305 134.181C122.795 134.382 123.334 134.482 123.922 134.482C124.52 134.482 125.063 134.382 125.553 134.181C126.043 133.98 126.461 133.689 126.806 133.306C127.156 132.923 127.427 132.459 127.618 131.913C127.81 131.362 127.905 130.739 127.905 130.044ZM136.777 130.912V135H136.056V130.912L132.395 125.095H133.018C133.084 125.095 133.135 125.111 133.172 125.144C133.214 125.172 133.254 125.214 133.291 125.27L136.126 129.82C136.192 129.927 136.248 130.032 136.294 130.135C136.341 130.233 136.383 130.333 136.42 130.436C136.458 130.333 136.5 130.233 136.546 130.135C136.593 130.032 136.649 129.927 136.714 129.82L139.542 125.27C139.57 125.219 139.605 125.177 139.647 125.144C139.689 125.111 139.743 125.095 139.808 125.095H140.438L136.777 130.912ZM42.2422 151.391H46.9392V152H41.5282V142.095H42.2422V151.391ZM49.6722 152H48.9512V142.095H49.6722V152ZM51.3522 139.61L49.3082 141.122C49.2616 141.155 49.2172 141.178 49.1752 141.192C49.1379 141.201 49.0912 141.206 49.0352 141.206H48.5452L50.1342 139.764C50.1996 139.703 50.2602 139.664 50.3162 139.645C50.3722 139.622 50.4562 139.61 50.5682 139.61H51.3522ZM53.2258 142.095C53.2912 142.095 53.3425 142.104 53.3798 142.123C53.4172 142.137 53.4568 142.172 53.4988 142.228L59.9108 150.81C59.8968 150.67 59.8898 150.535 59.8898 150.404V142.095H60.5198V152H60.1768C60.0695 152 59.9832 151.953 59.9178 151.86L53.4778 143.264C53.4918 143.404 53.4988 143.537 53.4988 143.663V152H52.8758V142.095H53.2258ZM69.3939 142.095V142.69H64.1789V146.694H68.5189V147.275H64.1789V151.405H69.3939V152H63.4579V142.095H69.3939ZM79.1843 152H78.6313C78.566 152 78.5123 151.984 78.4703 151.951C78.4283 151.914 78.3957 151.867 78.3723 151.811L77.2033 148.934H72.3383L71.1763 151.811C71.1577 151.862 71.125 151.907 71.0783 151.944C71.0317 151.981 70.9757 152 70.9103 152H70.3643L74.4173 142.095H75.1313L79.1843 152ZM72.5553 148.402H76.9933L74.9703 143.397C74.9377 143.318 74.905 143.229 74.8723 143.131C74.8397 143.028 74.807 142.921 74.7743 142.809C74.7417 142.921 74.709 143.028 74.6763 143.131C74.6437 143.229 74.611 143.32 74.5783 143.404L72.5553 148.402ZM87.7158 151.531C88.0565 151.531 88.3668 151.515 88.6468 151.482C88.9268 151.445 89.1858 151.391 89.4238 151.321C89.6665 151.251 89.8951 151.167 90.1098 151.069C90.3291 150.966 90.5485 150.852 90.7678 150.726V148.059H88.8638C88.8125 148.059 88.7681 148.043 88.7308 148.01C88.6981 147.977 88.6818 147.94 88.6818 147.898V147.506H91.4188V151.027C91.1715 151.2 90.9148 151.354 90.6488 151.489C90.3828 151.624 90.0981 151.739 89.7948 151.832C89.4915 151.921 89.1648 151.988 88.8148 152.035C88.4648 152.086 88.0821 152.112 87.6668 152.112C86.9528 152.112 86.2995 151.993 85.7068 151.755C85.1188 151.512 84.6125 151.172 84.1878 150.733C83.7678 150.29 83.4411 149.755 83.2078 149.13C82.9745 148.505 82.8578 147.809 82.8578 147.044C82.8578 146.279 82.9745 145.586 83.2078 144.965C83.4411 144.34 83.7725 143.808 84.2018 143.369C84.6311 142.926 85.1515 142.585 85.7628 142.347C86.3788 142.104 87.0671 141.983 87.8278 141.983C88.2058 141.983 88.5535 142.009 88.8708 142.06C89.1928 142.111 89.4915 142.188 89.7668 142.291C90.0421 142.389 90.2988 142.513 90.5368 142.662C90.7748 142.807 91.0035 142.975 91.2228 143.166L91.0338 143.474C90.9918 143.544 90.9335 143.579 90.8588 143.579C90.8168 143.579 90.7771 143.57 90.7398 143.551C90.6698 143.523 90.5671 143.458 90.4318 143.355C90.3011 143.252 90.1215 143.145 89.8928 143.033C89.6688 142.921 89.3865 142.821 89.0458 142.732C88.7051 142.643 88.2921 142.599 87.8068 142.599C87.1628 142.599 86.5818 142.702 86.0638 142.907C85.5458 143.112 85.1025 143.406 84.7338 143.789C84.3698 144.172 84.0875 144.638 83.8868 145.189C83.6908 145.74 83.5928 146.358 83.5928 147.044C83.5928 147.744 83.6931 148.372 83.8938 148.927C84.0945 149.482 84.3745 149.954 84.7338 150.341C85.0978 150.724 85.5318 151.018 86.0358 151.223C86.5445 151.428 87.1045 151.531 87.7158 151.531ZM94.8565 147.52V152H94.1425V142.095H96.6695C97.8128 142.095 98.6668 142.317 99.2315 142.76C99.7961 143.199 100.078 143.845 100.078 144.699C100.078 145.077 100.013 145.422 99.8825 145.735C99.7518 146.048 99.5628 146.323 99.3155 146.561C99.0728 146.794 98.7788 146.988 98.4335 147.142C98.0881 147.291 97.6985 147.389 97.2645 147.436C97.3765 147.506 97.4768 147.599 97.5655 147.716L100.974 152H100.351C100.277 152 100.211 151.986 100.155 151.958C100.104 151.93 100.053 151.883 100.001 151.818L96.8305 147.8C96.7511 147.697 96.6648 147.625 96.5715 147.583C96.4828 147.541 96.3428 147.52 96.1515 147.52H94.8565ZM94.8565 146.988H96.5785C97.0171 146.988 97.4091 146.937 97.7545 146.834C98.1045 146.727 98.3985 146.575 98.6365 146.379C98.8791 146.183 99.0635 145.947 99.1895 145.672C99.3155 145.397 99.3785 145.086 99.3785 144.741C99.3785 144.036 99.1475 143.514 98.6855 143.173C98.2235 142.832 97.5515 142.662 96.6695 142.662H94.8565V146.988ZM110.219 152H109.666C109.601 152 109.547 151.984 109.505 151.951C109.463 151.914 109.431 151.867 109.407 151.811L108.238 148.934H103.373L102.211 151.811C102.193 151.862 102.16 151.907 102.113 151.944C102.067 151.981 102.011 152 101.945 152H101.399L105.452 142.095H106.166L110.219 152ZM103.59 148.402H108.028L106.005 143.397C105.973 143.318 105.94 143.229 105.907 143.131C105.875 143.028 105.842 142.921 105.809 142.809C105.777 142.921 105.744 143.028 105.711 143.131C105.679 143.229 105.646 143.32 105.613 143.404L103.59 148.402ZM117.724 142.095V142.69H112.509V146.855H117.024V147.45H112.509V152H111.788V142.095H117.724ZM120.78 152H120.059V142.095H120.78V152ZM131.179 150.334C131.226 150.334 131.266 150.35 131.298 150.383L131.578 150.684C131.373 150.903 131.149 151.102 130.906 151.279C130.664 151.452 130.398 151.601 130.108 151.727C129.824 151.848 129.509 151.942 129.163 152.007C128.823 152.077 128.447 152.112 128.036 152.112C127.35 152.112 126.72 151.993 126.146 151.755C125.577 151.512 125.087 151.172 124.676 150.733C124.27 150.29 123.953 149.755 123.724 149.13C123.496 148.505 123.381 147.809 123.381 147.044C123.381 146.293 123.498 145.607 123.731 144.986C123.969 144.365 124.301 143.833 124.725 143.39C125.155 142.942 125.666 142.597 126.258 142.354C126.856 142.107 127.514 141.983 128.232 141.983C128.592 141.983 128.921 142.011 129.219 142.067C129.518 142.118 129.796 142.195 130.052 142.298C130.314 142.396 130.559 142.52 130.787 142.669C131.016 142.818 131.24 142.991 131.459 143.187L131.242 143.502C131.205 143.558 131.147 143.586 131.067 143.586C131.025 143.586 130.972 143.563 130.906 143.516C130.841 143.465 130.757 143.404 130.654 143.334C130.556 143.259 130.435 143.18 130.29 143.096C130.15 143.007 129.982 142.928 129.786 142.858C129.59 142.783 129.364 142.723 129.107 142.676C128.851 142.625 128.559 142.599 128.232 142.599C127.63 142.599 127.077 142.704 126.573 142.914C126.069 143.119 125.635 143.416 125.271 143.803C124.907 144.186 124.623 144.652 124.417 145.203C124.217 145.749 124.116 146.363 124.116 147.044C124.116 147.744 124.217 148.369 124.417 148.92C124.618 149.471 124.896 149.937 125.25 150.32C125.605 150.698 126.023 150.99 126.503 151.195C126.989 151.396 127.514 151.496 128.078 151.496C128.433 151.496 128.748 151.473 129.023 151.426C129.303 151.379 129.56 151.309 129.793 151.216C130.027 151.123 130.244 151.008 130.444 150.873C130.645 150.738 130.843 150.579 131.039 150.397C131.063 150.378 131.084 150.364 131.102 150.355C131.126 150.341 131.151 150.334 131.179 150.334ZM141.282 152H140.729C140.664 152 140.61 151.984 140.568 151.951C140.526 151.914 140.493 151.867 140.47 151.811L139.301 148.934H134.436L133.274 151.811C133.255 151.862 133.223 151.907 133.176 151.944C133.129 151.981 133.073 152 133.008 152H132.462L136.515 142.095H137.229L141.282 152ZM134.653 148.402H139.091L137.068 143.397C137.035 143.318 137.003 143.229 136.97 143.131C136.937 143.028 136.905 142.921 136.872 142.809C136.839 142.921 136.807 143.028 136.774 143.131C136.741 143.229 136.709 143.32 136.676 143.404L134.653 148.402ZM62.4371 167.334C62.4837 167.334 62.5234 167.35 62.5561 167.383L62.8361 167.684C62.6307 167.903 62.4067 168.102 62.1641 168.279C61.9214 168.452 61.6554 168.601 61.3661 168.727C61.0814 168.848 60.7664 168.942 60.4211 169.007C60.0804 169.077 59.7047 169.112 59.2941 169.112C58.6081 169.112 57.9781 168.993 57.4041 168.755C56.8347 168.512 56.3447 168.172 55.9341 167.733C55.5281 167.29 55.2107 166.755 54.9821 166.13C54.7534 165.505 54.6391 164.809 54.6391 164.044C54.6391 163.293 54.7557 162.607 54.9891 161.986C55.2271 161.365 55.5584 160.833 55.9831 160.39C56.4124 159.942 56.9234 159.597 57.5161 159.354C58.1134 159.107 58.7714 158.983 59.4901 158.983C59.8494 158.983 60.1784 159.011 60.4771 159.067C60.7757 159.118 61.0534 159.195 61.3101 159.298C61.5714 159.396 61.8164 159.52 62.0451 159.669C62.2737 159.818 62.4977 159.991 62.7171 160.187L62.5001 160.502C62.4627 160.558 62.4044 160.586 62.3251 160.586C62.2831 160.586 62.2294 160.563 62.1641 160.516C62.0987 160.465 62.0147 160.404 61.9121 160.334C61.8141 160.259 61.6927 160.18 61.5481 160.096C61.4081 160.007 61.2401 159.928 61.0441 159.858C60.8481 159.783 60.6217 159.723 60.3651 159.676C60.1084 159.625 59.8167 159.599 59.4901 159.599C58.8881 159.599 58.3351 159.704 57.8311 159.914C57.3271 160.119 56.8931 160.416 56.5291 160.803C56.1651 161.186 55.8804 161.652 55.6751 162.203C55.4744 162.749 55.3741 163.363 55.3741 164.044C55.3741 164.744 55.4744 165.369 55.6751 165.92C55.8757 166.471 56.1534 166.937 56.5081 167.32C56.8627 167.698 57.2804 167.99 57.7611 168.195C58.2464 168.396 58.7714 168.496 59.3361 168.496C59.6907 168.496 60.0057 168.473 60.2811 168.426C60.5611 168.379 60.8177 168.309 61.0511 168.216C61.2844 168.123 61.5014 168.008 61.7021 167.873C61.9027 167.738 62.1011 167.579 62.2971 167.397C62.3204 167.378 62.3414 167.364 62.3601 167.355C62.3834 167.341 62.4091 167.334 62.4371 167.334ZM73.9188 164.044C73.9188 164.809 73.8045 165.505 73.5758 166.13C73.3471 166.751 73.0251 167.283 72.6098 167.726C72.1945 168.165 71.6975 168.505 71.1188 168.748C70.5401 168.986 69.8985 169.105 69.1938 169.105C68.4985 169.105 67.8615 168.986 67.2828 168.748C66.7041 168.505 66.2071 168.165 65.7918 167.726C65.3765 167.283 65.0521 166.751 64.8188 166.13C64.5901 165.505 64.4758 164.809 64.4758 164.044C64.4758 163.283 64.5901 162.593 64.8188 161.972C65.0521 161.347 65.3765 160.815 65.7918 160.376C66.2071 159.933 66.7041 159.59 67.2828 159.347C67.8615 159.104 68.4985 158.983 69.1938 158.983C69.8985 158.983 70.5401 159.104 71.1188 159.347C71.6975 159.585 72.1945 159.926 72.6098 160.369C73.0251 160.812 73.3471 161.347 73.5758 161.972C73.8045 162.593 73.9188 163.283 73.9188 164.044ZM73.1768 164.044C73.1768 163.353 73.0811 162.733 72.8898 162.182C72.6985 161.631 72.4278 161.165 72.0778 160.782C71.7325 160.399 71.3148 160.108 70.8248 159.907C70.3348 159.702 69.7911 159.599 69.1938 159.599C68.6058 159.599 68.0668 159.702 67.5768 159.907C67.0915 160.108 66.6715 160.399 66.3168 160.782C65.9668 161.165 65.6938 161.631 65.4978 162.182C65.3065 162.733 65.2108 163.353 65.2108 164.044C65.2108 164.739 65.3065 165.362 65.4978 165.913C65.6938 166.459 65.9668 166.923 66.3168 167.306C66.6715 167.689 67.0915 167.98 67.5768 168.181C68.0668 168.382 68.6058 168.482 69.1938 168.482C69.7911 168.482 70.3348 168.382 70.8248 168.181C71.3148 167.98 71.7325 167.689 72.0778 167.306C72.4278 166.923 72.6985 166.459 72.8898 165.913C73.0811 165.362 73.1768 164.739 73.1768 164.044ZM81.0147 166.116C81.0847 166.247 81.1454 166.387 81.1967 166.536C81.2247 166.461 81.2527 166.389 81.2807 166.319C81.3134 166.244 81.3484 166.174 81.3857 166.109L85.2777 159.228C85.3151 159.167 85.3524 159.13 85.3897 159.116C85.4271 159.102 85.4784 159.095 85.5437 159.095H86.0407V169H85.4107V160.558C85.4107 160.437 85.4177 160.308 85.4317 160.173L81.5327 167.096C81.4674 167.217 81.3741 167.278 81.2527 167.278H81.1407C81.0241 167.278 80.9307 167.217 80.8607 167.096L76.8567 160.166C76.8707 160.301 76.8777 160.432 76.8777 160.558V169H76.2547V159.095H76.7447C76.8101 159.095 76.8614 159.102 76.8987 159.116C76.9407 159.13 76.9804 159.167 77.0177 159.228L81.0147 166.116ZM89.9072 165.01V169H89.1932V159.095H91.7482C92.9102 159.095 93.7852 159.349 94.3732 159.858C94.9659 160.367 95.2622 161.092 95.2622 162.035C95.2622 162.469 95.1806 162.868 95.0172 163.232C94.8586 163.596 94.6276 163.911 94.3242 164.177C94.0209 164.438 93.6522 164.644 93.2182 164.793C92.7842 164.938 92.2942 165.01 91.7482 165.01H89.9072ZM89.9072 164.436H91.7482C92.1869 164.436 92.5789 164.375 92.9242 164.254C93.2696 164.133 93.5612 163.965 93.7992 163.75C94.0419 163.535 94.2262 163.283 94.3522 162.994C94.4829 162.7 94.5482 162.38 94.5482 162.035C94.5482 161.274 94.3126 160.689 93.8412 160.278C93.3746 159.867 92.6769 159.662 91.7482 159.662H89.9072V164.436ZM98.0097 168.391H102.707V169H97.2957V159.095H98.0097V168.391ZM110.396 159.095V159.69H105.181V163.694H109.521V164.275H105.181V168.405H110.396V169H104.46V159.095H110.396ZM119.199 159.095V159.704H115.72V169H115.006V159.704H111.506V159.095H119.199ZM127.569 169H127.016C126.951 169 126.897 168.984 126.855 168.951C126.813 168.914 126.78 168.867 126.757 168.811L125.588 165.934H120.723L119.561 168.811C119.542 168.862 119.51 168.907 119.463 168.944C119.416 168.981 119.36 169 119.295 169H118.749L122.802 159.095H123.516L127.569 169ZM120.94 165.402H125.378L123.355 160.397C123.322 160.318 123.29 160.229 123.257 160.131C123.224 160.028 123.192 159.921 123.159 159.809C123.126 159.921 123.094 160.028 123.061 160.131C123.028 160.229 122.996 160.32 122.963 160.404L120.94 165.402Z" fill="#F5F5F5"/>
<defs>
<filter id="filter0_d" x="59" y="232" width="53.4386" height="60" filterUnits="userSpaceOnUse" color-interpolation-filters="sRGB">
<feFlood flood-opacity="0" result="BackgroundImageFix"/>
<feColorMatrix in="SourceAlpha" type="matrix" values="0 0 0 0 0 0 0 0 0 0 0 0 0 0 0 0 0 0 127 0"/>
<feOffset dx="-5" dy="5"/>
<feGaussianBlur stdDeviation="2.5"/>
<feColorMatrix type="matrix" values="0 0 0 0 0 0 0 0 0 0 0 0 0 0 0 0 0 0 0.25 0"/>
<feBlend mode="normal" in2="BackgroundImageFix" result="effect1_dropShadow"/>
<feBlend mode="normal" in="SourceGraphic" in2="effect1_dropShadow" result="shape"/>
</filter>
<filter id="filter1_d" x="19.5593" y="24.432" width="131.71" height="28.336" filterUnits="userSpaceOnUse" color-interpolation-filters="sRGB">
<feFlood flood-opacity="0" result="BackgroundImageFix"/>
<feColorMatrix in="SourceAlpha" type="matrix" values="0 0 0 0 0 0 0 0 0 0 0 0 0 0 0 0 0 0 127 0"/>
<feOffset dx="-5" dy="5"/>
<feGaussianBlur stdDeviation="2.5"/>
<feColorMatrix type="matrix" values="0 0 0 0 0 0 0 0 0 0 0 0 0 0 0 0 0 0 0.25 0"/>
<feBlend mode="normal" in2="BackgroundImageFix" result="effect1_dropShadow"/>
<feBlend mode="normal" in="SourceGraphic" in2="effect1_dropShadow" result="shape"/>
</filter>
</defs>
</svg>
