<svg width="181" height="180" viewBox="0 0 181 180" fill="none" xmlns="http://www.w3.org/2000/svg">
<rect x="0.468994" width="180" height="180" rx="5" fill="#161413"/>
<path d="M56.0468 37.4101C56.5425 19.216 33.8831 17 33.8831 17C33.8831 17 32.8334 19.4367 25.2526 21.132C17.6717 22.8273 17.0635 29.95 17.0635 29.95C17.0635 29.95 21.1914 27.6841 23.9863 30.5581C23.488 30.9107 23.096 31.3934 22.8533 31.9535C21.8714 31.7968 20.8811 31.6981 19.8876 31.6578C19.7819 31.649 19.6759 31.6722 19.5836 31.7244C19.5044 31.7786 19.4669 31.9452 19.3836 32.6699C19.3715 32.8168 19.3506 32.9629 19.3211 33.1073L19.2961 33.2364H19.3878L19.6085 33.2656C19.7494 33.2779 19.8888 33.303 20.0251 33.3406C19.9114 33.8102 19.8238 34.2858 19.7627 34.7651C19.6502 35.5065 19.5377 36.3188 19.5211 36.4812C19.376 37.5368 19.5855 38.6107 20.1167 39.5344L18.4506 40.784C16.7345 42.0919 15.1183 43.3249 14.7018 43.7372C14.2228 44.2496 14.5185 46.8862 15.2641 49.3104C17.7425 64.5555 29.4262 64.6346 32.8668 66.8548C34.5329 67.9169 52.6604 63.4975 57.8795 42.0961C58.1794 40.8715 55.9718 40.0759 56.0468 37.4101ZM15.1725 44.2037C15.589 43.7872 17.2551 42.5376 18.8505 41.313L20.5166 40.0634L20.6166 40.1842C21.0897 40.6776 21.693 41.0267 22.3565 41.1911C23.02 41.3555 23.7166 41.3285 24.3653 41.1131C24.9208 40.9184 25.4221 40.5944 25.8277 40.1678C26.2332 39.7412 26.5315 39.2243 26.6979 38.6597C26.8579 38.1627 26.9736 37.6525 27.0436 37.1352C27.1196 36.4662 27.298 35.813 27.5726 35.1983C27.6679 35.009 27.8257 34.8583 28.0192 34.7718C28.2127 34.6853 28.4302 34.6682 28.6348 34.7235C28.8954 34.7685 29.1282 34.9133 29.2837 35.1272C29.4393 35.341 29.5053 35.6071 29.4679 35.8689C29.193 37.8183 29.0513 39.8635 29.8427 41.6129C30.1422 42.2278 30.5701 42.7713 31.0975 43.2068C31.6249 43.6422 32.2396 43.9595 32.9001 44.1371C33.2029 44.2278 33.512 44.296 33.8248 44.3412C35.2241 44.5663 36.6582 44.2983 37.8818 43.5831C38.885 42.9372 39.6861 42.0221 40.1936 40.9423C40.5317 40.2079 40.759 39.4274 40.8684 38.6264C40.8684 38.6264 41.1016 37.1768 41.1308 36.6895L41.8181 36.7978L42.0596 35.2649L41.993 35.1608H41.9597C41.5431 35.0567 41.0975 34.9442 40.6684 34.8318C39.2232 34.4147 37.7506 34.0988 36.2615 33.8862C35.2077 33.7613 34.1372 33.6696 33.0709 33.628C32.6543 33.628 32.2378 33.628 31.8213 33.628C31.2256 33.628 30.605 33.628 30.0052 33.5738C28.8556 33.4235 27.7212 33.174 26.6146 32.8282L25.7191 32.5533C24.9818 32.3576 24.2487 32.2034 23.5198 32.0701C24.0238 31.0663 25.3192 30.2416 28.4807 29.346C34.5454 27.6299 37.6444 30.6456 38.7274 32.0202C38.8621 32.1945 39.0381 32.3327 39.2395 32.4221C39.441 32.5115 39.6615 32.5495 39.8812 32.5325C42.7511 32.3034 47.3413 34.3277 47.9619 34.9067C45.6835 42.6376 44.1381 44.1579 41.9264 44.3578C41.5931 44.387 41.3515 44.4078 41.0183 50.031C41.0102 50.1473 40.9747 50.2601 40.9146 50.36C40.8545 50.4599 40.7716 50.5442 40.6726 50.6058C39.7187 51.1848 36.5864 53.105 36.274 53.28C31.009 56.3457 24.986 55.2293 22.6409 54.6087C19.5627 53.7756 17.4134 52.5261 16.9552 51.718C15.4349 49.0938 14.8892 44.6869 15.1725 44.2037ZM23.1116 37.7975C23.2753 36.7379 23.3116 35.6625 23.2199 34.5943C23.1949 34.1403 23.1782 33.7279 23.1949 33.3447H23.349C23.5906 33.3697 23.8822 33.3947 24.1821 33.4405C25.1026 33.578 26.1689 33.8571 26.4105 34.6443C26.6813 35.5065 26.4105 36.4979 26.1856 37.2976C26.1606 37.3976 26.1314 37.4976 26.1064 37.5975C25.9065 38.3598 25.6899 39.1512 25.0693 39.651C24.7504 39.8967 24.3859 40.0766 23.9969 40.1802C23.6079 40.2839 23.2022 40.3093 22.8033 40.255C22.2128 40.1762 21.6635 39.9089 21.2372 39.4928C22.8658 38.2432 23.0783 37.9891 23.1116 37.7975ZM30.8674 35.5565C31.3464 34.9192 32.3378 34.7734 33.0834 34.7651C34.0465 34.7522 35.0091 34.8176 35.9616 34.9609C36.4573 35.0317 36.9613 35.1275 37.4736 35.24C38.6649 35.5065 40.0311 35.9939 40.0228 37.4184C40.011 37.9468 39.9327 38.4716 39.7895 38.9804C39.6019 39.6691 39.3217 40.329 38.9565 40.9423C38.3961 41.915 37.486 42.6374 36.4115 42.9625C35.6424 43.1687 34.8352 43.1882 34.0571 43.0194C33.2789 42.8506 32.5524 42.4983 31.9379 41.9919C31.4425 41.5631 31.0484 41.0296 30.7841 40.4299C30.4932 39.6824 30.364 38.8818 30.4051 38.0807V37.9308C30.4009 37.1435 30.3926 36.1855 30.8674 35.5565ZM20.5499 38.3515C20.1959 37.206 20.5499 35.7148 20.8082 34.5152C20.8415 34.3736 20.8748 34.2319 20.904 34.0987C21.0831 33.2989 21.8412 33.2406 22.5701 33.2906C22.5476 33.736 22.5476 34.1822 22.5701 34.6277C22.6514 35.6293 22.6179 36.6369 22.4701 37.6309C21.9382 38.1115 21.3821 38.5647 20.804 38.9887C20.6922 38.7882 20.6068 38.574 20.5499 38.3515V38.3515Z" fill="#F5F5F5"/>
<path d="M42.4345 43.2791C42.6956 43.3202 42.9629 43.283 43.2029 43.1723C43.4428 43.0615 43.6446 42.8821 43.7826 42.6568C43.9207 42.4314 43.9889 42.1702 43.9786 41.9062C43.9683 41.6421 43.8799 41.387 43.7247 41.1731C43.5695 40.9592 43.3544 40.7961 43.1066 40.7043C42.8587 40.6126 42.5893 40.5964 42.3322 40.6577C42.0752 40.719 41.842 40.8552 41.6623 41.0489C41.4826 41.2427 41.3643 41.4853 41.3224 41.7462C41.2945 41.9199 41.3011 42.0974 41.3419 42.2686C41.3828 42.4397 41.457 42.6011 41.5603 42.7435C41.6636 42.8859 41.794 43.0065 41.944 43.0984C42.094 43.1903 42.2607 43.2517 42.4345 43.2791V43.2791Z" fill="#F5F5F5"/>
<path d="M18.8796 48.1067L20.3458 46.1156C20.4545 45.9569 20.52 45.7727 20.5359 45.581C20.5518 45.3892 20.5175 45.1967 20.4363 45.0223C20.3552 44.8479 20.2301 44.6976 20.0733 44.5862C19.9164 44.4748 19.7333 44.4062 19.5419 44.387L16.7386 43.9705C16.5508 43.9361 16.3573 43.9509 16.177 44.0136C15.9966 44.0764 15.8356 44.1848 15.7097 44.3283C15.5838 44.4718 15.4973 44.6456 15.4586 44.8325C15.4199 45.0195 15.4304 45.2133 15.489 45.395L16.3221 47.7235C16.6137 48.5898 18.3381 48.8439 18.8796 48.1067Z" fill="#F5F5F5"/>
<path d="M35.6159 48.5565C35.7056 48.5125 35.8032 48.487 35.903 48.4814C36.0028 48.4759 36.1026 48.4904 36.1967 48.5242C36.2907 48.558 36.377 48.6104 36.4504 48.6782C36.5238 48.746 36.5828 48.8279 36.6239 48.9189C36.4198 49.1438 35.4451 50.0685 32.9917 50.7808L33.0376 50.9599C34.3886 50.6799 35.6854 50.1834 36.878 49.4896C37.003 49.9353 36.9613 50.2851 36.828 50.3518C34.3175 51.6483 31.6404 52.5929 28.8722 53.1592V53.3425C32.5127 53.2925 36.0491 51.6764 37.4112 50.8433C37.8818 50.5517 38.4025 49.7645 38.1859 49.1438L37.3528 47.3653C37.2286 47.1666 37.0638 46.9964 36.8693 46.8658C36.6748 46.7352 36.4549 46.6471 36.224 46.6072H36.1949C36.0365 46.5838 35.8749 46.5963 35.722 46.6439C35.5691 46.6915 35.4289 46.7729 35.3118 46.8821C31.7047 50.3226 22.7575 51.5722 22.6701 51.5722L22.0869 51.6472L22.6659 51.7513C22.7159 51.7555 27.8018 52.5969 35.6159 48.5565Z" fill="#F5F5F5"/>
<path d="M23.9613 38.0807H24.7944C24.9207 38.0854 25.044 38.0413 25.1386 37.9575C25.2332 37.8738 25.2919 37.7568 25.3026 37.6308C25.3317 36.9602 25.2734 35.8147 24.5237 35.7648C23.7739 35.7148 23.5198 36.8686 23.4823 37.5642C23.4784 37.6299 23.4878 37.6957 23.51 37.7577C23.5322 37.8197 23.5667 37.8765 23.6115 37.9248C23.6562 37.9731 23.7103 38.0117 23.7704 38.0385C23.8306 38.0653 23.8955 38.0797 23.9613 38.0807Z" fill="#F5F5F5"/>
<path d="M32.6418 38.6597H32.7043C32.8845 38.5852 33.0563 38.4917 33.2166 38.3806C33.7407 38.1102 34.3272 37.9838 34.9161 38.0141C35.4724 38.0527 36.0073 38.2445 36.4614 38.5681C36.6072 38.6681 36.7405 38.7805 36.878 38.8847C36.9555 38.9521 37.0542 38.9904 37.157 38.9929C37.2129 38.9821 37.2656 38.9589 37.3113 38.9249C37.357 38.8909 37.3944 38.8471 37.4208 38.7967C37.4472 38.7463 37.4619 38.6906 37.4638 38.6337C37.4658 38.5768 37.4549 38.5202 37.4319 38.4681C37.3863 38.383 37.3239 38.3079 37.2487 38.2474C36.6282 37.6104 35.8014 37.2147 34.9161 37.1311C34.5967 37.1264 34.2786 37.1742 33.9747 37.2727C33.6792 37.3726 33.3989 37.5128 33.1417 37.6892C32.8965 37.8271 32.679 38.0093 32.5002 38.2265L32.4627 38.2848C32.4357 38.3262 32.4186 38.3732 32.4127 38.4223C32.411 38.4532 32.4157 38.4842 32.4265 38.5132C32.4373 38.5422 32.4539 38.5687 32.4754 38.591C32.497 38.6133 32.5228 38.6309 32.5515 38.6427C32.5801 38.6546 32.6109 38.6603 32.6418 38.6597V38.6597Z" fill="#F5F5F5"/>
<path d="M35.6034 39.2262C35.1209 38.9195 34.5536 38.7737 33.9831 38.8097C33.621 38.8348 33.268 38.934 32.9459 39.1013C32.8943 39.1306 32.8443 39.1626 32.796 39.1971C32.7168 39.2637 32.6502 39.347 32.6877 39.447C32.7086 39.4917 32.745 39.5273 32.7902 39.5472C32.8354 39.5672 32.8863 39.57 32.9334 39.5553C33.0584 39.522 33.1792 39.4678 33.3041 39.4303C33.4306 39.3886 33.5601 39.3566 33.6915 39.3345C33.9669 39.2844 34.2491 39.2844 34.5246 39.3345C34.8019 39.4124 35.07 39.5199 35.3243 39.6552C35.4419 39.7224 35.5764 39.7542 35.7117 39.7469C35.82 39.7469 35.9449 39.6594 35.9324 39.5386C35.9199 39.4178 35.7158 39.297 35.6034 39.2262Z" fill="#F5F5F5"/>
<path d="M46.7303 162.584H48.0023V148.64H46.7303V147.2H52.1063C52.8743 147.2 53.5703 147.28 54.1943 147.44C54.8343 147.6 55.3783 147.848 55.8263 148.184C56.2903 148.52 56.6423 148.96 56.8823 149.504C57.1383 150.032 57.2663 150.664 57.2663 151.4C57.2663 152.392 57.0263 153.264 56.5463 154.016C56.0663 154.768 55.3303 155.28 54.3383 155.552C54.8023 155.648 55.2423 155.808 55.6583 156.032C56.0903 156.256 56.4663 156.544 56.7863 156.896C57.1223 157.248 57.3863 157.656 57.5783 158.12C57.7703 158.584 57.8663 159.104 57.8663 159.68C57.8663 160.4 57.7143 161.032 57.4103 161.576C57.1223 162.104 56.7303 162.552 56.2343 162.92C55.7383 163.272 55.1703 163.544 54.5303 163.736C53.8903 163.912 53.2263 164 52.5383 164H46.7303V162.584ZM49.4903 156.272V162.584H52.4183C52.9623 162.584 53.4743 162.52 53.9543 162.392C54.4343 162.264 54.8503 162.072 55.2023 161.816C55.5703 161.56 55.8583 161.24 56.0663 160.856C56.2743 160.456 56.3783 160 56.3783 159.488C56.3783 158.928 56.2583 158.448 56.0183 158.048C55.7783 157.632 55.4503 157.296 55.0343 157.04C54.6343 156.768 54.1703 156.576 53.6423 156.464C53.1303 156.336 52.6023 156.272 52.0583 156.272H49.4903ZM49.4903 148.64V154.832H52.3703C53.4103 154.832 54.2343 154.536 54.8423 153.944C55.4503 153.336 55.7543 152.552 55.7543 151.592C55.7543 150.536 55.4343 149.784 54.7943 149.336C54.1543 148.872 53.3223 148.64 52.2983 148.64H49.4903ZM59.5506 162.584H60.8226V148.64H59.5506V147.2H64.5906C65.1186 147.2 65.6946 147.288 66.3186 147.464C66.9426 147.624 67.5266 147.888 68.0706 148.256C68.6306 148.608 69.0946 149.064 69.4626 149.624C69.8306 150.184 70.0146 150.864 70.0146 151.664C70.0146 152.848 69.7106 153.832 69.1026 154.616C68.4946 155.4 67.6146 155.92 66.4626 156.176L69.4626 162.584H71.6466V164H68.5266L64.8786 156.272C64.7026 156.288 64.5266 156.296 64.3506 156.296C64.1746 156.296 63.9986 156.296 63.8226 156.296H62.3106V162.584H64.8786V164H59.5506V162.584ZM62.3106 154.856H64.5906C65.3586 154.856 65.9986 154.76 66.5106 154.568C67.0226 154.36 67.4226 154.104 67.7106 153.8C68.0146 153.48 68.2226 153.136 68.3346 152.768C68.4626 152.384 68.5266 152.016 68.5266 151.664C68.5266 151.264 68.4226 150.88 68.2146 150.512C68.0226 150.144 67.7506 149.824 67.3986 149.552C67.0626 149.28 66.6546 149.064 66.1746 148.904C65.6946 148.728 65.1746 148.64 64.6146 148.64H62.3106V154.856ZM73.3318 162.584H75.2518C76.3878 159.864 77.5238 157.176 78.6598 154.52C79.7958 151.848 80.9398 149.152 82.0918 146.432C83.2438 149.152 84.3798 151.848 85.4998 154.52C86.6358 157.176 87.7798 159.864 88.9318 162.584H90.8518V164H85.8598V162.584H87.4198C87.0198 161.656 86.6278 160.736 86.2438 159.824C85.8758 158.912 85.4918 157.992 85.0918 157.064H79.0918C78.6918 157.992 78.2998 158.912 77.9158 159.824C77.5318 160.736 77.1398 161.656 76.7398 162.584H78.3238V164H73.3318V162.584ZM82.3078 150.488L82.0678 149.744C82.0518 149.776 82.0358 149.832 82.0198 149.912C82.0038 149.992 81.9798 150.072 81.9478 150.152L81.8518 150.488C81.7718 150.696 81.6438 151 81.4678 151.4C81.3078 151.784 81.1238 152.216 80.9158 152.696C80.7238 153.176 80.5158 153.68 80.2918 154.208C80.0838 154.72 79.8838 155.2 79.6918 155.648H84.4918L82.3078 150.488ZM92.5271 162.584H94.5431V148.64H92.5271V147.2H95.2151L107.335 160.832L107.791 161.456L107.719 160.688V148.64H105.943V147.2H111.247V148.64H109.207V164.768L96.4151 150.584L95.9831 149.984L96.0311 150.728V162.584H97.8551V164H92.5271V162.584ZM112.918 162.56H114.238V148.64H112.918V147.2H117.958C119.11 147.2 120.198 147.4 121.222 147.8C122.246 148.184 123.142 148.744 123.91 149.48C124.678 150.216 125.286 151.104 125.734 152.144C126.182 153.168 126.406 154.328 126.406 155.624C126.406 156.568 126.238 157.536 125.902 158.528C125.582 159.52 125.054 160.424 124.318 161.24C123.582 162.04 122.622 162.704 121.438 163.232C120.27 163.744 118.838 164 117.142 164H112.918V162.56ZM115.726 148.64V162.56H117.598C118.734 162.56 119.75 162.376 120.646 162.008C121.558 161.64 122.326 161.144 122.95 160.52C123.59 159.896 124.078 159.16 124.414 158.312C124.75 157.464 124.918 156.56 124.918 155.6C124.918 154.544 124.734 153.584 124.366 152.72C123.998 151.856 123.494 151.128 122.854 150.536C122.214 149.928 121.462 149.464 120.598 149.144C119.734 148.808 118.814 148.64 117.838 148.64H115.726ZM128.082 162.584H129.954V148.64H128.082V147.2H133.41V148.64H131.466V162.584H133.41V164H128.082V162.584ZM135.09 162.584H137.106V148.64H135.09V147.2H137.778L149.898 160.832L150.354 161.456L150.282 160.688V148.64H148.506V147.2H153.81V148.64H151.77V164.768L138.978 150.584L138.546 149.984L138.594 150.728V162.584H140.418V164H135.09V162.584ZM168.416 156.848V163.04C167.776 163.408 167.088 163.704 166.352 163.928C165.632 164.136 164.864 164.24 164.048 164.24C162.864 164.24 161.752 164.016 160.712 163.568C159.672 163.12 158.76 162.512 157.976 161.744C157.208 160.96 156.6 160.048 156.152 159.008C155.704 157.968 155.48 156.856 155.48 155.672C155.48 154.488 155.704 153.376 156.152 152.336C156.6 151.28 157.208 150.368 157.976 149.6C158.76 148.816 159.672 148.2 160.712 147.752C161.752 147.288 162.864 147.056 164.048 147.056C164.864 147.056 165.632 147.16 166.352 147.368C167.088 147.576 167.784 147.872 168.44 148.256L167.6 149.48C166.528 148.824 165.344 148.496 164.048 148.496C163.072 148.496 162.152 148.688 161.288 149.072C160.44 149.44 159.696 149.952 159.056 150.608C158.416 151.264 157.904 152.032 157.52 152.912C157.152 153.776 156.968 154.696 156.968 155.672C156.968 156.664 157.152 157.592 157.52 158.456C157.888 159.32 158.392 160.08 159.032 160.736C159.672 161.376 160.416 161.888 161.264 162.272C162.128 162.64 163.048 162.824 164.024 162.824C165.064 162.824 166.032 162.608 166.928 162.176V158.288H163.952V156.848H168.416Z" fill="#F5F5F5"/>
</svg>
