<svg width="181" height="180" viewBox="0 0 181 180" fill="none" xmlns="http://www.w3.org/2000/svg">
<rect x="0.468994" width="180" height="180" rx="5" fill="#F5F5F5"/>
<path d="M56.0468 37.4101C56.5425 19.216 33.8831 17 33.8831 17C33.8831 17 32.8334 19.4367 25.2526 21.132C17.6717 22.8273 17.0635 29.95 17.0635 29.95C17.0635 29.95 21.1914 27.6841 23.9863 30.5581C23.488 30.9107 23.096 31.3934 22.8533 31.9535C21.8714 31.7968 20.8811 31.6981 19.8876 31.6578C19.7819 31.649 19.6759 31.6722 19.5836 31.7244C19.5044 31.7786 19.4669 31.9452 19.3836 32.6699C19.3715 32.8168 19.3506 32.9629 19.3211 33.1073L19.2961 33.2364H19.3878L19.6085 33.2656C19.7494 33.2779 19.8888 33.303 20.0251 33.3406C19.9114 33.8102 19.8238 34.2858 19.7627 34.7651C19.6502 35.5065 19.5377 36.3188 19.5211 36.4812C19.376 37.5368 19.5855 38.6107 20.1167 39.5344L18.4506 40.784C16.7345 42.0919 15.1183 43.3249 14.7018 43.7372C14.2228 44.2496 14.5185 46.8862 15.2641 49.3104C17.7425 64.5555 29.4262 64.6346 32.8668 66.8548C34.5329 67.9169 52.6604 63.4975 57.8795 42.0961C58.1794 40.8715 55.9718 40.0759 56.0468 37.4101ZM15.1725 44.2037C15.589 43.7872 17.2551 42.5376 18.8505 41.313L20.5166 40.0634L20.6166 40.1842C21.0897 40.6776 21.693 41.0267 22.3565 41.1911C23.02 41.3555 23.7166 41.3285 24.3653 41.1131C24.9208 40.9184 25.4221 40.5944 25.8277 40.1678C26.2332 39.7412 26.5315 39.2243 26.6979 38.6597C26.8579 38.1627 26.9736 37.6525 27.0436 37.1352C27.1196 36.4662 27.298 35.813 27.5726 35.1983C27.6679 35.009 27.8257 34.8583 28.0192 34.7718C28.2127 34.6853 28.4302 34.6682 28.6348 34.7235C28.8954 34.7685 29.1282 34.9133 29.2837 35.1272C29.4393 35.341 29.5053 35.6071 29.4679 35.8689C29.193 37.8183 29.0513 39.8635 29.8427 41.6129C30.1422 42.2278 30.5701 42.7713 31.0975 43.2068C31.6249 43.6422 32.2396 43.9595 32.9001 44.1371C33.2029 44.2278 33.512 44.296 33.8248 44.3412C35.2241 44.5663 36.6582 44.2983 37.8818 43.5831C38.885 42.9372 39.6861 42.0221 40.1936 40.9423C40.5317 40.2079 40.759 39.4274 40.8684 38.6264C40.8684 38.6264 41.1016 37.1768 41.1308 36.6895L41.8181 36.7978L42.0596 35.2649L41.993 35.1608H41.9597C41.5431 35.0567 41.0975 34.9442 40.6684 34.8318C39.2232 34.4147 37.7506 34.0988 36.2615 33.8862C35.2077 33.7613 34.1372 33.6696 33.0709 33.628C32.6543 33.628 32.2378 33.628 31.8213 33.628C31.2256 33.628 30.605 33.628 30.0052 33.5738C28.8556 33.4235 27.7212 33.174 26.6146 32.8282L25.7191 32.5533C24.9818 32.3576 24.2487 32.2034 23.5198 32.0701C24.0238 31.0663 25.3192 30.2416 28.4807 29.346C34.5454 27.6299 37.6444 30.6456 38.7274 32.0202C38.8621 32.1945 39.0381 32.3327 39.2395 32.4221C39.441 32.5115 39.6615 32.5495 39.8812 32.5325C42.7511 32.3034 47.3413 34.3277 47.9619 34.9067C45.6835 42.6376 44.1381 44.1579 41.9264 44.3578C41.5931 44.387 41.3515 44.4078 41.0183 50.031C41.0102 50.1473 40.9747 50.2601 40.9146 50.36C40.8545 50.4599 40.7716 50.5442 40.6726 50.6058C39.7187 51.1848 36.5864 53.105 36.274 53.28C31.009 56.3457 24.986 55.2293 22.6409 54.6087C19.5627 53.7756 17.4134 52.5261 16.9552 51.718C15.4349 49.0938 14.8892 44.6869 15.1725 44.2037ZM23.1116 37.7975C23.2753 36.7379 23.3116 35.6625 23.2199 34.5943C23.1949 34.1403 23.1782 33.7279 23.1949 33.3447H23.349C23.5906 33.3697 23.8822 33.3947 24.1821 33.4405C25.1026 33.578 26.1689 33.8571 26.4105 34.6443C26.6813 35.5065 26.4105 36.4979 26.1856 37.2976C26.1606 37.3976 26.1314 37.4976 26.1064 37.5975C25.9065 38.3598 25.6899 39.1512 25.0693 39.651C24.7504 39.8967 24.3859 40.0766 23.9969 40.1802C23.6079 40.2839 23.2022 40.3093 22.8033 40.255C22.2128 40.1762 21.6635 39.9089 21.2372 39.4928C22.8658 38.2432 23.0783 37.9891 23.1116 37.7975ZM30.8674 35.5565C31.3464 34.9192 32.3378 34.7734 33.0834 34.7651C34.0465 34.7522 35.0091 34.8176 35.9616 34.9609C36.4573 35.0317 36.9613 35.1275 37.4736 35.24C38.6649 35.5065 40.0311 35.9939 40.0228 37.4184C40.011 37.9468 39.9327 38.4716 39.7895 38.9804C39.6019 39.6691 39.3217 40.329 38.9565 40.9423C38.3961 41.915 37.486 42.6374 36.4115 42.9625C35.6424 43.1687 34.8352 43.1882 34.0571 43.0194C33.2789 42.8506 32.5524 42.4983 31.9379 41.9919C31.4425 41.5631 31.0484 41.0296 30.7841 40.4299C30.4932 39.6824 30.364 38.8818 30.4051 38.0807V37.9308C30.4009 37.1435 30.3926 36.1855 30.8674 35.5565ZM20.5499 38.3515C20.1959 37.206 20.5499 35.7148 20.8082 34.5152C20.8415 34.3736 20.8748 34.2319 20.904 34.0987C21.0831 33.2989 21.8412 33.2406 22.5701 33.2906C22.5476 33.736 22.5476 34.1822 22.5701 34.6277C22.6514 35.6293 22.6179 36.6369 22.4701 37.6309C21.9382 38.1115 21.3821 38.5647 20.804 38.9887C20.6922 38.7882 20.6068 38.574 20.5499 38.3515V38.3515Z" fill="#2A363B"/>
<path d="M42.4345 43.2791C42.6956 43.3202 42.9629 43.283 43.2029 43.1723C43.4428 43.0615 43.6446 42.8821 43.7826 42.6568C43.9207 42.4314 43.9889 42.1702 43.9786 41.9062C43.9683 41.6421 43.8799 41.387 43.7247 41.1731C43.5695 40.9592 43.3544 40.7961 43.1066 40.7043C42.8587 40.6126 42.5893 40.5964 42.3322 40.6577C42.0752 40.719 41.842 40.8552 41.6623 41.0489C41.4826 41.2427 41.3643 41.4853 41.3224 41.7462C41.2945 41.9199 41.3011 42.0974 41.3419 42.2686C41.3828 42.4397 41.457 42.6011 41.5603 42.7435C41.6636 42.8859 41.794 43.0065 41.944 43.0984C42.094 43.1903 42.2607 43.2517 42.4345 43.2791V43.2791Z" fill="#2A363B"/>
<path d="M18.8796 48.1067L20.3458 46.1156C20.4545 45.9569 20.52 45.7727 20.5359 45.581C20.5518 45.3892 20.5175 45.1967 20.4363 45.0223C20.3552 44.8479 20.2301 44.6976 20.0733 44.5862C19.9164 44.4748 19.7333 44.4062 19.5419 44.387L16.7386 43.9705C16.5508 43.9361 16.3573 43.9509 16.177 44.0136C15.9966 44.0764 15.8356 44.1848 15.7097 44.3283C15.5838 44.4718 15.4973 44.6456 15.4586 44.8325C15.4199 45.0195 15.4304 45.2133 15.489 45.395L16.3221 47.7235C16.6137 48.5898 18.3381 48.8439 18.8796 48.1067Z" fill="#2A363B"/>
<path d="M35.6159 48.5565C35.7056 48.5125 35.8032 48.487 35.903 48.4814C36.0028 48.4759 36.1026 48.4904 36.1967 48.5242C36.2907 48.558 36.377 48.6104 36.4504 48.6782C36.5238 48.746 36.5828 48.8279 36.6239 48.9189C36.4198 49.1438 35.4451 50.0685 32.9917 50.7808L33.0376 50.9599C34.3886 50.6799 35.6854 50.1834 36.878 49.4896C37.003 49.9353 36.9613 50.2851 36.828 50.3518C34.3175 51.6483 31.6404 52.5929 28.8722 53.1592V53.3425C32.5127 53.2925 36.0491 51.6764 37.4112 50.8433C37.8818 50.5517 38.4025 49.7645 38.1859 49.1438L37.3528 47.3653C37.2286 47.1666 37.0638 46.9964 36.8693 46.8658C36.6748 46.7352 36.4549 46.6471 36.224 46.6072H36.1949C36.0365 46.5838 35.8749 46.5963 35.722 46.6439C35.5691 46.6915 35.4289 46.7729 35.3118 46.8821C31.7047 50.3226 22.7575 51.5722 22.6701 51.5722L22.0869 51.6472L22.6659 51.7513C22.7159 51.7555 27.8018 52.5969 35.6159 48.5565Z" fill="#2A363B"/>
<path d="M23.9613 38.0807H24.7944C24.9207 38.0854 25.044 38.0413 25.1386 37.9575C25.2332 37.8738 25.2919 37.7568 25.3026 37.6308C25.3317 36.9602 25.2734 35.8147 24.5237 35.7648C23.7739 35.7148 23.5198 36.8686 23.4823 37.5642C23.4784 37.6299 23.4878 37.6957 23.51 37.7577C23.5322 37.8197 23.5667 37.8765 23.6115 37.9248C23.6562 37.9731 23.7103 38.0117 23.7704 38.0385C23.8306 38.0653 23.8955 38.0797 23.9613 38.0807Z" fill="#2A363B"/>
<path d="M32.6418 38.6597H32.7043C32.8845 38.5852 33.0563 38.4917 33.2166 38.3806C33.7407 38.1102 34.3272 37.9838 34.9161 38.0141C35.4724 38.0527 36.0073 38.2445 36.4614 38.5681C36.6072 38.6681 36.7405 38.7805 36.878 38.8847C36.9555 38.9521 37.0542 38.9904 37.157 38.9929C37.2129 38.9821 37.2656 38.9589 37.3113 38.9249C37.357 38.8909 37.3944 38.8471 37.4208 38.7967C37.4472 38.7463 37.4619 38.6906 37.4638 38.6337C37.4658 38.5768 37.4549 38.5202 37.4319 38.4681C37.3863 38.383 37.3239 38.3079 37.2487 38.2474C36.6282 37.6104 35.8014 37.2147 34.9161 37.1311C34.5967 37.1264 34.2786 37.1742 33.9747 37.2727C33.6792 37.3726 33.3989 37.5128 33.1417 37.6892C32.8965 37.8271 32.679 38.0093 32.5002 38.2265L32.4627 38.2848C32.4357 38.3262 32.4186 38.3732 32.4127 38.4223C32.411 38.4532 32.4157 38.4842 32.4265 38.5132C32.4373 38.5422 32.4539 38.5687 32.4754 38.591C32.497 38.6133 32.5228 38.6309 32.5515 38.6427C32.5801 38.6546 32.6109 38.6603 32.6418 38.6597V38.6597Z" fill="#2A363B"/>
<path d="M35.6034 39.2262C35.1209 38.9195 34.5536 38.7737 33.9831 38.8097C33.621 38.8348 33.268 38.934 32.9459 39.1013C32.8943 39.1306 32.8443 39.1626 32.796 39.1971C32.7168 39.2637 32.6502 39.347 32.6877 39.447C32.7086 39.4917 32.745 39.5273 32.7902 39.5472C32.8354 39.5672 32.8863 39.57 32.9334 39.5553C33.0584 39.522 33.1792 39.4678 33.3041 39.4303C33.4306 39.3886 33.5601 39.3566 33.6915 39.3345C33.9669 39.2844 34.2491 39.2844 34.5246 39.3345C34.8019 39.4124 35.07 39.5199 35.3243 39.6552C35.4419 39.7224 35.5764 39.7542 35.7117 39.7469C35.82 39.7469 35.9449 39.6594 35.9324 39.5386C35.9199 39.4178 35.7158 39.297 35.6034 39.2262Z" fill="#2A363B"/>
<path d="M100.578 147.92H101.568V137.48H100.578V136.4H104.358C105.222 136.4 106.038 136.55 106.806 136.85C107.574 137.138 108.246 137.558 108.822 138.11C109.398 138.662 109.854 139.328 110.19 140.108C110.526 140.876 110.694 141.746 110.694 142.718C110.694 143.426 110.568 144.152 110.316 144.896C110.076 145.64 109.68 146.318 109.128 146.93C108.576 147.53 107.856 148.028 106.968 148.424C106.092 148.808 105.018 149 103.746 149H100.578V147.92ZM102.684 137.48V147.92H104.088C104.94 147.92 105.702 147.782 106.374 147.506C107.058 147.23 107.634 146.858 108.102 146.39C108.582 145.922 108.948 145.37 109.2 144.734C109.452 144.098 109.578 143.42 109.578 142.7C109.578 141.908 109.44 141.188 109.164 140.54C108.888 139.892 108.51 139.346 108.03 138.902C107.55 138.446 106.986 138.098 106.338 137.858C105.69 137.606 105 137.48 104.268 137.48H102.684ZM111.951 147.938H113.355V137.48H111.951V136.4H115.947V137.48H114.489V147.938H115.947V149H111.951V147.938ZM126.909 143.636V148.28C126.429 148.556 125.913 148.778 125.361 148.946C124.821 149.102 124.245 149.18 123.633 149.18C122.745 149.18 121.911 149.012 121.131 148.676C120.351 148.34 119.667 147.884 119.079 147.308C118.503 146.72 118.047 146.036 117.711 145.256C117.375 144.476 117.207 143.642 117.207 142.754C117.207 141.866 117.375 141.032 117.711 140.252C118.047 139.46 118.503 138.776 119.079 138.2C119.667 137.612 120.351 137.15 121.131 136.814C121.911 136.466 122.745 136.292 123.633 136.292C124.245 136.292 124.821 136.37 125.361 136.526C125.913 136.682 126.435 136.904 126.927 137.192L126.297 138.11C125.493 137.618 124.605 137.372 123.633 137.372C122.901 137.372 122.211 137.516 121.563 137.804C120.927 138.08 120.369 138.464 119.889 138.956C119.409 139.448 119.025 140.024 118.737 140.684C118.461 141.332 118.323 142.022 118.323 142.754C118.323 143.498 118.461 144.194 118.737 144.842C119.013 145.49 119.391 146.06 119.871 146.552C120.351 147.032 120.909 147.416 121.545 147.704C122.193 147.98 122.883 148.118 123.615 148.118C124.395 148.118 125.121 147.956 125.793 147.632V144.716H123.561V143.636H126.909ZM128.176 147.938H129.58V137.48H128.176V136.4H132.172V137.48H130.714V147.938H132.172V149H128.176V147.938ZM136.348 147.938H137.86V137.48H134.494V139.172H133.432V136.4H143.386V139.172H142.306V137.48H138.976V147.938H140.344V149H136.348V147.938ZM144.646 147.938H146.086C146.938 145.898 147.79 143.882 148.642 141.89C149.494 139.886 150.352 137.864 151.216 135.824C152.08 137.864 152.932 139.886 153.772 141.89C154.624 143.882 155.482 145.898 156.346 147.938H157.786V149H154.042V147.938H155.212C154.912 147.242 154.618 146.552 154.33 145.868C154.054 145.184 153.766 144.494 153.466 143.798H148.966C148.666 144.494 148.372 145.184 148.084 145.868C147.796 146.552 147.502 147.242 147.202 147.938H148.39V149H144.646V147.938ZM151.378 138.866L151.198 138.308C151.186 138.332 151.174 138.374 151.162 138.434C151.15 138.494 151.132 138.554 151.108 138.614L151.036 138.866C150.976 139.022 150.88 139.25 150.748 139.55C150.628 139.838 150.49 140.162 150.334 140.522C150.19 140.882 150.034 141.26 149.866 141.656C149.71 142.04 149.56 142.4 149.416 142.736H153.016L151.378 138.866ZM159.043 147.938H160.159V137.48H159.043V136.4H162.787V137.48H161.293V147.938H166.963V146.228H168.025V149H159.043V147.938ZM40.2675 168.938H41.6715V158.48H40.2675V157.4H44.2635V158.48H42.8055V168.938H44.2635V170H40.2675V168.938ZM45.5233 168.938H46.6393V158.48H45.5233V157.4H49.2673V158.48H47.7733V168.938H53.4433V167.228H54.5053V170H45.5233V168.938ZM55.7714 168.938H56.8874V158.48H55.7714V157.4H59.5154V158.48H58.0214V168.938H63.6914V167.228H64.7534V170H55.7714V168.938ZM66.0194 157.4H70.0154V158.48H68.5214V165.878C68.5214 166.394 68.5994 166.85 68.7554 167.246C68.9234 167.642 69.1514 167.978 69.4394 168.254C69.7274 168.518 70.0694 168.722 70.4654 168.866C70.8734 169.01 71.3174 169.082 71.7974 169.082C72.2654 169.082 72.6974 169.01 73.0934 168.866C73.5014 168.722 73.8494 168.518 74.1374 168.254C74.4374 167.978 74.6654 167.642 74.8214 167.246C74.9894 166.85 75.0734 166.394 75.0734 165.878V158.48H73.5974V157.4H77.5754V158.48H76.1894V165.932C76.1894 166.616 76.0754 167.222 75.8474 167.75C75.6314 168.278 75.3254 168.722 74.9294 169.082C74.5334 169.43 74.0654 169.694 73.5254 169.874C72.9974 170.054 72.4214 170.144 71.7974 170.144C71.1614 170.144 70.5734 170.054 70.0334 169.874C69.5054 169.694 69.0434 169.43 68.6474 169.082C68.2634 168.722 67.9574 168.278 67.7294 167.75C67.5134 167.222 67.4054 166.616 67.4054 165.932V158.48H66.0194V157.4ZM78.7079 168.488V166.49H79.7879V168.092C80.1119 168.368 80.5019 168.602 80.9579 168.794C81.4139 168.986 81.9419 169.082 82.5419 169.082C82.9019 169.082 83.2439 169.028 83.5679 168.92C83.9039 168.812 84.1979 168.656 84.4499 168.452C84.7019 168.248 84.9059 167.996 85.0619 167.696C85.2179 167.384 85.2959 167.036 85.2959 166.652C85.2959 165.992 85.1459 165.482 84.8459 165.122C84.5579 164.762 84.1859 164.486 83.7299 164.294C83.2859 164.09 82.7999 163.922 82.2719 163.79C81.7559 163.658 81.2699 163.484 80.8139 163.268C80.3579 163.04 79.9739 162.734 79.6619 162.35C79.3619 161.966 79.1999 161.414 79.1759 160.694C79.1639 160.298 79.2119 159.902 79.3199 159.506C79.4399 159.098 79.6319 158.738 79.8959 158.426C80.1719 158.102 80.5259 157.838 80.9579 157.634C81.4019 157.43 81.9419 157.328 82.5779 157.328C82.9979 157.328 83.4779 157.388 84.0179 157.508C84.5579 157.616 85.0979 157.886 85.6379 158.318V160.172H84.5579V158.858C84.3299 158.726 84.0479 158.618 83.7119 158.534C83.3759 158.45 82.9979 158.408 82.5779 158.408C82.1939 158.408 81.8579 158.474 81.5699 158.606C81.2819 158.726 81.0419 158.888 80.8499 159.092C80.6699 159.296 80.5319 159.536 80.4359 159.812C80.3399 160.076 80.2919 160.358 80.2919 160.658C80.2919 161.186 80.4419 161.588 80.7419 161.864C81.0419 162.14 81.4139 162.368 81.8579 162.548C82.3139 162.716 82.8059 162.872 83.3339 163.016C83.8619 163.16 84.3539 163.37 84.8099 163.646C85.2659 163.91 85.6439 164.276 85.9439 164.744C86.2559 165.2 86.4119 165.83 86.4119 166.634C86.4119 167.174 86.3099 167.66 86.1059 168.092C85.9139 168.524 85.6439 168.896 85.2959 169.208C84.9599 169.508 84.5639 169.742 84.1079 169.91C83.6519 170.066 83.1659 170.144 82.6499 170.144C82.1819 170.144 81.7439 170.096 81.3359 170C80.9279 169.904 80.5499 169.778 80.2019 169.622C79.8659 169.454 79.5659 169.274 79.3019 169.082C79.0499 168.89 78.8519 168.692 78.7079 168.488ZM90.3456 168.938H91.8576V158.48H88.4916V160.172H87.4296V157.4H97.3836V160.172H96.3036V158.48H92.9736V168.938H94.3416V170H90.3456V168.938ZM98.6444 168.938H99.5984V158.48H98.6444V157.4H102.424C102.82 157.4 103.252 157.466 103.72 157.598C104.188 157.718 104.626 157.916 105.034 158.192C105.454 158.456 105.802 158.798 106.078 159.218C106.354 159.638 106.492 160.148 106.492 160.748C106.492 161.636 106.264 162.374 105.808 162.962C105.352 163.55 104.692 163.94 103.828 164.132L106.078 168.938H107.716V170H105.376L102.64 164.204C102.508 164.216 102.376 164.222 102.244 164.222C102.112 164.222 101.98 164.222 101.848 164.222H100.714V168.938H102.64V170H98.6444V168.938ZM100.714 163.142H102.424C103 163.142 103.48 163.07 103.864 162.926C104.248 162.77 104.548 162.578 104.764 162.35C104.992 162.11 105.148 161.852 105.232 161.576C105.328 161.288 105.376 161.012 105.376 160.748C105.376 160.448 105.298 160.16 105.142 159.884C104.998 159.608 104.794 159.368 104.53 159.164C104.278 158.96 103.972 158.798 103.612 158.678C103.252 158.546 102.862 158.48 102.442 158.48H100.714V163.142ZM108.98 168.938H110.42C111.272 166.898 112.124 164.882 112.976 162.89C113.828 160.886 114.686 158.864 115.55 156.824C116.414 158.864 117.266 160.886 118.106 162.89C118.958 164.882 119.816 166.898 120.68 168.938H122.12V170H118.376V168.938H119.546C119.246 168.242 118.952 167.552 118.664 166.868C118.388 166.184 118.1 165.494 117.8 164.798H113.3C113 165.494 112.706 166.184 112.418 166.868C112.13 167.552 111.836 168.242 111.536 168.938H112.724V170H108.98V168.938ZM115.712 159.866L115.532 159.308C115.52 159.332 115.508 159.374 115.496 159.434C115.484 159.494 115.466 159.554 115.442 159.614L115.37 159.866C115.31 160.022 115.214 160.25 115.082 160.55C114.962 160.838 114.824 161.162 114.668 161.522C114.524 161.882 114.368 162.26 114.2 162.656C114.044 163.04 113.894 163.4 113.75 163.736H117.35L115.712 159.866ZM126.293 168.938H127.805V158.48H124.439V160.172H123.377V157.4H133.331V160.172H132.251V158.48H128.921V168.938H130.289V170H126.293V168.938ZM134.592 168.938H135.996V158.48H134.592V157.4H138.588V158.48H137.13V168.938H138.588V170H134.592V168.938ZM139.848 163.718C139.848 162.83 140.016 161.996 140.352 161.216C140.688 160.424 141.144 159.74 141.72 159.164C142.308 158.576 142.992 158.114 143.772 157.778C144.552 157.43 145.386 157.256 146.274 157.256C147.162 157.256 147.996 157.43 148.776 157.778C149.568 158.114 150.252 158.576 150.828 159.164C151.416 159.74 151.878 160.424 152.214 161.216C152.562 161.996 152.736 162.83 152.736 163.718C152.736 164.606 152.562 165.44 152.214 166.22C151.878 167 151.416 167.684 150.828 168.272C150.252 168.848 149.568 169.304 148.776 169.64C147.996 169.976 147.162 170.144 146.274 170.144C145.386 170.144 144.552 169.976 143.772 169.64C142.992 169.304 142.308 168.848 141.72 168.272C141.144 167.684 140.688 167 140.352 166.22C140.016 165.44 139.848 164.606 139.848 163.718ZM140.964 163.718C140.964 164.462 141.102 165.158 141.378 165.806C141.654 166.454 142.032 167.024 142.512 167.516C142.992 167.996 143.556 168.38 144.204 168.668C144.852 168.944 145.542 169.082 146.274 169.082C147.006 169.082 147.696 168.944 148.344 168.668C148.992 168.38 149.556 167.996 150.036 167.516C150.528 167.024 150.912 166.454 151.188 165.806C151.476 165.158 151.62 164.462 151.62 163.718C151.62 162.986 151.476 162.296 151.188 161.648C150.912 160.988 150.528 160.412 150.036 159.92C149.556 159.428 148.992 159.044 148.344 158.768C147.708 158.48 147.024 158.336 146.292 158.336C145.56 158.336 144.87 158.48 144.222 158.768C143.574 159.044 143.01 159.428 142.53 159.92C142.05 160.412 141.666 160.988 141.378 161.648C141.102 162.296 140.964 162.986 140.964 163.718ZM153.998 168.938H155.51V158.48H153.998V157.4H156.014L165.104 167.624L165.446 168.092L165.392 167.516V158.48H164.06V157.4H168.038V158.48H166.508V170.576L156.914 159.938L156.59 159.488L156.626 160.046V168.938H157.994V170H153.998V168.938Z" fill="#2A363B"/>
</svg>
