<svg width="181" height="180" viewBox="0 0 181 180" fill="none" xmlns="http://www.w3.org/2000/svg">
<rect x="0.468994" width="180" height="180" rx="5" fill="#F68865"/>
<path d="M56.0468 37.4101C56.5425 19.216 33.8831 17 33.8831 17C33.8831 17 32.8334 19.4367 25.2526 21.132C17.6717 22.8273 17.0635 29.95 17.0635 29.95C17.0635 29.95 21.1914 27.6841 23.9863 30.5581C23.488 30.9107 23.096 31.3934 22.8533 31.9535C21.8714 31.7968 20.8811 31.6981 19.8876 31.6578C19.7819 31.649 19.6759 31.6722 19.5836 31.7244C19.5044 31.7786 19.4669 31.9452 19.3836 32.6699C19.3715 32.8168 19.3506 32.9629 19.3211 33.1073L19.2961 33.2364H19.3878L19.6085 33.2656C19.7494 33.2779 19.8888 33.303 20.0251 33.3406C19.9114 33.8102 19.8238 34.2858 19.7627 34.7651C19.6502 35.5065 19.5377 36.3188 19.5211 36.4812C19.376 37.5368 19.5855 38.6107 20.1167 39.5344L18.4506 40.784C16.7345 42.0919 15.1183 43.3249 14.7018 43.7372C14.2228 44.2496 14.5185 46.8862 15.2641 49.3104C17.7425 64.5555 29.4262 64.6346 32.8668 66.8548C34.5329 67.9169 52.6604 63.4975 57.8795 42.0961C58.1794 40.8715 55.9718 40.0759 56.0468 37.4101ZM15.1725 44.2037C15.589 43.7872 17.2551 42.5376 18.8505 41.313L20.5166 40.0634L20.6166 40.1842C21.0897 40.6776 21.693 41.0267 22.3565 41.1911C23.02 41.3555 23.7166 41.3285 24.3653 41.1131C24.9208 40.9184 25.4221 40.5944 25.8277 40.1678C26.2332 39.7412 26.5315 39.2243 26.6979 38.6597C26.8579 38.1627 26.9736 37.6525 27.0436 37.1352C27.1196 36.4662 27.298 35.813 27.5726 35.1983C27.6679 35.009 27.8257 34.8583 28.0192 34.7718C28.2127 34.6853 28.4302 34.6682 28.6348 34.7235C28.8954 34.7685 29.1282 34.9133 29.2837 35.1272C29.4393 35.341 29.5053 35.6071 29.4679 35.8689C29.193 37.8183 29.0513 39.8635 29.8427 41.6129C30.1422 42.2278 30.5701 42.7713 31.0975 43.2068C31.6249 43.6422 32.2396 43.9595 32.9001 44.1371C33.2029 44.2278 33.512 44.296 33.8248 44.3412C35.2241 44.5663 36.6582 44.2983 37.8818 43.5831C38.885 42.9372 39.6861 42.0221 40.1936 40.9423C40.5317 40.2079 40.759 39.4274 40.8684 38.6264C40.8684 38.6264 41.1016 37.1768 41.1308 36.6895L41.8181 36.7978L42.0596 35.2649L41.993 35.1608H41.9597C41.5431 35.0567 41.0975 34.9442 40.6684 34.8318C39.2232 34.4147 37.7506 34.0988 36.2615 33.8862C35.2077 33.7613 34.1372 33.6696 33.0709 33.628C32.6543 33.628 32.2378 33.628 31.8213 33.628C31.2256 33.628 30.605 33.628 30.0052 33.5738C28.8556 33.4235 27.7212 33.174 26.6146 32.8282L25.7191 32.5533C24.9818 32.3576 24.2487 32.2034 23.5198 32.0701C24.0238 31.0663 25.3192 30.2416 28.4807 29.346C34.5454 27.6299 37.6444 30.6456 38.7274 32.0202C38.8621 32.1945 39.0381 32.3327 39.2395 32.4221C39.441 32.5115 39.6615 32.5495 39.8812 32.5325C42.7511 32.3034 47.3413 34.3277 47.9619 34.9067C45.6835 42.6376 44.1381 44.1579 41.9264 44.3578C41.5931 44.387 41.3515 44.4078 41.0183 50.031C41.0102 50.1473 40.9747 50.2601 40.9146 50.36C40.8545 50.4599 40.7716 50.5442 40.6726 50.6058C39.7187 51.1848 36.5864 53.105 36.274 53.28C31.009 56.3457 24.986 55.2293 22.6409 54.6087C19.5627 53.7756 17.4134 52.5261 16.9552 51.718C15.4349 49.0938 14.8892 44.6869 15.1725 44.2037ZM23.1116 37.7975C23.2753 36.7379 23.3116 35.6625 23.2199 34.5943C23.1949 34.1403 23.1782 33.7279 23.1949 33.3447H23.349C23.5906 33.3697 23.8822 33.3947 24.1821 33.4405C25.1026 33.578 26.1689 33.8571 26.4105 34.6443C26.6813 35.5065 26.4105 36.4979 26.1856 37.2976C26.1606 37.3976 26.1314 37.4976 26.1064 37.5975C25.9065 38.3598 25.6899 39.1512 25.0693 39.651C24.7504 39.8967 24.3859 40.0766 23.9969 40.1802C23.6079 40.2839 23.2022 40.3093 22.8033 40.255C22.2128 40.1762 21.6635 39.9089 21.2372 39.4928C22.8658 38.2432 23.0783 37.9891 23.1116 37.7975ZM30.8674 35.5565C31.3464 34.9192 32.3378 34.7734 33.0834 34.7651C34.0465 34.7522 35.0091 34.8176 35.9616 34.9609C36.4573 35.0317 36.9613 35.1275 37.4736 35.24C38.6649 35.5065 40.0311 35.9939 40.0228 37.4184C40.011 37.9468 39.9327 38.4716 39.7895 38.9804C39.6019 39.6691 39.3217 40.329 38.9565 40.9423C38.3961 41.915 37.486 42.6374 36.4115 42.9625C35.6424 43.1687 34.8352 43.1882 34.0571 43.0194C33.2789 42.8506 32.5524 42.4983 31.9379 41.9919C31.4425 41.5631 31.0484 41.0296 30.7841 40.4299C30.4932 39.6824 30.364 38.8818 30.4051 38.0807V37.9308C30.4009 37.1435 30.3926 36.1855 30.8674 35.5565ZM20.5499 38.3515C20.1959 37.206 20.5499 35.7148 20.8082 34.5152C20.8415 34.3736 20.8748 34.2319 20.904 34.0987C21.0831 33.2989 21.8412 33.2406 22.5701 33.2906C22.5476 33.736 22.5476 34.1822 22.5701 34.6277C22.6514 35.6293 22.6179 36.6369 22.4701 37.6309C21.9382 38.1115 21.3821 38.5647 20.804 38.9887C20.6922 38.7882 20.6068 38.574 20.5499 38.3515V38.3515Z" fill="#2A363B"/>
<path d="M42.4345 43.2791C42.6956 43.3202 42.963 43.283 43.2029 43.1723C43.4428 43.0615 43.6446 42.8821 43.7826 42.6568C43.9207 42.4314 43.9889 42.1702 43.9786 41.9062C43.9683 41.6421 43.8799 41.387 43.7247 41.1731C43.5696 40.9592 43.3544 40.7961 43.1066 40.7043C42.8588 40.6126 42.5893 40.5964 42.3322 40.6577C42.0752 40.719 41.8421 40.8552 41.6623 41.0489C41.4826 41.2427 41.3643 41.4853 41.3224 41.7462C41.2945 41.9199 41.3011 42.0974 41.342 42.2686C41.3828 42.4397 41.457 42.6011 41.5603 42.7435C41.6636 42.8859 41.794 43.0065 41.944 43.0984C42.094 43.1903 42.2607 43.2517 42.4345 43.2791V43.2791Z" fill="#2A363B"/>
<path d="M18.8796 48.1067L20.3458 46.1156C20.4545 45.9569 20.52 45.7727 20.5359 45.581C20.5518 45.3892 20.5175 45.1967 20.4363 45.0223C20.3552 44.8479 20.2301 44.6976 20.0733 44.5862C19.9164 44.4748 19.7333 44.4062 19.5419 44.387L16.7386 43.9705C16.5508 43.9361 16.3573 43.9509 16.177 44.0136C15.9966 44.0764 15.8356 44.1848 15.7097 44.3283C15.5838 44.4718 15.4973 44.6456 15.4586 44.8325C15.4199 45.0195 15.4304 45.2133 15.489 45.395L16.3221 47.7235C16.6137 48.5898 18.3381 48.8439 18.8796 48.1067Z" fill="#2A363B"/>
<path d="M35.6159 48.5565C35.7056 48.5125 35.8033 48.487 35.903 48.4814C36.0028 48.4759 36.1027 48.4904 36.1967 48.5242C36.2907 48.558 36.377 48.6104 36.4504 48.6782C36.5238 48.746 36.5828 48.8279 36.6239 48.9189C36.4198 49.1438 35.4451 50.0685 32.9918 50.7808L33.0376 50.9599C34.3886 50.6799 35.6854 50.1834 36.878 49.4896C37.003 49.9353 36.9613 50.2851 36.828 50.3518C34.3175 51.6483 31.6404 52.5929 28.8723 53.1592V53.3425C32.5128 53.2925 36.0491 51.6764 37.4112 50.8433C37.8819 50.5517 38.4025 49.7645 38.1859 49.1438L37.3529 47.3653C37.2286 47.1666 37.0638 46.9964 36.8693 46.8658C36.6748 46.7352 36.4549 46.6471 36.2241 46.6072H36.1949C36.0365 46.5838 35.8749 46.5963 35.722 46.6439C35.5691 46.6915 35.429 46.7729 35.3118 46.8821C31.7047 50.3226 22.7576 51.5722 22.6701 51.5722L22.0869 51.6472L22.6659 51.7513C22.7159 51.7555 27.8018 52.5969 35.6159 48.5565Z" fill="#2A363B"/>
<path d="M23.9613 38.0807H24.7944C24.9207 38.0854 25.044 38.0413 25.1386 37.9575C25.2332 37.8738 25.2919 37.7568 25.3026 37.6308C25.3317 36.9602 25.2734 35.8147 24.5237 35.7648C23.7739 35.7148 23.5198 36.8686 23.4823 37.5642C23.4784 37.6299 23.4878 37.6957 23.51 37.7577C23.5322 37.8197 23.5667 37.8765 23.6115 37.9248C23.6562 37.9731 23.7103 38.0117 23.7704 38.0385C23.8306 38.0653 23.8955 38.0797 23.9613 38.0807Z" fill="#2A363B"/>
<path d="M32.6418 38.6597H32.7043C32.8845 38.5852 33.0563 38.4917 33.2166 38.3806C33.7407 38.1102 34.3272 37.9838 34.9161 38.0141C35.4724 38.0527 36.0073 38.2445 36.4614 38.5681C36.6072 38.6681 36.7405 38.7805 36.878 38.8847C36.9555 38.9521 37.0542 38.9904 37.157 38.9929C37.2129 38.9821 37.2656 38.9589 37.3113 38.9249C37.357 38.8909 37.3944 38.8471 37.4208 38.7967C37.4472 38.7463 37.4619 38.6906 37.4638 38.6337C37.4658 38.5768 37.4549 38.5202 37.4319 38.4681C37.3863 38.383 37.3239 38.3079 37.2487 38.2474C36.6282 37.6104 35.8014 37.2147 34.9161 37.1311C34.5967 37.1264 34.2786 37.1742 33.9747 37.2727C33.6792 37.3726 33.3989 37.5128 33.1417 37.6892C32.8965 37.8271 32.679 38.0093 32.5002 38.2265L32.4627 38.2848C32.4357 38.3262 32.4186 38.3732 32.4127 38.4223C32.411 38.4532 32.4157 38.4842 32.4265 38.5132C32.4373 38.5422 32.4539 38.5687 32.4754 38.591C32.497 38.6133 32.5228 38.6309 32.5515 38.6427C32.5801 38.6546 32.6109 38.6603 32.6418 38.6597V38.6597Z" fill="#2A363B"/>
<path d="M35.6034 39.2262C35.1209 38.9195 34.5536 38.7737 33.9831 38.8097C33.621 38.8348 33.268 38.934 32.9459 39.1013C32.8943 39.1306 32.8443 39.1626 32.796 39.1971C32.7168 39.2637 32.6502 39.347 32.6877 39.447C32.7086 39.4917 32.745 39.5273 32.7902 39.5472C32.8354 39.5672 32.8863 39.57 32.9334 39.5553C33.0584 39.522 33.1792 39.4678 33.3041 39.4303C33.4307 39.3886 33.5601 39.3566 33.6915 39.3345C33.9669 39.2844 34.2492 39.2844 34.5246 39.3345C34.8019 39.4124 35.07 39.5199 35.3243 39.6552C35.4419 39.7224 35.5764 39.7542 35.7117 39.7469C35.82 39.7469 35.945 39.6594 35.9325 39.5386C35.92 39.4178 35.7159 39.297 35.6034 39.2262Z" fill="#2A363B"/>
<path d="M100.578 147.92H101.568V137.48H100.578V136.4H104.358C105.222 136.4 106.038 136.55 106.806 136.85C107.574 137.138 108.246 137.558 108.822 138.11C109.398 138.662 109.854 139.328 110.19 140.108C110.526 140.876 110.694 141.746 110.694 142.718C110.694 143.426 110.568 144.152 110.316 144.896C110.076 145.64 109.68 146.318 109.128 146.93C108.576 147.53 107.856 148.028 106.968 148.424C106.092 148.808 105.018 149 103.746 149H100.578V147.92ZM102.684 137.48V147.92H104.088C104.94 147.92 105.702 147.782 106.374 147.506C107.058 147.23 107.634 146.858 108.102 146.39C108.582 145.922 108.948 145.37 109.2 144.734C109.452 144.098 109.578 143.42 109.578 142.7C109.578 141.908 109.44 141.188 109.164 140.54C108.888 139.892 108.51 139.346 108.03 138.902C107.55 138.446 106.986 138.098 106.338 137.858C105.69 137.606 105 137.48 104.268 137.48H102.684ZM111.951 147.938H113.355V137.48H111.951V136.4H115.947V137.48H114.489V147.938H115.947V149H111.951V147.938ZM126.909 143.636V148.28C126.429 148.556 125.913 148.778 125.361 148.946C124.821 149.102 124.245 149.18 123.633 149.18C122.745 149.18 121.911 149.012 121.131 148.676C120.351 148.34 119.667 147.884 119.079 147.308C118.503 146.72 118.047 146.036 117.711 145.256C117.375 144.476 117.207 143.642 117.207 142.754C117.207 141.866 117.375 141.032 117.711 140.252C118.047 139.46 118.503 138.776 119.079 138.2C119.667 137.612 120.351 137.15 121.131 136.814C121.911 136.466 122.745 136.292 123.633 136.292C124.245 136.292 124.821 136.37 125.361 136.526C125.913 136.682 126.435 136.904 126.927 137.192L126.297 138.11C125.493 137.618 124.605 137.372 123.633 137.372C122.901 137.372 122.211 137.516 121.563 137.804C120.927 138.08 120.369 138.464 119.889 138.956C119.409 139.448 119.025 140.024 118.737 140.684C118.461 141.332 118.323 142.022 118.323 142.754C118.323 143.498 118.461 144.194 118.737 144.842C119.013 145.49 119.391 146.06 119.871 146.552C120.351 147.032 120.909 147.416 121.545 147.704C122.193 147.98 122.883 148.118 123.615 148.118C124.395 148.118 125.121 147.956 125.793 147.632V144.716H123.561V143.636H126.909ZM128.176 147.938H129.58V137.48H128.176V136.4H132.172V137.48H130.714V147.938H132.172V149H128.176V147.938ZM136.348 147.938H137.86V137.48H134.494V139.172H133.432V136.4H143.386V139.172H142.306V137.48H138.976V147.938H140.344V149H136.348V147.938ZM144.646 147.938H146.086C146.938 145.898 147.79 143.882 148.642 141.89C149.494 139.886 150.352 137.864 151.216 135.824C152.08 137.864 152.932 139.886 153.772 141.89C154.624 143.882 155.482 145.898 156.346 147.938H157.786V149H154.042V147.938H155.212C154.912 147.242 154.618 146.552 154.33 145.868C154.054 145.184 153.766 144.494 153.466 143.798H148.966C148.666 144.494 148.372 145.184 148.084 145.868C147.796 146.552 147.502 147.242 147.202 147.938H148.39V149H144.646V147.938ZM151.378 138.866L151.198 138.308C151.186 138.332 151.174 138.374 151.162 138.434C151.15 138.494 151.132 138.554 151.108 138.614L151.036 138.866C150.976 139.022 150.88 139.25 150.748 139.55C150.628 139.838 150.49 140.162 150.334 140.522C150.19 140.882 150.034 141.26 149.866 141.656C149.71 142.04 149.56 142.4 149.416 142.736H153.016L151.378 138.866ZM159.043 147.938H160.159V137.48H159.043V136.4H162.787V137.48H161.293V147.938H166.963V146.228H168.025V149H159.043V147.938ZM34.871 168.938H35.825V158.48H34.871V157.4H38.651C39.047 157.4 39.479 157.466 39.947 157.598C40.415 157.718 40.853 157.916 41.261 158.192C41.681 158.456 42.029 158.798 42.305 159.218C42.581 159.638 42.719 160.148 42.719 160.748C42.719 161.804 42.395 162.65 41.747 163.286C41.099 163.91 40.157 164.222 38.921 164.222H36.941V168.938H38.867V170H34.871V168.938ZM36.941 163.142H38.651C39.227 163.142 39.707 163.07 40.091 162.926C40.475 162.77 40.775 162.578 40.991 162.35C41.219 162.11 41.375 161.852 41.459 161.576C41.555 161.288 41.603 161.012 41.603 160.748C41.603 160.448 41.525 160.16 41.369 159.884C41.225 159.608 41.021 159.368 40.757 159.164C40.505 158.96 40.199 158.798 39.839 158.678C39.479 158.546 39.089 158.48 38.669 158.48H36.941V163.142ZM52.3285 157.4H56.3065V158.48H54.9025V168.938H56.3065V170H52.3285V168.938H53.7685V164.186H46.5145V168.938H47.9725V170H43.9765V168.938H45.3805V158.48H43.9765V157.4H47.9725V158.48H46.5145V163.124H53.7685V158.48H52.3285V157.4ZM57.5644 163.718C57.5644 162.83 57.7324 161.996 58.0684 161.216C58.4044 160.424 58.8604 159.74 59.4364 159.164C60.0244 158.576 60.7084 158.114 61.4884 157.778C62.2684 157.43 63.1024 157.256 63.9904 157.256C64.8784 157.256 65.7124 157.43 66.4924 157.778C67.2844 158.114 67.9684 158.576 68.5444 159.164C69.1324 159.74 69.5944 160.424 69.9304 161.216C70.2784 161.996 70.4524 162.83 70.4524 163.718C70.4524 164.606 70.2784 165.44 69.9304 166.22C69.5944 167 69.1324 167.684 68.5444 168.272C67.9684 168.848 67.2844 169.304 66.4924 169.64C65.7124 169.976 64.8784 170.144 63.9904 170.144C63.1024 170.144 62.2684 169.976 61.4884 169.64C60.7084 169.304 60.0244 168.848 59.4364 168.272C58.8604 167.684 58.4044 167 58.0684 166.22C57.7324 165.44 57.5644 164.606 57.5644 163.718ZM58.6804 163.718C58.6804 164.462 58.8184 165.158 59.0944 165.806C59.3704 166.454 59.7484 167.024 60.2284 167.516C60.7084 167.996 61.2724 168.38 61.9204 168.668C62.5684 168.944 63.2584 169.082 63.9904 169.082C64.7224 169.082 65.4124 168.944 66.0604 168.668C66.7084 168.38 67.2724 167.996 67.7524 167.516C68.2444 167.024 68.6284 166.454 68.9044 165.806C69.1924 165.158 69.3364 164.462 69.3364 163.718C69.3364 162.986 69.1924 162.296 68.9044 161.648C68.6284 160.988 68.2444 160.412 67.7524 159.92C67.2724 159.428 66.7084 159.044 66.0604 158.768C65.4244 158.48 64.7404 158.336 64.0084 158.336C63.2764 158.336 62.5864 158.48 61.9384 158.768C61.2904 159.044 60.7264 159.428 60.2464 159.92C59.7664 160.412 59.3824 160.988 59.0944 161.648C58.8184 162.296 58.6804 162.986 58.6804 163.718ZM74.6307 168.938H76.1427V158.48H72.7767V160.172H71.7147V157.4H81.6687V160.172H80.5887V158.48H77.2587V168.938H78.6267V170H74.6307V168.938ZM82.9296 163.718C82.9296 162.83 83.0976 161.996 83.4336 161.216C83.7696 160.424 84.2256 159.74 84.8016 159.164C85.3896 158.576 86.0736 158.114 86.8536 157.778C87.6336 157.43 88.4676 157.256 89.3556 157.256C90.2436 157.256 91.0776 157.43 91.8576 157.778C92.6496 158.114 93.3336 158.576 93.9096 159.164C94.4976 159.74 94.9596 160.424 95.2956 161.216C95.6436 161.996 95.8176 162.83 95.8176 163.718C95.8176 164.606 95.6436 165.44 95.2956 166.22C94.9596 167 94.4976 167.684 93.9096 168.272C93.3336 168.848 92.6496 169.304 91.8576 169.64C91.0776 169.976 90.2436 170.144 89.3556 170.144C88.4676 170.144 87.6336 169.976 86.8536 169.64C86.0736 169.304 85.3896 168.848 84.8016 168.272C84.2256 167.684 83.7696 167 83.4336 166.22C83.0976 165.44 82.9296 164.606 82.9296 163.718ZM84.0456 163.718C84.0456 164.462 84.1836 165.158 84.4596 165.806C84.7356 166.454 85.1136 167.024 85.5936 167.516C86.0736 167.996 86.6376 168.38 87.2856 168.668C87.9336 168.944 88.6236 169.082 89.3556 169.082C90.0876 169.082 90.7776 168.944 91.4256 168.668C92.0736 168.38 92.6376 167.996 93.1176 167.516C93.6096 167.024 93.9936 166.454 94.2696 165.806C94.5576 165.158 94.7016 164.462 94.7016 163.718C94.7016 162.986 94.5576 162.296 94.2696 161.648C93.9936 160.988 93.6096 160.412 93.1176 159.92C92.6376 159.428 92.0736 159.044 91.4256 158.768C90.7896 158.48 90.1056 158.336 89.3736 158.336C88.6416 158.336 87.9516 158.48 87.3036 158.768C86.6556 159.044 86.0916 159.428 85.6116 159.92C85.1316 160.412 84.7476 160.988 84.4596 161.648C84.1836 162.296 84.0456 162.986 84.0456 163.718ZM106.782 164.636V169.28C106.302 169.556 105.786 169.778 105.234 169.946C104.694 170.102 104.118 170.18 103.506 170.18C102.618 170.18 101.784 170.012 101.004 169.676C100.224 169.34 99.54 168.884 98.952 168.308C98.376 167.72 97.92 167.036 97.584 166.256C97.248 165.476 97.08 164.642 97.08 163.754C97.08 162.866 97.248 162.032 97.584 161.252C97.92 160.46 98.376 159.776 98.952 159.2C99.54 158.612 100.224 158.15 101.004 157.814C101.784 157.466 102.618 157.292 103.506 157.292C104.118 157.292 104.694 157.37 105.234 157.526C105.786 157.682 106.308 157.904 106.8 158.192L106.17 159.11C105.366 158.618 104.478 158.372 103.506 158.372C102.774 158.372 102.084 158.516 101.436 158.804C100.8 159.08 100.242 159.464 99.762 159.956C99.282 160.448 98.898 161.024 98.61 161.684C98.334 162.332 98.196 163.022 98.196 163.754C98.196 164.498 98.334 165.194 98.61 165.842C98.886 166.49 99.264 167.06 99.744 167.552C100.224 168.032 100.782 168.416 101.418 168.704C102.066 168.98 102.756 169.118 103.488 169.118C104.268 169.118 104.994 168.956 105.666 168.632V165.716H103.434V164.636H106.782ZM108.049 168.938H109.003V158.48H108.049V157.4H111.829C112.225 157.4 112.657 157.466 113.125 157.598C113.593 157.718 114.031 157.916 114.439 158.192C114.859 158.456 115.207 158.798 115.483 159.218C115.759 159.638 115.897 160.148 115.897 160.748C115.897 161.636 115.669 162.374 115.213 162.962C114.757 163.55 114.097 163.94 113.233 164.132L115.483 168.938H117.121V170H114.781L112.045 164.204C111.913 164.216 111.781 164.222 111.649 164.222C111.517 164.222 111.385 164.222 111.253 164.222H110.119V168.938H112.045V170H108.049V168.938ZM110.119 163.142H111.829C112.405 163.142 112.885 163.07 113.269 162.926C113.653 162.77 113.953 162.578 114.169 162.35C114.397 162.11 114.553 161.852 114.637 161.576C114.733 161.288 114.781 161.012 114.781 160.748C114.781 160.448 114.703 160.16 114.547 159.884C114.403 159.608 114.199 159.368 113.935 159.164C113.683 158.96 113.377 158.798 113.017 158.678C112.657 158.546 112.267 158.48 111.847 158.48H110.119V163.142ZM118.385 168.938H119.825C120.677 166.898 121.529 164.882 122.381 162.89C123.233 160.886 124.091 158.864 124.955 156.824C125.819 158.864 126.671 160.886 127.511 162.89C128.363 164.882 129.221 166.898 130.085 168.938H131.525V170H127.781V168.938H128.951C128.651 168.242 128.357 167.552 128.069 166.868C127.793 166.184 127.505 165.494 127.205 164.798H122.705C122.405 165.494 122.111 166.184 121.823 166.868C121.535 167.552 121.241 168.242 120.941 168.938H122.129V170H118.385V168.938ZM125.117 159.866L124.937 159.308C124.925 159.332 124.913 159.374 124.901 159.434C124.889 159.494 124.871 159.554 124.847 159.614L124.775 159.866C124.715 160.022 124.619 160.25 124.487 160.55C124.367 160.838 124.229 161.162 124.073 161.522C123.929 161.882 123.773 162.26 123.605 162.656C123.449 163.04 123.299 163.4 123.155 163.736H126.755L125.117 159.866ZM132.781 168.938H133.735V158.48H132.781V157.4H136.561C136.957 157.4 137.389 157.466 137.857 157.598C138.325 157.718 138.763 157.916 139.171 158.192C139.591 158.456 139.939 158.798 140.215 159.218C140.491 159.638 140.629 160.148 140.629 160.748C140.629 161.804 140.305 162.65 139.657 163.286C139.009 163.91 138.067 164.222 136.831 164.222H134.851V168.938H136.777V170H132.781V168.938ZM134.851 163.142H136.561C137.137 163.142 137.617 163.07 138.001 162.926C138.385 162.77 138.685 162.578 138.901 162.35C139.129 162.11 139.285 161.852 139.369 161.576C139.465 161.288 139.513 161.012 139.513 160.748C139.513 160.448 139.435 160.16 139.279 159.884C139.135 159.608 138.931 159.368 138.667 159.164C138.415 158.96 138.109 158.798 137.749 158.678C137.389 158.546 136.999 158.48 136.579 158.48H134.851V163.142ZM150.239 157.4H154.217V158.48H152.813V168.938H154.217V170H150.239V168.938H151.679V164.186H144.425V168.938H145.883V170H141.887V168.938H143.291V158.48H141.887V157.4H145.883V158.48H144.425V163.124H151.679V158.48H150.239V157.4ZM159.813 168.938H161.073V165.176C160.401 164.06 159.735 162.95 159.075 161.846C158.415 160.73 157.749 159.608 157.077 158.48H155.475V157.4H159.471V158.48H158.445C158.973 159.344 159.489 160.208 159.993 161.072C160.509 161.924 161.025 162.782 161.541 163.646L161.739 164.168H161.757L161.973 163.646L165.033 158.48H164.043V157.4H168.039V158.48H166.419C165.747 159.608 165.081 160.73 164.421 161.846C163.761 162.95 163.101 164.066 162.441 165.194V168.938H163.791V170H159.813V168.938Z" fill="#2A363B"/>
</svg>
