<svg width="181" height="300" viewBox="0 0 181 300" fill="none" xmlns="http://www.w3.org/2000/svg">
<rect x="1.7193" y="1" width="178" height="298" rx="4" fill="#2A363B" stroke="#EFCE67" stroke-width="2"/>
<g filter="url(#filter0_d)">
<path d="M110.578 252.41C111.073 234.216 88.4141 232 88.4141 232C88.4141 232 87.3645 234.437 79.7836 236.132C72.2027 237.827 71.5945 244.95 71.5945 244.95C71.5945 244.95 75.7224 242.684 78.5173 245.558C78.019 245.911 77.6271 246.393 77.3843 246.954C76.4024 246.797 75.4121 246.698 74.4186 246.658C74.3129 246.649 74.2069 246.672 74.1146 246.724C74.0354 246.779 73.9979 246.945 73.9146 247.67C73.9025 247.817 73.8816 247.963 73.8521 248.107L73.8272 248.236H73.9188L74.1395 248.266C74.2804 248.278 74.4198 248.303 74.5561 248.341C74.4424 248.81 74.3548 249.286 74.2937 249.765C74.1812 250.507 74.0687 251.319 74.0521 251.481C73.907 252.537 74.1165 253.611 74.6477 254.534L72.9816 255.784C71.2655 257.092 69.6493 258.325 69.2328 258.737C68.7538 259.25 69.0495 261.886 69.7951 264.31C72.2735 279.556 83.9572 279.635 87.3978 281.855C89.0639 282.917 107.191 278.498 112.411 257.096C112.71 255.871 110.503 255.076 110.578 252.41ZM69.7035 259.204C70.12 258.787 71.7861 257.538 73.3815 256.313L75.0476 255.063L75.1476 255.184C75.6207 255.678 76.224 256.027 76.8875 256.191C77.5511 256.356 78.2476 256.328 78.8963 256.113C79.4518 255.918 79.9531 255.594 80.3587 255.168C80.7642 254.741 81.0625 254.224 81.2289 253.66C81.3889 253.163 81.5046 252.653 81.5747 252.135C81.6506 251.466 81.829 250.813 82.1036 250.198C82.199 250.009 82.3567 249.858 82.5502 249.772C82.7437 249.685 82.9612 249.668 83.1658 249.723C83.4264 249.768 83.6592 249.913 83.8147 250.127C83.9703 250.341 84.0363 250.607 83.9989 250.869C83.724 252.818 83.5823 254.863 84.3738 256.613C84.6732 257.228 85.1011 257.771 85.6285 258.207C86.1559 258.642 86.7706 258.959 87.4311 259.137C87.7339 259.228 88.043 259.296 88.3558 259.341C89.7551 259.566 91.1892 259.298 92.4128 258.583C93.416 257.937 94.2171 257.022 94.7246 255.942C95.0627 255.208 95.2901 254.427 95.3994 253.626C95.3994 253.626 95.6326 252.177 95.6618 251.689L96.3491 251.798L96.5906 250.265L96.524 250.161H96.4907C96.0741 250.057 95.6285 249.944 95.1994 249.832C93.7542 249.415 92.2816 249.099 90.7925 248.886C89.7387 248.761 88.6682 248.67 87.6019 248.628C87.1853 248.628 86.7688 248.628 86.3523 248.628C85.7566 248.628 85.136 248.628 84.5362 248.574C83.3866 248.423 82.2522 248.174 81.1456 247.828L80.2501 247.553C79.5128 247.358 78.7797 247.203 78.0508 247.07C78.5548 246.066 79.8502 245.242 83.0117 244.346C89.0764 242.63 92.1754 245.646 93.2584 247.02C93.3931 247.195 93.5691 247.333 93.7706 247.422C93.972 247.512 94.1925 247.549 94.4122 247.532C97.2821 247.303 101.872 249.328 102.493 249.907C100.214 257.638 98.6691 259.158 96.4574 259.358C96.1241 259.387 95.8825 259.408 95.5493 265.031C95.5413 265.147 95.5057 265.26 95.4456 265.36C95.3855 265.46 95.3026 265.544 95.2036 265.606C94.2497 266.185 91.1174 268.105 90.805 268.28C85.54 271.346 79.517 270.229 77.1719 269.609C74.0937 268.776 71.9444 267.526 71.4862 266.718C69.9659 264.094 69.4202 259.687 69.7035 259.204ZM77.6426 252.797C77.8063 251.738 77.8426 250.663 77.7509 249.594C77.7259 249.14 77.7092 248.728 77.7259 248.345H77.88C78.1216 248.37 78.4132 248.395 78.7131 248.441C79.6336 248.578 80.6999 248.857 80.9415 249.644C81.2123 250.507 80.9415 251.498 80.7166 252.298C80.6916 252.398 80.6624 252.498 80.6375 252.598C80.4375 253.36 80.2209 254.151 79.6003 254.651C79.2814 254.897 78.9169 255.077 78.5279 255.18C78.1389 255.284 77.7332 255.309 77.3344 255.255C76.7438 255.176 76.1945 254.909 75.7682 254.493C77.3968 253.243 77.6093 252.989 77.6426 252.797ZM85.3984 250.557C85.8774 249.919 86.8688 249.773 87.6144 249.765C88.5775 249.752 89.5401 249.818 90.4926 249.961C90.9883 250.032 91.4923 250.127 92.0046 250.24C93.1959 250.507 94.5621 250.994 94.5538 252.418C94.542 252.947 94.4637 253.472 94.3205 253.98C94.1329 254.669 93.8527 255.329 93.4875 255.942C92.9271 256.915 92.017 257.637 90.9425 257.962C90.1734 258.169 89.3662 258.188 88.5881 258.019C87.8099 257.851 87.0834 257.498 86.4689 256.992C85.9735 256.563 85.5794 256.03 85.3151 255.43C85.0242 254.682 84.895 253.882 84.9361 253.081V252.931C84.9319 252.144 84.9236 251.185 85.3984 250.557ZM75.0809 253.351C74.7269 252.206 75.0809 250.715 75.3392 249.515C75.3725 249.374 75.4058 249.232 75.435 249.099C75.6141 248.299 76.3722 248.241 77.1011 248.291C77.0786 248.736 77.0786 249.182 77.1011 249.628C77.1824 250.629 77.1489 251.637 77.0011 252.631C76.4692 253.112 75.9131 253.565 75.335 253.989C75.2232 253.788 75.1378 253.574 75.0809 253.351V253.351Z" fill="#EFCE67"/>
<path d="M96.9655 258.279C97.2266 258.32 97.4939 258.283 97.7339 258.172C97.9738 258.061 98.1756 257.882 98.3136 257.657C98.4517 257.431 98.5199 257.17 98.5096 256.906C98.4993 256.642 98.4109 256.387 98.2557 256.173C98.1005 255.959 97.8854 255.796 97.6376 255.704C97.3897 255.613 97.1203 255.596 96.8632 255.658C96.6062 255.719 96.373 255.855 96.1933 256.049C96.0136 256.243 95.8953 256.485 95.8534 256.746C95.8255 256.92 95.8321 257.097 95.8729 257.269C95.9138 257.44 95.988 257.601 96.0913 257.743C96.1946 257.886 96.325 258.006 96.475 258.098C96.625 258.19 96.7917 258.252 96.9655 258.279V258.279Z" fill="#EFCE67"/>
<path d="M73.4106 263.107L74.8768 261.116C74.9855 260.957 75.051 260.773 75.0669 260.581C75.0828 260.389 75.0485 260.197 74.9673 260.022C74.8862 259.848 74.7611 259.698 74.6043 259.586C74.4474 259.475 74.2643 259.406 74.0729 259.387L71.2696 258.97C71.0818 258.936 70.8883 258.951 70.708 259.014C70.5276 259.076 70.3667 259.185 70.2407 259.328C70.1148 259.472 70.0283 259.646 69.9896 259.833C69.9509 260.019 69.9614 260.213 70.02 260.395L70.8531 262.723C71.1447 263.59 72.8691 263.844 73.4106 263.107Z" fill="#EFCE67"/>
<path d="M90.1469 263.557C90.2366 263.512 90.3342 263.487 90.434 263.481C90.5338 263.476 90.6336 263.49 90.7277 263.524C90.8217 263.558 90.908 263.61 90.9814 263.678C91.0548 263.746 91.1138 263.828 91.1549 263.919C90.9508 264.144 89.9761 265.069 87.5228 265.781L87.5686 265.96C88.9196 265.68 90.2164 265.183 91.409 264.49C91.534 264.935 91.4923 265.285 91.359 265.352C88.8485 266.648 86.1714 267.593 83.4032 268.159V268.342C87.0437 268.292 90.5801 266.676 91.9422 265.843C92.4128 265.552 92.9335 264.764 92.7169 264.144L91.8839 262.365C91.7596 262.167 91.5948 261.996 91.4003 261.866C91.2058 261.735 90.9859 261.647 90.755 261.607H90.7259C90.5675 261.584 90.4059 261.596 90.253 261.644C90.1001 261.691 89.9599 261.773 89.8428 261.882C86.2357 265.323 77.2886 266.572 77.2011 266.572L76.6179 266.647L77.1969 266.751C77.2469 266.755 82.3328 267.597 90.1469 263.557Z" fill="#EFCE67"/>
<path d="M78.4923 253.081H79.3254C79.4517 253.085 79.575 253.041 79.6696 252.958C79.7642 252.874 79.823 252.757 79.8336 252.631C79.8627 251.96 79.8044 250.815 79.0547 250.765C78.3049 250.715 78.0508 251.869 78.0133 252.564C78.0094 252.63 78.0188 252.696 78.041 252.758C78.0632 252.82 78.0977 252.877 78.1425 252.925C78.1872 252.973 78.2413 253.012 78.3014 253.039C78.3616 253.065 78.4265 253.08 78.4923 253.081Z" fill="#EFCE67"/>
<path d="M87.1728 253.66H87.2353C87.4155 253.585 87.5873 253.492 87.7476 253.381C88.2717 253.11 88.8582 252.984 89.4471 253.014C90.0034 253.053 90.5383 253.244 90.9924 253.568C91.1382 253.668 91.2715 253.78 91.409 253.885C91.4865 253.952 91.5852 253.99 91.688 253.993C91.7439 253.982 91.7966 253.959 91.8423 253.925C91.888 253.891 91.9254 253.847 91.9518 253.797C91.9782 253.746 91.9929 253.69 91.9949 253.634C91.9968 253.577 91.9859 253.52 91.963 253.468C91.9173 253.383 91.855 253.308 91.7797 253.247C91.1592 252.61 90.3324 252.215 89.4471 252.131C89.1277 252.126 88.8096 252.174 88.5057 252.273C88.2103 252.373 87.9299 252.513 87.6727 252.689C87.4275 252.827 87.21 253.009 87.0312 253.226L86.9937 253.285C86.9667 253.326 86.9496 253.373 86.9437 253.422C86.942 253.453 86.9467 253.484 86.9575 253.513C86.9683 253.542 86.9849 253.569 87.0065 253.591C87.028 253.613 87.0538 253.631 87.0825 253.643C87.1111 253.655 87.1419 253.66 87.1728 253.66V253.66Z" fill="#EFCE67"/>
<path d="M90.1344 254.226C89.6519 253.919 89.0846 253.774 88.5141 253.81C88.152 253.835 87.799 253.934 87.4769 254.101C87.4253 254.131 87.3753 254.163 87.327 254.197C87.2478 254.264 87.1812 254.347 87.2187 254.447C87.2396 254.492 87.276 254.527 87.3212 254.547C87.3664 254.567 87.4173 254.57 87.4644 254.555C87.5894 254.522 87.7102 254.468 87.8351 254.43C87.9616 254.389 88.0911 254.357 88.2225 254.334C88.4979 254.284 88.7801 254.284 89.0556 254.334C89.3329 254.412 89.601 254.52 89.8553 254.655C89.9729 254.722 90.1074 254.754 90.2427 254.747C90.351 254.747 90.4759 254.659 90.4635 254.539C90.451 254.418 90.2469 254.297 90.1344 254.226Z" fill="#EFCE67"/>
</g>
<g filter="url(#filter1_d)">
<path d="M33.0593 40.56H34.3793V26.64H33.0593V25.2H38.0993C39.2513 25.2 40.3393 25.4 41.3633 25.8C42.3873 26.184 43.2833 26.744 44.0513 27.48C44.8193 28.216 45.4273 29.104 45.8753 30.144C46.3233 31.168 46.5473 32.328 46.5473 33.624C46.5473 34.568 46.3793 35.536 46.0433 36.528C45.7233 37.52 45.1953 38.424 44.4593 39.24C43.7233 40.04 42.7633 40.704 41.5793 41.232C40.4113 41.744 38.9793 42 37.2833 42H33.0593V40.56ZM35.8673 26.64V40.56H37.7393C38.8753 40.56 39.8913 40.376 40.7873 40.008C41.6993 39.64 42.4673 39.144 43.0913 38.52C43.7313 37.896 44.2193 37.16 44.5553 36.312C44.8913 35.464 45.0593 34.56 45.0593 33.6C45.0593 32.544 44.8753 31.584 44.5073 30.72C44.1393 29.856 43.6353 29.128 42.9953 28.536C42.3553 27.928 41.6033 27.464 40.7393 27.144C39.8753 26.808 38.9553 26.64 37.9793 26.64H35.8673ZM48.2234 40.584H50.0954V26.64H48.2234V25.2H53.5514V26.64H51.6074V40.584H53.5514V42H48.2234V40.584ZM55.0632 39.984V37.32H56.5032V39.456C56.9352 39.824 57.4552 40.136 58.0632 40.392C58.6712 40.648 59.3752 40.776 60.1752 40.776C60.6552 40.776 61.1112 40.704 61.5432 40.56C61.9912 40.416 62.3832 40.208 62.7192 39.936C63.0552 39.664 63.3272 39.328 63.5352 38.928C63.7432 38.512 63.8472 38.048 63.8472 37.536C63.8472 36.656 63.6472 35.976 63.2472 35.496C62.8632 35.016 62.3672 34.648 61.7592 34.392C61.1672 34.12 60.5192 33.896 59.8152 33.72C59.1272 33.544 58.4792 33.312 57.8712 33.024C57.2632 32.72 56.7512 32.312 56.3352 31.8C55.9352 31.288 55.7192 30.552 55.6872 29.592C55.6712 29.064 55.7352 28.536 55.8792 28.008C56.0392 27.464 56.2952 26.984 56.6472 26.568C57.0152 26.136 57.4872 25.784 58.0632 25.512C58.6552 25.24 59.3752 25.104 60.2232 25.104C60.7832 25.104 61.4232 25.184 62.1432 25.344C62.8632 25.488 63.5832 25.848 64.3032 26.424V28.896H62.8632V27.144C62.5592 26.968 62.1832 26.824 61.7352 26.712C61.2872 26.6 60.7832 26.544 60.2232 26.544C59.7112 26.544 59.2632 26.632 58.8792 26.808C58.4952 26.968 58.1752 27.184 57.9192 27.456C57.6792 27.728 57.4952 28.048 57.3672 28.416C57.2392 28.768 57.1752 29.144 57.1752 29.544C57.1752 30.248 57.3752 30.784 57.7752 31.152C58.1752 31.52 58.6712 31.824 59.2632 32.064C59.8712 32.288 60.5272 32.496 61.2312 32.688C61.9352 32.88 62.5912 33.16 63.1992 33.528C63.8072 33.88 64.3112 34.368 64.7112 34.992C65.1272 35.6 65.3352 36.44 65.3352 37.512C65.3352 38.232 65.1992 38.88 64.9272 39.456C64.6712 40.032 64.3112 40.528 63.8472 40.944C63.3992 41.344 62.8712 41.656 62.2632 41.88C61.6552 42.088 61.0072 42.192 60.3192 42.192C59.6952 42.192 59.1112 42.128 58.5672 42C58.0232 41.872 57.5192 41.704 57.0552 41.496C56.6072 41.272 56.2072 41.032 55.8552 40.776C55.5192 40.52 55.2552 40.256 55.0632 39.984ZM66.6921 40.584H68.2281V26.64H66.6921V25.2H78.3801V28.896H76.9401V26.64H69.7161V32.832H77.4441V34.248H69.7161V40.584H77.2761V38.304H78.7161V42H66.6921V40.584ZM80.403 40.584H82.419V26.64H80.403V25.2H83.091L95.211 38.832L95.667 39.456L95.5951 38.688V26.64H93.8191V25.2H99.1231V26.64H97.083V42.768L84.291 28.584L83.859 27.984L83.907 28.728V40.584H85.731V42H80.403V40.584ZM89.019 23.328C88.779 23.056 88.563 22.88 88.371 22.8C88.195 22.72 87.995 22.68 87.771 22.68C87.659 22.68 87.523 22.696 87.363 22.728C87.219 22.76 87.075 22.824 86.931 22.92C86.803 23 86.683 23.12 86.571 23.28C86.475 23.424 86.419 23.616 86.403 23.856L85.539 23.784C85.555 23.48 85.627 23.208 85.755 22.968C85.899 22.712 86.067 22.504 86.259 22.344C86.467 22.168 86.691 22.04 86.931 21.96C87.187 21.864 87.435 21.816 87.6751 21.816C88.027 21.816 88.339 21.896 88.611 22.056C88.899 22.2 89.179 22.4 89.4511 22.656C89.691 22.928 89.907 23.104 90.099 23.184C90.291 23.264 90.4991 23.304 90.7231 23.304C90.8351 23.304 90.9631 23.288 91.1071 23.256C91.251 23.224 91.387 23.168 91.515 23.088C91.659 22.992 91.779 22.872 91.875 22.728C91.9871 22.568 92.0591 22.368 92.091 22.128C92.219 22.144 92.3551 22.16 92.4991 22.176C92.6431 22.176 92.7871 22.184 92.9311 22.2C92.9151 22.52 92.8351 22.8 92.6911 23.04C92.5631 23.28 92.3951 23.488 92.187 23.664C91.995 23.824 91.779 23.944 91.539 24.024C91.299 24.104 91.059 24.144 90.819 24.144C90.451 24.144 90.123 24.072 89.8351 23.928C89.563 23.768 89.291 23.568 89.019 23.328ZM99.8796 33.624C99.8796 32.44 100.104 31.328 100.552 30.288C101 29.232 101.608 28.32 102.376 27.552C103.16 26.768 104.072 26.152 105.112 25.704C106.152 25.24 107.264 25.008 108.448 25.008C109.632 25.008 110.744 25.24 111.784 25.704C112.84 26.152 113.752 26.768 114.52 27.552C115.304 28.32 115.92 29.232 116.368 30.288C116.832 31.328 117.064 32.44 117.064 33.624C117.064 34.808 116.832 35.92 116.368 36.96C115.92 38 115.304 38.912 114.52 39.696C113.752 40.464 112.84 41.072 111.784 41.52C110.744 41.968 109.632 42.192 108.448 42.192C107.264 42.192 106.152 41.968 105.112 41.52C104.072 41.072 103.16 40.464 102.376 39.696C101.608 38.912 101 38 100.552 36.96C100.104 35.92 99.8796 34.808 99.8796 33.624ZM101.368 33.624C101.368 34.616 101.552 35.544 101.92 36.408C102.288 37.272 102.792 38.032 103.432 38.688C104.072 39.328 104.824 39.84 105.688 40.224C106.552 40.592 107.472 40.776 108.448 40.776C109.424 40.776 110.344 40.592 111.208 40.224C112.072 39.84 112.824 39.328 113.464 38.688C114.12 38.032 114.632 37.272 115 36.408C115.384 35.544 115.576 34.616 115.576 33.624C115.576 32.648 115.384 31.728 115 30.864C114.632 29.984 114.12 29.216 113.464 28.56C112.824 27.904 112.072 27.392 111.208 27.024C110.36 26.64 109.448 26.448 108.472 26.448C107.496 26.448 106.576 26.64 105.712 27.024C104.848 27.392 104.096 27.904 103.456 28.56C102.816 29.216 102.304 29.984 101.92 30.864C101.552 31.728 101.368 32.648 101.368 33.624ZM125.942 25.2H131.27V26.64H129.278V36.504C129.278 37.192 129.382 37.8 129.59 38.328C129.814 38.856 130.118 39.304 130.502 39.672C130.886 40.024 131.342 40.296 131.87 40.488C132.414 40.68 133.006 40.776 133.646 40.776C134.27 40.776 134.846 40.68 135.374 40.488C135.918 40.296 136.382 40.024 136.766 39.672C137.166 39.304 137.47 38.856 137.678 38.328C137.902 37.8 138.014 37.192 138.014 36.504V26.64H136.046V25.2H141.35V26.64H139.502V36.576C139.502 37.488 139.35 38.296 139.046 39C138.758 39.704 138.35 40.296 137.822 40.776C137.294 41.24 136.67 41.592 135.95 41.832C135.246 42.072 134.478 42.192 133.646 42.192C132.798 42.192 132.014 42.072 131.294 41.832C130.59 41.592 129.974 41.24 129.446 40.776C128.934 40.296 128.526 39.704 128.222 39C127.934 38.296 127.79 37.488 127.79 36.576V26.64H125.942V25.2ZM143.028 40.584H144.9V26.64H143.028V25.2H148.356V26.64H146.412V40.584H148.356V42H143.028V40.584Z" fill="#EFCE67"/>
</g>
<path d="M63.6396 79.044C63.6396 79.8093 63.5252 80.4977 63.2966 81.109C63.0679 81.7203 62.7459 82.2407 62.3306 82.67C61.9152 83.0993 61.4182 83.4283 60.8396 83.657C60.2609 83.8857 59.6192 84 58.9146 84H55.3026V74.095H58.9146C59.6192 74.095 60.2609 74.2093 60.8396 74.438C61.4182 74.6667 61.9152 74.9957 62.3306 75.425C62.7459 75.8543 63.0679 76.3747 63.2966 76.986C63.5252 77.5973 63.6396 78.2833 63.6396 79.044ZM62.8976 79.044C62.8976 78.3533 62.8019 77.7373 62.6106 77.196C62.4192 76.6547 62.1486 76.1973 61.7986 75.824C61.4532 75.4507 61.0356 75.166 60.5456 74.97C60.0556 74.774 59.5119 74.676 58.9146 74.676H56.0236V83.419H58.9146C59.5119 83.419 60.0556 83.321 60.5456 83.125C61.0356 82.929 61.4532 82.6443 61.7986 82.271C62.1486 81.8977 62.4192 81.4403 62.6106 80.899C62.8019 80.3577 62.8976 79.7393 62.8976 79.044ZM66.9193 84H66.1983V74.095H66.9193V84ZM74.9109 75.299C74.8689 75.3783 74.8082 75.418 74.7289 75.418C74.6682 75.418 74.5889 75.376 74.4909 75.292C74.3976 75.2033 74.2692 75.1077 74.1059 75.005C73.9426 74.8977 73.7372 74.7997 73.4899 74.711C73.2472 74.6223 72.9462 74.578 72.5869 74.578C72.2276 74.578 71.9102 74.6293 71.6349 74.732C71.3642 74.8347 71.1356 74.9747 70.9489 75.152C70.7669 75.3293 70.6269 75.5347 70.5289 75.768C70.4356 76.0013 70.3889 76.2463 70.3889 76.503C70.3889 76.839 70.4589 77.1167 70.5989 77.336C70.7436 77.5553 70.9326 77.742 71.1659 77.896C71.3992 78.05 71.6629 78.1807 71.9569 78.288C72.2556 78.3907 72.5612 78.4933 72.8739 78.596C73.1866 78.6987 73.4899 78.813 73.7839 78.939C74.0826 79.0603 74.3486 79.2143 74.5819 79.401C74.8152 79.5877 75.0019 79.8187 75.1419 80.094C75.2866 80.3647 75.3589 80.703 75.3589 81.109C75.3589 81.5243 75.2866 81.9163 75.1419 82.285C75.0019 82.649 74.7966 82.9663 74.5259 83.237C74.2552 83.5077 73.9239 83.7223 73.5319 83.881C73.1399 84.035 72.6919 84.112 72.1879 84.112C71.5346 84.112 70.9722 83.9977 70.5009 83.769C70.0296 83.5357 69.6166 83.2183 69.2619 82.817L69.4579 82.509C69.5139 82.439 69.5792 82.404 69.6539 82.404C69.6959 82.404 69.7496 82.432 69.8149 82.488C69.8802 82.544 69.9596 82.614 70.0529 82.698C70.1462 82.7773 70.2582 82.866 70.3889 82.964C70.5196 83.0573 70.6712 83.146 70.8439 83.23C71.0166 83.3093 71.2149 83.377 71.4389 83.433C71.6629 83.489 71.9172 83.517 72.2019 83.517C72.5939 83.517 72.9439 83.4587 73.2519 83.342C73.5599 83.2207 73.8189 83.0573 74.0289 82.852C74.2436 82.6467 74.4069 82.404 74.5189 82.124C74.6309 81.8393 74.6869 81.536 74.6869 81.214C74.6869 80.864 74.6146 80.577 74.4699 80.353C74.3299 80.1243 74.1432 79.9353 73.9099 79.786C73.6766 79.632 73.4106 79.5037 73.1119 79.401C72.8179 79.2983 72.5146 79.198 72.2019 79.1C71.8892 79.002 71.5836 78.8923 71.2849 78.771C70.9909 78.6497 70.7272 78.4957 70.4939 78.309C70.2606 78.1177 70.0716 77.882 69.9269 77.602C69.7869 77.3173 69.7169 76.9627 69.7169 76.538C69.7169 76.2067 69.7799 75.887 69.9059 75.579C70.0319 75.271 70.2162 75.0003 70.4589 74.767C70.7016 74.529 71.0002 74.34 71.3549 74.2C71.7142 74.0553 72.1226 73.983 72.5799 73.983C73.0932 73.983 73.5529 74.0647 73.9589 74.228C74.3696 74.3913 74.7429 74.641 75.0789 74.977L74.9109 75.299ZM83.3733 74.095V74.69H78.1583V78.694H82.4983V79.275H78.1583V83.405H83.3733V84H77.4373V74.095H83.3733ZM86.0588 74.095C86.1242 74.095 86.1755 74.1043 86.2128 74.123C86.2502 74.137 86.2898 74.172 86.3318 74.228L92.7438 82.81C92.7298 82.67 92.7228 82.5347 92.7228 82.404V74.095H93.3528V84H93.0098C92.9025 84 92.8162 83.9533 92.7508 83.86L86.3108 75.264C86.3248 75.404 86.3318 75.537 86.3318 75.663V84H85.7088V74.095H86.0588ZM90.6228 72.688C90.8188 72.688 90.9682 72.625 91.0708 72.499C91.1735 72.3683 91.2272 72.2027 91.2318 72.002H91.6098C91.6098 72.1653 91.5888 72.317 91.5468 72.457C91.5048 72.5923 91.4442 72.7137 91.3648 72.821C91.2855 72.9237 91.1828 73.0053 91.0568 73.066C90.9355 73.122 90.7955 73.15 90.6368 73.15C90.4828 73.15 90.3358 73.1127 90.1958 73.038C90.0558 72.9633 89.9205 72.884 89.7898 72.8C89.6592 72.7113 89.5308 72.6297 89.4048 72.555C89.2835 72.4803 89.1598 72.443 89.0338 72.443C88.8378 72.443 88.6885 72.5083 88.5858 72.639C88.4878 72.7697 88.4342 72.933 88.4248 73.129H88.0328C88.0328 72.9703 88.0538 72.821 88.0958 72.681C88.1425 72.541 88.2078 72.4197 88.2918 72.317C88.3758 72.2097 88.4785 72.128 88.5998 72.072C88.7212 72.0113 88.8612 71.981 89.0198 71.981C89.1785 71.981 89.3278 72.0183 89.4678 72.093C89.6078 72.1677 89.7432 72.2493 89.8738 72.338C90.0045 72.422 90.1305 72.5013 90.2518 72.576C90.3732 72.6507 90.4968 72.688 90.6228 72.688ZM105.125 79.044C105.125 79.8093 105.011 80.5047 104.782 81.13C104.553 81.7507 104.231 82.2827 103.816 82.726C103.401 83.1647 102.904 83.5053 102.325 83.748C101.746 83.986 101.105 84.105 100.4 84.105C99.7045 84.105 99.0675 83.986 98.4889 83.748C97.9102 83.5053 97.4132 83.1647 96.9979 82.726C96.5825 82.2827 96.2582 81.7507 96.0249 81.13C95.7962 80.5047 95.6819 79.8093 95.6819 79.044C95.6819 78.2833 95.7962 77.5927 96.0249 76.972C96.2582 76.3467 96.5825 75.8147 96.9979 75.376C97.4132 74.9327 97.9102 74.5897 98.4889 74.347C99.0675 74.1043 99.7045 73.983 100.4 73.983C101.105 73.983 101.746 74.1043 102.325 74.347C102.904 74.585 103.401 74.9257 103.816 75.369C104.231 75.8123 104.553 76.3467 104.782 76.972C105.011 77.5927 105.125 78.2833 105.125 79.044ZM104.383 79.044C104.383 78.3533 104.287 77.7327 104.096 77.182C103.905 76.6313 103.634 76.1647 103.284 75.782C102.939 75.3993 102.521 75.1077 102.031 74.907C101.541 74.7017 100.997 74.599 100.4 74.599C99.8119 74.599 99.2729 74.7017 98.7829 74.907C98.2975 75.1077 97.8775 75.3993 97.5229 75.782C97.1729 76.1647 96.8999 76.6313 96.7039 77.182C96.5125 77.7327 96.4169 78.3533 96.4169 79.044C96.4169 79.7393 96.5125 80.3623 96.7039 80.913C96.8999 81.459 97.1729 81.9233 97.5229 82.306C97.8775 82.6887 98.2975 82.9803 98.7829 83.181C99.2729 83.3817 99.8119 83.482 100.4 83.482C100.997 83.482 101.541 83.3817 102.031 83.181C102.521 82.9803 102.939 82.6887 103.284 82.306C103.634 81.9233 103.905 81.459 104.096 80.913C104.287 80.3623 104.383 79.7393 104.383 79.044ZM118.505 79.044C118.505 79.8093 118.39 80.4977 118.162 81.109C117.933 81.7203 117.611 82.2407 117.196 82.67C116.78 83.0993 116.283 83.4283 115.705 83.657C115.126 83.8857 114.484 84 113.78 84H110.168V74.095H113.78C114.484 74.095 115.126 74.2093 115.705 74.438C116.283 74.6667 116.78 74.9957 117.196 75.425C117.611 75.8543 117.933 76.3747 118.162 76.986C118.39 77.5973 118.505 78.2833 118.505 79.044ZM117.763 79.044C117.763 78.3533 117.667 77.7373 117.476 77.196C117.284 76.6547 117.014 76.1973 116.664 75.824C116.318 75.4507 115.901 75.166 115.411 74.97C114.921 74.774 114.377 74.676 113.78 74.676H110.889V83.419H113.78C114.377 83.419 114.921 83.321 115.411 83.125C115.901 82.929 116.318 82.6443 116.664 82.271C117.014 81.8977 117.284 81.4403 117.476 80.899C117.667 80.3577 117.763 79.7393 117.763 79.044ZM126.741 74.095V74.69H121.526V78.694H125.866V79.275H121.526V83.405H126.741V84H120.805V74.095H126.741ZM27.5648 101H26.8438V91.095H27.5648V101ZM31.1184 91.095C31.1837 91.095 31.2351 91.1043 31.2724 91.123C31.3097 91.137 31.3494 91.172 31.3914 91.228L37.8034 99.81C37.7894 99.67 37.7824 99.5347 37.7824 99.404V91.095H38.4124V101H38.0694C37.9621 101 37.8757 100.953 37.8104 100.86L31.3704 92.264C31.3844 92.404 31.3914 92.537 31.3914 92.663V101H30.7684V91.095H31.1184ZM47.8184 91.095V91.704H44.3394V101H43.6254V91.704H40.1254V91.095H47.8184ZM55.4759 91.095V91.69H50.2609V95.694H54.6009V96.275H50.2609V100.405H55.4759V101H49.5399V91.095H55.4759ZM58.7354 96.52V101H58.0214V91.095H60.5484C61.6917 91.095 62.5457 91.3167 63.1104 91.76C63.675 92.1987 63.9574 92.845 63.9574 93.699C63.9574 94.077 63.892 94.4223 63.7614 94.735C63.6307 95.0477 63.4417 95.323 63.1944 95.561C62.9517 95.7943 62.6577 95.988 62.3124 96.142C61.967 96.2913 61.5774 96.3893 61.1434 96.436C61.2554 96.506 61.3557 96.5993 61.4444 96.716L64.8534 101H64.2304C64.1557 101 64.0904 100.986 64.0344 100.958C63.983 100.93 63.9317 100.883 63.8804 100.818L60.7094 96.8C60.63 96.6973 60.5437 96.625 60.4504 96.583C60.3617 96.541 60.2217 96.52 60.0304 96.52H58.7354ZM58.7354 95.988H60.4574C60.896 95.988 61.288 95.9367 61.6334 95.834C61.9834 95.7267 62.2774 95.575 62.5154 95.379C62.758 95.183 62.9424 94.9473 63.0684 94.672C63.1944 94.3967 63.2574 94.0863 63.2574 93.741C63.2574 93.0363 63.0264 92.5137 62.5644 92.173C62.1024 91.8323 61.4304 91.662 60.5484 91.662H58.7354V95.988ZM72.5794 91.095V91.69H67.3644V95.855H71.8794V96.45H67.3644V101H66.6434V91.095H72.5794ZM81.3035 101H80.7505C80.6851 101 80.6315 100.984 80.5895 100.951C80.5475 100.914 80.5148 100.867 80.4915 100.811L79.3225 97.934H74.4575L73.2955 100.811C73.2768 100.862 73.2441 100.907 73.1975 100.944C73.1508 100.981 73.0948 101 73.0295 101H72.4835L76.5365 91.095H77.2505L81.3035 101ZM74.6745 97.402H79.1125L77.0895 92.397C77.0568 92.3177 77.0241 92.229 76.9915 92.131C76.9588 92.0283 76.9261 91.921 76.8935 91.809C76.8608 91.921 76.8281 92.0283 76.7955 92.131C76.7628 92.229 76.7301 92.32 76.6975 92.404L74.6745 97.402ZM89.5429 91.095V91.34C89.5429 91.438 89.5103 91.5337 89.4449 91.627L83.1589 100.405H89.4869V101H82.2069V100.741C82.2069 100.652 82.2349 100.568 82.2909 100.489L88.5909 91.69H82.3889V91.095H89.5429ZM98.0993 100.489C98.5753 100.489 99 100.407 99.3733 100.244C99.7513 100.076 100.071 99.845 100.332 99.551C100.594 99.257 100.792 98.9117 100.927 98.515C101.067 98.1137 101.137 97.682 101.137 97.22V91.095H101.851V97.22C101.851 97.766 101.765 98.277 101.592 98.753C101.42 99.2243 101.17 99.6373 100.843 99.992C100.521 100.342 100.127 100.617 99.6603 100.818C99.1983 101.019 98.678 101.119 98.0993 101.119C97.5207 101.119 96.998 101.019 96.5313 100.818C96.0693 100.617 95.675 100.342 95.3483 99.992C95.0263 99.6373 94.779 99.2243 94.6063 98.753C94.4337 98.277 94.3473 97.766 94.3473 97.22V91.095H95.0683V97.213C95.0683 97.675 95.136 98.1067 95.2713 98.508C95.4113 98.9047 95.6097 99.25 95.8663 99.544C96.1277 99.838 96.445 100.069 96.8183 100.237C97.1963 100.405 97.6233 100.489 98.0993 100.489ZM109.494 92.299C109.452 92.3783 109.391 92.418 109.312 92.418C109.251 92.418 109.172 92.376 109.074 92.292C108.981 92.2033 108.852 92.1077 108.689 92.005C108.526 91.8977 108.32 91.7997 108.073 91.711C107.83 91.6223 107.529 91.578 107.17 91.578C106.811 91.578 106.493 91.6293 106.218 91.732C105.947 91.8347 105.719 91.9747 105.532 92.152C105.35 92.3293 105.21 92.5347 105.112 92.768C105.019 93.0013 104.972 93.2463 104.972 93.503C104.972 93.839 105.042 94.1167 105.182 94.336C105.327 94.5553 105.516 94.742 105.749 94.896C105.982 95.05 106.246 95.1807 106.54 95.288C106.839 95.3907 107.144 95.4933 107.457 95.596C107.77 95.6987 108.073 95.813 108.367 95.939C108.666 96.0603 108.932 96.2143 109.165 96.401C109.398 96.5877 109.585 96.8187 109.725 97.094C109.87 97.3647 109.942 97.703 109.942 98.109C109.942 98.5243 109.87 98.9163 109.725 99.285C109.585 99.649 109.38 99.9663 109.109 100.237C108.838 100.508 108.507 100.722 108.115 100.881C107.723 101.035 107.275 101.112 106.771 101.112C106.118 101.112 105.555 100.998 105.084 100.769C104.613 100.536 104.2 100.218 103.845 99.817L104.041 99.509C104.097 99.439 104.162 99.404 104.237 99.404C104.279 99.404 104.333 99.432 104.398 99.488C104.463 99.544 104.543 99.614 104.636 99.698C104.729 99.7773 104.841 99.866 104.972 99.964C105.103 100.057 105.254 100.146 105.427 100.23C105.6 100.309 105.798 100.377 106.022 100.433C106.246 100.489 106.5 100.517 106.785 100.517C107.177 100.517 107.527 100.459 107.835 100.342C108.143 100.221 108.402 100.057 108.612 99.852C108.827 99.6467 108.99 99.404 109.102 99.124C109.214 98.8393 109.27 98.536 109.27 98.214C109.27 97.864 109.198 97.577 109.053 97.353C108.913 97.1243 108.726 96.9353 108.493 96.786C108.26 96.632 107.994 96.5037 107.695 96.401C107.401 96.2983 107.098 96.198 106.785 96.1C106.472 96.002 106.167 95.8923 105.868 95.771C105.574 95.6497 105.31 95.4957 105.077 95.309C104.844 95.1177 104.655 94.882 104.51 94.602C104.37 94.3173 104.3 93.9627 104.3 93.538C104.3 93.2067 104.363 92.887 104.489 92.579C104.615 92.271 104.799 92.0003 105.042 91.767C105.285 91.529 105.583 91.34 105.938 91.2C106.297 91.0553 106.706 90.983 107.163 90.983C107.676 90.983 108.136 91.0647 108.542 91.228C108.953 91.3913 109.326 91.641 109.662 91.977L109.494 92.299ZM115.681 100.489C116.157 100.489 116.582 100.407 116.955 100.244C117.333 100.076 117.653 99.845 117.914 99.551C118.176 99.257 118.374 98.9117 118.509 98.515C118.649 98.1137 118.719 97.682 118.719 97.22V91.095H119.433V97.22C119.433 97.766 119.347 98.277 119.174 98.753C119.002 99.2243 118.752 99.6373 118.425 99.992C118.103 100.342 117.709 100.617 117.242 100.818C116.78 101.019 116.26 101.119 115.681 101.119C115.103 101.119 114.58 101.019 114.113 100.818C113.651 100.617 113.257 100.342 112.93 99.992C112.608 99.6373 112.361 99.2243 112.188 98.753C112.016 98.277 111.929 97.766 111.929 97.22V91.095H112.65V97.213C112.65 97.675 112.718 98.1067 112.853 98.508C112.993 98.9047 113.192 99.25 113.448 99.544C113.71 99.838 114.027 100.069 114.4 100.237C114.778 100.405 115.205 100.489 115.681 100.489ZM129.333 101H128.78C128.714 101 128.661 100.984 128.619 100.951C128.577 100.914 128.544 100.867 128.521 100.811L127.352 97.934H122.487L121.325 100.811C121.306 100.862 121.273 100.907 121.227 100.944C121.18 100.981 121.124 101 121.059 101H120.513L124.566 91.095H125.28L129.333 101ZM122.704 97.402H127.142L125.119 92.397C125.086 92.3177 125.053 92.229 125.021 92.131C124.988 92.0283 124.955 91.921 124.923 91.809C124.89 91.921 124.857 92.0283 124.825 92.131C124.792 92.229 124.759 92.32 124.727 92.404L122.704 97.402ZM131.825 96.52V101H131.111V91.095H133.638C134.782 91.095 135.636 91.3167 136.2 91.76C136.765 92.1987 137.047 92.845 137.047 93.699C137.047 94.077 136.982 94.4223 136.851 94.735C136.721 95.0477 136.532 95.323 136.284 95.561C136.042 95.7943 135.748 95.988 135.402 96.142C135.057 96.2913 134.667 96.3893 134.233 96.436C134.345 96.506 134.446 96.5993 134.534 96.716L137.943 101H137.32C137.246 101 137.18 100.986 137.124 100.958C137.073 100.93 137.022 100.883 136.97 100.818L133.799 96.8C133.72 96.6973 133.634 96.625 133.54 96.583C133.452 96.541 133.312 96.52 133.12 96.52H131.825ZM131.825 95.988H133.547C133.986 95.988 134.378 95.9367 134.723 95.834C135.073 95.7267 135.367 95.575 135.605 95.379C135.848 95.183 136.032 94.9473 136.158 94.672C136.284 94.3967 136.347 94.0863 136.347 93.741C136.347 93.0363 136.116 92.5137 135.654 92.173C135.192 91.8323 134.52 91.662 133.638 91.662H131.825V95.988ZM140.713 101H139.992V91.095H140.713V101ZM152.751 96.044C152.751 96.8093 152.637 97.5047 152.408 98.13C152.179 98.7507 151.857 99.2827 151.442 99.726C151.027 100.165 150.53 100.505 149.951 100.748C149.372 100.986 148.731 101.105 148.026 101.105C147.331 101.105 146.694 100.986 146.115 100.748C145.536 100.505 145.039 100.165 144.624 99.726C144.209 99.2827 143.884 98.7507 143.651 98.13C143.422 97.5047 143.308 96.8093 143.308 96.044C143.308 95.2833 143.422 94.5927 143.651 93.972C143.884 93.3467 144.209 92.8147 144.624 92.376C145.039 91.9327 145.536 91.5897 146.115 91.347C146.694 91.1043 147.331 90.983 148.026 90.983C148.731 90.983 149.372 91.1043 149.951 91.347C150.53 91.585 151.027 91.9257 151.442 92.369C151.857 92.8123 152.179 93.3467 152.408 93.972C152.637 94.5927 152.751 95.2833 152.751 96.044ZM152.009 96.044C152.009 95.3533 151.913 94.7327 151.722 94.182C151.531 93.6313 151.26 93.1647 150.91 92.782C150.565 92.3993 150.147 92.1077 149.657 91.907C149.167 91.7017 148.623 91.599 148.026 91.599C147.438 91.599 146.899 91.7017 146.409 91.907C145.924 92.1077 145.504 92.3993 145.149 92.782C144.799 93.1647 144.526 93.6313 144.33 94.182C144.139 94.7327 144.043 95.3533 144.043 96.044C144.043 96.7393 144.139 97.3623 144.33 97.913C144.526 98.459 144.799 98.9233 145.149 99.306C145.504 99.6887 145.924 99.9803 146.409 100.181C146.899 100.382 147.438 100.482 148.026 100.482C148.623 100.482 149.167 100.382 149.657 100.181C150.147 99.9803 150.565 99.6887 150.91 99.306C151.26 98.9233 151.531 98.459 151.722 97.913C151.913 97.3623 152.009 96.7393 152.009 96.044ZM52.8052 133.334C52.8519 133.334 52.8916 133.35 52.9242 133.383L53.2042 133.684C52.9989 133.903 52.7749 134.102 52.5322 134.279C52.2896 134.452 52.0236 134.601 51.7342 134.727C51.4496 134.848 51.1346 134.942 50.7892 135.007C50.4486 135.077 50.0729 135.112 49.6622 135.112C48.9762 135.112 48.3462 134.993 47.7722 134.755C47.2029 134.512 46.7129 134.172 46.3022 133.733C45.8962 133.29 45.5789 132.755 45.3502 132.13C45.1216 131.505 45.0072 130.809 45.0072 130.044C45.0072 129.293 45.1239 128.607 45.3572 127.986C45.5952 127.365 45.9266 126.833 46.3512 126.39C46.7806 125.942 47.2916 125.597 47.8842 125.354C48.4816 125.107 49.1396 124.983 49.8582 124.983C50.2176 124.983 50.5466 125.011 50.8452 125.067C51.1439 125.118 51.4216 125.195 51.6782 125.298C51.9396 125.396 52.1846 125.52 52.4132 125.669C52.6419 125.818 52.8659 125.991 53.0852 126.187L52.8682 126.502C52.8309 126.558 52.7726 126.586 52.6932 126.586C52.6512 126.586 52.5976 126.563 52.5322 126.516C52.4669 126.465 52.3829 126.404 52.2802 126.334C52.1822 126.259 52.0609 126.18 51.9162 126.096C51.7762 126.007 51.6082 125.928 51.4122 125.858C51.2162 125.783 50.9899 125.723 50.7332 125.676C50.4766 125.625 50.1849 125.599 49.8582 125.599C49.2562 125.599 48.7032 125.704 48.1992 125.914C47.6952 126.119 47.2612 126.416 46.8972 126.803C46.5332 127.186 46.2486 127.652 46.0432 128.203C45.8426 128.749 45.7422 129.363 45.7422 130.044C45.7422 130.744 45.8426 131.369 46.0432 131.92C46.2439 132.471 46.5216 132.937 46.8762 133.32C47.2309 133.698 47.6486 133.99 48.1292 134.195C48.6146 134.396 49.1396 134.496 49.7042 134.496C50.0589 134.496 50.3739 134.473 50.6492 134.426C50.9292 134.379 51.1859 134.309 51.4192 134.216C51.6526 134.123 51.8696 134.008 52.0702 133.873C52.2709 133.738 52.4692 133.579 52.6652 133.397C52.6886 133.378 52.7096 133.364 52.7282 133.355C52.7516 133.341 52.7772 133.334 52.8052 133.334ZM56.377 130.52V135H55.663V125.095H58.19C59.3333 125.095 60.1873 125.317 60.752 125.76C61.3166 126.199 61.599 126.845 61.599 127.699C61.599 128.077 61.5336 128.422 61.403 128.735C61.2723 129.048 61.0833 129.323 60.836 129.561C60.5933 129.794 60.2993 129.988 59.954 130.142C59.6086 130.291 59.219 130.389 58.785 130.436C58.897 130.506 58.9973 130.599 59.086 130.716L62.495 135H61.872C61.7973 135 61.732 134.986 61.676 134.958C61.6246 134.93 61.5733 134.883 61.522 134.818L58.351 130.8C58.2716 130.697 58.1853 130.625 58.092 130.583C58.0033 130.541 57.8633 130.52 57.672 130.52H56.377ZM56.377 129.988H58.099C58.5376 129.988 58.9296 129.937 59.275 129.834C59.625 129.727 59.919 129.575 60.157 129.379C60.3996 129.183 60.584 128.947 60.71 128.672C60.836 128.397 60.899 128.086 60.899 127.741C60.899 127.036 60.668 126.514 60.206 126.173C59.744 125.832 59.072 125.662 58.19 125.662H56.377V129.988ZM70.221 125.095V125.69H65.006V129.694H69.346V130.275H65.006V134.405H70.221V135H64.285V125.095H70.221ZM80.0115 135H79.4585C79.3932 135 79.3395 134.984 79.2975 134.951C79.2555 134.914 79.2228 134.867 79.1995 134.811L78.0305 131.934H73.1655L72.0035 134.811C71.9848 134.862 71.9522 134.907 71.9055 134.944C71.8588 134.981 71.8028 135 71.7375 135H71.1915L75.2445 125.095H75.9585L80.0115 135ZM73.3825 131.402H77.8205L75.7975 126.397C75.7648 126.318 75.7322 126.229 75.6995 126.131C75.6668 126.028 75.6342 125.921 75.6015 125.809C75.5688 125.921 75.5362 126.028 75.5035 126.131C75.4708 126.229 75.4382 126.32 75.4055 126.404L73.3825 131.402ZM88.5708 133.334C88.6175 133.334 88.6572 133.35 88.6898 133.383L88.9698 133.684C88.7645 133.903 88.5405 134.102 88.2978 134.279C88.0552 134.452 87.7892 134.601 87.4998 134.727C87.2152 134.848 86.9002 134.942 86.5548 135.007C86.2142 135.077 85.8385 135.112 85.4278 135.112C84.7418 135.112 84.1118 134.993 83.5378 134.755C82.9685 134.512 82.4785 134.172 82.0678 133.733C81.6618 133.29 81.3445 132.755 81.1158 132.13C80.8872 131.505 80.7728 130.809 80.7728 130.044C80.7728 129.293 80.8895 128.607 81.1228 127.986C81.3608 127.365 81.6922 126.833 82.1168 126.39C82.5462 125.942 83.0572 125.597 83.6498 125.354C84.2472 125.107 84.9052 124.983 85.6238 124.983C85.9832 124.983 86.3122 125.011 86.6108 125.067C86.9095 125.118 87.1872 125.195 87.4438 125.298C87.7052 125.396 87.9502 125.52 88.1788 125.669C88.4075 125.818 88.6315 125.991 88.8508 126.187L88.6338 126.502C88.5965 126.558 88.5382 126.586 88.4588 126.586C88.4168 126.586 88.3632 126.563 88.2978 126.516C88.2325 126.465 88.1485 126.404 88.0458 126.334C87.9478 126.259 87.8265 126.18 87.6818 126.096C87.5418 126.007 87.3738 125.928 87.1778 125.858C86.9818 125.783 86.7555 125.723 86.4988 125.676C86.2422 125.625 85.9505 125.599 85.6238 125.599C85.0218 125.599 84.4688 125.704 83.9648 125.914C83.4608 126.119 83.0268 126.416 82.6628 126.803C82.2988 127.186 82.0142 127.652 81.8088 128.203C81.6082 128.749 81.5078 129.363 81.5078 130.044C81.5078 130.744 81.6082 131.369 81.8088 131.92C82.0095 132.471 82.2872 132.937 82.6418 133.32C82.9965 133.698 83.4142 133.99 83.8948 134.195C84.3802 134.396 84.9052 134.496 85.4698 134.496C85.8245 134.496 86.1395 134.473 86.4148 134.426C86.6948 134.379 86.9515 134.309 87.1848 134.216C87.4182 134.123 87.6352 134.008 87.8358 133.873C88.0365 133.738 88.2348 133.579 88.4308 133.397C88.4542 133.378 88.4752 133.364 88.4938 133.355C88.5172 133.341 88.5428 133.334 88.5708 133.334ZM92.1986 135H91.4776V125.095H92.1986V135ZM104.236 130.044C104.236 130.809 104.122 131.505 103.893 132.13C103.665 132.751 103.343 133.283 102.927 133.726C102.512 134.165 102.015 134.505 101.436 134.748C100.858 134.986 100.216 135.105 99.5112 135.105C98.8159 135.105 98.1789 134.986 97.6002 134.748C97.0215 134.505 96.5245 134.165 96.1092 133.726C95.6939 133.283 95.3695 132.751 95.1362 132.13C94.9075 131.505 94.7932 130.809 94.7932 130.044C94.7932 129.283 94.9075 128.593 95.1362 127.972C95.3695 127.347 95.6939 126.815 96.1092 126.376C96.5245 125.933 97.0215 125.59 97.6002 125.347C98.1789 125.104 98.8159 124.983 99.5112 124.983C100.216 124.983 100.858 125.104 101.436 125.347C102.015 125.585 102.512 125.926 102.927 126.369C103.343 126.812 103.665 127.347 103.893 127.972C104.122 128.593 104.236 129.283 104.236 130.044ZM103.494 130.044C103.494 129.353 103.399 128.733 103.207 128.182C103.016 127.631 102.745 127.165 102.395 126.782C102.05 126.399 101.632 126.108 101.142 125.907C100.652 125.702 100.109 125.599 99.5112 125.599C98.9232 125.599 98.3842 125.702 97.8942 125.907C97.4089 126.108 96.9889 126.399 96.6342 126.782C96.2842 127.165 96.0112 127.631 95.8152 128.182C95.6239 128.733 95.5282 129.353 95.5282 130.044C95.5282 130.739 95.6239 131.362 95.8152 131.913C96.0112 132.459 96.2842 132.923 96.6342 133.306C96.9889 133.689 97.4089 133.98 97.8942 134.181C98.3842 134.382 98.9232 134.482 99.5112 134.482C100.109 134.482 100.652 134.382 101.142 134.181C101.632 133.98 102.05 133.689 102.395 133.306C102.745 132.923 103.016 132.459 103.207 131.913C103.399 131.362 103.494 130.739 103.494 130.044ZM101.548 122.61L99.5042 124.122C99.4575 124.155 99.4132 124.178 99.3712 124.192C99.3339 124.201 99.2872 124.206 99.2312 124.206H98.7412L100.33 122.764C100.396 122.703 100.456 122.664 100.512 122.645C100.568 122.622 100.652 122.61 100.764 122.61H101.548ZM106.922 125.095C106.987 125.095 107.039 125.104 107.076 125.123C107.113 125.137 107.153 125.172 107.195 125.228L113.607 133.81C113.593 133.67 113.586 133.535 113.586 133.404V125.095H114.216V135H113.873C113.766 135 113.679 134.953 113.614 134.86L107.174 126.264C107.188 126.404 107.195 126.537 107.195 126.663V135H106.572V125.095H106.922ZM128.198 130.044C128.198 130.809 128.084 131.498 127.855 132.109C127.627 132.72 127.305 133.241 126.889 133.67C126.474 134.099 125.977 134.428 125.398 134.657C124.82 134.886 124.178 135 123.473 135H119.861V125.095H123.473C124.178 125.095 124.82 125.209 125.398 125.438C125.977 125.667 126.474 125.996 126.889 126.425C127.305 126.854 127.627 127.375 127.855 127.986C128.084 128.597 128.198 129.283 128.198 130.044ZM127.456 130.044C127.456 129.353 127.361 128.737 127.169 128.196C126.978 127.655 126.707 127.197 126.357 126.824C126.012 126.451 125.594 126.166 125.104 125.97C124.614 125.774 124.071 125.676 123.473 125.676H120.582V134.419H123.473C124.071 134.419 124.614 134.321 125.104 134.125C125.594 133.929 126.012 133.644 126.357 133.271C126.707 132.898 126.978 132.44 127.169 131.899C127.361 131.358 127.456 130.739 127.456 130.044ZM136.434 125.095V125.69H131.219V129.694H135.559V130.275H131.219V134.405H136.434V135H130.498V125.095H136.434ZM57.657 143.299C57.615 143.378 57.5543 143.418 57.475 143.418C57.4143 143.418 57.335 143.376 57.237 143.292C57.1437 143.203 57.0153 143.108 56.852 143.005C56.6887 142.898 56.4833 142.8 56.236 142.711C55.9933 142.622 55.6923 142.578 55.333 142.578C54.9737 142.578 54.6563 142.629 54.381 142.732C54.1103 142.835 53.8817 142.975 53.695 143.152C53.513 143.329 53.373 143.535 53.275 143.768C53.1817 144.001 53.135 144.246 53.135 144.503C53.135 144.839 53.205 145.117 53.345 145.336C53.4897 145.555 53.6787 145.742 53.912 145.896C54.1453 146.05 54.409 146.181 54.703 146.288C55.0017 146.391 55.3073 146.493 55.62 146.596C55.9327 146.699 56.236 146.813 56.53 146.939C56.8287 147.06 57.0947 147.214 57.328 147.401C57.5613 147.588 57.748 147.819 57.888 148.094C58.0327 148.365 58.105 148.703 58.105 149.109C58.105 149.524 58.0327 149.916 57.888 150.285C57.748 150.649 57.5427 150.966 57.272 151.237C57.0013 151.508 56.67 151.722 56.278 151.881C55.886 152.035 55.438 152.112 54.934 152.112C54.2807 152.112 53.7183 151.998 53.247 151.769C52.7757 151.536 52.3627 151.218 52.008 150.817L52.204 150.509C52.26 150.439 52.3253 150.404 52.4 150.404C52.442 150.404 52.4957 150.432 52.561 150.488C52.6263 150.544 52.7057 150.614 52.799 150.698C52.8923 150.777 53.0043 150.866 53.135 150.964C53.2657 151.057 53.4173 151.146 53.59 151.23C53.7627 151.309 53.961 151.377 54.185 151.433C54.409 151.489 54.6633 151.517 54.948 151.517C55.34 151.517 55.69 151.459 55.998 151.342C56.306 151.221 56.565 151.057 56.775 150.852C56.9897 150.647 57.153 150.404 57.265 150.124C57.377 149.839 57.433 149.536 57.433 149.214C57.433 148.864 57.3607 148.577 57.216 148.353C57.076 148.124 56.8893 147.935 56.656 147.786C56.4227 147.632 56.1567 147.504 55.858 147.401C55.564 147.298 55.2607 147.198 54.948 147.1C54.6353 147.002 54.3297 146.892 54.031 146.771C53.737 146.65 53.4733 146.496 53.24 146.309C53.0067 146.118 52.8177 145.882 52.673 145.602C52.533 145.317 52.463 144.963 52.463 144.538C52.463 144.207 52.526 143.887 52.652 143.579C52.778 143.271 52.9623 143 53.205 142.767C53.4477 142.529 53.7463 142.34 54.101 142.2C54.4603 142.055 54.8687 141.983 55.326 141.983C55.8393 141.983 56.299 142.065 56.705 142.228C57.1157 142.391 57.489 142.641 57.825 142.977L57.657 143.299ZM61.1634 152H60.4424V142.095H61.1634V152ZM69.155 143.299C69.113 143.378 69.0524 143.418 68.973 143.418C68.9124 143.418 68.833 143.376 68.735 143.292C68.6417 143.203 68.5134 143.108 68.35 143.005C68.1867 142.898 67.9814 142.8 67.734 142.711C67.4914 142.622 67.1904 142.578 66.831 142.578C66.4717 142.578 66.1544 142.629 65.879 142.732C65.6084 142.835 65.3797 142.975 65.193 143.152C65.011 143.329 64.871 143.535 64.773 143.768C64.6797 144.001 64.633 144.246 64.633 144.503C64.633 144.839 64.703 145.117 64.843 145.336C64.9877 145.555 65.1767 145.742 65.41 145.896C65.6434 146.05 65.907 146.181 66.201 146.288C66.4997 146.391 66.8054 146.493 67.118 146.596C67.4307 146.699 67.734 146.813 68.028 146.939C68.3267 147.06 68.5927 147.214 68.826 147.401C69.0594 147.588 69.246 147.819 69.386 148.094C69.5307 148.365 69.603 148.703 69.603 149.109C69.603 149.524 69.5307 149.916 69.386 150.285C69.246 150.649 69.0407 150.966 68.77 151.237C68.4994 151.508 68.168 151.722 67.776 151.881C67.384 152.035 66.936 152.112 66.432 152.112C65.7787 152.112 65.2164 151.998 64.745 151.769C64.2737 151.536 63.8607 151.218 63.506 150.817L63.702 150.509C63.758 150.439 63.8234 150.404 63.898 150.404C63.94 150.404 63.9937 150.432 64.059 150.488C64.1244 150.544 64.2037 150.614 64.297 150.698C64.3904 150.777 64.5024 150.866 64.633 150.964C64.7637 151.057 64.9154 151.146 65.088 151.23C65.2607 151.309 65.459 151.377 65.683 151.433C65.907 151.489 66.1614 151.517 66.446 151.517C66.838 151.517 67.188 151.459 67.496 151.342C67.804 151.221 68.063 151.057 68.273 150.852C68.4877 150.647 68.651 150.404 68.763 150.124C68.875 149.839 68.931 149.536 68.931 149.214C68.931 148.864 68.8587 148.577 68.714 148.353C68.574 148.124 68.3874 147.935 68.154 147.786C67.9207 147.632 67.6547 147.504 67.356 147.401C67.062 147.298 66.7587 147.198 66.446 147.1C66.1334 147.002 65.8277 146.892 65.529 146.771C65.235 146.65 64.9714 146.496 64.738 146.309C64.5047 146.118 64.3157 145.882 64.171 145.602C64.031 145.317 63.961 144.963 63.961 144.538C63.961 144.207 64.024 143.887 64.15 143.579C64.276 143.271 64.4604 143 64.703 142.767C64.9457 142.529 65.2444 142.34 65.599 142.2C65.9584 142.055 66.3667 141.983 66.824 141.983C67.3374 141.983 67.797 142.065 68.203 142.228C68.6137 142.391 68.987 142.641 69.323 142.977L69.155 143.299ZM78.1495 142.095V142.704H74.6705V152H73.9565V142.704H70.4565V142.095H78.1495ZM85.8069 142.095V142.69H80.5919V146.694H84.9319V147.275H80.5919V151.405H85.8069V152H79.8709V142.095H85.8069ZM92.9024 149.116C92.9724 149.247 93.0331 149.387 93.0844 149.536C93.1124 149.461 93.1404 149.389 93.1684 149.319C93.2011 149.244 93.2361 149.174 93.2734 149.109L97.1654 142.228C97.2028 142.167 97.2401 142.13 97.2774 142.116C97.3148 142.102 97.3661 142.095 97.4314 142.095H97.9284V152H97.2984V143.558C97.2984 143.437 97.3054 143.308 97.3194 143.173L93.4204 150.096C93.3551 150.217 93.2618 150.278 93.1404 150.278H93.0284C92.9118 150.278 92.8184 150.217 92.7484 150.096L88.7444 143.166C88.7584 143.301 88.7654 143.432 88.7654 143.558V152H88.1424V142.095H88.6324C88.6978 142.095 88.7491 142.102 88.7864 142.116C88.8284 142.13 88.8681 142.167 88.9054 142.228L92.9024 149.116ZM108.326 152H107.773C107.708 152 107.654 151.984 107.612 151.951C107.57 151.914 107.537 151.867 107.514 151.811L106.345 148.934H101.48L100.318 151.811C100.299 151.862 100.267 151.907 100.22 151.944C100.173 151.981 100.117 152 100.052 152H99.5059L103.559 142.095H104.273L108.326 152ZM101.697 148.402H106.135L104.112 143.397C104.079 143.318 104.047 143.229 104.014 143.131C103.981 143.028 103.949 142.921 103.916 142.809C103.883 142.921 103.851 143.028 103.818 143.131C103.785 143.229 103.753 143.32 103.72 143.404L101.697 148.402ZM120.938 147.044C120.938 147.809 120.824 148.498 120.595 149.109C120.367 149.72 120.045 150.241 119.629 150.67C119.214 151.099 118.717 151.428 118.138 151.657C117.56 151.886 116.918 152 116.213 152H112.601V142.095H116.213C116.918 142.095 117.56 142.209 118.138 142.438C118.717 142.667 119.214 142.996 119.629 143.425C120.045 143.854 120.367 144.375 120.595 144.986C120.824 145.597 120.938 146.283 120.938 147.044ZM120.196 147.044C120.196 146.353 120.101 145.737 119.909 145.196C119.718 144.655 119.447 144.197 119.097 143.824C118.752 143.451 118.334 143.166 117.844 142.97C117.354 142.774 116.811 142.676 116.213 142.676H113.322V151.419H116.213C116.811 151.419 117.354 151.321 117.844 151.125C118.334 150.929 118.752 150.644 119.097 150.271C119.447 149.898 119.718 149.44 119.909 148.899C120.101 148.358 120.196 147.739 120.196 147.044ZM129.174 142.095V142.69H123.959V146.694H128.299V147.275H123.959V151.405H129.174V152H123.238V142.095H129.174ZM73.2714 164.044C73.2714 164.809 73.1571 165.498 72.9284 166.109C72.6998 166.72 72.3778 167.241 71.9624 167.67C71.5471 168.099 71.0501 168.428 70.4714 168.657C69.8928 168.886 69.2511 169 68.5464 169H64.9344V159.095H68.5464C69.2511 159.095 69.8928 159.209 70.4714 159.438C71.0501 159.667 71.5471 159.996 71.9624 160.425C72.3778 160.854 72.6998 161.375 72.9284 161.986C73.1571 162.597 73.2714 163.283 73.2714 164.044ZM72.5294 164.044C72.5294 163.353 72.4338 162.737 72.2424 162.196C72.0511 161.655 71.7804 161.197 71.4304 160.824C71.0851 160.451 70.6674 160.166 70.1774 159.97C69.6874 159.774 69.1438 159.676 68.5464 159.676H65.6554V168.419H68.5464C69.1438 168.419 69.6874 168.321 70.1774 168.125C70.6674 167.929 71.0851 167.644 71.4304 167.271C71.7804 166.898 72.0511 166.44 72.2424 165.899C72.4338 165.358 72.5294 164.739 72.5294 164.044ZM76.5511 169H75.8301V159.095H76.5511V169ZM84.5427 160.299C84.5007 160.378 84.4401 160.418 84.3607 160.418C84.3001 160.418 84.2207 160.376 84.1227 160.292C84.0294 160.203 83.9011 160.108 83.7377 160.005C83.5744 159.898 83.3691 159.8 83.1217 159.711C82.8791 159.622 82.5781 159.578 82.2187 159.578C81.8594 159.578 81.5421 159.629 81.2667 159.732C80.9961 159.835 80.7674 159.975 80.5807 160.152C80.3987 160.329 80.2587 160.535 80.1607 160.768C80.0674 161.001 80.0207 161.246 80.0207 161.503C80.0207 161.839 80.0907 162.117 80.2307 162.336C80.3754 162.555 80.5644 162.742 80.7977 162.896C81.0311 163.05 81.2947 163.181 81.5887 163.288C81.8874 163.391 82.1931 163.493 82.5057 163.596C82.8184 163.699 83.1217 163.813 83.4157 163.939C83.7144 164.06 83.9804 164.214 84.2137 164.401C84.4471 164.588 84.6337 164.819 84.7737 165.094C84.9184 165.365 84.9907 165.703 84.9907 166.109C84.9907 166.524 84.9184 166.916 84.7737 167.285C84.6337 167.649 84.4284 167.966 84.1577 168.237C83.8871 168.508 83.5557 168.722 83.1637 168.881C82.7717 169.035 82.3237 169.112 81.8197 169.112C81.1664 169.112 80.6041 168.998 80.1327 168.769C79.6614 168.536 79.2484 168.218 78.8937 167.817L79.0897 167.509C79.1457 167.439 79.2111 167.404 79.2857 167.404C79.3277 167.404 79.3814 167.432 79.4467 167.488C79.5121 167.544 79.5914 167.614 79.6847 167.698C79.7781 167.777 79.8901 167.866 80.0207 167.964C80.1514 168.057 80.3031 168.146 80.4757 168.23C80.6484 168.309 80.8467 168.377 81.0707 168.433C81.2947 168.489 81.5491 168.517 81.8337 168.517C82.2257 168.517 82.5757 168.459 82.8837 168.342C83.1917 168.221 83.4507 168.057 83.6607 167.852C83.8754 167.647 84.0387 167.404 84.1507 167.124C84.2627 166.839 84.3187 166.536 84.3187 166.214C84.3187 165.864 84.2464 165.577 84.1017 165.353C83.9617 165.124 83.7751 164.935 83.5417 164.786C83.3084 164.632 83.0424 164.504 82.7437 164.401C82.4497 164.298 82.1464 164.198 81.8337 164.1C81.5211 164.002 81.2154 163.892 80.9167 163.771C80.6227 163.65 80.3591 163.496 80.1257 163.309C79.8924 163.118 79.7034 162.882 79.5587 162.602C79.4187 162.317 79.3487 161.963 79.3487 161.538C79.3487 161.207 79.4117 160.887 79.5377 160.579C79.6637 160.271 79.8481 160 80.0907 159.767C80.3334 159.529 80.6321 159.34 80.9867 159.2C81.3461 159.055 81.7544 158.983 82.2117 158.983C82.7251 158.983 83.1847 159.065 83.5907 159.228C84.0014 159.391 84.3747 159.641 84.7107 159.977L84.5427 160.299ZM93.0052 159.095V159.69H87.7902V163.694H92.1302V164.275H87.7902V168.405H93.0052V169H87.0692V159.095H93.0052ZM95.6907 159.095C95.756 159.095 95.8073 159.104 95.8447 159.123C95.882 159.137 95.9217 159.172 95.9637 159.228L102.376 167.81C102.362 167.67 102.355 167.535 102.355 167.404V159.095H102.985V169H102.642C102.534 169 102.448 168.953 102.383 168.86L95.9427 160.264C95.9567 160.404 95.9637 160.537 95.9637 160.663V169H95.3407V159.095H95.6907ZM100.255 157.688C100.451 157.688 100.6 157.625 100.703 157.499C100.805 157.368 100.859 157.203 100.864 157.002H101.242C101.242 157.165 101.221 157.317 101.179 157.457C101.137 157.592 101.076 157.714 100.997 157.821C100.917 157.924 100.815 158.005 100.689 158.066C100.567 158.122 100.427 158.15 100.269 158.15C100.115 158.15 99.9677 158.113 99.8277 158.038C99.6877 157.963 99.5523 157.884 99.4217 157.8C99.291 157.711 99.1627 157.63 99.0367 157.555C98.9153 157.48 98.7917 157.443 98.6657 157.443C98.4697 157.443 98.3203 157.508 98.2177 157.639C98.1197 157.77 98.066 157.933 98.0567 158.129H97.6647C97.6647 157.97 97.6857 157.821 97.7277 157.681C97.7743 157.541 97.8397 157.42 97.9237 157.317C98.0077 157.21 98.1103 157.128 98.2317 157.072C98.353 157.011 98.493 156.981 98.6517 156.981C98.8103 156.981 98.9597 157.018 99.0997 157.093C99.2397 157.168 99.375 157.249 99.5057 157.338C99.6363 157.422 99.7623 157.501 99.8837 157.576C100.005 157.651 100.129 157.688 100.255 157.688ZM114.757 164.044C114.757 164.809 114.642 165.505 114.414 166.13C114.185 166.751 113.863 167.283 113.448 167.726C113.032 168.165 112.535 168.505 111.957 168.748C111.378 168.986 110.736 169.105 110.032 169.105C109.336 169.105 108.699 168.986 108.121 168.748C107.542 168.505 107.045 168.165 106.63 167.726C106.214 167.283 105.89 166.751 105.657 166.13C105.428 165.505 105.314 164.809 105.314 164.044C105.314 163.283 105.428 162.593 105.657 161.972C105.89 161.347 106.214 160.815 106.63 160.376C107.045 159.933 107.542 159.59 108.121 159.347C108.699 159.104 109.336 158.983 110.032 158.983C110.736 158.983 111.378 159.104 111.957 159.347C112.535 159.585 113.032 159.926 113.448 160.369C113.863 160.812 114.185 161.347 114.414 161.972C114.642 162.593 114.757 163.283 114.757 164.044ZM114.015 164.044C114.015 163.353 113.919 162.733 113.728 162.182C113.536 161.631 113.266 161.165 112.916 160.782C112.57 160.399 112.153 160.108 111.663 159.907C111.173 159.702 110.629 159.599 110.032 159.599C109.444 159.599 108.905 159.702 108.415 159.907C107.929 160.108 107.509 160.399 107.155 160.782C106.805 161.165 106.532 161.631 106.336 162.182C106.144 162.733 106.049 163.353 106.049 164.044C106.049 164.739 106.144 165.362 106.336 165.913C106.532 166.459 106.805 166.923 107.155 167.306C107.509 167.689 107.929 167.98 108.415 168.181C108.905 168.382 109.444 168.482 110.032 168.482C110.629 168.482 111.173 168.382 111.663 168.181C112.153 167.98 112.57 167.689 112.916 167.306C113.266 166.923 113.536 166.459 113.728 165.913C113.919 165.362 114.015 164.739 114.015 164.044ZM115.982 168.405C115.982 168.242 116.038 168.102 116.15 167.985C116.262 167.868 116.409 167.81 116.591 167.81C116.792 167.81 116.946 167.88 117.053 168.02C117.165 168.155 117.221 168.335 117.221 168.559C117.221 168.75 117.196 168.944 117.144 169.14C117.098 169.341 117.028 169.537 116.934 169.728C116.841 169.919 116.729 170.104 116.598 170.281C116.468 170.458 116.323 170.622 116.164 170.771L116.059 170.666C116.022 170.629 116.003 170.589 116.003 170.547C116.003 170.524 116.01 170.5 116.024 170.477C116.038 170.454 116.055 170.433 116.073 170.414C116.12 170.367 116.178 170.297 116.248 170.204C116.323 170.115 116.395 170.008 116.465 169.882C116.54 169.761 116.605 169.625 116.661 169.476C116.722 169.327 116.762 169.168 116.78 169C116.752 169.009 116.72 169.016 116.682 169.021C116.65 169.026 116.612 169.028 116.57 169.028C116.398 169.028 116.255 168.97 116.143 168.853C116.036 168.736 115.982 168.587 115.982 168.405ZM39.7804 183.116C39.8504 183.247 39.911 183.387 39.9624 183.536C39.9904 183.461 40.0184 183.389 40.0464 183.319C40.079 183.244 40.114 183.174 40.1514 183.109L44.0434 176.228C44.0807 176.167 44.118 176.13 44.1554 176.116C44.1927 176.102 44.244 176.095 44.3094 176.095H44.8064V186H44.1764V177.558C44.1764 177.437 44.1834 177.308 44.1974 177.173L40.2984 184.096C40.233 184.217 40.1397 184.278 40.0184 184.278H39.9064C39.7897 184.278 39.6964 184.217 39.6264 184.096L35.6224 177.166C35.6364 177.301 35.6434 177.432 35.6434 177.558V186H35.0204V176.095H35.5104C35.5757 176.095 35.627 176.102 35.6644 176.116C35.7064 176.13 35.746 176.167 35.7834 176.228L39.7804 183.116ZM55.2039 186H54.6509C54.5855 186 54.5319 185.984 54.4899 185.951C54.4479 185.914 54.4152 185.867 54.3919 185.811L53.2229 182.934H48.3579L47.1959 185.811C47.1772 185.862 47.1445 185.907 47.0979 185.944C47.0512 185.981 46.9952 186 46.9299 186H46.3839L50.4369 176.095H51.1509L55.2039 186ZM48.5749 182.402H53.0129L50.9899 177.397C50.9572 177.318 50.9245 177.229 50.8919 177.131C50.8592 177.028 50.8265 176.921 50.7939 176.809C50.7612 176.921 50.7285 177.028 50.6959 177.131C50.6632 177.229 50.6305 177.32 50.5979 177.404L48.5749 182.402ZM65.4012 181.044C65.4012 181.543 65.3499 182.015 65.2472 182.458C65.1492 182.897 65.0069 183.303 64.8202 183.676C64.6336 184.045 64.4049 184.376 64.1342 184.67C63.8682 184.964 63.5672 185.216 63.2312 185.426L65.8072 188.184H65.2052C65.1119 188.184 65.0279 188.17 64.9532 188.142C64.8786 188.119 64.8132 188.074 64.7572 188.009L62.6432 185.727C62.3492 185.848 62.0389 185.942 61.7122 186.007C61.3856 186.072 61.0402 186.105 60.6762 186.105C59.9809 186.105 59.3439 185.986 58.7652 185.748C58.1866 185.505 57.6896 185.165 57.2742 184.726C56.8589 184.283 56.5346 183.751 56.3012 183.13C56.0726 182.505 55.9582 181.809 55.9582 181.044C55.9582 180.283 56.0726 179.593 56.3012 178.972C56.5346 178.347 56.8589 177.815 57.2742 177.376C57.6896 176.933 58.1866 176.59 58.7652 176.347C59.3439 176.104 59.9809 175.983 60.6762 175.983C61.3809 175.983 62.0226 176.104 62.6012 176.347C63.1799 176.585 63.6769 176.926 64.0922 177.369C64.5076 177.812 64.8296 178.347 65.0582 178.972C65.2869 179.593 65.4012 180.283 65.4012 181.044ZM64.6592 181.044C64.6592 180.353 64.5636 179.733 64.3722 179.182C64.1809 178.631 63.9102 178.165 63.5602 177.782C63.2149 177.399 62.7972 177.108 62.3072 176.907C61.8172 176.702 61.2736 176.599 60.6762 176.599C60.0882 176.599 59.5492 176.702 59.0592 176.907C58.5739 177.108 58.1539 177.399 57.7992 177.782C57.4492 178.165 57.1762 178.631 56.9802 179.182C56.7889 179.733 56.6932 180.353 56.6932 181.044C56.6932 181.739 56.7889 182.362 56.9802 182.913C57.1762 183.459 57.4492 183.923 57.7992 184.306C58.1539 184.689 58.5739 184.98 59.0592 185.181C59.5492 185.382 60.0882 185.482 60.6762 185.482C61.2736 185.482 61.8172 185.382 62.3072 185.181C62.7972 184.98 63.2149 184.689 63.5602 184.306C63.9102 183.923 64.1809 183.459 64.3722 182.913C64.5636 182.362 64.6592 181.739 64.6592 181.044ZM71.3982 185.489C71.8742 185.489 72.2988 185.407 72.6722 185.244C73.0502 185.076 73.3698 184.845 73.6312 184.551C73.8925 184.257 74.0908 183.912 74.2262 183.515C74.3662 183.114 74.4362 182.682 74.4362 182.22V176.095H75.1502V182.22C75.1502 182.766 75.0638 183.277 74.8912 183.753C74.7185 184.224 74.4688 184.637 74.1422 184.992C73.8202 185.342 73.4258 185.617 72.9592 185.818C72.4972 186.019 71.9768 186.119 71.3982 186.119C70.8195 186.119 70.2968 186.019 69.8302 185.818C69.3682 185.617 68.9738 185.342 68.6472 184.992C68.3252 184.637 68.0778 184.224 67.9052 183.753C67.7325 183.277 67.6462 182.766 67.6462 182.22V176.095H68.3672V182.213C68.3672 182.675 68.4348 183.107 68.5702 183.508C68.7102 183.905 68.9085 184.25 69.1652 184.544C69.4265 184.838 69.7438 185.069 70.1172 185.237C70.4952 185.405 70.9222 185.489 71.3982 185.489ZM83.9407 176.095V176.69H78.7257V180.694H83.0657V181.275H78.7257V185.405H83.9407V186H78.0047V176.095H83.9407ZM92.7442 176.095V176.704H89.2652V186H88.5512V176.704H85.0512V176.095H92.7442ZM101.114 186H100.561C100.496 186 100.442 185.984 100.4 185.951C100.358 185.914 100.325 185.867 100.302 185.811L99.133 182.934H94.268L93.106 185.811C93.0874 185.862 93.0547 185.907 93.008 185.944C92.9614 185.981 92.9054 186 92.84 186H92.294L96.347 176.095H97.061L101.114 186ZM94.485 182.402H98.923L96.9 177.397C96.8674 177.318 96.8347 177.229 96.802 177.131C96.7694 177.028 96.7367 176.921 96.704 176.809C96.6714 176.921 96.6387 177.028 96.606 177.131C96.5734 177.229 96.5407 177.32 96.508 177.404L94.485 182.402ZM109.673 184.334C109.72 184.334 109.76 184.35 109.792 184.383L110.072 184.684C109.867 184.903 109.643 185.102 109.4 185.279C109.158 185.452 108.892 185.601 108.602 185.727C108.318 185.848 108.003 185.942 107.657 186.007C107.317 186.077 106.941 186.112 106.53 186.112C105.844 186.112 105.214 185.993 104.64 185.755C104.071 185.512 103.581 185.172 103.17 184.733C102.764 184.29 102.447 183.755 102.218 183.13C101.99 182.505 101.875 181.809 101.875 181.044C101.875 180.293 101.992 179.607 102.225 178.986C102.463 178.365 102.795 177.833 103.219 177.39C103.649 176.942 104.16 176.597 104.752 176.354C105.35 176.107 106.008 175.983 106.726 175.983C107.086 175.983 107.415 176.011 107.713 176.067C108.012 176.118 108.29 176.195 108.546 176.298C108.808 176.396 109.053 176.52 109.281 176.669C109.51 176.818 109.734 176.991 109.953 177.187L109.736 177.502C109.699 177.558 109.641 177.586 109.561 177.586C109.519 177.586 109.466 177.563 109.4 177.516C109.335 177.465 109.251 177.404 109.148 177.334C109.05 177.259 108.929 177.18 108.784 177.096C108.644 177.007 108.476 176.928 108.28 176.858C108.084 176.783 107.858 176.723 107.601 176.676C107.345 176.625 107.053 176.599 106.726 176.599C106.124 176.599 105.571 176.704 105.067 176.914C104.563 177.119 104.129 177.416 103.765 177.803C103.401 178.186 103.117 178.652 102.911 179.203C102.711 179.749 102.61 180.363 102.61 181.044C102.61 181.744 102.711 182.369 102.911 182.92C103.112 183.471 103.39 183.937 103.744 184.32C104.099 184.698 104.517 184.99 104.997 185.195C105.483 185.396 106.008 185.496 106.572 185.496C106.927 185.496 107.242 185.473 107.517 185.426C107.797 185.379 108.054 185.309 108.287 185.216C108.521 185.123 108.738 185.008 108.938 184.873C109.139 184.738 109.337 184.579 109.533 184.397C109.557 184.378 109.578 184.364 109.596 184.355C109.62 184.341 109.645 184.334 109.673 184.334ZM113.301 186H112.58V176.095H113.301V186ZM125.339 181.044C125.339 181.809 125.224 182.505 124.996 183.13C124.767 183.751 124.445 184.283 124.03 184.726C123.614 185.165 123.117 185.505 122.539 185.748C121.96 185.986 121.318 186.105 120.614 186.105C119.918 186.105 119.281 185.986 118.703 185.748C118.124 185.505 117.627 185.165 117.212 184.726C116.796 184.283 116.472 183.751 116.239 183.13C116.01 182.505 115.896 181.809 115.896 181.044C115.896 180.283 116.01 179.593 116.239 178.972C116.472 178.347 116.796 177.815 117.212 177.376C117.627 176.933 118.124 176.59 118.703 176.347C119.281 176.104 119.918 175.983 120.614 175.983C121.318 175.983 121.96 176.104 122.539 176.347C123.117 176.585 123.614 176.926 124.03 177.369C124.445 177.812 124.767 178.347 124.996 178.972C125.224 179.593 125.339 180.283 125.339 181.044ZM124.597 181.044C124.597 180.353 124.501 179.733 124.31 179.182C124.118 178.631 123.848 178.165 123.498 177.782C123.152 177.399 122.735 177.108 122.245 176.907C121.755 176.702 121.211 176.599 120.614 176.599C120.026 176.599 119.487 176.702 118.997 176.907C118.511 177.108 118.091 177.399 117.737 177.782C117.387 178.165 117.114 178.631 116.918 179.182C116.726 179.733 116.631 180.353 116.631 181.044C116.631 181.739 116.726 182.362 116.918 182.913C117.114 183.459 117.387 183.923 117.737 184.306C118.091 184.689 118.511 184.98 118.997 185.181C119.487 185.382 120.026 185.482 120.614 185.482C121.211 185.482 121.755 185.382 122.245 185.181C122.735 184.98 123.152 184.689 123.498 184.306C123.848 183.923 124.118 183.459 124.31 182.913C124.501 182.362 124.597 181.739 124.597 181.044ZM122.651 173.61L120.607 175.122C120.56 175.155 120.516 175.178 120.474 175.192C120.436 175.201 120.39 175.206 120.334 175.206H119.844L121.433 173.764C121.498 173.703 121.559 173.664 121.615 173.645C121.671 173.622 121.755 173.61 121.867 173.61H122.651ZM128.025 176.095C128.09 176.095 128.141 176.104 128.179 176.123C128.216 176.137 128.256 176.172 128.298 176.228L134.71 184.81C134.696 184.67 134.689 184.535 134.689 184.404V176.095H135.319V186H134.976C134.868 186 134.782 185.953 134.717 185.86L128.277 177.264C128.291 177.404 128.298 177.537 128.298 177.663V186H127.675V176.095H128.025ZM144.051 181.912V186H143.33V181.912L139.669 176.095H140.292C140.357 176.095 140.408 176.111 140.446 176.144C140.488 176.172 140.527 176.214 140.565 176.27L143.4 180.82C143.465 180.927 143.521 181.032 143.568 181.135C143.614 181.233 143.656 181.333 143.694 181.436C143.731 181.333 143.773 181.233 143.82 181.135C143.866 181.032 143.922 180.927 143.988 180.82L146.816 176.27C146.844 176.219 146.879 176.177 146.921 176.144C146.963 176.111 147.016 176.095 147.082 176.095H147.712L144.051 181.912ZM45.3301 199.01V203H44.6161V193.095H47.1711C48.3331 193.095 49.2081 193.349 49.7961 193.858C50.3888 194.367 50.6851 195.092 50.6851 196.035C50.6851 196.469 50.6034 196.868 50.4401 197.232C50.2814 197.596 50.0504 197.911 49.7471 198.177C49.4438 198.438 49.0751 198.644 48.6411 198.793C48.2071 198.938 47.7171 199.01 47.1711 199.01H45.3301ZM45.3301 198.436H47.1711C47.6098 198.436 48.0018 198.375 48.3471 198.254C48.6924 198.133 48.9841 197.965 49.2221 197.75C49.4648 197.535 49.6491 197.283 49.7751 196.994C49.9058 196.7 49.9711 196.38 49.9711 196.035C49.9711 195.274 49.7354 194.689 49.2641 194.278C48.7974 193.867 48.0998 193.662 47.1711 193.662H45.3301V198.436ZM53.6426 198.52V203H52.9286V193.095H55.4556C56.5989 193.095 57.4529 193.317 58.0176 193.76C58.5823 194.199 58.8646 194.845 58.8646 195.699C58.8646 196.077 58.7993 196.422 58.6686 196.735C58.5379 197.048 58.3489 197.323 58.1016 197.561C57.8589 197.794 57.5649 197.988 57.2196 198.142C56.8743 198.291 56.4846 198.389 56.0506 198.436C56.1626 198.506 56.2629 198.599 56.3516 198.716L59.7606 203H59.1376C59.0629 203 58.9976 202.986 58.9416 202.958C58.8903 202.93 58.8389 202.883 58.7876 202.818L55.6166 198.8C55.5373 198.697 55.4509 198.625 55.3576 198.583C55.2689 198.541 55.1289 198.52 54.9376 198.52H53.6426ZM53.6426 197.988H55.3646C55.8033 197.988 56.1953 197.937 56.5406 197.834C56.8906 197.727 57.1846 197.575 57.4226 197.379C57.6653 197.183 57.8496 196.947 57.9756 196.672C58.1016 196.397 58.1646 196.086 58.1646 195.741C58.1646 195.036 57.9336 194.514 57.4716 194.173C57.0096 193.832 56.3376 193.662 55.4556 193.662H53.6426V197.988ZM70.0838 198.044C70.0838 198.809 69.9695 199.505 69.7408 200.13C69.5122 200.751 69.1902 201.283 68.7748 201.726C68.3595 202.165 67.8625 202.505 67.2838 202.748C66.7052 202.986 66.0635 203.105 65.3588 203.105C64.6635 203.105 64.0265 202.986 63.4478 202.748C62.8692 202.505 62.3722 202.165 61.9568 201.726C61.5415 201.283 61.2172 200.751 60.9838 200.13C60.7552 199.505 60.6408 198.809 60.6408 198.044C60.6408 197.283 60.7552 196.593 60.9838 195.972C61.2172 195.347 61.5415 194.815 61.9568 194.376C62.3722 193.933 62.8692 193.59 63.4478 193.347C64.0265 193.104 64.6635 192.983 65.3588 192.983C66.0635 192.983 66.7052 193.104 67.2838 193.347C67.8625 193.585 68.3595 193.926 68.7748 194.369C69.1902 194.812 69.5122 195.347 69.7408 195.972C69.9695 196.593 70.0838 197.283 70.0838 198.044ZM69.3418 198.044C69.3418 197.353 69.2462 196.733 69.0548 196.182C68.8635 195.631 68.5928 195.165 68.2428 194.782C67.8975 194.399 67.4798 194.108 66.9898 193.907C66.4998 193.702 65.9562 193.599 65.3588 193.599C64.7708 193.599 64.2318 193.702 63.7418 193.907C63.2565 194.108 62.8365 194.399 62.4818 194.782C62.1318 195.165 61.8588 195.631 61.6628 196.182C61.4715 196.733 61.3758 197.353 61.3758 198.044C61.3758 198.739 61.4715 199.362 61.6628 199.913C61.8588 200.459 62.1318 200.923 62.4818 201.306C62.8365 201.689 63.2565 201.98 63.7418 202.181C64.2318 202.382 64.7708 202.482 65.3588 202.482C65.9562 202.482 66.4998 202.382 66.9898 202.181C67.4798 201.98 67.8975 201.689 68.2428 201.306C68.5928 200.923 68.8635 200.459 69.0548 199.913C69.2462 199.362 69.3418 198.739 69.3418 198.044ZM78.0538 193.095V193.704H74.5748V203H73.8608V193.704H70.3608V193.095H78.0538ZM87.7753 198.044C87.7753 198.809 87.6609 199.505 87.4323 200.13C87.2036 200.751 86.8816 201.283 86.4663 201.726C86.0509 202.165 85.5539 202.505 84.9753 202.748C84.3966 202.986 83.7549 203.105 83.0503 203.105C82.3549 203.105 81.7179 202.986 81.1393 202.748C80.5606 202.505 80.0636 202.165 79.6483 201.726C79.2329 201.283 78.9086 200.751 78.6753 200.13C78.4466 199.505 78.3323 198.809 78.3323 198.044C78.3323 197.283 78.4466 196.593 78.6753 195.972C78.9086 195.347 79.2329 194.815 79.6483 194.376C80.0636 193.933 80.5606 193.59 81.1393 193.347C81.7179 193.104 82.3549 192.983 83.0503 192.983C83.7549 192.983 84.3966 193.104 84.9753 193.347C85.5539 193.585 86.0509 193.926 86.4663 194.369C86.8816 194.812 87.2036 195.347 87.4323 195.972C87.6609 196.593 87.7753 197.283 87.7753 198.044ZM87.0333 198.044C87.0333 197.353 86.9376 196.733 86.7463 196.182C86.5549 195.631 86.2843 195.165 85.9343 194.782C85.5889 194.399 85.1713 194.108 84.6813 193.907C84.1913 193.702 83.6476 193.599 83.0503 193.599C82.4623 193.599 81.9233 193.702 81.4333 193.907C80.9479 194.108 80.5279 194.399 80.1733 194.782C79.8233 195.165 79.5503 195.631 79.3543 196.182C79.1629 196.733 79.0673 197.353 79.0673 198.044C79.0673 198.739 79.1629 199.362 79.3543 199.913C79.5503 200.459 79.8233 200.923 80.1733 201.306C80.5279 201.689 80.9479 201.98 81.4333 202.181C81.9233 202.382 82.4623 202.482 83.0503 202.482C83.6476 202.482 84.1913 202.382 84.6813 202.181C85.1713 201.98 85.5889 201.689 85.9343 201.306C86.2843 200.923 86.5549 200.459 86.7463 199.913C86.9376 199.362 87.0333 198.739 87.0333 198.044ZM95.7452 193.095V193.704H92.2662V203H91.5522V193.704H88.0522V193.095H95.7452ZM98.4466 203H97.7256V193.095H98.4466V203ZM102.574 199.01V203H101.86V193.095H104.415C105.577 193.095 106.452 193.349 107.04 193.858C107.633 194.367 107.929 195.092 107.929 196.035C107.929 196.469 107.848 196.868 107.684 197.232C107.526 197.596 107.295 197.911 106.991 198.177C106.688 198.438 106.319 198.644 105.885 198.793C105.451 198.938 104.961 199.01 104.415 199.01H102.574ZM102.574 198.436H104.415C104.854 198.436 105.246 198.375 105.591 198.254C105.937 198.133 106.228 197.965 106.466 197.75C106.709 197.535 106.893 197.283 107.019 196.994C107.15 196.7 107.215 196.38 107.215 196.035C107.215 195.274 106.98 194.689 106.508 194.278C106.042 193.867 105.344 193.662 104.415 193.662H102.574V198.436ZM116.597 203H116.044C115.979 203 115.925 202.984 115.883 202.951C115.841 202.914 115.809 202.867 115.785 202.811L114.616 199.934H109.751L108.589 202.811C108.571 202.862 108.538 202.907 108.491 202.944C108.445 202.981 108.389 203 108.323 203H107.777L111.83 193.095H112.544L116.597 203ZM109.968 199.402H114.406L112.383 194.397C112.351 194.318 112.318 194.229 112.285 194.131C112.253 194.028 112.22 193.921 112.187 193.809C112.155 193.921 112.122 194.028 112.089 194.131C112.057 194.229 112.024 194.32 111.991 194.404L109.968 199.402ZM126.503 198.044C126.503 198.809 126.389 199.498 126.16 200.109C125.931 200.72 125.609 201.241 125.194 201.67C124.779 202.099 124.282 202.428 123.703 202.657C123.124 202.886 122.483 203 121.778 203H118.166V193.095H121.778C122.483 193.095 123.124 193.209 123.703 193.438C124.282 193.667 124.779 193.996 125.194 194.425C125.609 194.854 125.931 195.375 126.16 195.986C126.389 196.597 126.503 197.283 126.503 198.044ZM125.761 198.044C125.761 197.353 125.665 196.737 125.474 196.196C125.283 195.655 125.012 195.197 124.662 194.824C124.317 194.451 123.899 194.166 123.409 193.97C122.919 193.774 122.375 193.676 121.778 193.676H118.887V202.419H121.778C122.375 202.419 122.919 202.321 123.409 202.125C123.899 201.929 124.317 201.644 124.662 201.271C125.012 200.898 125.283 200.44 125.474 199.899C125.665 199.358 125.761 198.739 125.761 198.044ZM137.637 198.044C137.637 198.809 137.522 199.505 137.294 200.13C137.065 200.751 136.743 201.283 136.328 201.726C135.912 202.165 135.415 202.505 134.837 202.748C134.258 202.986 133.616 203.105 132.912 203.105C132.216 203.105 131.579 202.986 131.001 202.748C130.422 202.505 129.925 202.165 129.51 201.726C129.094 201.283 128.77 200.751 128.537 200.13C128.308 199.505 128.194 198.809 128.194 198.044C128.194 197.283 128.308 196.593 128.537 195.972C128.77 195.347 129.094 194.815 129.51 194.376C129.925 193.933 130.422 193.59 131.001 193.347C131.579 193.104 132.216 192.983 132.912 192.983C133.616 192.983 134.258 193.104 134.837 193.347C135.415 193.585 135.912 193.926 136.328 194.369C136.743 194.812 137.065 195.347 137.294 195.972C137.522 196.593 137.637 197.283 137.637 198.044ZM136.895 198.044C136.895 197.353 136.799 196.733 136.608 196.182C136.416 195.631 136.146 195.165 135.796 194.782C135.45 194.399 135.033 194.108 134.543 193.907C134.053 193.702 133.509 193.599 132.912 193.599C132.324 193.599 131.785 193.702 131.295 193.907C130.809 194.108 130.389 194.399 130.035 194.782C129.685 195.165 129.412 195.631 129.216 196.182C129.024 196.733 128.929 197.353 128.929 198.044C128.929 198.739 129.024 199.362 129.216 199.913C129.412 200.459 129.685 200.923 130.035 201.306C130.389 201.689 130.809 201.98 131.295 202.181C131.785 202.382 132.324 202.482 132.912 202.482C133.509 202.482 134.053 202.382 134.543 202.181C135.033 201.98 135.45 201.689 135.796 201.306C136.146 200.923 136.416 200.459 136.608 199.913C136.799 199.362 136.895 198.739 136.895 198.044Z" fill="#EFCE67"/>
<defs>
<filter id="filter0_d" x="59" y="232" width="53.4386" height="60" filterUnits="userSpaceOnUse" color-interpolation-filters="sRGB">
<feFlood flood-opacity="0" result="BackgroundImageFix"/>
<feColorMatrix in="SourceAlpha" type="matrix" values="0 0 0 0 0 0 0 0 0 0 0 0 0 0 0 0 0 0 127 0"/>
<feOffset dx="-5" dy="5"/>
<feGaussianBlur stdDeviation="2.5"/>
<feColorMatrix type="matrix" values="0 0 0 0 0 0 0 0 0 0 0 0 0 0 0 0 0 0 0.25 0"/>
<feBlend mode="normal" in2="BackgroundImageFix" result="effect1_dropShadow"/>
<feBlend mode="normal" in="SourceGraphic" in2="effect1_dropShadow" result="shape"/>
</filter>
<filter id="filter1_d" x="23.0593" y="21.816" width="125.297" height="30.952" filterUnits="userSpaceOnUse" color-interpolation-filters="sRGB">
<feFlood flood-opacity="0" result="BackgroundImageFix"/>
<feColorMatrix in="SourceAlpha" type="matrix" values="0 0 0 0 0 0 0 0 0 0 0 0 0 0 0 0 0 0 127 0"/>
<feOffset dx="-5" dy="5"/>
<feGaussianBlur stdDeviation="2.5"/>
<feColorMatrix type="matrix" values="0 0 0 0 0 0 0 0 0 0 0 0 0 0 0 0 0 0 0.25 0"/>
<feBlend mode="normal" in2="BackgroundImageFix" result="effect1_dropShadow"/>
<feBlend mode="normal" in="SourceGraphic" in2="effect1_dropShadow" result="shape"/>
</filter>
</defs>
</svg>
