<svg width="181" height="180" viewBox="0 0 181 180" fill="none" xmlns="http://www.w3.org/2000/svg">
<rect x="0.468994" width="180" height="180" rx="5" fill="#143B40"/>
<path d="M56.0468 37.4101C56.5425 19.216 33.8831 17 33.8831 17C33.8831 17 32.8334 19.4367 25.2526 21.132C17.6717 22.8273 17.0635 29.95 17.0635 29.95C17.0635 29.95 21.1914 27.6841 23.9863 30.5581C23.488 30.9107 23.096 31.3934 22.8533 31.9535C21.8714 31.7968 20.8811 31.6981 19.8876 31.6578C19.7819 31.649 19.6759 31.6722 19.5836 31.7244C19.5044 31.7786 19.4669 31.9452 19.3836 32.6699C19.3715 32.8168 19.3506 32.9629 19.3211 33.1073L19.2961 33.2364H19.3878L19.6085 33.2656C19.7494 33.2779 19.8888 33.303 20.0251 33.3406C19.9114 33.8102 19.8238 34.2858 19.7627 34.7651C19.6502 35.5065 19.5377 36.3188 19.5211 36.4812C19.376 37.5368 19.5855 38.6107 20.1167 39.5344L18.4506 40.784C16.7345 42.0919 15.1183 43.3249 14.7018 43.7372C14.2228 44.2496 14.5185 46.8862 15.2641 49.3104C17.7425 64.5555 29.4262 64.6346 32.8668 66.8548C34.5329 67.9169 52.6604 63.4975 57.8795 42.0961C58.1794 40.8715 55.9718 40.0759 56.0468 37.4101ZM15.1725 44.2037C15.589 43.7872 17.2551 42.5376 18.8505 41.313L20.5166 40.0634L20.6166 40.1842C21.0897 40.6776 21.693 41.0267 22.3565 41.1911C23.02 41.3555 23.7166 41.3285 24.3653 41.1131C24.9208 40.9184 25.4221 40.5944 25.8277 40.1678C26.2332 39.7412 26.5315 39.2243 26.6979 38.6597C26.8579 38.1627 26.9736 37.6525 27.0436 37.1352C27.1196 36.4662 27.298 35.813 27.5726 35.1983C27.6679 35.009 27.8257 34.8583 28.0192 34.7718C28.2127 34.6853 28.4302 34.6682 28.6348 34.7235C28.8954 34.7685 29.1282 34.9133 29.2837 35.1272C29.4393 35.341 29.5053 35.6071 29.4679 35.8689C29.193 37.8183 29.0513 39.8635 29.8427 41.6129C30.1422 42.2278 30.5701 42.7713 31.0975 43.2068C31.6249 43.6422 32.2396 43.9595 32.9001 44.1371C33.2029 44.2278 33.512 44.296 33.8248 44.3412C35.2241 44.5663 36.6582 44.2983 37.8818 43.5831C38.885 42.9372 39.6861 42.0221 40.1936 40.9423C40.5317 40.2079 40.759 39.4274 40.8684 38.6264C40.8684 38.6264 41.1016 37.1768 41.1308 36.6895L41.8181 36.7978L42.0596 35.2649L41.993 35.1608H41.9597C41.5431 35.0567 41.0975 34.9442 40.6684 34.8318C39.2232 34.4147 37.7506 34.0988 36.2615 33.8862C35.2077 33.7613 34.1372 33.6696 33.0709 33.628C32.6543 33.628 32.2378 33.628 31.8213 33.628C31.2256 33.628 30.605 33.628 30.0052 33.5738C28.8556 33.4235 27.7212 33.174 26.6146 32.8282L25.7191 32.5533C24.9818 32.3576 24.2487 32.2034 23.5198 32.0701C24.0238 31.0663 25.3192 30.2416 28.4807 29.346C34.5454 27.6299 37.6444 30.6456 38.7274 32.0202C38.8621 32.1945 39.0381 32.3327 39.2395 32.4221C39.441 32.5115 39.6615 32.5495 39.8812 32.5325C42.7511 32.3034 47.3413 34.3277 47.9619 34.9067C45.6835 42.6376 44.1381 44.1579 41.9264 44.3578C41.5931 44.387 41.3515 44.4078 41.0183 50.031C41.0102 50.1473 40.9747 50.2601 40.9146 50.36C40.8545 50.4599 40.7716 50.5442 40.6726 50.6058C39.7187 51.1848 36.5864 53.105 36.274 53.28C31.009 56.3457 24.986 55.2293 22.6409 54.6087C19.5627 53.7756 17.4134 52.5261 16.9552 51.718C15.4349 49.0938 14.8892 44.6869 15.1725 44.2037ZM23.1116 37.7975C23.2753 36.7379 23.3116 35.6625 23.2199 34.5943C23.1949 34.1403 23.1782 33.7279 23.1949 33.3447H23.349C23.5906 33.3697 23.8822 33.3947 24.1821 33.4405C25.1026 33.578 26.1689 33.8571 26.4105 34.6443C26.6813 35.5065 26.4105 36.4979 26.1856 37.2976C26.1606 37.3976 26.1314 37.4976 26.1064 37.5975C25.9065 38.3598 25.6899 39.1512 25.0693 39.651C24.7504 39.8967 24.3859 40.0766 23.9969 40.1802C23.6079 40.2839 23.2022 40.3093 22.8033 40.255C22.2128 40.1762 21.6635 39.9089 21.2372 39.4928C22.8658 38.2432 23.0783 37.9891 23.1116 37.7975ZM30.8674 35.5565C31.3464 34.9192 32.3378 34.7734 33.0834 34.7651C34.0465 34.7522 35.0091 34.8176 35.9616 34.9609C36.4573 35.0317 36.9613 35.1275 37.4736 35.24C38.6649 35.5065 40.0311 35.9939 40.0228 37.4184C40.011 37.9468 39.9327 38.4716 39.7895 38.9804C39.6019 39.6691 39.3217 40.329 38.9565 40.9423C38.3961 41.915 37.486 42.6374 36.4115 42.9625C35.6424 43.1687 34.8352 43.1882 34.0571 43.0194C33.2789 42.8506 32.5524 42.4983 31.9379 41.9919C31.4425 41.5631 31.0484 41.0296 30.7841 40.4299C30.4932 39.6824 30.364 38.8818 30.4051 38.0807V37.9308C30.4009 37.1435 30.3926 36.1855 30.8674 35.5565ZM20.5499 38.3515C20.1959 37.206 20.5499 35.7148 20.8082 34.5152C20.8415 34.3736 20.8748 34.2319 20.904 34.0987C21.0831 33.2989 21.8412 33.2406 22.5701 33.2906C22.5476 33.736 22.5476 34.1822 22.5701 34.6277C22.6514 35.6293 22.6179 36.6369 22.4701 37.6309C21.9382 38.1115 21.3821 38.5647 20.804 38.9887C20.6922 38.7882 20.6068 38.574 20.5499 38.3515V38.3515Z" fill="#F5F5F5"/>
<path d="M42.4345 43.2791C42.6955 43.3202 42.9629 43.283 43.2029 43.1723C43.4428 43.0615 43.6446 42.8821 43.7826 42.6568C43.9207 42.4314 43.9888 42.1702 43.9785 41.9062C43.9682 41.6421 43.8799 41.387 43.7247 41.1731C43.5695 40.9592 43.3544 40.7961 43.1066 40.7043C42.8587 40.6126 42.5893 40.5964 42.3322 40.6577C42.0751 40.719 41.842 40.8552 41.6623 41.0489C41.4825 41.2427 41.3643 41.4853 41.3223 41.7462C41.2944 41.9199 41.3011 42.0974 41.3419 42.2686C41.3827 42.4397 41.4569 42.6011 41.5603 42.7435C41.6636 42.8859 41.794 43.0065 41.944 43.0984C42.094 43.1903 42.2607 43.2517 42.4345 43.2791V43.2791Z" fill="#F5F5F5"/>
<path d="M18.8796 48.1067L20.3458 46.1156C20.4545 45.9569 20.52 45.7727 20.5359 45.581C20.5518 45.3892 20.5175 45.1967 20.4363 45.0223C20.3552 44.8479 20.2301 44.6976 20.0733 44.5862C19.9164 44.4748 19.7333 44.4062 19.5419 44.387L16.7386 43.9705C16.5508 43.9361 16.3573 43.9509 16.177 44.0136C15.9966 44.0764 15.8356 44.1848 15.7097 44.3283C15.5838 44.4718 15.4973 44.6456 15.4586 44.8325C15.4199 45.0195 15.4304 45.2133 15.489 45.395L16.3221 47.7235C16.6137 48.5898 18.3381 48.8439 18.8796 48.1067Z" fill="#F5F5F5"/>
<path d="M35.6159 48.5565C35.7056 48.5125 35.8032 48.487 35.903 48.4814C36.0028 48.4759 36.1026 48.4904 36.1966 48.5242C36.2907 48.558 36.377 48.6104 36.4503 48.6782C36.5237 48.746 36.5828 48.8279 36.6239 48.9189C36.4198 49.1438 35.4451 50.0685 32.9917 50.7808L33.0376 50.9599C34.3886 50.6799 35.6854 50.1834 36.878 49.4896C37.0029 49.9353 36.9613 50.2851 36.828 50.3518C34.3175 51.6483 31.6404 52.5929 28.8722 53.1592V53.3425C32.5127 53.2925 36.0491 51.6764 37.4111 50.8433C37.8818 50.5517 38.4025 49.7645 38.1859 49.1438L37.3528 47.3653C37.2286 47.1666 37.0638 46.9964 36.8693 46.8658C36.6748 46.7352 36.4549 46.6471 36.224 46.6072H36.1949C36.0365 46.5838 35.8749 46.5963 35.722 46.6439C35.5691 46.6915 35.4289 46.7729 35.3118 46.8821C31.7046 50.3226 22.7575 51.5722 22.6701 51.5722L22.0869 51.6472L22.6659 51.7513C22.7159 51.7555 27.8017 52.5969 35.6159 48.5565Z" fill="#F5F5F5"/>
<path d="M23.9613 38.0807H24.7944C24.9207 38.0854 25.044 38.0413 25.1386 37.9575C25.2332 37.8738 25.2919 37.7568 25.3026 37.6308C25.3317 36.9602 25.2734 35.8147 24.5237 35.7648C23.7739 35.7148 23.5198 36.8686 23.4823 37.5642C23.4784 37.6299 23.4878 37.6957 23.51 37.7577C23.5322 37.8197 23.5667 37.8765 23.6115 37.9248C23.6562 37.9731 23.7103 38.0117 23.7704 38.0385C23.8306 38.0653 23.8955 38.0797 23.9613 38.0807Z" fill="#F5F5F5"/>
<path d="M32.6418 38.6597H32.7043C32.8845 38.5852 33.0563 38.4917 33.2166 38.3806C33.7407 38.1102 34.3271 37.9838 34.9161 38.0141C35.4724 38.0527 36.0072 38.2445 36.4614 38.5681C36.6072 38.6681 36.7405 38.7805 36.8779 38.8847C36.9555 38.9521 37.0542 38.9904 37.157 38.9929C37.2129 38.9821 37.2656 38.9589 37.3113 38.9249C37.3569 38.8909 37.3944 38.8471 37.4208 38.7967C37.4472 38.7463 37.4619 38.6906 37.4638 38.6337C37.4657 38.5768 37.4548 38.5202 37.4319 38.4681C37.3862 38.383 37.3239 38.3079 37.2486 38.2474C36.6281 37.6104 35.8014 37.2147 34.9161 37.1311C34.5966 37.1264 34.2786 37.1742 33.9747 37.2727C33.6792 37.3726 33.3989 37.5128 33.1416 37.6892C32.8964 37.8271 32.6789 38.0093 32.5002 38.2265L32.4627 38.2848C32.4357 38.3262 32.4186 38.3732 32.4127 38.4223C32.411 38.4532 32.4157 38.4842 32.4264 38.5132C32.4372 38.5422 32.4539 38.5687 32.4754 38.591C32.4969 38.6133 32.5228 38.6309 32.5514 38.6427C32.5801 38.6546 32.6108 38.6603 32.6418 38.6597V38.6597Z" fill="#F5F5F5"/>
<path d="M35.6034 39.2262C35.1209 38.9195 34.5536 38.7737 33.9831 38.8097C33.621 38.8348 33.268 38.934 32.9459 39.1013C32.8943 39.1306 32.8443 39.1626 32.796 39.1971C32.7168 39.2637 32.6502 39.347 32.6877 39.447C32.7086 39.4917 32.745 39.5273 32.7902 39.5472C32.8354 39.5672 32.8863 39.57 32.9334 39.5553C33.0584 39.522 33.1792 39.4678 33.3041 39.4303C33.4307 39.3886 33.5601 39.3566 33.6915 39.3345C33.9669 39.2844 34.2492 39.2844 34.5246 39.3345C34.8019 39.4124 35.07 39.5199 35.3243 39.6552C35.4419 39.7224 35.5764 39.7542 35.7117 39.7469C35.82 39.7469 35.945 39.6594 35.9325 39.5386C35.92 39.4178 35.7159 39.297 35.6034 39.2262Z" fill="#F5F5F5"/>
<path d="M81.7229 119.2H95.9309V123.04H90.6189V149.344C90.6189 151.179 90.8962 152.8 91.4509 154.208C92.0482 155.616 92.8589 156.811 93.8829 157.792C94.9069 158.731 96.1229 159.456 97.5309 159.968C98.9816 160.48 100.56 160.736 102.267 160.736C103.931 160.736 105.467 160.48 106.875 159.968C108.326 159.456 109.563 158.731 110.587 157.792C111.654 156.811 112.464 155.616 113.019 154.208C113.616 152.8 113.915 151.179 113.915 149.344V123.04H108.667V119.2H122.811V123.04H117.883V149.536C117.883 151.968 117.478 154.123 116.667 156C115.899 157.877 114.811 159.456 113.403 160.736C111.995 161.973 110.331 162.912 108.411 163.552C106.534 164.192 104.486 164.512 102.267 164.512C100.006 164.512 97.9149 164.192 95.9949 163.552C94.1176 162.912 92.4749 161.973 91.0669 160.736C89.7016 159.456 88.6136 157.877 87.8029 156C87.0349 154.123 86.6509 151.968 86.6509 149.536V123.04H81.7229V119.2ZM127.285 119.2H141.493V123.04H137.845C139.339 125.344 140.811 127.605 142.261 129.824C143.755 132.043 145.227 134.283 146.677 136.544L147.445 138.016L148.149 136.544L156.917 123.04H153.333V119.2H167.541V123.04H161.781L149.877 141.472C151.925 144.629 153.973 147.765 156.021 150.88C158.069 153.952 160.117 157.067 162.165 160.224H167.541V164H153.333V160.224H157.173L148.597 147.104C148.341 146.677 148.107 146.251 147.893 145.824C147.68 145.355 147.424 144.907 147.125 144.48L146.421 146.016C144.885 148.405 143.349 150.773 141.813 153.12C140.277 155.467 138.763 157.835 137.269 160.224H141.493V164H127.285V160.224H132.341L144.757 141.088L132.981 123.04H127.285V119.2Z" fill="#F5F5F5"/>
</svg>
