<svg width="180" height="300" viewBox="0 0 180 300" fill="none" xmlns="http://www.w3.org/2000/svg">
<rect x="1" y="1" width="178" height="298" rx="4" fill="#143B40" stroke="#F5F5F5" stroke-width="2"/>
<g filter="url(#filter0_d)">
<path d="M113.578 252.41C114.073 234.216 91.4141 232 91.4141 232C91.4141 232 90.3645 234.437 82.7836 236.132C75.2027 237.827 74.5945 244.95 74.5945 244.95C74.5945 244.95 78.7224 242.684 81.5173 245.558C81.019 245.911 80.6271 246.393 80.3843 246.954C79.4024 246.797 78.4121 246.698 77.4186 246.658C77.3129 246.649 77.2069 246.672 77.1146 246.724C77.0354 246.779 76.9979 246.945 76.9146 247.67C76.9025 247.817 76.8816 247.963 76.8521 248.107L76.8272 248.236H76.9188L77.1395 248.266C77.2804 248.278 77.4198 248.303 77.5561 248.341C77.4424 248.81 77.3548 249.286 77.2937 249.765C77.1812 250.507 77.0687 251.319 77.0521 251.481C76.907 252.537 77.1165 253.611 77.6477 254.534L75.9816 255.784C74.2655 257.092 72.6493 258.325 72.2328 258.737C71.7538 259.25 72.0495 261.886 72.7951 264.31C75.2735 279.556 86.9572 279.635 90.3978 281.855C92.0639 282.917 110.191 278.498 115.411 257.096C115.71 255.871 113.503 255.076 113.578 252.41ZM72.7035 259.204C73.12 258.787 74.7861 257.538 76.3815 256.313L78.0476 255.063L78.1476 255.184C78.6207 255.678 79.224 256.027 79.8875 256.191C80.5511 256.356 81.2476 256.328 81.8963 256.113C82.4518 255.918 82.9531 255.594 83.3587 255.168C83.7642 254.741 84.0625 254.224 84.2289 253.66C84.3889 253.163 84.5046 252.653 84.5747 252.135C84.6506 251.466 84.829 250.813 85.1036 250.198C85.199 250.009 85.3567 249.858 85.5502 249.772C85.7437 249.685 85.9612 249.668 86.1658 249.723C86.4264 249.768 86.6592 249.913 86.8147 250.127C86.9703 250.341 87.0363 250.607 86.9989 250.869C86.724 252.818 86.5823 254.863 87.3738 256.613C87.6732 257.228 88.1011 257.771 88.6285 258.207C89.1559 258.642 89.7706 258.959 90.4311 259.137C90.7339 259.228 91.043 259.296 91.3558 259.341C92.7551 259.566 94.1892 259.298 95.4128 258.583C96.416 257.937 97.2171 257.022 97.7246 255.942C98.0627 255.208 98.2901 254.427 98.3994 253.626C98.3994 253.626 98.6326 252.177 98.6618 251.689L99.3491 251.798L99.5906 250.265L99.524 250.161H99.4907C99.0741 250.057 98.6285 249.944 98.1994 249.832C96.7542 249.415 95.2816 249.099 93.7925 248.886C92.7387 248.761 91.6682 248.67 90.6019 248.628C90.1853 248.628 89.7688 248.628 89.3523 248.628C88.7566 248.628 88.136 248.628 87.5362 248.574C86.3866 248.423 85.2522 248.174 84.1456 247.828L83.2501 247.553C82.5128 247.358 81.7797 247.203 81.0508 247.07C81.5548 246.066 82.8502 245.242 86.0117 244.346C92.0764 242.63 95.1754 245.646 96.2584 247.02C96.3931 247.195 96.5691 247.333 96.7706 247.422C96.972 247.512 97.1925 247.549 97.4122 247.532C100.282 247.303 104.872 249.328 105.493 249.907C103.214 257.638 101.669 259.158 99.4574 259.358C99.1241 259.387 98.8825 259.408 98.5493 265.031C98.5413 265.147 98.5057 265.26 98.4456 265.36C98.3855 265.46 98.3026 265.544 98.2036 265.606C97.2497 266.185 94.1174 268.105 93.805 268.28C88.54 271.346 82.517 270.229 80.1719 269.609C77.0937 268.776 74.9444 267.526 74.4862 266.718C72.9659 264.094 72.4202 259.687 72.7035 259.204ZM80.6426 252.797C80.8063 251.738 80.8426 250.663 80.7509 249.594C80.7259 249.14 80.7092 248.728 80.7259 248.345H80.88C81.1216 248.37 81.4132 248.395 81.7131 248.441C82.6336 248.578 83.6999 248.857 83.9415 249.644C84.2123 250.507 83.9415 251.498 83.7166 252.298C83.6916 252.398 83.6624 252.498 83.6375 252.598C83.4375 253.36 83.2209 254.151 82.6003 254.651C82.2814 254.897 81.9169 255.077 81.5279 255.18C81.1389 255.284 80.7332 255.309 80.3344 255.255C79.7438 255.176 79.1945 254.909 78.7682 254.493C80.3968 253.243 80.6093 252.989 80.6426 252.797ZM88.3984 250.557C88.8774 249.919 89.8688 249.773 90.6144 249.765C91.5775 249.752 92.5401 249.818 93.4926 249.961C93.9883 250.032 94.4923 250.127 95.0046 250.24C96.1959 250.507 97.5621 250.994 97.5538 252.418C97.542 252.947 97.4637 253.472 97.3205 253.98C97.1329 254.669 96.8527 255.329 96.4875 255.942C95.9271 256.915 95.017 257.637 93.9425 257.962C93.1734 258.169 92.3662 258.188 91.5881 258.019C90.8099 257.851 90.0834 257.498 89.4689 256.992C88.9735 256.563 88.5794 256.03 88.3151 255.43C88.0242 254.682 87.895 253.882 87.9361 253.081V252.931C87.9319 252.144 87.9236 251.185 88.3984 250.557ZM78.0809 253.351C77.7269 252.206 78.0809 250.715 78.3392 249.515C78.3725 249.374 78.4058 249.232 78.435 249.099C78.6141 248.299 79.3722 248.241 80.1011 248.291C80.0786 248.736 80.0786 249.182 80.1011 249.628C80.1824 250.629 80.1489 251.637 80.0011 252.631C79.4692 253.112 78.9131 253.565 78.335 253.989C78.2232 253.788 78.1378 253.574 78.0809 253.351V253.351Z" fill="#F5F5F5"/>
<path d="M99.9655 258.279C100.227 258.32 100.494 258.283 100.734 258.172C100.974 258.061 101.176 257.882 101.314 257.657C101.452 257.431 101.52 257.17 101.51 256.906C101.499 256.642 101.411 256.387 101.256 256.173C101.101 255.959 100.885 255.796 100.638 255.704C100.39 255.613 100.12 255.596 99.8632 255.658C99.6062 255.719 99.3731 255.855 99.1933 256.049C99.0136 256.243 98.8953 256.485 98.8534 256.746C98.8255 256.92 98.8321 257.097 98.873 257.269C98.9138 257.44 98.988 257.601 99.0913 257.743C99.1946 257.886 99.325 258.006 99.475 258.098C99.6251 258.19 99.7917 258.252 99.9655 258.279V258.279Z" fill="#F5F5F5"/>
<path d="M76.4106 263.107L77.8768 261.116C77.9855 260.957 78.051 260.773 78.0669 260.581C78.0828 260.389 78.0485 260.197 77.9673 260.022C77.8862 259.848 77.7611 259.698 77.6043 259.586C77.4474 259.475 77.2643 259.406 77.0729 259.387L74.2696 258.97C74.0818 258.936 73.8883 258.951 73.708 259.014C73.5276 259.076 73.3667 259.185 73.2407 259.328C73.1148 259.472 73.0283 259.646 72.9896 259.833C72.9509 260.019 72.9614 260.213 73.02 260.395L73.8531 262.723C74.1447 263.59 75.8691 263.844 76.4106 263.107Z" fill="#F5F5F5"/>
<path d="M93.1469 263.557C93.2366 263.512 93.3343 263.487 93.434 263.481C93.5338 263.476 93.6337 263.49 93.7277 263.524C93.8217 263.558 93.908 263.61 93.9814 263.678C94.0548 263.746 94.1138 263.828 94.1549 263.919C93.9508 264.144 92.9761 265.069 90.5228 265.781L90.5686 265.96C91.9196 265.68 93.2165 265.183 94.409 264.49C94.534 264.935 94.4923 265.285 94.359 265.352C91.8485 266.648 89.1715 267.593 86.4033 268.159V268.342C90.0438 268.292 93.5801 266.676 94.9422 265.843C95.4129 265.552 95.9335 264.764 95.7169 264.144L94.8839 262.365C94.7596 262.167 94.5948 261.996 94.4003 261.866C94.2058 261.735 93.9859 261.647 93.7551 261.607H93.7259C93.5675 261.584 93.4059 261.596 93.253 261.644C93.1002 261.691 92.96 261.773 92.8429 261.882C89.2357 265.323 80.2886 266.572 80.2011 266.572L79.618 266.647L80.1969 266.751C80.2469 266.755 85.3328 267.597 93.1469 263.557Z" fill="#F5F5F5"/>
<path d="M81.4923 253.081H82.3254C82.4517 253.085 82.575 253.041 82.6696 252.958C82.7642 252.874 82.823 252.757 82.8336 252.631C82.8627 251.96 82.8044 250.815 82.0547 250.765C81.3049 250.715 81.0508 251.869 81.0133 252.564C81.0094 252.63 81.0188 252.696 81.041 252.758C81.0632 252.82 81.0977 252.877 81.1425 252.925C81.1872 252.973 81.2413 253.012 81.3014 253.039C81.3616 253.065 81.4265 253.08 81.4923 253.081Z" fill="#F5F5F5"/>
<path d="M90.1728 253.66H90.2353C90.4155 253.585 90.5873 253.492 90.7476 253.381C91.2717 253.11 91.8582 252.984 92.4471 253.014C93.0034 253.053 93.5383 253.244 93.9924 253.568C94.1382 253.668 94.2715 253.78 94.409 253.885C94.4865 253.952 94.5852 253.99 94.688 253.993C94.7439 253.982 94.7966 253.959 94.8423 253.925C94.888 253.891 94.9254 253.847 94.9518 253.797C94.9782 253.746 94.9929 253.69 94.9949 253.634C94.9968 253.577 94.9859 253.52 94.963 253.468C94.9173 253.383 94.855 253.308 94.7797 253.247C94.1592 252.61 93.3324 252.215 92.4471 252.131C92.1277 252.126 91.8096 252.174 91.5057 252.273C91.2103 252.373 90.9299 252.513 90.6727 252.689C90.4275 252.827 90.21 253.009 90.0312 253.226L89.9937 253.285C89.9667 253.326 89.9496 253.373 89.9437 253.422C89.942 253.453 89.9467 253.484 89.9575 253.513C89.9683 253.542 89.9849 253.569 90.0065 253.591C90.028 253.613 90.0538 253.631 90.0825 253.643C90.1111 253.655 90.1419 253.66 90.1728 253.66V253.66Z" fill="#F5F5F5"/>
<path d="M93.1344 254.226C92.6519 253.919 92.0847 253.774 91.5141 253.81C91.1521 253.835 90.799 253.934 90.4769 254.101C90.4253 254.131 90.3753 254.163 90.327 254.197C90.2478 254.264 90.1812 254.347 90.2187 254.447C90.2396 254.492 90.276 254.527 90.3212 254.547C90.3664 254.567 90.4173 254.57 90.4644 254.555C90.5894 254.522 90.7102 254.468 90.8351 254.43C90.9617 254.389 91.0912 254.357 91.2225 254.334C91.498 254.284 91.7802 254.284 92.0556 254.334C92.3329 254.412 92.601 254.52 92.8553 254.655C92.9729 254.722 93.1075 254.754 93.2427 254.747C93.351 254.747 93.476 254.659 93.4635 254.539C93.451 254.418 93.2469 254.297 93.1344 254.226Z" fill="#F5F5F5"/>
</g>
<g filter="url(#filter1_d)">
<path d="M31.0593 40.56H32.3793V26.64H31.0593V25.2H36.0993C37.2513 25.2 38.3393 25.4 39.3633 25.8C40.3873 26.184 41.2833 26.744 42.0513 27.48C42.8193 28.216 43.4273 29.104 43.8753 30.144C44.3233 31.168 44.5473 32.328 44.5473 33.624C44.5473 34.568 44.3793 35.536 44.0433 36.528C43.7233 37.52 43.1953 38.424 42.4593 39.24C41.7233 40.04 40.7633 40.704 39.5793 41.232C38.4113 41.744 36.9793 42 35.2833 42H31.0593V40.56ZM33.8673 26.64V40.56H35.7393C36.8753 40.56 37.8913 40.376 38.7873 40.008C39.6993 39.64 40.4673 39.144 41.0913 38.52C41.7313 37.896 42.2193 37.16 42.5553 36.312C42.8913 35.464 43.0593 34.56 43.0593 33.6C43.0593 32.544 42.8753 31.584 42.5073 30.72C42.1393 29.856 41.6353 29.128 40.9953 28.536C40.3553 27.928 39.6033 27.464 38.7393 27.144C37.8753 26.808 36.9553 26.64 35.9793 26.64H33.8673ZM46.2234 40.584H48.0954V26.64H46.2234V25.2H51.5514V26.64H49.6074V40.584H51.5514V42H46.2234V40.584ZM53.0632 39.984V37.32H54.5032V39.456C54.9352 39.824 55.4552 40.136 56.0632 40.392C56.6712 40.648 57.3752 40.776 58.1752 40.776C58.6552 40.776 59.1112 40.704 59.5432 40.56C59.9912 40.416 60.3832 40.208 60.7192 39.936C61.0552 39.664 61.3272 39.328 61.5352 38.928C61.7432 38.512 61.8472 38.048 61.8472 37.536C61.8472 36.656 61.6472 35.976 61.2472 35.496C60.8632 35.016 60.3672 34.648 59.7592 34.392C59.1672 34.12 58.5192 33.896 57.8152 33.72C57.1272 33.544 56.4792 33.312 55.8712 33.024C55.2632 32.72 54.7512 32.312 54.3352 31.8C53.9352 31.288 53.7192 30.552 53.6872 29.592C53.6712 29.064 53.7352 28.536 53.8792 28.008C54.0392 27.464 54.2952 26.984 54.6472 26.568C55.0152 26.136 55.4872 25.784 56.0632 25.512C56.6552 25.24 57.3752 25.104 58.2232 25.104C58.7832 25.104 59.4232 25.184 60.1432 25.344C60.8632 25.488 61.5832 25.848 62.3032 26.424V28.896H60.8632V27.144C60.5592 26.968 60.1832 26.824 59.7352 26.712C59.2872 26.6 58.7832 26.544 58.2232 26.544C57.7112 26.544 57.2632 26.632 56.8792 26.808C56.4952 26.968 56.1752 27.184 55.9192 27.456C55.6792 27.728 55.4952 28.048 55.3672 28.416C55.2392 28.768 55.1752 29.144 55.1752 29.544C55.1752 30.248 55.3752 30.784 55.7752 31.152C56.1752 31.52 56.6712 31.824 57.2632 32.064C57.8712 32.288 58.5272 32.496 59.2312 32.688C59.9352 32.88 60.5912 33.16 61.1992 33.528C61.8072 33.88 62.3112 34.368 62.7112 34.992C63.1272 35.6 63.3352 36.44 63.3352 37.512C63.3352 38.232 63.1992 38.88 62.9272 39.456C62.6712 40.032 62.3112 40.528 61.8472 40.944C61.3992 41.344 60.8712 41.656 60.2632 41.88C59.6552 42.088 59.0072 42.192 58.3192 42.192C57.6952 42.192 57.1112 42.128 56.5672 42C56.0232 41.872 55.5192 41.704 55.0552 41.496C54.6072 41.272 54.2072 41.032 53.8552 40.776C53.5192 40.52 53.2552 40.256 53.0632 39.984ZM64.6921 40.584H66.2281V26.64H64.6921V25.2H76.3801V28.896H74.9401V26.64H67.7161V32.832H75.4441V34.248H67.7161V40.584H75.2761V38.304H76.7161V42H64.6921V40.584ZM78.403 40.584H80.419V26.64H78.403V25.2H81.091L93.211 38.832L93.667 39.456L93.5951 38.688V26.64H91.8191V25.2H97.1231V26.64H95.083V42.768L82.291 28.584L81.859 27.984L81.907 28.728V40.584H83.731V42H78.403V40.584ZM87.019 23.328C86.779 23.056 86.563 22.88 86.371 22.8C86.195 22.72 85.995 22.68 85.771 22.68C85.659 22.68 85.523 22.696 85.363 22.728C85.219 22.76 85.075 22.824 84.931 22.92C84.803 23 84.683 23.12 84.571 23.28C84.475 23.424 84.419 23.616 84.403 23.856L83.539 23.784C83.555 23.48 83.627 23.208 83.755 22.968C83.899 22.712 84.067 22.504 84.259 22.344C84.467 22.168 84.691 22.04 84.931 21.96C85.187 21.864 85.435 21.816 85.6751 21.816C86.027 21.816 86.339 21.896 86.611 22.056C86.899 22.2 87.179 22.4 87.4511 22.656C87.691 22.928 87.907 23.104 88.099 23.184C88.291 23.264 88.4991 23.304 88.7231 23.304C88.8351 23.304 88.9631 23.288 89.1071 23.256C89.251 23.224 89.387 23.168 89.515 23.088C89.659 22.992 89.779 22.872 89.875 22.728C89.9871 22.568 90.0591 22.368 90.091 22.128C90.219 22.144 90.3551 22.16 90.4991 22.176C90.6431 22.176 90.7871 22.184 90.9311 22.2C90.9151 22.52 90.8351 22.8 90.6911 23.04C90.5631 23.28 90.3951 23.488 90.187 23.664C89.995 23.824 89.779 23.944 89.539 24.024C89.299 24.104 89.059 24.144 88.819 24.144C88.451 24.144 88.123 24.072 87.8351 23.928C87.563 23.768 87.291 23.568 87.019 23.328ZM97.8796 33.624C97.8796 32.44 98.1036 31.328 98.5516 30.288C98.9996 29.232 99.6076 28.32 100.376 27.552C101.16 26.768 102.072 26.152 103.112 25.704C104.152 25.24 105.264 25.008 106.448 25.008C107.632 25.008 108.744 25.24 109.784 25.704C110.84 26.152 111.752 26.768 112.52 27.552C113.304 28.32 113.92 29.232 114.368 30.288C114.832 31.328 115.064 32.44 115.064 33.624C115.064 34.808 114.832 35.92 114.368 36.96C113.92 38 113.304 38.912 112.52 39.696C111.752 40.464 110.84 41.072 109.784 41.52C108.744 41.968 107.632 42.192 106.448 42.192C105.264 42.192 104.152 41.968 103.112 41.52C102.072 41.072 101.16 40.464 100.376 39.696C99.6076 38.912 98.9996 38 98.5516 36.96C98.1036 35.92 97.8796 34.808 97.8796 33.624ZM99.3676 33.624C99.3676 34.616 99.5516 35.544 99.9196 36.408C100.288 37.272 100.792 38.032 101.432 38.688C102.072 39.328 102.824 39.84 103.688 40.224C104.552 40.592 105.472 40.776 106.448 40.776C107.424 40.776 108.344 40.592 109.208 40.224C110.072 39.84 110.824 39.328 111.464 38.688C112.12 38.032 112.632 37.272 113 36.408C113.384 35.544 113.576 34.616 113.576 33.624C113.576 32.648 113.384 31.728 113 30.864C112.632 29.984 112.12 29.216 111.464 28.56C110.824 27.904 110.072 27.392 109.208 27.024C108.36 26.64 107.448 26.448 106.472 26.448C105.496 26.448 104.576 26.64 103.712 27.024C102.848 27.392 102.096 27.904 101.456 28.56C100.816 29.216 100.304 29.984 99.9196 30.864C99.5516 31.728 99.3676 32.648 99.3676 33.624ZM123.942 25.2H129.27V26.64H127.278V36.504C127.278 37.192 127.382 37.8 127.59 38.328C127.814 38.856 128.118 39.304 128.502 39.672C128.886 40.024 129.342 40.296 129.87 40.488C130.414 40.68 131.006 40.776 131.646 40.776C132.27 40.776 132.846 40.68 133.374 40.488C133.918 40.296 134.382 40.024 134.766 39.672C135.166 39.304 135.47 38.856 135.678 38.328C135.902 37.8 136.014 37.192 136.014 36.504V26.64H134.046V25.2H139.35V26.64H137.502V36.576C137.502 37.488 137.35 38.296 137.046 39C136.758 39.704 136.35 40.296 135.822 40.776C135.294 41.24 134.67 41.592 133.95 41.832C133.246 42.072 132.478 42.192 131.646 42.192C130.798 42.192 130.014 42.072 129.294 41.832C128.59 41.592 127.974 41.24 127.446 40.776C126.934 40.296 126.526 39.704 126.222 39C125.934 38.296 125.79 37.488 125.79 36.576V26.64H123.942V25.2ZM141.028 25.2H146.356V26.64H144.988C145.548 27.504 146.1 28.352 146.644 29.184C147.204 30.016 147.756 30.856 148.3 31.704L148.588 32.256L148.852 31.704L152.14 26.64H150.796V25.2H156.124V26.64H153.964L149.5 33.552C150.268 34.736 151.036 35.912 151.804 37.08C152.572 38.232 153.34 39.4 154.108 40.584H156.124V42H150.796V40.584H152.236L149.02 35.664C148.924 35.504 148.836 35.344 148.756 35.184C148.676 35.008 148.58 34.84 148.468 34.68L148.204 35.256C147.628 36.152 147.052 37.04 146.476 37.92C145.9 38.8 145.332 39.688 144.772 40.584H146.356V42H141.028V40.584H142.924L147.58 33.408L143.164 26.64H141.028V25.2Z" fill="#F5F5F5"/>
</g>
<path d="M76.5937 72.044C76.5937 72.8093 76.4793 73.4977 76.2507 74.109C76.022 74.7203 75.7 75.2407 75.2847 75.67C74.8693 76.0993 74.3723 76.4283 73.7937 76.657C73.215 76.8857 72.5733 77 71.8687 77H68.2567V67.095H71.8687C72.5733 67.095 73.215 67.2093 73.7937 67.438C74.3723 67.6667 74.8693 67.9957 75.2847 68.425C75.7 68.8543 76.022 69.3747 76.2507 69.986C76.4793 70.5973 76.5937 71.2833 76.5937 72.044ZM75.8517 72.044C75.8517 71.3533 75.756 70.7373 75.5647 70.196C75.3733 69.6547 75.1027 69.1973 74.7527 68.824C74.4073 68.4507 73.9897 68.166 73.4997 67.97C73.0097 67.774 72.466 67.676 71.8687 67.676H68.9777V76.419H71.8687C72.466 76.419 73.0097 76.321 73.4997 76.125C73.9897 75.929 74.4073 75.6443 74.7527 75.271C75.1027 74.8977 75.3733 74.4403 75.5647 73.899C75.756 73.3577 75.8517 72.7393 75.8517 72.044ZM79.8734 77H79.1524V67.095H79.8734V77ZM87.865 68.299C87.823 68.3783 87.7623 68.418 87.683 68.418C87.6223 68.418 87.543 68.376 87.445 68.292C87.3517 68.2033 87.2233 68.1077 87.06 68.005C86.8967 67.8977 86.6913 67.7997 86.444 67.711C86.2013 67.6223 85.9003 67.578 85.541 67.578C85.1817 67.578 84.8643 67.6293 84.589 67.732C84.3183 67.8347 84.0897 67.9747 83.903 68.152C83.721 68.3293 83.581 68.5347 83.483 68.768C83.3897 69.0013 83.343 69.2463 83.343 69.503C83.343 69.839 83.413 70.1167 83.553 70.336C83.6977 70.5553 83.8867 70.742 84.12 70.896C84.3533 71.05 84.617 71.1807 84.911 71.288C85.2097 71.3907 85.5153 71.4933 85.828 71.596C86.1407 71.6987 86.444 71.813 86.738 71.939C87.0367 72.0603 87.3027 72.2143 87.536 72.401C87.7693 72.5877 87.956 72.8187 88.096 73.094C88.2407 73.3647 88.313 73.703 88.313 74.109C88.313 74.5243 88.2407 74.9163 88.096 75.285C87.956 75.649 87.7507 75.9663 87.48 76.237C87.2093 76.5077 86.878 76.7223 86.486 76.881C86.094 77.035 85.646 77.112 85.142 77.112C84.4887 77.112 83.9263 76.9977 83.455 76.769C82.9837 76.5357 82.5707 76.2183 82.216 75.817L82.412 75.509C82.468 75.439 82.5333 75.404 82.608 75.404C82.65 75.404 82.7037 75.432 82.769 75.488C82.8343 75.544 82.9137 75.614 83.007 75.698C83.1003 75.7773 83.2123 75.866 83.343 75.964C83.4737 76.0573 83.6253 76.146 83.798 76.23C83.9707 76.3093 84.169 76.377 84.393 76.433C84.617 76.489 84.8713 76.517 85.156 76.517C85.548 76.517 85.898 76.4587 86.206 76.342C86.514 76.2207 86.773 76.0573 86.983 75.852C87.1977 75.6467 87.361 75.404 87.473 75.124C87.585 74.8393 87.641 74.536 87.641 74.214C87.641 73.864 87.5687 73.577 87.424 73.353C87.284 73.1243 87.0973 72.9353 86.864 72.786C86.6307 72.632 86.3647 72.5037 86.066 72.401C85.772 72.2983 85.4687 72.198 85.156 72.1C84.8433 72.002 84.5377 71.8923 84.239 71.771C83.945 71.6497 83.6813 71.4957 83.448 71.309C83.2147 71.1177 83.0257 70.882 82.881 70.602C82.741 70.3173 82.671 69.9627 82.671 69.538C82.671 69.2067 82.734 68.887 82.86 68.579C82.986 68.271 83.1703 68.0003 83.413 67.767C83.6557 67.529 83.9543 67.34 84.309 67.2C84.6683 67.0553 85.0767 66.983 85.534 66.983C86.0473 66.983 86.507 67.0647 86.913 67.228C87.3237 67.3913 87.697 67.641 88.033 67.977L87.865 68.299ZM96.3274 67.095V67.69H91.1124V71.694H95.4524V72.275H91.1124V76.405H96.3274V77H90.3914V67.095H96.3274ZM99.0129 67.095C99.0783 67.095 99.1296 67.1043 99.1669 67.123C99.2043 67.137 99.2439 67.172 99.2859 67.228L105.698 75.81C105.684 75.67 105.677 75.5347 105.677 75.404V67.095H106.307V77H105.964C105.857 77 105.77 76.9533 105.705 76.86L99.2649 68.264C99.2789 68.404 99.2859 68.537 99.2859 68.663V77H98.6629V67.095H99.0129ZM103.577 65.688C103.773 65.688 103.922 65.625 104.025 65.499C104.128 65.3683 104.181 65.2027 104.186 65.002H104.564C104.564 65.1653 104.543 65.317 104.501 65.457C104.459 65.5923 104.398 65.7137 104.319 65.821C104.24 65.9237 104.137 66.0053 104.011 66.066C103.89 66.122 103.75 66.15 103.591 66.15C103.437 66.15 103.29 66.1127 103.15 66.038C103.01 65.9633 102.875 65.884 102.744 65.8C102.613 65.7113 102.485 65.6297 102.359 65.555C102.238 65.4803 102.114 65.443 101.988 65.443C101.792 65.443 101.643 65.5083 101.54 65.639C101.442 65.7697 101.388 65.933 101.379 66.129H100.987C100.987 65.9703 101.008 65.821 101.05 65.681C101.097 65.541 101.162 65.4197 101.246 65.317C101.33 65.2097 101.433 65.128 101.554 65.072C101.675 65.0113 101.815 64.981 101.974 64.981C102.133 64.981 102.282 65.0183 102.422 65.093C102.562 65.1677 102.697 65.2493 102.828 65.338C102.959 65.422 103.085 65.5013 103.206 65.576C103.327 65.6507 103.451 65.688 103.577 65.688ZM118.079 72.044C118.079 72.8093 117.965 73.5047 117.736 74.13C117.507 74.7507 117.185 75.2827 116.77 75.726C116.355 76.1647 115.858 76.5053 115.279 76.748C114.7 76.986 114.059 77.105 113.354 77.105C112.659 77.105 112.022 76.986 111.443 76.748C110.864 76.5053 110.367 76.1647 109.952 75.726C109.537 75.2827 109.212 74.7507 108.979 74.13C108.75 73.5047 108.636 72.8093 108.636 72.044C108.636 71.2833 108.75 70.5927 108.979 69.972C109.212 69.3467 109.537 68.8147 109.952 68.376C110.367 67.9327 110.864 67.5897 111.443 67.347C112.022 67.1043 112.659 66.983 113.354 66.983C114.059 66.983 114.7 67.1043 115.279 67.347C115.858 67.585 116.355 67.9257 116.77 68.369C117.185 68.8123 117.507 69.3467 117.736 69.972C117.965 70.5927 118.079 71.2833 118.079 72.044ZM117.337 72.044C117.337 71.3533 117.241 70.7327 117.05 70.182C116.859 69.6313 116.588 69.1647 116.238 68.782C115.893 68.3993 115.475 68.1077 114.985 67.907C114.495 67.7017 113.951 67.599 113.354 67.599C112.766 67.599 112.227 67.7017 111.737 67.907C111.252 68.1077 110.832 68.3993 110.477 68.782C110.127 69.1647 109.854 69.6313 109.658 70.182C109.467 70.7327 109.371 71.3533 109.371 72.044C109.371 72.7393 109.467 73.3623 109.658 73.913C109.854 74.459 110.127 74.9233 110.477 75.306C110.832 75.6887 111.252 75.9803 111.737 76.181C112.227 76.3817 112.766 76.482 113.354 76.482C113.951 76.482 114.495 76.3817 114.985 76.181C115.475 75.9803 115.893 75.6887 116.238 75.306C116.588 74.9233 116.859 74.459 117.05 73.913C117.241 73.3623 117.337 72.7393 117.337 72.044ZM53.7942 84.095V84.69H48.5792V88.694H52.9192V89.275H48.5792V93.405H53.7942V94H47.8582V84.095H53.7942ZM60.9177 85.299C60.8757 85.3783 60.8151 85.418 60.7357 85.418C60.6751 85.418 60.5957 85.376 60.4977 85.292C60.4044 85.2033 60.2761 85.1077 60.1127 85.005C59.9494 84.8977 59.7441 84.7997 59.4967 84.711C59.2541 84.6223 58.9531 84.578 58.5937 84.578C58.2344 84.578 57.9171 84.6293 57.6417 84.732C57.3711 84.8347 57.1424 84.9747 56.9557 85.152C56.7737 85.3293 56.6337 85.5347 56.5357 85.768C56.4424 86.0013 56.3957 86.2463 56.3957 86.503C56.3957 86.839 56.4657 87.1167 56.6057 87.336C56.7504 87.5553 56.9394 87.742 57.1727 87.896C57.4061 88.05 57.6697 88.1807 57.9637 88.288C58.2624 88.3907 58.5681 88.4933 58.8807 88.596C59.1934 88.6987 59.4967 88.813 59.7907 88.939C60.0894 89.0603 60.3554 89.2143 60.5887 89.401C60.8221 89.5877 61.0087 89.8187 61.1487 90.094C61.2934 90.3647 61.3657 90.703 61.3657 91.109C61.3657 91.5243 61.2934 91.9163 61.1487 92.285C61.0087 92.649 60.8034 92.9663 60.5327 93.237C60.2621 93.5077 59.9307 93.7223 59.5387 93.881C59.1467 94.035 58.6987 94.112 58.1947 94.112C57.5414 94.112 56.9791 93.9977 56.5077 93.769C56.0364 93.5357 55.6234 93.2183 55.2687 92.817L55.4647 92.509C55.5207 92.439 55.5861 92.404 55.6607 92.404C55.7027 92.404 55.7564 92.432 55.8217 92.488C55.8871 92.544 55.9664 92.614 56.0597 92.698C56.1531 92.7773 56.2651 92.866 56.3957 92.964C56.5264 93.0573 56.6781 93.146 56.8507 93.23C57.0234 93.3093 57.2217 93.377 57.4457 93.433C57.6697 93.489 57.9241 93.517 58.2087 93.517C58.6007 93.517 58.9507 93.4587 59.2587 93.342C59.5667 93.2207 59.8257 93.0573 60.0357 92.852C60.2504 92.6467 60.4137 92.404 60.5257 92.124C60.6377 91.8393 60.6937 91.536 60.6937 91.214C60.6937 90.864 60.6214 90.577 60.4767 90.353C60.3367 90.1243 60.1501 89.9353 59.9167 89.786C59.6834 89.632 59.4174 89.5037 59.1187 89.401C58.8247 89.2983 58.5214 89.198 58.2087 89.1C57.8961 89.002 57.5904 88.8923 57.2917 88.771C56.9977 88.6497 56.7341 88.4957 56.5007 88.309C56.2674 88.1177 56.0784 87.882 55.9337 87.602C55.7937 87.3173 55.7237 86.9627 55.7237 86.538C55.7237 86.2067 55.7867 85.887 55.9127 85.579C56.0387 85.271 56.2231 85.0003 56.4657 84.767C56.7084 84.529 57.0071 84.34 57.3617 84.2C57.7211 84.0553 58.1294 83.983 58.5867 83.983C59.1001 83.983 59.5597 84.0647 59.9657 84.228C60.3764 84.3913 60.7497 84.641 61.0857 84.977L60.9177 85.299ZM69.9122 84.095V84.704H66.4332V94H65.7192V84.704H62.2192V84.095H69.9122ZM72.5576 89.52V94H71.8436V84.095H74.3706C75.514 84.095 76.368 84.3167 76.9326 84.76C77.4973 85.1987 77.7796 85.845 77.7796 86.699C77.7796 87.077 77.7143 87.4223 77.5836 87.735C77.453 88.0477 77.264 88.323 77.0166 88.561C76.774 88.7943 76.48 88.988 76.1346 89.142C75.7893 89.2913 75.3996 89.3893 74.9656 89.436C75.0776 89.506 75.178 89.5993 75.2666 89.716L78.6756 94H78.0526C77.978 94 77.9126 93.986 77.8566 93.958C77.8053 93.93 77.754 93.8833 77.7026 93.818L74.5316 89.8C74.4523 89.6973 74.366 89.625 74.2726 89.583C74.184 89.541 74.044 89.52 73.8526 89.52H72.5576ZM72.5576 88.988H74.2796C74.7183 88.988 75.1103 88.9367 75.4556 88.834C75.8056 88.7267 76.0996 88.575 76.3376 88.379C76.5803 88.183 76.7646 87.9473 76.8906 87.672C77.0166 87.3967 77.0796 87.0863 77.0796 86.741C77.0796 86.0363 76.8486 85.5137 76.3866 85.173C75.9246 84.8323 75.2526 84.662 74.3706 84.662H72.5576V88.988ZM87.9207 94H87.3677C87.3023 94 87.2487 93.9837 87.2067 93.951C87.1647 93.9137 87.132 93.867 87.1087 93.811L85.9397 90.934H81.0747L79.9127 93.811C79.894 93.8623 79.8613 93.9067 79.8147 93.944C79.768 93.9813 79.712 94 79.6467 94H79.1007L83.1537 84.095H83.8677L87.9207 94ZM81.2917 90.402H85.7297L83.7067 85.397C83.674 85.3177 83.6413 85.229 83.6087 85.131C83.576 85.0283 83.5433 84.921 83.5107 84.809C83.478 84.921 83.4453 85.0283 83.4127 85.131C83.38 85.229 83.3473 85.32 83.3147 85.404L81.2917 90.402ZM95.1505 84.095V84.704H91.6715V94H90.9575V84.704H87.4575V84.095H95.1505ZM102.808 84.095V84.69H97.5929V88.694H101.933V89.275H97.5929V93.405H102.808V94H96.8719V84.095H102.808ZM101.926 81.61L99.8819 83.122C99.8353 83.1547 99.7909 83.178 99.7489 83.192C99.7116 83.2013 99.6649 83.206 99.6089 83.206H99.1189L100.708 81.764C100.773 81.7033 100.834 81.6637 100.89 81.645C100.946 81.6217 101.03 81.61 101.142 81.61H101.926ZM109.399 93.531C109.74 93.531 110.05 93.5147 110.33 93.482C110.61 93.4447 110.869 93.391 111.107 93.321C111.35 93.251 111.579 93.167 111.793 93.069C112.013 92.9663 112.232 92.852 112.451 92.726V90.059H110.547C110.496 90.059 110.452 90.0427 110.414 90.01C110.382 89.9773 110.365 89.94 110.365 89.898V89.506H113.102V93.027C112.855 93.1997 112.598 93.3537 112.332 93.489C112.066 93.6243 111.782 93.7387 111.478 93.832C111.175 93.9207 110.848 93.9883 110.498 94.035C110.148 94.0863 109.766 94.112 109.35 94.112C108.636 94.112 107.983 93.993 107.39 93.755C106.802 93.5123 106.296 93.1717 105.871 92.733C105.451 92.2897 105.125 91.7553 104.891 91.13C104.658 90.5047 104.541 89.8093 104.541 89.044C104.541 88.2787 104.658 87.5857 104.891 86.965C105.125 86.3397 105.456 85.8077 105.885 85.369C106.315 84.9257 106.835 84.585 107.446 84.347C108.062 84.1043 108.751 83.983 109.511 83.983C109.889 83.983 110.237 84.0087 110.554 84.06C110.876 84.1113 111.175 84.1883 111.45 84.291C111.726 84.389 111.982 84.5127 112.22 84.662C112.458 84.8067 112.687 84.9747 112.906 85.166L112.717 85.474C112.675 85.544 112.617 85.579 112.542 85.579C112.5 85.579 112.461 85.5697 112.423 85.551C112.353 85.523 112.251 85.4577 112.115 85.355C111.985 85.2523 111.805 85.145 111.576 85.033C111.352 84.921 111.07 84.8207 110.729 84.732C110.389 84.6433 109.976 84.599 109.49 84.599C108.846 84.599 108.265 84.7017 107.747 84.907C107.229 85.1123 106.786 85.4063 106.417 85.789C106.053 86.1717 105.771 86.6383 105.57 87.189C105.374 87.7397 105.276 88.358 105.276 89.044C105.276 89.744 105.377 90.3717 105.577 90.927C105.778 91.4823 106.058 91.9537 106.417 92.341C106.781 92.7237 107.215 93.0177 107.719 93.223C108.228 93.4283 108.788 93.531 109.399 93.531ZM116.596 94H115.875V84.095H116.596V94ZM126.996 92.334C127.042 92.334 127.082 92.3503 127.115 92.383L127.395 92.684C127.189 92.9033 126.965 93.1017 126.723 93.279C126.48 93.4517 126.214 93.601 125.925 93.727C125.64 93.8483 125.325 93.9417 124.98 94.007C124.639 94.077 124.263 94.112 123.853 94.112C123.167 94.112 122.537 93.993 121.963 93.755C121.393 93.5123 120.903 93.1717 120.493 92.733C120.087 92.2897 119.769 91.7553 119.541 91.13C119.312 90.5047 119.198 89.8093 119.198 89.044C119.198 88.2927 119.314 87.6067 119.548 86.986C119.786 86.3653 120.117 85.8333 120.542 85.39C120.971 84.942 121.482 84.5967 122.075 84.354C122.672 84.1067 123.33 83.983 124.049 83.983C124.408 83.983 124.737 84.011 125.036 84.067C125.334 84.1183 125.612 84.1953 125.869 84.298C126.13 84.396 126.375 84.5197 126.604 84.669C126.832 84.8183 127.056 84.991 127.276 85.187L127.059 85.502C127.021 85.558 126.963 85.586 126.884 85.586C126.842 85.586 126.788 85.5627 126.723 85.516C126.657 85.4647 126.573 85.404 126.471 85.334C126.373 85.2593 126.251 85.18 126.107 85.096C125.967 85.0073 125.799 84.928 125.603 84.858C125.407 84.7833 125.18 84.7227 124.924 84.676C124.667 84.6247 124.375 84.599 124.049 84.599C123.447 84.599 122.894 84.704 122.39 84.914C121.886 85.1193 121.452 85.4157 121.088 85.803C120.724 86.1857 120.439 86.6523 120.234 87.203C120.033 87.749 119.933 88.3627 119.933 89.044C119.933 89.744 120.033 90.3693 120.234 90.92C120.434 91.4707 120.712 91.9373 121.067 92.32C121.421 92.698 121.839 92.9897 122.32 93.195C122.805 93.3957 123.33 93.496 123.895 93.496C124.249 93.496 124.564 93.4727 124.84 93.426C125.12 93.3793 125.376 93.3093 125.61 93.216C125.843 93.1227 126.06 93.0083 126.261 92.873C126.461 92.7377 126.66 92.579 126.856 92.397C126.879 92.3783 126.9 92.3643 126.919 92.355C126.942 92.341 126.968 92.334 126.996 92.334ZM138.477 89.044C138.477 89.8093 138.363 90.5047 138.134 91.13C137.906 91.7507 137.584 92.2827 137.168 92.726C136.753 93.1647 136.256 93.5053 135.677 93.748C135.099 93.986 134.457 94.105 133.752 94.105C133.057 94.105 132.42 93.986 131.841 93.748C131.263 93.5053 130.766 93.1647 130.35 92.726C129.935 92.2827 129.611 91.7507 129.377 91.13C129.149 90.5047 129.034 89.8093 129.034 89.044C129.034 88.2833 129.149 87.5927 129.377 86.972C129.611 86.3467 129.935 85.8147 130.35 85.376C130.766 84.9327 131.263 84.5897 131.841 84.347C132.42 84.1043 133.057 83.983 133.752 83.983C134.457 83.983 135.099 84.1043 135.677 84.347C136.256 84.585 136.753 84.9257 137.168 85.369C137.584 85.8123 137.906 86.3467 138.134 86.972C138.363 87.5927 138.477 88.2833 138.477 89.044ZM137.735 89.044C137.735 88.3533 137.64 87.7327 137.448 87.182C137.257 86.6313 136.986 86.1647 136.636 85.782C136.291 85.3993 135.873 85.1077 135.383 84.907C134.893 84.7017 134.35 84.599 133.752 84.599C133.164 84.599 132.625 84.7017 132.135 84.907C131.65 85.1077 131.23 85.3993 130.875 85.782C130.525 86.1647 130.252 86.6313 130.056 87.182C129.865 87.7327 129.769 88.3533 129.769 89.044C129.769 89.7393 129.865 90.3623 130.056 90.913C130.252 91.459 130.525 91.9233 130.875 92.306C131.23 92.6887 131.65 92.9803 132.135 93.181C132.625 93.3817 133.164 93.482 133.752 93.482C134.35 93.482 134.893 93.3817 135.383 93.181C135.873 92.9803 136.291 92.6887 136.636 92.306C136.986 91.9233 137.257 91.459 137.448 90.913C137.64 90.3623 137.735 89.7393 137.735 89.044ZM42.7529 107.01V111H42.0389V101.095H44.5939C45.7559 101.095 46.6309 101.349 47.2189 101.858C47.8116 102.367 48.1079 103.092 48.1079 104.035C48.1079 104.469 48.0263 104.868 47.8629 105.232C47.7043 105.596 47.4733 105.911 47.1699 106.177C46.8666 106.438 46.4979 106.644 46.0639 106.793C45.6299 106.938 45.1399 107.01 44.5939 107.01H42.7529ZM42.7529 106.436H44.5939C45.0326 106.436 45.4246 106.375 45.7699 106.254C46.1153 106.133 46.4069 105.965 46.6449 105.75C46.8876 105.535 47.0719 105.283 47.1979 104.994C47.3286 104.7 47.3939 104.38 47.3939 104.035C47.3939 103.274 47.1583 102.689 46.6869 102.278C46.2203 101.867 45.5226 101.662 44.5939 101.662H42.7529V106.436ZM56.0774 101.095V101.69H50.8624V105.694H55.2024V106.275H50.8624V110.405H56.0774V111H50.1414V101.095H56.0774ZM58.7629 101.095C58.8283 101.095 58.8796 101.104 58.9169 101.123C58.9543 101.137 58.9939 101.172 59.0359 101.228L65.4479 109.81C65.4339 109.67 65.4269 109.535 65.4269 109.404V101.095H66.0569V111H65.7139C65.6066 111 65.5203 110.953 65.4549 110.86L59.0149 102.264C59.0289 102.404 59.0359 102.537 59.0359 102.663V111H58.4129V101.095H58.7629ZM73.783 102.299C73.741 102.378 73.6803 102.418 73.601 102.418C73.5403 102.418 73.461 102.376 73.363 102.292C73.2696 102.203 73.1413 102.108 72.978 102.005C72.8146 101.898 72.6093 101.8 72.362 101.711C72.1193 101.622 71.8183 101.578 71.459 101.578C71.0996 101.578 70.7823 101.629 70.507 101.732C70.2363 101.835 70.0076 101.975 69.821 102.152C69.639 102.329 69.499 102.535 69.401 102.768C69.3076 103.001 69.261 103.246 69.261 103.503C69.261 103.839 69.331 104.117 69.471 104.336C69.6156 104.555 69.8046 104.742 70.038 104.896C70.2713 105.05 70.535 105.181 70.829 105.288C71.1276 105.391 71.4333 105.493 71.746 105.596C72.0586 105.699 72.362 105.813 72.656 105.939C72.9546 106.06 73.2206 106.214 73.454 106.401C73.6873 106.588 73.874 106.819 74.014 107.094C74.1586 107.365 74.231 107.703 74.231 108.109C74.231 108.524 74.1586 108.916 74.014 109.285C73.874 109.649 73.6686 109.966 73.398 110.237C73.1273 110.508 72.796 110.722 72.404 110.881C72.012 111.035 71.564 111.112 71.06 111.112C70.4066 111.112 69.8443 110.998 69.373 110.769C68.9016 110.536 68.4886 110.218 68.134 109.817L68.33 109.509C68.386 109.439 68.4513 109.404 68.526 109.404C68.568 109.404 68.6216 109.432 68.687 109.488C68.7523 109.544 68.8316 109.614 68.925 109.698C69.0183 109.777 69.1303 109.866 69.261 109.964C69.3916 110.057 69.5433 110.146 69.716 110.23C69.8886 110.309 70.087 110.377 70.311 110.433C70.535 110.489 70.7893 110.517 71.074 110.517C71.466 110.517 71.816 110.459 72.124 110.342C72.432 110.221 72.691 110.057 72.901 109.852C73.1156 109.647 73.279 109.404 73.391 109.124C73.503 108.839 73.559 108.536 73.559 108.214C73.559 107.864 73.4866 107.577 73.342 107.353C73.202 107.124 73.0153 106.935 72.782 106.786C72.5486 106.632 72.2826 106.504 71.984 106.401C71.69 106.298 71.3866 106.198 71.074 106.1C70.7613 106.002 70.4556 105.892 70.157 105.771C69.863 105.65 69.5993 105.496 69.366 105.309C69.1326 105.118 68.9436 104.882 68.799 104.602C68.659 104.317 68.589 103.963 68.589 103.538C68.589 103.207 68.652 102.887 68.778 102.579C68.904 102.271 69.0883 102 69.331 101.767C69.5736 101.529 69.8723 101.34 70.227 101.2C70.5863 101.055 70.9946 100.983 71.452 100.983C71.9653 100.983 72.425 101.065 72.831 101.228C73.2416 101.391 73.615 101.641 73.951 101.977L73.783 102.299ZM83.7644 111H83.2114C83.1461 111 83.0924 110.984 83.0504 110.951C83.0084 110.914 82.9758 110.867 82.9524 110.811L81.7834 107.934H76.9184L75.7564 110.811C75.7377 110.862 75.7051 110.907 75.6584 110.944C75.6117 110.981 75.5557 111 75.4904 111H74.9444L78.9974 101.095H79.7114L83.7644 111ZM77.1354 107.402H81.5734L79.5504 102.397C79.5177 102.318 79.4851 102.229 79.4524 102.131C79.4197 102.028 79.3871 101.921 79.3544 101.809C79.3217 101.921 79.2891 102.028 79.2564 102.131C79.2237 102.229 79.1911 102.32 79.1584 102.404L77.1354 107.402ZM93.6699 106.044C93.6699 106.809 93.5555 107.498 93.3269 108.109C93.0982 108.72 92.7762 109.241 92.3609 109.67C91.9455 110.099 91.4485 110.428 90.8699 110.657C90.2912 110.886 89.6495 111 88.9449 111H85.3329V101.095H88.9449C89.6495 101.095 90.2912 101.209 90.8699 101.438C91.4485 101.667 91.9455 101.996 92.3609 102.425C92.7762 102.854 93.0982 103.375 93.3269 103.986C93.5555 104.597 93.6699 105.283 93.6699 106.044ZM92.9279 106.044C92.9279 105.353 92.8322 104.737 92.6409 104.196C92.4495 103.655 92.1789 103.197 91.8289 102.824C91.4835 102.451 91.0659 102.166 90.5759 101.97C90.0859 101.774 89.5422 101.676 88.9449 101.676H86.0539V110.419H88.9449C89.5422 110.419 90.0859 110.321 90.5759 110.125C91.0659 109.929 91.4835 109.644 91.8289 109.271C92.1789 108.898 92.4495 108.44 92.6409 107.899C92.8322 107.358 92.9279 106.739 92.9279 106.044ZM104.804 106.044C104.804 106.809 104.689 107.505 104.461 108.13C104.232 108.751 103.91 109.283 103.495 109.726C103.079 110.165 102.582 110.505 102.004 110.748C101.425 110.986 100.783 111.105 100.079 111.105C99.3832 111.105 98.7462 110.986 98.1676 110.748C97.5889 110.505 97.0919 110.165 96.6766 109.726C96.2612 109.283 95.9369 108.751 95.7036 108.13C95.4749 107.505 95.3606 106.809 95.3606 106.044C95.3606 105.283 95.4749 104.593 95.7036 103.972C95.9369 103.347 96.2612 102.815 96.6766 102.376C97.0919 101.933 97.5889 101.59 98.1676 101.347C98.7462 101.104 99.3832 100.983 100.079 100.983C100.783 100.983 101.425 101.104 102.004 101.347C102.582 101.585 103.079 101.926 103.495 102.369C103.91 102.812 104.232 103.347 104.461 103.972C104.689 104.593 104.804 105.283 104.804 106.044ZM104.062 106.044C104.062 105.353 103.966 104.733 103.775 104.182C103.583 103.631 103.313 103.165 102.963 102.782C102.617 102.399 102.2 102.108 101.71 101.907C101.22 101.702 100.676 101.599 100.079 101.599C99.4906 101.599 98.9516 101.702 98.4616 101.907C97.9762 102.108 97.5562 102.399 97.2016 102.782C96.8516 103.165 96.5786 103.631 96.3826 104.182C96.1912 104.733 96.0956 105.353 96.0956 106.044C96.0956 106.739 96.1912 107.362 96.3826 107.913C96.5786 108.459 96.8516 108.923 97.2016 109.306C97.5562 109.689 97.9762 109.98 98.4616 110.181C98.9516 110.382 99.4906 110.482 100.079 110.482C100.676 110.482 101.22 110.382 101.71 110.181C102.2 109.98 102.617 109.689 102.963 109.306C103.313 108.923 103.583 108.459 103.775 107.913C103.966 107.362 104.062 106.739 104.062 106.044ZM115.783 101.095V101.69H110.568V105.694H114.908V106.275H110.568V110.405H115.783V111H109.847V101.095H115.783ZM118.468 101.095C118.533 101.095 118.585 101.104 118.622 101.123C118.659 101.137 118.699 101.172 118.741 101.228L125.153 109.81C125.139 109.67 125.132 109.535 125.132 109.404V101.095H125.762V111H125.419C125.312 111 125.225 110.953 125.16 110.86L118.72 102.264C118.734 102.404 118.741 102.537 118.741 102.663V111H118.118V101.095H118.468ZM137.343 101.095V101.69H132.128V105.694H136.468V106.275H132.128V110.405H137.343V111H131.407V101.095H137.343ZM140.393 110.391H145.09V111H139.679V101.095H140.393V110.391ZM66.4968 127.489C66.9728 127.489 67.3975 127.407 67.7708 127.244C68.1488 127.076 68.4685 126.845 68.7298 126.551C68.9911 126.257 69.1895 125.912 69.3248 125.515C69.4648 125.114 69.5348 124.682 69.5348 124.22V118.095H70.2488V124.22C70.2488 124.766 70.1625 125.277 69.9898 125.753C69.8171 126.224 69.5675 126.637 69.2408 126.992C68.9188 127.342 68.5245 127.617 68.0578 127.818C67.5958 128.019 67.0755 128.119 66.4968 128.119C65.9181 128.119 65.3955 128.019 64.9288 127.818C64.4668 127.617 64.0725 127.342 63.7458 126.992C63.4238 126.637 63.1765 126.224 63.0038 125.753C62.8311 125.277 62.7448 124.766 62.7448 124.22V118.095H63.4658V124.213C63.4658 124.675 63.5335 125.107 63.6688 125.508C63.8088 125.905 64.0071 126.25 64.2638 126.544C64.5251 126.838 64.8425 127.069 65.2158 127.237C65.5938 127.405 66.0208 127.489 66.4968 127.489ZM77.8914 119.299C77.8494 119.378 77.7887 119.418 77.7094 119.418C77.6487 119.418 77.5694 119.376 77.4714 119.292C77.378 119.203 77.2497 119.108 77.0864 119.005C76.923 118.898 76.7177 118.8 76.4704 118.711C76.2277 118.622 75.9267 118.578 75.5674 118.578C75.208 118.578 74.8907 118.629 74.6154 118.732C74.3447 118.835 74.116 118.975 73.9294 119.152C73.7474 119.329 73.6074 119.535 73.5094 119.768C73.416 120.001 73.3694 120.246 73.3694 120.503C73.3694 120.839 73.4394 121.117 73.5794 121.336C73.724 121.555 73.913 121.742 74.1464 121.896C74.3797 122.05 74.6434 122.181 74.9374 122.288C75.236 122.391 75.5417 122.493 75.8544 122.596C76.167 122.699 76.4704 122.813 76.7644 122.939C77.063 123.06 77.329 123.214 77.5624 123.401C77.7957 123.588 77.9824 123.819 78.1224 124.094C78.267 124.365 78.3394 124.703 78.3394 125.109C78.3394 125.524 78.267 125.916 78.1224 126.285C77.9824 126.649 77.777 126.966 77.5064 127.237C77.2357 127.508 76.9044 127.722 76.5124 127.881C76.1204 128.035 75.6724 128.112 75.1684 128.112C74.515 128.112 73.9527 127.998 73.4814 127.769C73.01 127.536 72.597 127.218 72.2424 126.817L72.4384 126.509C72.4944 126.439 72.5597 126.404 72.6344 126.404C72.6764 126.404 72.73 126.432 72.7954 126.488C72.8607 126.544 72.94 126.614 73.0334 126.698C73.1267 126.777 73.2387 126.866 73.3694 126.964C73.5 127.057 73.6517 127.146 73.8244 127.23C73.997 127.309 74.1954 127.377 74.4194 127.433C74.6434 127.489 74.8977 127.517 75.1824 127.517C75.5744 127.517 75.9244 127.459 76.2324 127.342C76.5404 127.221 76.7994 127.057 77.0094 126.852C77.224 126.647 77.3874 126.404 77.4994 126.124C77.6114 125.839 77.6674 125.536 77.6674 125.214C77.6674 124.864 77.595 124.577 77.4504 124.353C77.3104 124.124 77.1237 123.935 76.8904 123.786C76.657 123.632 76.391 123.504 76.0924 123.401C75.7984 123.298 75.495 123.198 75.1824 123.1C74.8697 123.002 74.564 122.892 74.2654 122.771C73.9714 122.65 73.7077 122.496 73.4744 122.309C73.241 122.118 73.052 121.882 72.9074 121.602C72.7674 121.317 72.6974 120.963 72.6974 120.538C72.6974 120.207 72.7604 119.887 72.8864 119.579C73.0124 119.271 73.1967 119 73.4394 118.767C73.682 118.529 73.9807 118.34 74.3354 118.2C74.6947 118.055 75.103 117.983 75.5604 117.983C76.0737 117.983 76.5334 118.065 76.9394 118.228C77.35 118.391 77.7234 118.641 78.0594 118.977L77.8914 119.299ZM84.0788 127.489C84.5548 127.489 84.9795 127.407 85.3528 127.244C85.7308 127.076 86.0505 126.845 86.3118 126.551C86.5731 126.257 86.7715 125.912 86.9068 125.515C87.0468 125.114 87.1168 124.682 87.1168 124.22V118.095H87.8308V124.22C87.8308 124.766 87.7445 125.277 87.5718 125.753C87.3991 126.224 87.1495 126.637 86.8228 126.992C86.5008 127.342 86.1065 127.617 85.6398 127.818C85.1778 128.019 84.6575 128.119 84.0788 128.119C83.5001 128.119 82.9775 128.019 82.5108 127.818C82.0488 127.617 81.6545 127.342 81.3278 126.992C81.0058 126.637 80.7585 126.224 80.5858 125.753C80.4131 125.277 80.3268 124.766 80.3268 124.22V118.095H81.0478V124.213C81.0478 124.675 81.1155 125.107 81.2508 125.508C81.3908 125.905 81.5891 126.25 81.8458 126.544C82.1071 126.838 82.4245 127.069 82.7978 127.237C83.1758 127.405 83.6028 127.489 84.0788 127.489ZM97.7302 128H97.1772C97.1119 128 97.0582 127.984 97.0162 127.951C96.9742 127.914 96.9416 127.867 96.9182 127.811L95.7492 124.934H90.8842L89.7222 127.811C89.7036 127.862 89.6709 127.907 89.6242 127.944C89.5776 127.981 89.5216 128 89.4562 128H88.9102L92.9632 118.095H93.6772L97.7302 128ZM91.1012 124.402H95.5392L93.5162 119.397C93.4836 119.318 93.4509 119.229 93.4182 119.131C93.3856 119.028 93.3529 118.921 93.3202 118.809C93.2876 118.921 93.2549 119.028 93.2222 119.131C93.1896 119.229 93.1569 119.32 93.1242 119.404L91.1012 124.402ZM100.223 123.52V128H99.5087V118.095H102.036C103.179 118.095 104.033 118.317 104.598 118.76C105.162 119.199 105.445 119.845 105.445 120.699C105.445 121.077 105.379 121.422 105.249 121.735C105.118 122.048 104.929 122.323 104.682 122.561C104.439 122.794 104.145 122.988 103.8 123.142C103.454 123.291 103.065 123.389 102.631 123.436C102.743 123.506 102.843 123.599 102.932 123.716L106.341 128H105.718C105.643 128 105.578 127.986 105.522 127.958C105.47 127.93 105.419 127.883 105.368 127.818L102.197 123.8C102.117 123.697 102.031 123.625 101.938 123.583C101.849 123.541 101.709 123.52 101.518 123.52H100.223ZM100.223 122.988H101.945C102.383 122.988 102.775 122.937 103.121 122.834C103.471 122.727 103.765 122.575 104.003 122.379C104.245 122.183 104.43 121.947 104.556 121.672C104.682 121.397 104.745 121.086 104.745 120.741C104.745 120.036 104.514 119.514 104.052 119.173C103.59 118.832 102.918 118.662 102.036 118.662H100.223V122.988ZM109.111 128H108.39V118.095H109.111V128ZM121.148 123.044C121.148 123.809 121.034 124.505 120.805 125.13C120.577 125.751 120.255 126.283 119.839 126.726C119.424 127.165 118.927 127.505 118.348 127.748C117.77 127.986 117.128 128.105 116.423 128.105C115.728 128.105 115.091 127.986 114.512 127.748C113.934 127.505 113.437 127.165 113.021 126.726C112.606 126.283 112.282 125.751 112.048 125.13C111.82 124.505 111.705 123.809 111.705 123.044C111.705 122.283 111.82 121.593 112.048 120.972C112.282 120.347 112.606 119.815 113.021 119.376C113.437 118.933 113.934 118.59 114.512 118.347C115.091 118.104 115.728 117.983 116.423 117.983C117.128 117.983 117.77 118.104 118.348 118.347C118.927 118.585 119.424 118.926 119.839 119.369C120.255 119.812 120.577 120.347 120.805 120.972C121.034 121.593 121.148 122.283 121.148 123.044ZM120.406 123.044C120.406 122.353 120.311 121.733 120.119 121.182C119.928 120.631 119.657 120.165 119.307 119.782C118.962 119.399 118.544 119.108 118.054 118.907C117.564 118.702 117.021 118.599 116.423 118.599C115.835 118.599 115.296 118.702 114.806 118.907C114.321 119.108 113.901 119.399 113.546 119.782C113.196 120.165 112.923 120.631 112.727 121.182C112.536 121.733 112.44 122.353 112.44 123.044C112.44 123.739 112.536 124.362 112.727 124.913C112.923 125.459 113.196 125.923 113.546 126.306C113.901 126.689 114.321 126.98 114.806 127.181C115.296 127.382 115.835 127.482 116.423 127.482C117.021 127.482 117.564 127.382 118.054 127.181C118.544 126.98 118.962 126.689 119.307 126.306C119.657 125.923 119.928 125.459 120.119 124.913C120.311 124.362 120.406 123.739 120.406 123.044ZM122.339 127.461C122.339 127.372 122.355 127.288 122.388 127.209C122.421 127.13 122.465 127.062 122.521 127.006C122.582 126.945 122.649 126.899 122.724 126.866C122.803 126.829 122.89 126.81 122.983 126.81C123.072 126.81 123.156 126.829 123.235 126.866C123.314 126.899 123.382 126.945 123.438 127.006C123.499 127.062 123.545 127.13 123.578 127.209C123.615 127.288 123.634 127.372 123.634 127.461C123.634 127.554 123.615 127.641 123.578 127.72C123.545 127.795 123.499 127.862 123.438 127.923C123.382 127.979 123.314 128.023 123.235 128.056C123.156 128.089 123.072 128.105 122.983 128.105C122.801 128.105 122.647 128.044 122.521 127.923C122.4 127.797 122.339 127.643 122.339 127.461ZM69.2244 162H68.6714C68.606 162 68.5524 161.984 68.5104 161.951C68.4684 161.914 68.4357 161.867 68.4124 161.811L67.2434 158.934H62.3784L61.2164 161.811C61.1977 161.862 61.165 161.907 61.1184 161.944C61.0717 161.981 61.0157 162 60.9504 162H60.4044L64.4574 152.095H65.1714L69.2244 162ZM62.5954 158.402H67.0334L65.0104 153.397C64.9777 153.318 64.945 153.229 64.9124 153.131C64.8797 153.028 64.847 152.921 64.8144 152.809C64.7817 152.921 64.749 153.028 64.7164 153.131C64.6837 153.229 64.651 153.32 64.6184 153.404L62.5954 158.402ZM75.5808 153.299C75.5388 153.378 75.4781 153.418 75.3988 153.418C75.3381 153.418 75.2588 153.376 75.1608 153.292C75.0675 153.203 74.9391 153.108 74.7758 153.005C74.6125 152.898 74.4071 152.8 74.1598 152.711C73.9171 152.622 73.6161 152.578 73.2568 152.578C72.8975 152.578 72.5801 152.629 72.3048 152.732C72.0341 152.835 71.8055 152.975 71.6188 153.152C71.4368 153.329 71.2968 153.535 71.1988 153.768C71.1055 154.001 71.0588 154.246 71.0588 154.503C71.0588 154.839 71.1288 155.117 71.2688 155.336C71.4135 155.555 71.6025 155.742 71.8358 155.896C72.0691 156.05 72.3328 156.181 72.6268 156.288C72.9255 156.391 73.2311 156.493 73.5438 156.596C73.8565 156.699 74.1598 156.813 74.4538 156.939C74.7525 157.06 75.0185 157.214 75.2518 157.401C75.4851 157.588 75.6718 157.819 75.8118 158.094C75.9565 158.365 76.0288 158.703 76.0288 159.109C76.0288 159.524 75.9565 159.916 75.8118 160.285C75.6718 160.649 75.4665 160.966 75.1958 161.237C74.9251 161.508 74.5938 161.722 74.2018 161.881C73.8098 162.035 73.3618 162.112 72.8578 162.112C72.2045 162.112 71.6421 161.998 71.1708 161.769C70.6995 161.536 70.2865 161.218 69.9318 160.817L70.1278 160.509C70.1838 160.439 70.2491 160.404 70.3238 160.404C70.3658 160.404 70.4195 160.432 70.4848 160.488C70.5501 160.544 70.6295 160.614 70.7228 160.698C70.8161 160.777 70.9281 160.866 71.0588 160.964C71.1895 161.057 71.3411 161.146 71.5138 161.23C71.6865 161.309 71.8848 161.377 72.1088 161.433C72.3328 161.489 72.5871 161.517 72.8718 161.517C73.2638 161.517 73.6138 161.459 73.9218 161.342C74.2298 161.221 74.4888 161.057 74.6988 160.852C74.9135 160.647 75.0768 160.404 75.1888 160.124C75.3008 159.839 75.3568 159.536 75.3568 159.214C75.3568 158.864 75.2845 158.577 75.1398 158.353C74.9998 158.124 74.8131 157.935 74.5798 157.786C74.3465 157.632 74.0805 157.504 73.7818 157.401C73.4878 157.298 73.1845 157.198 72.8718 157.1C72.5591 157.002 72.2535 156.892 71.9548 156.771C71.6608 156.65 71.3971 156.496 71.1638 156.309C70.9305 156.118 70.7415 155.882 70.5968 155.602C70.4568 155.317 70.3868 154.963 70.3868 154.538C70.3868 154.207 70.4498 153.887 70.5758 153.579C70.7018 153.271 70.8861 153 71.1288 152.767C71.3715 152.529 71.6701 152.34 72.0248 152.2C72.3841 152.055 72.7925 151.983 73.2498 151.983C73.7631 151.983 74.2228 152.065 74.6288 152.228C75.0395 152.391 75.4128 152.641 75.7488 152.977L75.5808 153.299ZM84.0433 152.095V152.69H78.8283V156.694H83.1683V157.275H78.8283V161.405H84.0433V162H78.1073V152.095H84.0433ZM91.1668 153.299C91.1248 153.378 91.0641 153.418 90.9848 153.418C90.9241 153.418 90.8448 153.376 90.7468 153.292C90.6534 153.203 90.5251 153.108 90.3618 153.005C90.1984 152.898 89.9931 152.8 89.7458 152.711C89.5031 152.622 89.2021 152.578 88.8428 152.578C88.4834 152.578 88.1661 152.629 87.8908 152.732C87.6201 152.835 87.3914 152.975 87.2048 153.152C87.0228 153.329 86.8828 153.535 86.7848 153.768C86.6914 154.001 86.6448 154.246 86.6448 154.503C86.6448 154.839 86.7148 155.117 86.8548 155.336C86.9994 155.555 87.1884 155.742 87.4218 155.896C87.6551 156.05 87.9188 156.181 88.2128 156.288C88.5114 156.391 88.8171 156.493 89.1298 156.596C89.4424 156.699 89.7458 156.813 90.0398 156.939C90.3384 157.06 90.6044 157.214 90.8378 157.401C91.0711 157.588 91.2578 157.819 91.3978 158.094C91.5424 158.365 91.6148 158.703 91.6148 159.109C91.6148 159.524 91.5424 159.916 91.3978 160.285C91.2578 160.649 91.0524 160.966 90.7818 161.237C90.5111 161.508 90.1798 161.722 89.7878 161.881C89.3958 162.035 88.9478 162.112 88.4438 162.112C87.7904 162.112 87.2281 161.998 86.7568 161.769C86.2854 161.536 85.8724 161.218 85.5178 160.817L85.7138 160.509C85.7698 160.439 85.8351 160.404 85.9098 160.404C85.9518 160.404 86.0054 160.432 86.0708 160.488C86.1361 160.544 86.2154 160.614 86.3088 160.698C86.4021 160.777 86.5141 160.866 86.6448 160.964C86.7754 161.057 86.9271 161.146 87.0998 161.23C87.2724 161.309 87.4708 161.377 87.6948 161.433C87.9188 161.489 88.1731 161.517 88.4578 161.517C88.8498 161.517 89.1998 161.459 89.5078 161.342C89.8158 161.221 90.0748 161.057 90.2848 160.852C90.4994 160.647 90.6628 160.404 90.7748 160.124C90.8868 159.839 90.9428 159.536 90.9428 159.214C90.9428 158.864 90.8704 158.577 90.7258 158.353C90.5858 158.124 90.3991 157.935 90.1658 157.786C89.9324 157.632 89.6664 157.504 89.3678 157.401C89.0738 157.298 88.7704 157.198 88.4578 157.1C88.1451 157.002 87.8394 156.892 87.5408 156.771C87.2468 156.65 86.9831 156.496 86.7498 156.309C86.5164 156.118 86.3274 155.882 86.1828 155.602C86.0428 155.317 85.9728 154.963 85.9728 154.538C85.9728 154.207 86.0358 153.887 86.1618 153.579C86.2878 153.271 86.4721 153 86.7148 152.767C86.9574 152.529 87.2561 152.34 87.6108 152.2C87.9701 152.055 88.3784 151.983 88.8358 151.983C89.3491 151.983 89.8088 152.065 90.2148 152.228C90.6254 152.391 90.9988 152.641 91.3348 152.977L91.1668 153.299ZM102.527 157.044C102.527 157.809 102.413 158.505 102.184 159.13C101.956 159.751 101.634 160.283 101.218 160.726C100.803 161.165 100.306 161.505 99.7272 161.748C99.1485 161.986 98.5069 162.105 97.8022 162.105C97.1069 162.105 96.4699 161.986 95.8912 161.748C95.3125 161.505 94.8155 161.165 94.4002 160.726C93.9849 160.283 93.6605 159.751 93.4272 159.13C93.1985 158.505 93.0842 157.809 93.0842 157.044C93.0842 156.283 93.1985 155.593 93.4272 154.972C93.6605 154.347 93.9849 153.815 94.4002 153.376C94.8155 152.933 95.3125 152.59 95.8912 152.347C96.4699 152.104 97.1069 151.983 97.8022 151.983C98.5069 151.983 99.1485 152.104 99.7272 152.347C100.306 152.585 100.803 152.926 101.218 153.369C101.634 153.812 101.956 154.347 102.184 154.972C102.413 155.593 102.527 156.283 102.527 157.044ZM101.785 157.044C101.785 156.353 101.69 155.733 101.498 155.182C101.307 154.631 101.036 154.165 100.686 153.782C100.341 153.399 99.9232 153.108 99.4332 152.907C98.9432 152.702 98.3995 152.599 97.8022 152.599C97.2142 152.599 96.6752 152.702 96.1852 152.907C95.6999 153.108 95.2799 153.399 94.9252 153.782C94.5752 154.165 94.3022 154.631 94.1062 155.182C93.9149 155.733 93.8192 156.353 93.8192 157.044C93.8192 157.739 93.9149 158.362 94.1062 158.913C94.3022 159.459 94.5752 159.923 94.9252 160.306C95.2799 160.689 95.6999 160.98 96.1852 161.181C96.6752 161.382 97.2142 161.482 97.8022 161.482C98.3995 161.482 98.9432 161.382 99.4332 161.181C99.9232 160.98 100.341 160.689 100.686 160.306C101.036 159.923 101.307 159.459 101.498 158.913C101.69 158.362 101.785 157.739 101.785 157.044ZM105.787 157.52V162H105.073V152.095H107.6C108.743 152.095 109.597 152.317 110.162 152.76C110.727 153.199 111.009 153.845 111.009 154.699C111.009 155.077 110.944 155.422 110.813 155.735C110.682 156.048 110.493 156.323 110.246 156.561C110.003 156.794 109.709 156.988 109.364 157.142C109.019 157.291 108.629 157.389 108.195 157.436C108.307 157.506 108.407 157.599 108.496 157.716L111.905 162H111.282C111.207 162 111.142 161.986 111.086 161.958C111.035 161.93 110.983 161.883 110.932 161.818L107.761 157.8C107.682 157.697 107.595 157.625 107.502 157.583C107.413 157.541 107.273 157.52 107.082 157.52H105.787ZM105.787 156.988H107.509C107.948 156.988 108.34 156.937 108.685 156.834C109.035 156.727 109.329 156.575 109.567 156.379C109.81 156.183 109.994 155.947 110.12 155.672C110.246 155.397 110.309 155.086 110.309 154.741C110.309 154.036 110.078 153.514 109.616 153.173C109.154 152.832 108.482 152.662 107.6 152.662H105.787V156.988ZM114.675 162H113.954V152.095H114.675V162ZM116.355 149.61L114.311 151.122C114.264 151.155 114.22 151.178 114.178 151.192C114.141 151.201 114.094 151.206 114.038 151.206H113.548L115.137 149.764C115.202 149.703 115.263 149.664 115.319 149.645C115.375 149.622 115.459 149.61 115.571 149.61H116.355ZM125.334 162H124.781C124.715 162 124.662 161.984 124.62 161.951C124.578 161.914 124.545 161.867 124.522 161.811L123.353 158.934H118.488L117.326 161.811C117.307 161.862 117.274 161.907 117.228 161.944C117.181 161.981 117.125 162 117.06 162H116.514L120.567 152.095H121.281L125.334 162ZM118.705 158.402H123.143L121.12 153.397C121.087 153.318 121.054 153.229 121.022 153.131C120.989 153.028 120.956 152.921 120.924 152.809C120.891 152.921 120.858 153.028 120.826 153.131C120.793 153.229 120.76 153.32 120.728 153.404L118.705 158.402ZM45.2919 174.912V179H44.5709V174.912L40.9099 169.095H41.5329C41.5983 169.095 41.6496 169.111 41.6869 169.144C41.7289 169.172 41.7686 169.214 41.8059 169.27L44.6409 173.82C44.7063 173.927 44.7623 174.032 44.8089 174.135C44.8556 174.233 44.8976 174.333 44.9349 174.436C44.9723 174.333 45.0143 174.233 45.0609 174.135C45.1076 174.032 45.1636 173.927 45.2289 173.82L48.0569 169.27C48.0849 169.219 48.1199 169.177 48.1619 169.144C48.2039 169.111 48.2576 169.095 48.3229 169.095H48.9529L45.2919 174.912ZM60.5025 177.334C60.5492 177.334 60.5888 177.35 60.6215 177.383L60.9015 177.684C60.6962 177.903 60.4722 178.102 60.2295 178.279C59.9868 178.452 59.7208 178.601 59.4315 178.727C59.1468 178.848 58.8318 178.942 58.4865 179.007C58.1458 179.077 57.7702 179.112 57.3595 179.112C56.6735 179.112 56.0435 178.993 55.4695 178.755C54.9002 178.512 54.4102 178.172 53.9995 177.733C53.5935 177.29 53.2762 176.755 53.0475 176.13C52.8188 175.505 52.7045 174.809 52.7045 174.044C52.7045 173.293 52.8212 172.607 53.0545 171.986C53.2925 171.365 53.6238 170.833 54.0485 170.39C54.4778 169.942 54.9888 169.597 55.5815 169.354C56.1788 169.107 56.8368 168.983 57.5555 168.983C57.9148 168.983 58.2438 169.011 58.5425 169.067C58.8412 169.118 59.1188 169.195 59.3755 169.298C59.6368 169.396 59.8818 169.52 60.1105 169.669C60.3392 169.818 60.5632 169.991 60.7825 170.187L60.5655 170.502C60.5282 170.558 60.4698 170.586 60.3905 170.586C60.3485 170.586 60.2948 170.563 60.2295 170.516C60.1642 170.465 60.0802 170.404 59.9775 170.334C59.8795 170.259 59.7582 170.18 59.6135 170.096C59.4735 170.007 59.3055 169.928 59.1095 169.858C58.9135 169.783 58.6872 169.723 58.4305 169.676C58.1738 169.625 57.8822 169.599 57.5555 169.599C56.9535 169.599 56.4005 169.704 55.8965 169.914C55.3925 170.119 54.9585 170.416 54.5945 170.803C54.2305 171.186 53.9458 171.652 53.7405 172.203C53.5398 172.749 53.4395 173.363 53.4395 174.044C53.4395 174.744 53.5398 175.369 53.7405 175.92C53.9412 176.471 54.2188 176.937 54.5735 177.32C54.9282 177.698 55.3458 177.99 55.8265 178.195C56.3118 178.396 56.8368 178.496 57.4015 178.496C57.7562 178.496 58.0712 178.473 58.3465 178.426C58.6265 178.379 58.8832 178.309 59.1165 178.216C59.3498 178.123 59.5668 178.008 59.7675 177.873C59.9682 177.738 60.1665 177.579 60.3625 177.397C60.3858 177.378 60.4068 177.364 60.4255 177.355C60.4488 177.341 60.4745 177.334 60.5025 177.334ZM64.0742 174.52V179H63.3602V169.095H65.8872C67.0306 169.095 67.8846 169.317 68.4492 169.76C69.0139 170.199 69.2962 170.845 69.2962 171.699C69.2962 172.077 69.2309 172.422 69.1002 172.735C68.9696 173.048 68.7806 173.323 68.5332 173.561C68.2906 173.794 67.9966 173.988 67.6512 174.142C67.3059 174.291 66.9162 174.389 66.4822 174.436C66.5942 174.506 66.6946 174.599 66.7832 174.716L70.1922 179H69.5692C69.4946 179 69.4292 178.986 69.3732 178.958C69.3219 178.93 69.2706 178.883 69.2192 178.818L66.0482 174.8C65.9689 174.697 65.8826 174.625 65.7892 174.583C65.7006 174.541 65.5606 174.52 65.3692 174.52H64.0742ZM64.0742 173.988H65.7962C66.2349 173.988 66.6269 173.937 66.9722 173.834C67.3222 173.727 67.6162 173.575 67.8542 173.379C68.0969 173.183 68.2812 172.947 68.4072 172.672C68.5332 172.397 68.5962 172.086 68.5962 171.741C68.5962 171.036 68.3652 170.514 67.9032 170.173C67.4412 169.832 66.7692 169.662 65.8872 169.662H64.0742V173.988ZM77.9183 169.095V169.69H72.7033V173.694H77.0433V174.275H72.7033V178.405H77.9183V179H71.9823V169.095H77.9183ZM87.7088 179H87.1558C87.0904 179 87.0368 178.984 86.9948 178.951C86.9528 178.914 86.9201 178.867 86.8968 178.811L85.7278 175.934H80.8628L79.7008 178.811C79.6821 178.862 79.6494 178.907 79.6028 178.944C79.5561 178.981 79.5001 179 79.4348 179H78.8888L82.9418 169.095H83.6558L87.7088 179ZM81.0798 175.402H85.5178L83.4948 170.397C83.4621 170.318 83.4294 170.229 83.3968 170.131C83.3641 170.028 83.3314 169.921 83.2988 169.809C83.2661 169.921 83.2334 170.028 83.2008 170.131C83.1681 170.229 83.1354 170.32 83.1028 170.404L81.0798 175.402ZM96.2681 177.334C96.3148 177.334 96.3544 177.35 96.3871 177.383L96.6671 177.684C96.4618 177.903 96.2378 178.102 95.9951 178.279C95.7524 178.452 95.4864 178.601 95.1971 178.727C94.9124 178.848 94.5974 178.942 94.2521 179.007C93.9114 179.077 93.5358 179.112 93.1251 179.112C92.4391 179.112 91.8091 178.993 91.2351 178.755C90.6658 178.512 90.1758 178.172 89.7651 177.733C89.3591 177.29 89.0418 176.755 88.8131 176.13C88.5844 175.505 88.4701 174.809 88.4701 174.044C88.4701 173.293 88.5868 172.607 88.8201 171.986C89.0581 171.365 89.3894 170.833 89.8141 170.39C90.2434 169.942 90.7544 169.597 91.3471 169.354C91.9444 169.107 92.6024 168.983 93.3211 168.983C93.6804 168.983 94.0094 169.011 94.3081 169.067C94.6068 169.118 94.8844 169.195 95.1411 169.298C95.4024 169.396 95.6474 169.52 95.8761 169.669C96.1048 169.818 96.3288 169.991 96.5481 170.187L96.3311 170.502C96.2938 170.558 96.2354 170.586 96.1561 170.586C96.1141 170.586 96.0604 170.563 95.9951 170.516C95.9298 170.465 95.8458 170.404 95.7431 170.334C95.6451 170.259 95.5238 170.18 95.3791 170.096C95.2391 170.007 95.0711 169.928 94.8751 169.858C94.6791 169.783 94.4528 169.723 94.1961 169.676C93.9394 169.625 93.6478 169.599 93.3211 169.599C92.7191 169.599 92.1661 169.704 91.6621 169.914C91.1581 170.119 90.7241 170.416 90.3601 170.803C89.9961 171.186 89.7114 171.652 89.5061 172.203C89.3054 172.749 89.2051 173.363 89.2051 174.044C89.2051 174.744 89.3054 175.369 89.5061 175.92C89.7068 176.471 89.9844 176.937 90.3391 177.32C90.6938 177.698 91.1114 177.99 91.5921 178.195C92.0774 178.396 92.6024 178.496 93.1671 178.496C93.5218 178.496 93.8368 178.473 94.1121 178.426C94.3921 178.379 94.6488 178.309 94.8821 178.216C95.1154 178.123 95.3324 178.008 95.5331 177.873C95.7338 177.738 95.9321 177.579 96.1281 177.397C96.1514 177.378 96.1724 177.364 96.1911 177.355C96.2144 177.341 96.2401 177.334 96.2681 177.334ZM99.8959 179H99.1749V169.095H99.8959V179ZM111.933 174.044C111.933 174.809 111.819 175.505 111.59 176.13C111.362 176.751 111.04 177.283 110.624 177.726C110.209 178.165 109.712 178.505 109.133 178.748C108.555 178.986 107.913 179.105 107.208 179.105C106.513 179.105 105.876 178.986 105.297 178.748C104.719 178.505 104.222 178.165 103.806 177.726C103.391 177.283 103.067 176.751 102.833 176.13C102.605 175.505 102.49 174.809 102.49 174.044C102.49 173.283 102.605 172.593 102.833 171.972C103.067 171.347 103.391 170.815 103.806 170.376C104.222 169.933 104.719 169.59 105.297 169.347C105.876 169.104 106.513 168.983 107.208 168.983C107.913 168.983 108.555 169.104 109.133 169.347C109.712 169.585 110.209 169.926 110.624 170.369C111.04 170.812 111.362 171.347 111.59 171.972C111.819 172.593 111.933 173.283 111.933 174.044ZM111.191 174.044C111.191 173.353 111.096 172.733 110.904 172.182C110.713 171.631 110.442 171.165 110.092 170.782C109.747 170.399 109.329 170.108 108.839 169.907C108.349 169.702 107.806 169.599 107.208 169.599C106.62 169.599 106.081 169.702 105.591 169.907C105.106 170.108 104.686 170.399 104.331 170.782C103.981 171.165 103.708 171.631 103.512 172.182C103.321 172.733 103.225 173.353 103.225 174.044C103.225 174.739 103.321 175.362 103.512 175.913C103.708 176.459 103.981 176.923 104.331 177.306C104.686 177.689 105.106 177.98 105.591 178.181C106.081 178.382 106.62 178.482 107.208 178.482C107.806 178.482 108.349 178.382 108.839 178.181C109.329 177.98 109.747 177.689 110.092 177.306C110.442 176.923 110.713 176.459 110.904 175.913C111.096 175.362 111.191 174.739 111.191 174.044ZM109.245 166.61L107.201 168.122C107.155 168.155 107.11 168.178 107.068 168.192C107.031 168.201 106.984 168.206 106.928 168.206H106.438L108.027 166.764C108.093 166.703 108.153 166.664 108.209 166.645C108.265 166.622 108.349 166.61 108.461 166.61H109.245ZM114.619 169.095C114.685 169.095 114.736 169.104 114.773 169.123C114.811 169.137 114.85 169.172 114.892 169.228L121.304 177.81C121.29 177.67 121.283 177.535 121.283 177.404V169.095H121.913V179H121.57C121.463 179 121.377 178.953 121.311 178.86L114.871 170.264C114.885 170.404 114.892 170.537 114.892 170.663V179H114.269V169.095H114.619ZM135.895 174.044C135.895 174.809 135.781 175.498 135.552 176.109C135.324 176.72 135.002 177.241 134.586 177.67C134.171 178.099 133.674 178.428 133.095 178.657C132.517 178.886 131.875 179 131.17 179H127.558V169.095H131.17C131.875 169.095 132.517 169.209 133.095 169.438C133.674 169.667 134.171 169.996 134.586 170.425C135.002 170.854 135.324 171.375 135.552 171.986C135.781 172.597 135.895 173.283 135.895 174.044ZM135.153 174.044C135.153 173.353 135.058 172.737 134.866 172.196C134.675 171.655 134.404 171.197 134.054 170.824C133.709 170.451 133.291 170.166 132.801 169.97C132.311 169.774 131.768 169.676 131.17 169.676H128.279V178.419H131.17C131.768 178.419 132.311 178.321 132.801 178.125C133.291 177.929 133.709 177.644 134.054 177.271C134.404 176.898 134.675 176.44 134.866 175.899C135.058 175.358 135.153 174.739 135.153 174.044ZM144.131 169.095V169.69H138.916V173.694H143.256V174.275H138.916V178.405H144.131V179H138.195V169.095H144.131ZM45.3995 193.116C45.4695 193.247 45.5302 193.387 45.5815 193.536C45.6095 193.461 45.6375 193.389 45.6655 193.319C45.6982 193.244 45.7332 193.174 45.7705 193.109L49.6625 186.228C49.6998 186.167 49.7372 186.13 49.7745 186.116C49.8118 186.102 49.8632 186.095 49.9285 186.095H50.4255V196H49.7955V187.558C49.7955 187.437 49.8025 187.308 49.8165 187.173L45.9175 194.096C45.8522 194.217 45.7588 194.278 45.6375 194.278H45.5255C45.4088 194.278 45.3155 194.217 45.2455 194.096L41.2415 187.166C41.2555 187.301 41.2625 187.432 41.2625 187.558V196H40.6395V186.095H41.1295C41.1948 186.095 41.2462 186.102 41.2835 186.116C41.3255 186.13 41.3652 186.167 41.4025 186.228L45.3995 193.116ZM59.304 186.095V186.69H54.089V190.694H58.429V191.275H54.089V195.405H59.304V196H53.368V186.095H59.304ZM68.1075 186.095V186.704H64.6285V196H63.9145V186.704H60.4145V186.095H68.1075ZM77.829 191.044C77.829 191.809 77.7146 192.505 77.486 193.13C77.2573 193.751 76.9353 194.283 76.52 194.726C76.1046 195.165 75.6076 195.505 75.029 195.748C74.4503 195.986 73.8086 196.105 73.104 196.105C72.4086 196.105 71.7716 195.986 71.193 195.748C70.6143 195.505 70.1173 195.165 69.702 194.726C69.2866 194.283 68.9623 193.751 68.729 193.13C68.5003 192.505 68.386 191.809 68.386 191.044C68.386 190.283 68.5003 189.593 68.729 188.972C68.9623 188.347 69.2866 187.815 69.702 187.376C70.1173 186.933 70.6143 186.59 71.193 186.347C71.7716 186.104 72.4086 185.983 73.104 185.983C73.8086 185.983 74.4503 186.104 75.029 186.347C75.6076 186.585 76.1046 186.926 76.52 187.369C76.9353 187.812 77.2573 188.347 77.486 188.972C77.7146 189.593 77.829 190.283 77.829 191.044ZM77.087 191.044C77.087 190.353 76.9913 189.733 76.8 189.182C76.6086 188.631 76.338 188.165 75.988 187.782C75.6426 187.399 75.225 187.108 74.735 186.907C74.245 186.702 73.7013 186.599 73.104 186.599C72.516 186.599 71.977 186.702 71.487 186.907C71.0016 187.108 70.5816 187.399 70.227 187.782C69.877 188.165 69.604 188.631 69.408 189.182C69.2166 189.733 69.121 190.353 69.121 191.044C69.121 191.739 69.2166 192.362 69.408 192.913C69.604 193.459 69.877 193.923 70.227 194.306C70.5816 194.689 71.0016 194.98 71.487 195.181C71.977 195.382 72.516 195.482 73.104 195.482C73.7013 195.482 74.245 195.382 74.735 195.181C75.225 194.98 75.6426 194.689 75.988 194.306C76.338 193.923 76.6086 193.459 76.8 192.913C76.9913 192.362 77.087 191.739 77.087 191.044ZM88.5019 191.044C88.5019 191.809 88.3876 192.498 88.1589 193.109C87.9302 193.72 87.6082 194.241 87.1929 194.67C86.7776 195.099 86.2806 195.428 85.7019 195.657C85.1232 195.886 84.4816 196 83.7769 196H80.1649V186.095H83.7769C84.4816 186.095 85.1232 186.209 85.7019 186.438C86.2806 186.667 86.7776 186.996 87.1929 187.425C87.6082 187.854 87.9302 188.375 88.1589 188.986C88.3876 189.597 88.5019 190.283 88.5019 191.044ZM87.7599 191.044C87.7599 190.353 87.6642 189.737 87.4729 189.196C87.2816 188.655 87.0109 188.197 86.6609 187.824C86.3156 187.451 85.8979 187.166 85.4079 186.97C84.9179 186.774 84.3742 186.676 83.7769 186.676H80.8859V195.419H83.7769C84.3742 195.419 84.9179 195.321 85.4079 195.125C85.8979 194.929 86.3156 194.644 86.6609 194.271C87.0109 193.898 87.2816 193.44 87.4729 192.899C87.6642 192.358 87.7599 191.739 87.7599 191.044ZM99.6356 191.044C99.6356 191.809 99.5213 192.505 99.2926 193.13C99.0639 193.751 98.7419 194.283 98.3266 194.726C97.9113 195.165 97.4143 195.505 96.8356 195.748C96.2569 195.986 95.6153 196.105 94.9106 196.105C94.2153 196.105 93.5783 195.986 92.9996 195.748C92.4209 195.505 91.9239 195.165 91.5086 194.726C91.0933 194.283 90.7689 193.751 90.5356 193.13C90.3069 192.505 90.1926 191.809 90.1926 191.044C90.1926 190.283 90.3069 189.593 90.5356 188.972C90.7689 188.347 91.0933 187.815 91.5086 187.376C91.9239 186.933 92.4209 186.59 92.9996 186.347C93.5783 186.104 94.2153 185.983 94.9106 185.983C95.6153 185.983 96.2569 186.104 96.8356 186.347C97.4143 186.585 97.9113 186.926 98.3266 187.369C98.7419 187.812 99.0639 188.347 99.2926 188.972C99.5213 189.593 99.6356 190.283 99.6356 191.044ZM98.8936 191.044C98.8936 190.353 98.7979 189.733 98.6066 189.182C98.4153 188.631 98.1446 188.165 97.7946 187.782C97.4493 187.399 97.0316 187.108 96.5416 186.907C96.0516 186.702 95.5079 186.599 94.9106 186.599C94.3226 186.599 93.7836 186.702 93.2936 186.907C92.8083 187.108 92.3883 187.399 92.0336 187.782C91.6836 188.165 91.4106 188.631 91.2146 189.182C91.0233 189.733 90.9276 190.353 90.9276 191.044C90.9276 191.739 91.0233 192.362 91.2146 192.913C91.4106 193.459 91.6836 193.923 92.0336 194.306C92.3883 194.689 92.8083 194.98 93.2936 195.181C93.7836 195.382 94.3226 195.482 94.9106 195.482C95.5079 195.482 96.0516 195.382 96.5416 195.181C97.0316 194.98 97.4493 194.689 97.7946 194.306C98.1446 193.923 98.4153 193.459 98.6066 192.913C98.7979 192.362 98.8936 191.739 98.8936 191.044ZM102.686 195.391H107.383V196H101.972V186.095H102.686V195.391ZM117.409 191.044C117.409 191.809 117.295 192.505 117.066 193.13C116.837 193.751 116.515 194.283 116.1 194.726C115.685 195.165 115.188 195.505 114.609 195.748C114.03 195.986 113.389 196.105 112.684 196.105C111.989 196.105 111.352 195.986 110.773 195.748C110.194 195.505 109.697 195.165 109.282 194.726C108.867 194.283 108.542 193.751 108.309 193.13C108.08 192.505 107.966 191.809 107.966 191.044C107.966 190.283 108.08 189.593 108.309 188.972C108.542 188.347 108.867 187.815 109.282 187.376C109.697 186.933 110.194 186.59 110.773 186.347C111.352 186.104 111.989 185.983 112.684 185.983C113.389 185.983 114.03 186.104 114.609 186.347C115.188 186.585 115.685 186.926 116.1 187.369C116.515 187.812 116.837 188.347 117.066 188.972C117.295 189.593 117.409 190.283 117.409 191.044ZM116.667 191.044C116.667 190.353 116.571 189.733 116.38 189.182C116.189 188.631 115.918 188.165 115.568 187.782C115.223 187.399 114.805 187.108 114.315 186.907C113.825 186.702 113.281 186.599 112.684 186.599C112.096 186.599 111.557 186.702 111.067 186.907C110.582 187.108 110.162 187.399 109.807 187.782C109.457 188.165 109.184 188.631 108.988 189.182C108.797 189.733 108.701 190.353 108.701 191.044C108.701 191.739 108.797 192.362 108.988 192.913C109.184 193.459 109.457 193.923 109.807 194.306C110.162 194.689 110.582 194.98 111.067 195.181C111.557 195.382 112.096 195.482 112.684 195.482C113.281 195.482 113.825 195.382 114.315 195.181C114.805 194.98 115.223 194.689 115.568 194.306C115.918 193.923 116.189 193.459 116.38 192.913C116.571 192.362 116.667 191.739 116.667 191.044ZM124.001 195.531C124.342 195.531 124.652 195.515 124.932 195.482C125.212 195.445 125.471 195.391 125.709 195.321C125.952 195.251 126.18 195.167 126.395 195.069C126.614 194.966 126.834 194.852 127.053 194.726V192.059H125.149C125.098 192.059 125.053 192.043 125.016 192.01C124.983 191.977 124.967 191.94 124.967 191.898V191.506H127.704V195.027C127.457 195.2 127.2 195.354 126.934 195.489C126.668 195.624 126.383 195.739 126.08 195.832C125.777 195.921 125.45 195.988 125.1 196.035C124.75 196.086 124.367 196.112 123.952 196.112C123.238 196.112 122.585 195.993 121.992 195.755C121.404 195.512 120.898 195.172 120.473 194.733C120.053 194.29 119.726 193.755 119.493 193.13C119.26 192.505 119.143 191.809 119.143 191.044C119.143 190.279 119.26 189.586 119.493 188.965C119.726 188.34 120.058 187.808 120.487 187.369C120.916 186.926 121.437 186.585 122.048 186.347C122.664 186.104 123.352 185.983 124.113 185.983C124.491 185.983 124.839 186.009 125.156 186.06C125.478 186.111 125.777 186.188 126.052 186.291C126.327 186.389 126.584 186.513 126.822 186.662C127.06 186.807 127.289 186.975 127.508 187.166L127.319 187.474C127.277 187.544 127.219 187.579 127.144 187.579C127.102 187.579 127.062 187.57 127.025 187.551C126.955 187.523 126.852 187.458 126.717 187.355C126.586 187.252 126.407 187.145 126.178 187.033C125.954 186.921 125.672 186.821 125.331 186.732C124.99 186.643 124.577 186.599 124.092 186.599C123.448 186.599 122.867 186.702 122.349 186.907C121.831 187.112 121.388 187.406 121.019 187.789C120.655 188.172 120.373 188.638 120.172 189.189C119.976 189.74 119.878 190.358 119.878 191.044C119.878 191.744 119.978 192.372 120.179 192.927C120.38 193.482 120.66 193.954 121.019 194.341C121.383 194.724 121.817 195.018 122.321 195.223C122.83 195.428 123.39 195.531 124.001 195.531ZM131.198 196H130.477V186.095H131.198V196ZM132.878 183.61L130.834 185.122C130.787 185.155 130.743 185.178 130.701 185.192C130.663 185.201 130.617 185.206 130.561 185.206H130.071L131.66 183.764C131.725 183.703 131.786 183.664 131.842 183.645C131.898 183.622 131.982 183.61 132.094 183.61H132.878ZM141.856 196H141.303C141.238 196 141.184 195.984 141.142 195.951C141.1 195.914 141.068 195.867 141.044 195.811L139.875 192.934H135.01L133.848 195.811C133.83 195.862 133.797 195.907 133.75 195.944C133.704 195.981 133.648 196 133.582 196H133.036L137.089 186.095H137.803L141.856 196ZM135.227 192.402H139.665L137.642 187.397C137.61 187.318 137.577 187.229 137.544 187.131C137.512 187.028 137.479 186.921 137.446 186.809C137.414 186.921 137.381 187.028 137.348 187.131C137.316 187.229 137.283 187.32 137.25 187.404L135.227 192.402ZM148.213 187.299C148.171 187.378 148.11 187.418 148.031 187.418C147.97 187.418 147.891 187.376 147.793 187.292C147.699 187.203 147.571 187.108 147.408 187.005C147.244 186.898 147.039 186.8 146.792 186.711C146.549 186.622 146.248 186.578 145.889 186.578C145.529 186.578 145.212 186.629 144.937 186.732C144.666 186.835 144.437 186.975 144.251 187.152C144.069 187.329 143.929 187.535 143.831 187.768C143.737 188.001 143.691 188.246 143.691 188.503C143.691 188.839 143.761 189.117 143.901 189.336C144.045 189.555 144.234 189.742 144.468 189.896C144.701 190.05 144.965 190.181 145.259 190.288C145.557 190.391 145.863 190.493 146.176 190.596C146.488 190.699 146.792 190.813 147.086 190.939C147.384 191.06 147.65 191.214 147.884 191.401C148.117 191.588 148.304 191.819 148.444 192.094C148.588 192.365 148.661 192.703 148.661 193.109C148.661 193.524 148.588 193.916 148.444 194.285C148.304 194.649 148.098 194.966 147.828 195.237C147.557 195.508 147.226 195.722 146.834 195.881C146.442 196.035 145.994 196.112 145.49 196.112C144.836 196.112 144.274 195.998 143.803 195.769C143.331 195.536 142.918 195.218 142.564 194.817L142.76 194.509C142.816 194.439 142.881 194.404 142.956 194.404C142.998 194.404 143.051 194.432 143.117 194.488C143.182 194.544 143.261 194.614 143.355 194.698C143.448 194.777 143.56 194.866 143.691 194.964C143.821 195.057 143.973 195.146 144.146 195.23C144.318 195.309 144.517 195.377 144.741 195.433C144.965 195.489 145.219 195.517 145.504 195.517C145.896 195.517 146.246 195.459 146.554 195.342C146.862 195.221 147.121 195.057 147.331 194.852C147.545 194.647 147.709 194.404 147.821 194.124C147.933 193.839 147.989 193.536 147.989 193.214C147.989 192.864 147.916 192.577 147.772 192.353C147.632 192.124 147.445 191.935 147.212 191.786C146.978 191.632 146.712 191.504 146.414 191.401C146.12 191.298 145.816 191.198 145.504 191.1C145.191 191.002 144.885 190.892 144.587 190.771C144.293 190.65 144.029 190.496 143.796 190.309C143.562 190.118 143.373 189.882 143.229 189.602C143.089 189.317 143.019 188.963 143.019 188.538C143.019 188.207 143.082 187.887 143.208 187.579C143.334 187.271 143.518 187 143.761 186.767C144.003 186.529 144.302 186.34 144.657 186.2C145.016 186.055 145.424 185.983 145.882 185.983C146.395 185.983 146.855 186.065 147.261 186.228C147.671 186.391 148.045 186.641 148.381 186.977L148.213 187.299ZM62.457 208.044C62.457 208.809 62.3426 209.498 62.114 210.109C61.8853 210.72 61.5633 211.241 61.148 211.67C60.7326 212.099 60.2356 212.428 59.657 212.657C59.0783 212.886 58.4366 213 57.732 213H54.12V203.095H57.732C58.4366 203.095 59.0783 203.209 59.657 203.438C60.2356 203.667 60.7326 203.996 61.148 204.425C61.5633 204.854 61.8853 205.375 62.114 205.986C62.3426 206.597 62.457 207.283 62.457 208.044ZM61.715 208.044C61.715 207.353 61.6193 206.737 61.428 206.196C61.2366 205.655 60.966 205.197 60.616 204.824C60.2706 204.451 59.853 204.166 59.363 203.97C58.873 203.774 58.3293 203.676 57.732 203.676H54.841V212.419H57.732C58.3293 212.419 58.873 212.321 59.363 212.125C59.853 211.929 60.2706 211.644 60.616 211.271C60.966 210.898 61.2366 210.44 61.428 209.899C61.6193 209.358 61.715 208.739 61.715 208.044ZM70.6927 203.095V203.69H65.4777V207.694H69.8177V208.275H65.4777V212.405H70.6927V213H64.7567V203.095H70.6927ZM82.2032 203.095V203.704H78.7242V213H78.0102V203.704H74.5102V203.095H82.2032ZM84.8487 208.52V213H84.1347V203.095H86.6617C87.805 203.095 88.659 203.317 89.2237 203.76C89.7883 204.199 90.0707 204.845 90.0707 205.699C90.0707 206.077 90.0053 206.422 89.8747 206.735C89.744 207.048 89.555 207.323 89.3077 207.561C89.065 207.794 88.771 207.988 88.4257 208.142C88.0803 208.291 87.6907 208.389 87.2567 208.436C87.3687 208.506 87.469 208.599 87.5577 208.716L90.9667 213H90.3437C90.269 213 90.2037 212.986 90.1477 212.958C90.0963 212.93 90.045 212.883 89.9937 212.818L86.8227 208.8C86.7433 208.697 86.657 208.625 86.5637 208.583C86.475 208.541 86.335 208.52 86.1437 208.52H84.8487ZM84.8487 207.988H86.5707C87.0093 207.988 87.4013 207.937 87.7467 207.834C88.0967 207.727 88.3907 207.575 88.6287 207.379C88.8713 207.183 89.0557 206.947 89.1817 206.672C89.3077 206.397 89.3707 206.086 89.3707 205.741C89.3707 205.036 89.1397 204.514 88.6777 204.173C88.2157 203.832 87.5437 203.662 86.6617 203.662H84.8487V207.988ZM100.212 213H99.6587C99.5933 213 99.5397 212.984 99.4977 212.951C99.4557 212.914 99.423 212.867 99.3997 212.811L98.2307 209.934H93.3657L92.2037 212.811C92.185 212.862 92.1523 212.907 92.1057 212.944C92.059 212.981 92.003 213 91.9377 213H91.3917L95.4447 203.095H96.1587L100.212 213ZM93.5827 209.402H98.0207L95.9977 204.397C95.965 204.318 95.9323 204.229 95.8997 204.131C95.867 204.028 95.8343 203.921 95.8017 203.809C95.769 203.921 95.7363 204.028 95.7037 204.131C95.671 204.229 95.6383 204.32 95.6057 204.404L93.5827 209.402ZM101.78 213V203.095H104.629C105.194 203.095 105.681 203.151 106.092 203.263C106.507 203.375 106.85 203.541 107.121 203.76C107.392 203.975 107.592 204.238 107.723 204.551C107.858 204.864 107.926 205.218 107.926 205.615C107.926 205.876 107.879 206.128 107.786 206.371C107.697 206.614 107.567 206.838 107.394 207.043C107.221 207.248 107.009 207.428 106.757 207.582C106.51 207.731 106.225 207.846 105.903 207.925C106.682 208.042 107.282 208.301 107.702 208.702C108.122 209.103 108.332 209.633 108.332 210.291C108.332 210.711 108.257 211.089 108.108 211.425C107.959 211.761 107.742 212.046 107.457 212.279C107.172 212.512 106.822 212.692 106.407 212.818C105.992 212.939 105.52 213 104.993 213H101.78ZM102.494 208.254V212.426H104.979C105.852 212.426 106.51 212.239 106.953 211.866C107.396 211.488 107.618 210.958 107.618 210.277C107.618 209.964 107.557 209.684 107.436 209.437C107.319 209.185 107.149 208.973 106.925 208.8C106.701 208.623 106.426 208.487 106.099 208.394C105.772 208.301 105.401 208.254 104.986 208.254H102.494ZM102.494 207.729H104.643C105.1 207.729 105.49 207.671 105.812 207.554C106.139 207.437 106.405 207.283 106.61 207.092C106.82 206.901 106.974 206.684 107.072 206.441C107.17 206.198 107.219 205.949 107.219 205.692C107.219 205.025 107.007 204.521 106.582 204.18C106.162 203.835 105.511 203.662 104.629 203.662H102.494V207.729ZM118.204 213H117.651C117.586 213 117.532 212.984 117.49 212.951C117.448 212.914 117.415 212.867 117.392 212.811L116.223 209.934H111.358L110.196 212.811C110.177 212.862 110.145 212.907 110.098 212.944C110.051 212.981 109.995 213 109.93 213H109.384L113.437 203.095H114.151L118.204 213ZM111.575 209.402H116.013L113.99 204.397C113.957 204.318 113.925 204.229 113.892 204.131C113.859 204.028 113.827 203.921 113.794 203.809C113.761 203.921 113.729 204.028 113.696 204.131C113.663 204.229 113.631 204.32 113.598 204.404L111.575 209.402ZM123.503 209.696C123.503 210.251 123.433 210.741 123.293 211.166C123.157 211.591 122.961 211.948 122.705 212.237C122.453 212.526 122.142 212.746 121.774 212.895C121.41 213.04 120.999 213.112 120.542 213.112C120.332 213.112 120.119 213.096 119.905 213.063C119.69 213.03 119.468 212.979 119.24 212.909C119.249 212.844 119.256 212.778 119.261 212.713C119.27 212.648 119.277 212.582 119.282 212.517C119.291 212.475 119.307 212.438 119.331 212.405C119.359 212.372 119.405 212.356 119.471 212.356C119.513 212.356 119.562 212.365 119.618 212.384C119.678 212.398 119.748 212.414 119.828 212.433C119.912 212.452 120.005 212.47 120.108 212.489C120.215 212.503 120.339 212.51 120.479 212.51C120.833 212.51 121.153 212.454 121.438 212.342C121.722 212.23 121.965 212.06 122.166 211.831C122.366 211.598 122.518 211.306 122.621 210.956C122.728 210.601 122.782 210.186 122.782 209.71V203.095H123.503V209.696ZM135.278 208.044C135.278 208.809 135.164 209.505 134.935 210.13C134.707 210.751 134.385 211.283 133.969 211.726C133.554 212.165 133.057 212.505 132.478 212.748C131.9 212.986 131.258 213.105 130.553 213.105C129.858 213.105 129.221 212.986 128.642 212.748C128.064 212.505 127.567 212.165 127.151 211.726C126.736 211.283 126.412 210.751 126.178 210.13C125.95 209.505 125.835 208.809 125.835 208.044C125.835 207.283 125.95 206.593 126.178 205.972C126.412 205.347 126.736 204.815 127.151 204.376C127.567 203.933 128.064 203.59 128.642 203.347C129.221 203.104 129.858 202.983 130.553 202.983C131.258 202.983 131.9 203.104 132.478 203.347C133.057 203.585 133.554 203.926 133.969 204.369C134.385 204.812 134.707 205.347 134.935 205.972C135.164 206.593 135.278 207.283 135.278 208.044ZM134.536 208.044C134.536 207.353 134.441 206.733 134.249 206.182C134.058 205.631 133.787 205.165 133.437 204.782C133.092 204.399 132.674 204.108 132.184 203.907C131.694 203.702 131.151 203.599 130.553 203.599C129.965 203.599 129.426 203.702 128.936 203.907C128.451 204.108 128.031 204.399 127.676 204.782C127.326 205.165 127.053 205.631 126.857 206.182C126.666 206.733 126.57 207.353 126.57 208.044C126.57 208.739 126.666 209.362 126.857 209.913C127.053 210.459 127.326 210.923 127.676 211.306C128.031 211.689 128.451 211.98 128.936 212.181C129.426 212.382 129.965 212.482 130.553 212.482C131.151 212.482 131.694 212.382 132.184 212.181C132.674 211.98 133.092 211.689 133.437 211.306C133.787 210.923 134.058 210.459 134.249 209.913C134.441 209.362 134.536 208.739 134.536 208.044ZM136.469 212.461C136.469 212.372 136.485 212.288 136.518 212.209C136.551 212.13 136.595 212.062 136.651 212.006C136.712 211.945 136.779 211.899 136.854 211.866C136.933 211.829 137.02 211.81 137.113 211.81C137.202 211.81 137.286 211.829 137.365 211.866C137.444 211.899 137.512 211.945 137.568 212.006C137.629 212.062 137.675 212.13 137.708 212.209C137.745 212.288 137.764 212.372 137.764 212.461C137.764 212.554 137.745 212.641 137.708 212.72C137.675 212.795 137.629 212.862 137.568 212.923C137.512 212.979 137.444 213.023 137.365 213.056C137.286 213.089 137.202 213.105 137.113 213.105C136.931 213.105 136.777 213.044 136.651 212.923C136.53 212.797 136.469 212.643 136.469 212.461Z" fill="#F5F5F5"/>
<defs>
<filter id="filter0_d" x="62" y="232" width="53.4386" height="60" filterUnits="userSpaceOnUse" color-interpolation-filters="sRGB">
<feFlood flood-opacity="0" result="BackgroundImageFix"/>
<feColorMatrix in="SourceAlpha" type="matrix" values="0 0 0 0 0 0 0 0 0 0 0 0 0 0 0 0 0 0 127 0"/>
<feOffset dx="-5" dy="5"/>
<feGaussianBlur stdDeviation="2.5"/>
<feColorMatrix type="matrix" values="0 0 0 0 0 0 0 0 0 0 0 0 0 0 0 0 0 0 0.25 0"/>
<feBlend mode="normal" in2="BackgroundImageFix" result="effect1_dropShadow"/>
<feBlend mode="normal" in="SourceGraphic" in2="effect1_dropShadow" result="shape"/>
</filter>
<filter id="filter1_d" x="21.0593" y="21.816" width="135.065" height="30.952" filterUnits="userSpaceOnUse" color-interpolation-filters="sRGB">
<feFlood flood-opacity="0" result="BackgroundImageFix"/>
<feColorMatrix in="SourceAlpha" type="matrix" values="0 0 0 0 0 0 0 0 0 0 0 0 0 0 0 0 0 0 127 0"/>
<feOffset dx="-5" dy="5"/>
<feGaussianBlur stdDeviation="2.5"/>
<feColorMatrix type="matrix" values="0 0 0 0 0 0 0 0 0 0 0 0 0 0 0 0 0 0 0.25 0"/>
<feBlend mode="normal" in2="BackgroundImageFix" result="effect1_dropShadow"/>
<feBlend mode="normal" in="SourceGraphic" in2="effect1_dropShadow" result="shape"/>
</filter>
</defs>
</svg>
