<svg width="181" height="300" viewBox="0 0 181 300" fill="none" xmlns="http://www.w3.org/2000/svg">
<rect x="1.46899" y="1" width="178" height="298" rx="4" fill="#EFCE67" stroke="#161413" stroke-width="2"/>
<g filter="url(#filter0_d)">
<path d="M110.584 252.41C111.086 234.216 88.134 232 88.134 232C88.134 232 87.0708 234.437 79.3919 236.132C71.7131 237.827 71.0971 244.95 71.0971 244.95C71.0971 244.95 75.2783 242.684 78.1093 245.558C77.6045 245.911 77.2075 246.393 76.9617 246.954C75.9671 246.797 74.964 246.698 73.9577 246.658C73.8505 246.649 73.7432 246.672 73.6497 246.724C73.5695 246.779 73.5315 246.945 73.4471 247.67C73.4349 247.817 73.4137 247.963 73.3838 248.107L73.3585 248.236H73.4514L73.675 248.266C73.8176 248.278 73.9588 248.303 74.0969 248.341C73.9817 248.81 73.893 249.286 73.8311 249.765C73.7172 250.507 73.6032 251.319 73.5864 251.481C73.4395 252.537 73.6517 253.611 74.1897 254.534L72.502 255.784C70.7638 257.092 69.1267 258.325 68.7048 258.737C68.2196 259.25 68.5192 261.886 69.2744 264.31C71.7848 279.556 83.6195 279.635 87.1046 281.855C88.7922 282.917 107.154 278.498 112.441 257.096C112.744 255.871 110.508 255.076 110.584 252.41ZM69.1816 259.204C69.6035 258.787 71.2911 257.538 72.9071 256.313L74.5947 255.063L74.696 255.184C75.1753 255.678 75.7864 256.027 76.4585 256.191C77.1306 256.356 77.8361 256.328 78.4932 256.113C79.0559 255.918 79.5636 255.594 79.9745 255.168C80.3853 254.741 80.6874 254.224 80.856 253.66C81.018 253.163 81.1352 252.653 81.2062 252.135C81.2831 251.466 81.4638 250.813 81.742 250.198C81.8385 250.009 81.9983 249.858 82.1943 249.772C82.3903 249.685 82.6106 249.668 82.8179 249.723C83.0819 249.768 83.3176 249.913 83.4752 250.127C83.6328 250.341 83.6997 250.607 83.6617 250.869C83.3833 252.818 83.2398 254.863 84.0414 256.613C84.3448 257.228 84.7782 257.771 85.3124 258.207C85.8466 258.642 86.4693 258.959 87.1383 259.137C87.445 259.228 87.7581 259.296 88.075 259.341C89.4924 259.566 90.945 259.298 92.1844 258.583C93.2005 257.937 94.012 257.022 94.5261 255.942C94.8685 255.208 95.0988 254.427 95.2096 253.626C95.2096 253.626 95.4458 252.177 95.4754 251.689L96.1715 251.798L96.4162 250.265L96.3487 250.161H96.315C95.8931 250.057 95.4416 249.944 95.007 249.832C93.5431 249.415 92.0515 249.099 90.5432 248.886C89.4757 248.761 88.3914 248.67 87.3113 248.628C86.8894 248.628 86.4675 248.628 86.0455 248.628C85.4422 248.628 84.8136 248.628 84.206 248.574C83.0416 248.423 81.8925 248.174 80.7716 247.828L79.8645 247.553C79.1177 247.358 78.3751 247.203 77.6368 247.07C78.1473 246.066 79.4594 245.242 82.6618 244.346C88.8049 242.63 91.9439 245.646 93.0409 247.02C93.1774 247.195 93.3557 247.333 93.5597 247.422C93.7637 247.512 93.9871 247.549 94.2096 247.532C97.1166 247.303 101.766 249.328 102.395 249.907C100.087 257.638 98.5216 259.158 96.2812 259.358C95.9437 259.387 95.699 259.408 95.3614 265.031C95.3533 265.147 95.3173 265.26 95.2564 265.36C95.1955 265.46 95.1115 265.544 95.0113 265.606C94.0451 266.185 90.8723 268.105 90.5558 268.28C85.2228 271.346 79.1219 270.229 76.7465 269.609C73.6286 268.776 71.4515 267.526 70.9874 266.718C69.4474 264.094 68.8947 259.687 69.1816 259.204ZM77.2233 252.797C77.3891 251.738 77.4259 250.663 77.333 249.594C77.3077 249.14 77.2908 248.728 77.3077 248.345H77.4638C77.7085 248.37 78.0038 248.395 78.3076 248.441C79.24 248.578 80.3201 248.857 80.5649 249.644C80.8391 250.507 80.5649 251.498 80.337 252.298C80.3117 252.398 80.2822 252.498 80.2569 252.598C80.0543 253.36 79.8349 254.151 79.2063 254.651C78.8833 254.897 78.514 255.077 78.12 255.18C77.726 255.284 77.3151 255.309 76.9111 255.255C76.3129 255.176 75.7565 254.909 75.3247 254.493C76.9744 253.243 77.1895 252.989 77.2233 252.797ZM85.0794 250.557C85.5646 249.919 86.5687 249.773 87.324 249.765C88.2995 249.752 89.2746 249.818 90.2394 249.961C90.7415 250.032 91.252 250.127 91.7709 250.24C92.9776 250.507 94.3615 250.994 94.3531 252.418C94.3411 252.947 94.2618 253.472 94.1168 253.98C93.9268 254.669 93.6429 255.329 93.273 255.942C92.7053 256.915 91.7834 257.637 90.6951 257.962C89.9161 258.169 89.0984 258.188 88.3102 258.019C87.522 257.851 86.7861 257.498 86.1637 256.992C85.6618 256.563 85.2627 256.03 84.995 255.43C84.7003 254.682 84.5695 253.882 84.611 253.081V252.931C84.6068 252.144 84.5984 251.185 85.0794 250.557ZM74.6285 253.351C74.2699 252.206 74.6285 250.715 74.8901 249.515C74.9238 249.374 74.9576 249.232 74.9871 249.099C75.1686 248.299 75.9364 248.241 76.6748 248.291C76.652 248.736 76.652 249.182 76.6748 249.628C76.7572 250.629 76.7232 251.637 76.5735 252.631C76.0347 253.112 75.4714 253.565 74.8859 253.989C74.7726 253.788 74.6861 253.574 74.6285 253.351V253.351Z" fill="#2A363B"/>
<path d="M76.7465 269.609C79.1219 270.229 85.2228 271.346 90.5558 268.28C90.8723 268.097 94.0451 266.197 95.0113 265.606C95.1115 265.544 95.1955 265.46 95.2564 265.36C95.3173 265.26 95.3533 265.147 95.3615 265.031C95.699 259.408 95.9437 259.387 96.2812 259.358C98.5216 259.158 100.078 257.638 102.391 249.907C101.762 249.328 97.1124 247.303 94.2096 247.532C93.985 247.552 93.7591 247.515 93.5527 247.425C93.3463 247.336 93.166 247.196 93.0283 247.02C91.9524 245.646 88.8091 242.63 82.6491 244.346C79.4468 245.242 78.1346 246.066 77.6241 247.07C78.3625 247.203 79.105 247.358 79.8518 247.553L80.7758 247.807C81.9051 248.153 83.0627 248.401 84.2355 248.549C84.8431 248.603 85.4717 248.603 86.0751 248.603C86.497 248.603 86.9189 248.603 87.3408 248.603C88.4209 248.645 89.5053 248.736 90.5727 248.861C92.0872 249.078 93.5844 249.4 95.0535 249.823C95.4754 249.936 95.9268 250.048 96.3614 250.152H96.3952L96.4627 250.257L96.2179 251.789L95.5218 251.681C95.4923 252.169 95.2602 253.601 95.256 253.618C95.1453 254.419 94.9149 255.2 94.5725 255.934C94.0584 257.014 93.247 257.929 92.2308 258.575C90.9914 259.29 89.5388 259.558 88.1214 259.333C87.8045 259.288 87.4914 259.219 87.1847 259.129C86.5157 258.953 85.8927 258.637 85.3578 258.203C84.8228 257.769 84.3884 257.227 84.0836 256.613C83.2778 254.863 83.4255 252.818 83.7039 250.869C83.7419 250.607 83.675 250.341 83.5174 250.127C83.3598 249.913 83.124 249.768 82.8601 249.723C82.6515 249.665 82.4287 249.68 82.23 249.765C82.0313 249.851 81.8692 250.003 81.7715 250.194C81.4933 250.809 81.3126 251.462 81.2357 252.131C81.1553 252.651 81.0282 253.162 80.856 253.66C80.6861 254.222 80.3838 254.736 79.9739 255.16C79.5639 255.584 79.058 255.907 78.4975 256.101C77.8403 256.316 77.1348 256.343 76.4627 256.179C75.7906 256.014 75.1795 255.665 74.7002 255.172L74.599 255.051L72.9113 256.301C71.2785 257.55 69.5951 258.8 69.1858 259.191C68.8947 259.687 69.4474 264.094 71.0042 266.718C71.4515 267.509 73.6286 268.792 76.7465 269.609ZM95.6695 256.746C95.7119 256.485 95.8317 256.243 96.0138 256.049C96.1959 255.855 96.432 255.719 96.6924 255.658C96.9527 255.596 97.2257 255.613 97.4767 255.704C97.7278 255.796 97.9457 255.959 98.1029 256.173C98.2601 256.387 98.3496 256.642 98.36 256.906C98.3704 257.17 98.3014 257.431 98.1615 257.657C98.0217 257.882 97.8173 258.061 97.5743 258.172C97.3312 258.283 97.0604 258.32 96.796 258.279C96.6199 258.252 96.4511 258.19 96.2991 258.098C96.1472 258.006 96.0151 257.886 95.9105 257.743C95.8058 257.601 95.7306 257.44 95.6893 257.269C95.6479 257.097 95.6412 256.92 95.6695 256.746ZM76.7761 266.572C76.8647 266.572 85.9274 265.323 89.6107 261.886C89.7294 261.777 89.8714 261.696 90.0262 261.648C90.1811 261.6 90.3448 261.588 90.5052 261.611H90.5347C90.7686 261.651 90.9913 261.739 91.1883 261.87C91.3854 262.001 91.5523 262.171 91.6781 262.369L92.522 264.148C92.7414 264.769 92.214 265.556 91.7372 265.847C90.3575 266.68 86.7755 268.292 83.0879 268.347V268.163C85.8919 267.597 88.6035 266.652 91.1465 265.356C91.2815 265.289 91.3237 264.939 91.1971 264.494C89.9892 265.188 88.6755 265.684 87.3071 265.964L87.2607 265.785C89.7458 265.073 90.733 264.148 90.9398 263.923C90.8981 263.832 90.8383 263.75 90.764 263.682C90.6896 263.615 90.6023 263.562 90.507 263.528C90.4118 263.495 90.3106 263.48 90.2096 263.486C90.1085 263.491 90.0096 263.517 89.9187 263.561C81.9825 267.601 76.8393 266.76 76.8014 266.751L76.2149 266.647L76.7761 266.572ZM70.3292 262.728L69.4854 260.399C69.426 260.217 69.4154 260.024 69.4546 259.837C69.4938 259.65 69.5814 259.476 69.7089 259.332C69.8365 259.189 69.9995 259.081 70.1822 259.018C70.3649 258.955 70.5609 258.94 70.7511 258.975L73.5906 259.391C73.7853 259.408 73.9721 259.475 74.1325 259.585C74.293 259.695 74.4216 259.845 74.5056 260.019C74.5895 260.193 74.626 260.386 74.6113 260.578C74.5966 260.771 74.5312 260.956 74.4218 261.116L72.9366 263.107C72.3881 263.844 70.6414 263.59 70.3292 262.728Z" fill="#F68865"/>
<path d="M76.9111 255.251C77.3153 255.309 77.7272 255.286 78.1227 255.186C78.5181 255.085 78.8894 254.907 79.2147 254.664C79.8518 254.164 80.0586 253.372 80.2653 252.61C80.2906 252.51 80.3201 252.41 80.3455 252.31C80.5691 251.51 80.8475 250.519 80.5733 249.657C80.3286 248.882 79.2485 248.59 78.316 248.453C78.0038 248.407 77.7085 248.382 77.4722 248.357H77.3161C77.3161 248.74 77.3161 249.153 77.3414 249.607C77.4301 250.676 77.3891 251.751 77.2191 252.81C77.1853 253.002 76.9701 253.226 75.3204 254.476C75.7517 254.898 76.3099 255.169 76.9111 255.251ZM78.6578 250.765C79.4172 250.815 79.4763 251.96 79.4468 252.631C79.4413 252.759 79.3853 252.88 79.2907 252.968C79.1961 253.056 79.0704 253.104 78.9405 253.102H78.0966C78.03 253.101 77.9642 253.086 77.9033 253.059C77.8424 253.033 77.7876 252.994 77.7422 252.946C77.6969 252.897 77.6619 252.841 77.6395 252.779C77.617 252.717 77.6074 252.651 77.6114 252.585C77.6368 251.869 77.8308 250.715 78.6536 250.765H78.6578Z" fill="#F68865"/>
<path d="M84.9949 255.417C85.261 256.022 85.6603 256.559 86.1637 256.992C86.7875 257.5 87.5256 257.854 88.3162 258.023C89.1068 258.191 89.9268 258.171 90.7077 257.962C91.7961 257.637 92.718 256.915 93.2856 255.942C93.6555 255.329 93.9394 254.669 94.1294 253.98C94.2708 253.468 94.346 252.941 94.353 252.41C94.353 250.986 92.9776 250.498 91.7709 250.232C91.252 250.119 90.7414 250.023 90.2394 249.953C89.2745 249.809 88.2995 249.744 87.3239 249.757C86.5687 249.757 85.5645 249.911 85.0793 250.548C84.5941 251.185 84.6068 252.135 84.6068 252.91V253.06C84.5654 253.864 84.6977 254.668 84.9949 255.417V255.417ZM89.9904 254.764C89.8534 254.771 89.7172 254.739 89.598 254.672C89.3405 254.537 89.0689 254.429 88.788 254.351C88.509 254.301 88.2231 254.301 87.9441 254.351C87.8111 254.373 87.6799 254.405 87.5518 254.447C87.4252 254.484 87.3028 254.539 87.1763 254.572C87.1285 254.587 87.077 254.584 87.0312 254.564C86.9854 254.544 86.9485 254.508 86.9273 254.464C86.8894 254.364 86.9569 254.28 87.037 254.214C87.086 254.179 87.1367 254.147 87.1889 254.118C87.5152 253.951 87.8728 253.851 88.2395 253.826C88.8174 253.79 89.392 253.936 89.8807 254.243C89.9989 254.314 90.214 254.418 90.2309 254.572C90.2478 254.726 90.1128 254.751 89.9904 254.764ZM86.6826 253.276L86.7206 253.218C86.9016 253.001 87.122 252.819 87.3703 252.681C87.6309 252.504 87.9149 252.364 88.2142 252.264C88.522 252.166 88.8441 252.118 89.1677 252.123C90.0755 252.201 90.9245 252.598 91.56 253.243C91.6362 253.304 91.6993 253.379 91.7456 253.464C91.7688 253.516 91.7799 253.573 91.7779 253.629C91.776 253.686 91.761 253.742 91.7343 253.792C91.7075 253.843 91.6696 253.887 91.6234 253.921C91.5771 253.955 91.5237 253.978 91.4671 253.989C91.363 253.986 91.263 253.948 91.1845 253.88C91.0368 253.776 90.9018 253.664 90.7625 253.564C90.3025 253.24 89.7608 253.049 89.1972 253.01C88.6007 252.98 88.0067 253.106 87.4758 253.376C87.3096 253.479 87.1328 253.565 86.9484 253.631H86.8851C86.8545 253.631 86.8241 253.626 86.7957 253.614C86.7672 253.603 86.7414 253.586 86.7198 253.565C86.6981 253.543 86.681 253.518 86.6696 253.49C86.6581 253.462 86.6525 253.432 86.6531 253.401C86.6582 253.357 86.6726 253.315 86.6953 253.276H86.6826Z" fill="#F68865"/>
<path d="M96.796 258.279C97.0604 258.32 97.3313 258.283 97.5743 258.172C97.8174 258.061 98.0217 257.882 98.1615 257.657C98.3014 257.431 98.3705 257.17 98.36 256.906C98.3496 256.642 98.2601 256.387 98.1029 256.173C97.9457 255.959 97.7278 255.796 97.4768 255.704C97.2257 255.613 96.9528 255.596 96.6924 255.658C96.432 255.719 96.1959 255.855 96.0138 256.049C95.8318 256.243 95.7119 256.485 95.6695 256.746C95.6412 256.92 95.648 257.097 95.6893 257.269C95.7307 257.44 95.8058 257.601 95.9105 257.743C96.0151 257.886 96.1472 258.006 96.2992 258.098C96.4511 258.19 96.62 258.252 96.796 258.279V258.279Z" fill="#2A363B"/>
<path d="M72.9366 263.107L74.4218 261.116C74.5319 260.957 74.5982 260.773 74.6143 260.581C74.6304 260.389 74.5956 260.197 74.5135 260.022C74.4313 259.848 74.3046 259.698 74.1457 259.586C73.9868 259.475 73.8013 259.406 73.6075 259.387L70.768 258.97C70.5777 258.936 70.3817 258.951 70.1991 259.014C70.0164 259.076 69.8533 259.185 69.7258 259.328C69.5983 259.472 69.5106 259.646 69.4714 259.833C69.4322 260.019 69.4429 260.213 69.5022 260.395L70.3461 262.723C70.6414 263.59 72.3881 263.844 72.9366 263.107Z" fill="#2A363B"/>
<path d="M89.8892 263.557C89.9801 263.512 90.0789 263.487 90.18 263.481C90.2811 263.476 90.3822 263.49 90.4775 263.524C90.5727 263.558 90.6601 263.61 90.7344 263.678C90.8088 263.746 90.8686 263.828 90.9102 263.919C90.7035 264.144 89.7162 265.069 87.2311 265.781L87.2775 265.96C88.646 265.68 89.9596 265.183 91.1676 264.49C91.2942 264.935 91.252 265.285 91.117 265.352C88.574 266.648 85.8623 267.593 83.0584 268.159V268.342C86.7459 268.292 90.328 266.676 91.7077 265.843C92.1844 265.552 92.7118 264.764 92.4924 264.144L91.6486 262.365C91.5227 262.167 91.3558 261.996 91.1588 261.866C90.9618 261.735 90.7391 261.647 90.5052 261.607H90.4757C90.3152 261.584 90.1515 261.596 89.9967 261.644C89.8418 261.691 89.6998 261.773 89.5812 261.882C85.9274 265.323 76.8646 266.572 76.776 266.572L76.1854 266.647L76.7718 266.751C76.8225 266.755 81.974 267.597 89.8892 263.557Z" fill="#2A363B"/>
<path d="M78.084 253.081H78.9278C79.0558 253.085 79.1806 253.041 79.2765 252.958C79.3723 252.874 79.4318 252.757 79.4426 252.631C79.4721 251.96 79.413 250.815 78.6536 250.765C77.8941 250.715 77.6368 251.869 77.5988 252.564C77.5948 252.63 77.6043 252.696 77.6268 252.758C77.6493 252.82 77.6843 252.877 77.7296 252.925C77.7749 252.973 77.8297 253.012 77.8906 253.039C77.9515 253.065 78.0173 253.08 78.084 253.081Z" fill="#2A363B"/>
<path d="M86.8768 253.66H86.94C87.1226 253.585 87.2966 253.492 87.459 253.381C87.9898 253.11 88.5839 252.984 89.1804 253.014C89.7439 253.053 90.2857 253.244 90.7457 253.568C90.8934 253.668 91.0284 253.78 91.1676 253.885C91.2462 253.952 91.3462 253.99 91.4503 253.993C91.5069 253.982 91.5603 253.959 91.6066 253.925C91.6528 253.891 91.6907 253.847 91.7175 253.797C91.7442 253.746 91.7591 253.691 91.7611 253.634C91.7631 253.577 91.752 253.52 91.7288 253.468C91.6825 253.383 91.6194 253.308 91.5431 253.247C90.9146 252.61 90.0772 252.215 89.1804 252.131C88.8569 252.126 88.5347 252.174 88.2269 252.273C87.9276 252.373 87.6436 252.513 87.3831 252.689C87.1347 252.827 86.9144 253.009 86.7333 253.226L86.6953 253.285C86.668 253.326 86.6506 253.373 86.6447 253.422C86.643 253.453 86.6477 253.484 86.6586 253.513C86.6696 253.542 86.6864 253.569 86.7082 253.591C86.73 253.613 86.7562 253.631 86.7852 253.643C86.8142 253.655 86.8454 253.66 86.8768 253.66V253.66Z" fill="#2A363B"/>
<path d="M89.8765 254.226C89.3878 253.92 88.8132 253.774 88.2353 253.81C87.8685 253.835 87.511 253.934 87.1847 254.101C87.1324 254.131 87.0817 254.163 87.0328 254.197C86.9526 254.264 86.8851 254.347 86.9231 254.447C86.9443 254.492 86.9812 254.527 87.027 254.547C87.0728 254.567 87.1243 254.57 87.172 254.555C87.2986 254.522 87.421 254.468 87.5475 254.43C87.6757 254.389 87.8069 254.357 87.9399 254.334C88.2189 254.284 88.5048 254.284 88.7838 254.334C89.0647 254.412 89.3363 254.52 89.5938 254.655C89.713 254.722 89.8492 254.754 89.9862 254.747C90.0959 254.747 90.2225 254.659 90.2098 254.539C90.1972 254.418 89.9904 254.297 89.8765 254.226Z" fill="#2A363B"/>
</g>
<g filter="url(#filter1_d)">
<path d="M16.809 40.56H18.129V26.64H16.809V25.2H21.849C23.001 25.2 24.089 25.4 25.113 25.8C26.137 26.184 27.033 26.744 27.801 27.48C28.569 28.216 29.177 29.104 29.625 30.144C30.073 31.168 30.297 32.328 30.297 33.624C30.297 34.568 30.129 35.536 29.793 36.528C29.473 37.52 28.945 38.424 28.209 39.24C27.473 40.04 26.513 40.704 25.329 41.232C24.161 41.744 22.729 42 21.033 42H16.809V40.56ZM19.617 26.64V40.56H21.489C22.625 40.56 23.641 40.376 24.537 40.008C25.449 39.64 26.217 39.144 26.841 38.52C27.481 37.896 27.969 37.16 28.305 36.312C28.641 35.464 28.809 34.56 28.809 33.6C28.809 32.544 28.625 31.584 28.257 30.72C27.889 29.856 27.385 29.128 26.745 28.536C26.105 27.928 25.353 27.464 24.489 27.144C23.625 26.808 22.705 26.64 21.729 26.64H19.617ZM31.9731 40.584H33.8451V26.64H31.9731V25.2H37.3011V26.64H35.3571V40.584H37.3011V42H31.9731V40.584ZM38.8129 39.984V37.32H40.2529V39.456C40.6849 39.824 41.2049 40.136 41.8129 40.392C42.4209 40.648 43.1249 40.776 43.9249 40.776C44.4049 40.776 44.8609 40.704 45.2929 40.56C45.7409 40.416 46.1329 40.208 46.4689 39.936C46.8049 39.664 47.0769 39.328 47.2849 38.928C47.4929 38.512 47.5969 38.048 47.5969 37.536C47.5969 36.656 47.3969 35.976 46.9969 35.496C46.6129 35.016 46.1169 34.648 45.5089 34.392C44.9169 34.12 44.2689 33.896 43.5649 33.72C42.8769 33.544 42.2289 33.312 41.6209 33.024C41.0129 32.72 40.5009 32.312 40.0849 31.8C39.6849 31.288 39.4689 30.552 39.4369 29.592C39.4209 29.064 39.4849 28.536 39.6289 28.008C39.7889 27.464 40.0449 26.984 40.3969 26.568C40.7649 26.136 41.2369 25.784 41.8129 25.512C42.4049 25.24 43.1249 25.104 43.9729 25.104C44.5329 25.104 45.1729 25.184 45.8929 25.344C46.6129 25.488 47.3329 25.848 48.0529 26.424V28.896H46.6129V27.144C46.3089 26.968 45.9329 26.824 45.4849 26.712C45.0369 26.6 44.5329 26.544 43.9729 26.544C43.4609 26.544 43.0129 26.632 42.6289 26.808C42.2449 26.968 41.9249 27.184 41.6689 27.456C41.4289 27.728 41.2449 28.048 41.1169 28.416C40.9889 28.768 40.9249 29.144 40.9249 29.544C40.9249 30.248 41.1249 30.784 41.5249 31.152C41.9249 31.52 42.4209 31.824 43.0129 32.064C43.6209 32.288 44.2769 32.496 44.9809 32.688C45.6849 32.88 46.3409 33.16 46.9489 33.528C47.5569 33.88 48.0609 34.368 48.4609 34.992C48.8769 35.6 49.0849 36.44 49.0849 37.512C49.0849 38.232 48.9489 38.88 48.6769 39.456C48.4209 40.032 48.0609 40.528 47.5969 40.944C47.1489 41.344 46.6209 41.656 46.0129 41.88C45.4049 42.088 44.7569 42.192 44.0689 42.192C43.4449 42.192 42.8609 42.128 42.3169 42C41.7729 41.872 41.2689 41.704 40.8049 41.496C40.3569 41.272 39.9569 41.032 39.6049 40.776C39.2689 40.52 39.0049 40.256 38.8129 39.984ZM50.4418 40.584H51.9778V26.64H50.4418V25.2H62.1298V28.896H60.6898V26.64H53.4658V32.832H61.1938V34.248H53.4658V40.584H61.0258V38.304H62.4658V42H50.4418V40.584ZM64.1527 40.584H66.1687V26.64H64.1527V25.2H66.8407L78.9607 38.832L79.4167 39.456L79.3447 38.688V26.64H77.5687V25.2H82.8727V26.64H80.8327V42.768L68.0407 28.584L67.6087 27.984L67.6567 28.728V40.584H69.4807V42H64.1527V40.584ZM72.7687 23.328C72.5287 23.056 72.3127 22.88 72.1207 22.8C71.9447 22.72 71.7447 22.68 71.5207 22.68C71.4087 22.68 71.2727 22.696 71.1127 22.728C70.9687 22.76 70.8247 22.824 70.6807 22.92C70.5527 23 70.4327 23.12 70.3207 23.28C70.2247 23.424 70.1687 23.616 70.1527 23.856L69.2887 23.784C69.3047 23.48 69.3767 23.208 69.5047 22.968C69.6487 22.712 69.8167 22.504 70.0087 22.344C70.2167 22.168 70.4407 22.04 70.6807 21.96C70.9367 21.864 71.1847 21.816 71.4247 21.816C71.7767 21.816 72.0887 21.896 72.3607 22.056C72.6487 22.2 72.9287 22.4 73.2007 22.656C73.4407 22.928 73.6567 23.104 73.8487 23.184C74.0407 23.264 74.2487 23.304 74.4727 23.304C74.5847 23.304 74.7127 23.288 74.8567 23.256C75.0007 23.224 75.1367 23.168 75.2647 23.088C75.4087 22.992 75.5287 22.872 75.6247 22.728C75.7367 22.568 75.8087 22.368 75.8407 22.128C75.9687 22.144 76.1047 22.16 76.2487 22.176C76.3927 22.176 76.5367 22.184 76.6807 22.2C76.6647 22.52 76.5847 22.8 76.4407 23.04C76.3127 23.28 76.1447 23.488 75.9367 23.664C75.7447 23.824 75.5287 23.944 75.2887 24.024C75.0487 24.104 74.8087 24.144 74.5687 24.144C74.2007 24.144 73.8727 24.072 73.5847 23.928C73.3127 23.768 73.0407 23.568 72.7687 23.328ZM83.6293 33.624C83.6293 32.44 83.8533 31.328 84.3013 30.288C84.7493 29.232 85.3573 28.32 86.1253 27.552C86.9093 26.768 87.8213 26.152 88.8613 25.704C89.9013 25.24 91.0133 25.008 92.1973 25.008C93.3813 25.008 94.4933 25.24 95.5333 25.704C96.5893 26.152 97.5013 26.768 98.2693 27.552C99.0533 28.32 99.6693 29.232 100.117 30.288C100.581 31.328 100.813 32.44 100.813 33.624C100.813 34.808 100.581 35.92 100.117 36.96C99.6693 38 99.0533 38.912 98.2693 39.696C97.5013 40.464 96.5893 41.072 95.5333 41.52C94.4933 41.968 93.3813 42.192 92.1973 42.192C91.0133 42.192 89.9013 41.968 88.8613 41.52C87.8213 41.072 86.9093 40.464 86.1253 39.696C85.3573 38.912 84.7493 38 84.3013 36.96C83.8533 35.92 83.6293 34.808 83.6293 33.624ZM85.1173 33.624C85.1173 34.616 85.3013 35.544 85.6693 36.408C86.0373 37.272 86.5413 38.032 87.1813 38.688C87.8213 39.328 88.5733 39.84 89.4373 40.224C90.3013 40.592 91.2213 40.776 92.1973 40.776C93.1733 40.776 94.0933 40.592 94.9573 40.224C95.8213 39.84 96.5733 39.328 97.2133 38.688C97.8693 38.032 98.3813 37.272 98.7493 36.408C99.1333 35.544 99.3253 34.616 99.3253 33.624C99.3253 32.648 99.1333 31.728 98.7493 30.864C98.3813 29.984 97.8693 29.216 97.2133 28.56C96.5733 27.904 95.8213 27.392 94.9573 27.024C94.1093 26.64 93.1973 26.448 92.2213 26.448C91.2453 26.448 90.3253 26.64 89.4613 27.024C88.5973 27.392 87.8453 27.904 87.2053 28.56C86.5653 29.216 86.0533 29.984 85.6693 30.864C85.3013 31.728 85.1173 32.648 85.1173 33.624ZM109.692 25.2H115.02V26.64H113.244C114.108 28.656 114.964 30.672 115.812 32.688C116.66 34.688 117.516 36.696 118.38 38.712L118.596 39.456C119.06 37.92 119.636 36.408 120.324 34.92C121.028 33.416 121.692 31.92 122.316 30.432C122.044 29.808 121.772 29.184 121.5 28.56C121.228 27.92 120.956 27.28 120.684 26.64H118.572V25.2H123.9V26.64H122.196C123.06 28.656 123.908 30.672 124.74 32.688C125.588 34.688 126.452 36.696 127.332 38.712L127.548 39.456L127.764 38.712C128.628 36.696 129.476 34.688 130.308 32.688C131.156 30.688 132.004 28.672 132.852 26.64H131.268V25.2H136.596V26.64H134.388C133.236 29.344 132.092 32.032 130.956 34.704C129.82 37.376 128.684 40.064 127.548 42.768L123.3 32.76L123.06 32.016C122.788 32.912 122.468 33.816 122.1 34.728C121.748 35.624 121.372 36.528 120.972 37.44C120.572 38.336 120.164 39.232 119.748 40.128C119.348 41.024 118.964 41.904 118.596 42.768C117.444 40.064 116.3 37.376 115.164 34.704C114.028 32.032 112.884 29.344 111.732 26.64H109.692V25.2ZM138.286 40.584H139.822V26.64H138.286V25.2H149.974V28.896H148.534V26.64H141.31V32.832H149.038V34.248H141.31V40.584H148.87V38.304H150.31V42H138.286V40.584ZM151.996 40.584H153.268V26.64H151.996V25.2H157.372C158.14 25.2 158.836 25.28 159.46 25.44C160.1 25.6 160.644 25.848 161.092 26.184C161.556 26.52 161.908 26.96 162.148 27.504C162.404 28.032 162.532 28.664 162.532 29.4C162.532 30.392 162.292 31.264 161.812 32.016C161.332 32.768 160.596 33.28 159.604 33.552C160.068 33.648 160.508 33.808 160.924 34.032C161.356 34.256 161.732 34.544 162.052 34.896C162.388 35.248 162.652 35.656 162.844 36.12C163.036 36.584 163.132 37.104 163.132 37.68C163.132 38.4 162.98 39.032 162.676 39.576C162.388 40.104 161.996 40.552 161.5 40.92C161.004 41.272 160.436 41.544 159.796 41.736C159.156 41.912 158.492 42 157.804 42H151.996V40.584ZM154.756 34.272V40.584H157.684C158.228 40.584 158.74 40.52 159.22 40.392C159.7 40.264 160.116 40.072 160.468 39.816C160.836 39.56 161.124 39.24 161.332 38.856C161.54 38.456 161.644 38 161.644 37.488C161.644 36.928 161.524 36.448 161.284 36.048C161.044 35.632 160.716 35.296 160.3 35.04C159.9 34.768 159.436 34.576 158.908 34.464C158.396 34.336 157.868 34.272 157.324 34.272H154.756ZM154.756 26.64V32.832H157.636C158.676 32.832 159.5 32.536 160.108 31.944C160.716 31.336 161.02 30.552 161.02 29.592C161.02 28.536 160.7 27.784 160.06 27.336C159.42 26.872 158.588 26.64 157.564 26.64H154.756Z" fill="#161413"/>
</g>
<path d="M33.6809 75.334C33.7276 75.334 33.7672 75.3503 33.7999 75.383L34.0799 75.684C33.8746 75.9033 33.6506 76.1017 33.4079 76.279C33.1652 76.4517 32.8992 76.601 32.6099 76.727C32.3252 76.8483 32.0102 76.9417 31.6649 77.007C31.3242 77.077 30.9486 77.112 30.5379 77.112C29.8519 77.112 29.2219 76.993 28.6479 76.755C28.0786 76.5123 27.5886 76.1717 27.1779 75.733C26.7719 75.2897 26.4546 74.7553 26.2259 74.13C25.9972 73.5047 25.8829 72.8093 25.8829 72.044C25.8829 71.2927 25.9996 70.6067 26.2329 69.986C26.4709 69.3653 26.8022 68.8333 27.2269 68.39C27.6562 67.942 28.1672 67.5967 28.7599 67.354C29.3572 67.1067 30.0152 66.983 30.7339 66.983C31.0932 66.983 31.4222 67.011 31.7209 67.067C32.0196 67.1183 32.2972 67.1953 32.5539 67.298C32.8152 67.396 33.0602 67.5197 33.2889 67.669C33.5176 67.8183 33.7416 67.991 33.9609 68.187L33.7439 68.502C33.7066 68.558 33.6482 68.586 33.5689 68.586C33.5269 68.586 33.4732 68.5627 33.4079 68.516C33.3426 68.4647 33.2586 68.404 33.1559 68.334C33.0579 68.2593 32.9366 68.18 32.7919 68.096C32.6519 68.0073 32.4839 67.928 32.2879 67.858C32.0919 67.7833 31.8656 67.7227 31.6089 67.676C31.3522 67.6247 31.0606 67.599 30.7339 67.599C30.1319 67.599 29.5789 67.704 29.0749 67.914C28.5709 68.1193 28.1369 68.4157 27.7729 68.803C27.4089 69.1857 27.1242 69.6523 26.9189 70.203C26.7182 70.749 26.6179 71.3627 26.6179 72.044C26.6179 72.744 26.7182 73.3693 26.9189 73.92C27.1196 74.4707 27.3972 74.9373 27.7519 75.32C28.1066 75.698 28.5242 75.9897 29.0049 76.195C29.4902 76.3957 30.0152 76.496 30.5799 76.496C30.9346 76.496 31.2496 76.4727 31.5249 76.426C31.8049 76.3793 32.0616 76.3093 32.2949 76.216C32.5282 76.1227 32.7452 76.0083 32.9459 75.873C33.1466 75.7377 33.3449 75.579 33.5409 75.397C33.5642 75.3783 33.5852 75.3643 33.6039 75.355C33.6272 75.341 33.6529 75.334 33.6809 75.334ZM37.2526 72.52V77H36.5386V67.095H39.0656C40.209 67.095 41.063 67.3167 41.6276 67.76C42.1923 68.1987 42.4746 68.845 42.4746 69.699C42.4746 70.077 42.4093 70.4223 42.2786 70.735C42.148 71.0477 41.959 71.323 41.7116 71.561C41.469 71.7943 41.175 71.988 40.8296 72.142C40.4843 72.2913 40.0946 72.3893 39.6606 72.436C39.7726 72.506 39.873 72.5993 39.9616 72.716L43.3706 77H42.7476C42.673 77 42.6076 76.986 42.5516 76.958C42.5003 76.93 42.449 76.8833 42.3976 76.818L39.2266 72.8C39.1473 72.6973 39.061 72.625 38.9676 72.583C38.879 72.541 38.739 72.52 38.5476 72.52H37.2526ZM37.2526 71.988H38.9746C39.4133 71.988 39.8053 71.9367 40.1506 71.834C40.5006 71.7267 40.7946 71.575 41.0326 71.379C41.2753 71.183 41.4596 70.9473 41.5856 70.672C41.7116 70.3967 41.7746 70.0863 41.7746 69.741C41.7746 69.0363 41.5436 68.5137 41.0816 68.173C40.6196 67.8323 39.9476 67.662 39.0656 67.662H37.2526V71.988ZM51.0967 67.095V67.69H45.8817V71.694H50.2217V72.275H45.8817V76.405H51.0967V77H45.1607V67.095H51.0967ZM60.8872 77H60.3342C60.2688 77 60.2152 76.9837 60.1732 76.951C60.1312 76.9137 60.0985 76.867 60.0752 76.811L58.9062 73.934H54.0412L52.8792 76.811C52.8605 76.8623 52.8278 76.9067 52.7812 76.944C52.7345 76.9813 52.6785 77 52.6132 77H52.0672L56.1202 67.095H56.8342L60.8872 77ZM54.2582 73.402H58.6962L56.6732 68.397C56.6405 68.3177 56.6078 68.229 56.5752 68.131C56.5425 68.0283 56.5098 67.921 56.4772 67.809C56.4445 67.921 56.4118 68.0283 56.3792 68.131C56.3465 68.229 56.3138 68.32 56.2812 68.404L54.2582 73.402ZM69.4465 75.334C69.4932 75.334 69.5329 75.3503 69.5655 75.383L69.8455 75.684C69.6402 75.9033 69.4162 76.1017 69.1735 76.279C68.9309 76.4517 68.6649 76.601 68.3755 76.727C68.0909 76.8483 67.7759 76.9417 67.4305 77.007C67.0899 77.077 66.7142 77.112 66.3035 77.112C65.6175 77.112 64.9875 76.993 64.4135 76.755C63.8442 76.5123 63.3542 76.1717 62.9435 75.733C62.5375 75.2897 62.2202 74.7553 61.9915 74.13C61.7629 73.5047 61.6485 72.8093 61.6485 72.044C61.6485 71.2927 61.7652 70.6067 61.9985 69.986C62.2365 69.3653 62.5679 68.8333 62.9925 68.39C63.4219 67.942 63.9329 67.5967 64.5255 67.354C65.1229 67.1067 65.7809 66.983 66.4995 66.983C66.8589 66.983 67.1879 67.011 67.4865 67.067C67.7852 67.1183 68.0629 67.1953 68.3195 67.298C68.5809 67.396 68.8259 67.5197 69.0545 67.669C69.2832 67.8183 69.5072 67.991 69.7265 68.187L69.5095 68.502C69.4722 68.558 69.4139 68.586 69.3345 68.586C69.2925 68.586 69.2389 68.5627 69.1735 68.516C69.1082 68.4647 69.0242 68.404 68.9215 68.334C68.8235 68.2593 68.7022 68.18 68.5575 68.096C68.4175 68.0073 68.2495 67.928 68.0535 67.858C67.8575 67.7833 67.6312 67.7227 67.3745 67.676C67.1179 67.6247 66.8262 67.599 66.4995 67.599C65.8975 67.599 65.3445 67.704 64.8405 67.914C64.3365 68.1193 63.9025 68.4157 63.5385 68.803C63.1745 69.1857 62.8899 69.6523 62.6845 70.203C62.4839 70.749 62.3835 71.3627 62.3835 72.044C62.3835 72.744 62.4839 73.3693 62.6845 73.92C62.8852 74.4707 63.1629 74.9373 63.5175 75.32C63.8722 75.698 64.2899 75.9897 64.7705 76.195C65.2559 76.3957 65.7809 76.496 66.3455 76.496C66.7002 76.496 67.0152 76.4727 67.2905 76.426C67.5705 76.3793 67.8272 76.3093 68.0605 76.216C68.2939 76.1227 68.5109 76.0083 68.7115 75.873C68.9122 75.7377 69.1105 75.579 69.3065 75.397C69.3299 75.3783 69.3509 75.3643 69.3695 75.355C69.3929 75.341 69.4185 75.334 69.4465 75.334ZM73.0743 77H72.3533V67.095H73.0743V77ZM85.1119 72.044C85.1119 72.8093 84.9975 73.5047 84.7689 74.13C84.5402 74.7507 84.2182 75.2827 83.8029 75.726C83.3875 76.1647 82.8905 76.5053 82.3119 76.748C81.7332 76.986 81.0915 77.105 80.3869 77.105C79.6915 77.105 79.0545 76.986 78.4759 76.748C77.8972 76.5053 77.4002 76.1647 76.9849 75.726C76.5695 75.2827 76.2452 74.7507 76.0119 74.13C75.7832 73.5047 75.6689 72.8093 75.6689 72.044C75.6689 71.2833 75.7832 70.5927 76.0119 69.972C76.2452 69.3467 76.5695 68.8147 76.9849 68.376C77.4002 67.9327 77.8972 67.5897 78.4759 67.347C79.0545 67.1043 79.6915 66.983 80.3869 66.983C81.0915 66.983 81.7332 67.1043 82.3119 67.347C82.8905 67.585 83.3875 67.9257 83.8029 68.369C84.2182 68.8123 84.5402 69.3467 84.7689 69.972C84.9975 70.5927 85.1119 71.2833 85.1119 72.044ZM84.3699 72.044C84.3699 71.3533 84.2742 70.7327 84.0829 70.182C83.8915 69.6313 83.6209 69.1647 83.2709 68.782C82.9255 68.3993 82.5079 68.1077 82.0179 67.907C81.5279 67.7017 80.9842 67.599 80.3869 67.599C79.7989 67.599 79.2599 67.7017 78.7699 67.907C78.2845 68.1077 77.8645 68.3993 77.5099 68.782C77.1599 69.1647 76.8869 69.6313 76.6909 70.182C76.4995 70.7327 76.4039 71.3533 76.4039 72.044C76.4039 72.7393 76.4995 73.3623 76.6909 73.913C76.8869 74.459 77.1599 74.9233 77.5099 75.306C77.8645 75.6887 78.2845 75.9803 78.7699 76.181C79.2599 76.3817 79.7989 76.482 80.3869 76.482C80.9842 76.482 81.5279 76.3817 82.0179 76.181C82.5079 75.9803 82.9255 75.6887 83.2709 75.306C83.6209 74.9233 83.8915 74.459 84.0829 73.913C84.2742 73.3623 84.3699 72.7393 84.3699 72.044ZM82.4239 64.61L80.3799 66.122C80.3332 66.1547 80.2889 66.178 80.2469 66.192C80.2095 66.2013 80.1629 66.206 80.1069 66.206H79.6169L81.2059 64.764C81.2712 64.7033 81.3319 64.6637 81.3879 64.645C81.4439 64.6217 81.5279 64.61 81.6399 64.61H82.4239ZM87.7978 67.095C87.8631 67.095 87.9144 67.1043 87.9518 67.123C87.9891 67.137 88.0288 67.172 88.0708 67.228L94.4828 75.81C94.4688 75.67 94.4618 75.5347 94.4618 75.404V67.095H95.0918V77H94.7488C94.6415 77 94.5551 76.9533 94.4898 76.86L88.0498 68.264C88.0638 68.404 88.0708 68.537 88.0708 68.663V77H87.4478V67.095H87.7978ZM109.074 72.044C109.074 72.8093 108.96 73.4977 108.731 74.109C108.502 74.7203 108.18 75.2407 107.765 75.67C107.35 76.0993 106.853 76.4283 106.274 76.657C105.695 76.8857 105.054 77 104.349 77H100.737V67.095H104.349C105.054 67.095 105.695 67.2093 106.274 67.438C106.853 67.6667 107.35 67.9957 107.765 68.425C108.18 68.8543 108.502 69.3747 108.731 69.986C108.96 70.5973 109.074 71.2833 109.074 72.044ZM108.332 72.044C108.332 71.3533 108.236 70.7373 108.045 70.196C107.854 69.6547 107.583 69.1973 107.233 68.824C106.888 68.4507 106.47 68.166 105.98 67.97C105.49 67.774 104.946 67.676 104.349 67.676H101.458V76.419H104.349C104.946 76.419 105.49 76.321 105.98 76.125C106.47 75.929 106.888 75.6443 107.233 75.271C107.583 74.8977 107.854 74.4403 108.045 73.899C108.236 73.3577 108.332 72.7393 108.332 72.044ZM117.31 67.095V67.69H112.095V71.694H116.435V72.275H112.095V76.405H117.31V77H111.374V67.095H117.31ZM127.14 68.299C127.098 68.3783 127.037 68.418 126.958 68.418C126.897 68.418 126.818 68.376 126.72 68.292C126.627 68.2033 126.498 68.1077 126.335 68.005C126.172 67.8977 125.966 67.7997 125.719 67.711C125.476 67.6223 125.175 67.578 124.816 67.578C124.457 67.578 124.139 67.6293 123.864 67.732C123.593 67.8347 123.365 67.9747 123.178 68.152C122.996 68.3293 122.856 68.5347 122.758 68.768C122.665 69.0013 122.618 69.2463 122.618 69.503C122.618 69.839 122.688 70.1167 122.828 70.336C122.973 70.5553 123.162 70.742 123.395 70.896C123.628 71.05 123.892 71.1807 124.186 71.288C124.485 71.3907 124.79 71.4933 125.103 71.596C125.416 71.6987 125.719 71.813 126.013 71.939C126.312 72.0603 126.578 72.2143 126.811 72.401C127.044 72.5877 127.231 72.8187 127.371 73.094C127.516 73.3647 127.588 73.703 127.588 74.109C127.588 74.5243 127.516 74.9163 127.371 75.285C127.231 75.649 127.026 75.9663 126.755 76.237C126.484 76.5077 126.153 76.7223 125.761 76.881C125.369 77.035 124.921 77.112 124.417 77.112C123.764 77.112 123.201 76.9977 122.73 76.769C122.259 76.5357 121.846 76.2183 121.491 75.817L121.687 75.509C121.743 75.439 121.808 75.404 121.883 75.404C121.925 75.404 121.979 75.432 122.044 75.488C122.109 75.544 122.189 75.614 122.282 75.698C122.375 75.7773 122.487 75.866 122.618 75.964C122.749 76.0573 122.9 76.146 123.073 76.23C123.246 76.3093 123.444 76.377 123.668 76.433C123.892 76.489 124.146 76.517 124.431 76.517C124.823 76.517 125.173 76.4587 125.481 76.342C125.789 76.2207 126.048 76.0573 126.258 75.852C126.473 75.6467 126.636 75.404 126.748 75.124C126.86 74.8393 126.916 74.536 126.916 74.214C126.916 73.864 126.844 73.577 126.699 73.353C126.559 73.1243 126.372 72.9353 126.139 72.786C125.906 72.632 125.64 72.5037 125.341 72.401C125.047 72.2983 124.744 72.198 124.431 72.1C124.118 72.002 123.813 71.8923 123.514 71.771C123.22 71.6497 122.956 71.4957 122.723 71.309C122.49 71.1177 122.301 70.882 122.156 70.602C122.016 70.3173 121.946 69.9627 121.946 69.538C121.946 69.2067 122.009 68.887 122.135 68.579C122.261 68.271 122.445 68.0003 122.688 67.767C122.931 67.529 123.229 67.34 123.584 67.2C123.943 67.0553 124.352 66.983 124.809 66.983C125.322 66.983 125.782 67.0647 126.188 67.228C126.599 67.3913 126.972 67.641 127.308 67.977L127.14 68.299ZM130.647 77H129.926V67.095H130.647V77ZM140.318 67.095V67.704H136.839V77H136.125V67.704H132.625V67.095H140.318ZM143.02 77H142.299V67.095H143.02V77ZM155.057 72.044C155.057 72.8093 154.943 73.5047 154.714 74.13C154.486 74.7507 154.164 75.2827 153.748 75.726C153.333 76.1647 152.836 76.5053 152.257 76.748C151.679 76.986 151.037 77.105 150.332 77.105C149.637 77.105 149 76.986 148.421 76.748C147.843 76.5053 147.346 76.1647 146.93 75.726C146.515 75.2827 146.191 74.7507 145.957 74.13C145.729 73.5047 145.614 72.8093 145.614 72.044C145.614 71.2833 145.729 70.5927 145.957 69.972C146.191 69.3467 146.515 68.8147 146.93 68.376C147.346 67.9327 147.843 67.5897 148.421 67.347C149 67.1043 149.637 66.983 150.332 66.983C151.037 66.983 151.679 67.1043 152.257 67.347C152.836 67.585 153.333 67.9257 153.748 68.369C154.164 68.8123 154.486 69.3467 154.714 69.972C154.943 70.5927 155.057 71.2833 155.057 72.044ZM154.315 72.044C154.315 71.3533 154.22 70.7327 154.028 70.182C153.837 69.6313 153.566 69.1647 153.216 68.782C152.871 68.3993 152.453 68.1077 151.963 67.907C151.473 67.7017 150.93 67.599 150.332 67.599C149.744 67.599 149.205 67.7017 148.715 67.907C148.23 68.1077 147.81 68.3993 147.455 68.782C147.105 69.1647 146.832 69.6313 146.636 70.182C146.445 70.7327 146.349 71.3533 146.349 72.044C146.349 72.7393 146.445 73.3623 146.636 73.913C146.832 74.459 147.105 74.9233 147.455 75.306C147.81 75.6887 148.23 75.9803 148.715 76.181C149.205 76.3817 149.744 76.482 150.332 76.482C150.93 76.482 151.473 76.3817 151.963 76.181C152.453 75.9803 152.871 75.6887 153.216 75.306C153.566 74.9233 153.837 74.459 154.028 73.913C154.22 73.3623 154.315 72.7393 154.315 72.044ZM28.7569 84.095H29.3519C29.4873 84.095 29.5736 84.158 29.6109 84.284L32.1099 92.425C32.1379 92.5183 32.1613 92.6187 32.1799 92.726C32.2033 92.8333 32.2266 92.9453 32.2499 93.062C32.2733 92.9453 32.2966 92.8333 32.3199 92.726C32.3433 92.6187 32.3713 92.5183 32.4039 92.425L35.2039 84.284C35.2226 84.2327 35.2553 84.1883 35.3019 84.151C35.3486 84.1137 35.4046 84.095 35.4699 84.095H35.6659C35.7313 84.095 35.7849 84.1137 35.8269 84.151C35.8689 84.1837 35.9016 84.228 35.9249 84.284L38.7249 92.425C38.7576 92.5183 38.7856 92.6163 38.8089 92.719C38.8369 92.8217 38.8626 92.9313 38.8859 93.048C38.9093 92.936 38.9303 92.8287 38.9489 92.726C38.9676 92.6187 38.9909 92.5183 39.0189 92.425L41.5179 84.284C41.5319 84.2327 41.5623 84.1883 41.6089 84.151C41.6603 84.1137 41.7186 84.095 41.7839 84.095H42.3299L39.2149 94H38.5709L35.6449 85.404C35.6076 85.292 35.5749 85.173 35.5469 85.047C35.5189 85.173 35.4863 85.292 35.4489 85.404L32.5159 94H31.8789L28.7569 84.095ZM49.8662 84.095V84.69H44.6512V88.694H48.9912V89.275H44.6512V93.405H49.8662V94H43.9302V84.095H49.8662ZM52.2017 94V84.095H55.0507C55.6154 84.095 56.103 84.151 56.5137 84.263C56.929 84.375 57.272 84.5407 57.5427 84.76C57.8134 84.9747 58.014 85.2383 58.1447 85.551C58.28 85.8637 58.3477 86.2183 58.3477 86.615C58.3477 86.8763 58.301 87.1283 58.2077 87.371C58.119 87.6137 57.9884 87.8377 57.8157 88.043C57.643 88.2483 57.4307 88.428 57.1787 88.582C56.9314 88.7313 56.6467 88.8457 56.3247 88.925C57.104 89.0417 57.7037 89.3007 58.1237 89.702C58.5437 90.1033 58.7537 90.633 58.7537 91.291C58.7537 91.711 58.679 92.089 58.5297 92.425C58.3804 92.761 58.1634 93.0457 57.8787 93.279C57.594 93.5123 57.244 93.692 56.8287 93.818C56.4134 93.9393 55.942 94 55.4147 94H52.2017ZM52.9157 89.254V93.426H55.4007C56.2734 93.426 56.9314 93.2393 57.3747 92.866C57.818 92.488 58.0397 91.9583 58.0397 91.277C58.0397 90.9643 57.979 90.6843 57.8577 90.437C57.741 90.185 57.5707 89.9727 57.3467 89.8C57.1227 89.6227 56.8474 89.4873 56.5207 89.394C56.194 89.3007 55.823 89.254 55.4077 89.254H52.9157ZM52.9157 88.729H55.0647C55.522 88.729 55.9117 88.6707 56.2337 88.554C56.5604 88.4373 56.8264 88.2833 57.0317 88.092C57.2417 87.9007 57.3957 87.6837 57.4937 87.441C57.5917 87.1983 57.6407 86.9487 57.6407 86.692C57.6407 86.0247 57.4284 85.5207 57.0037 85.18C56.5837 84.8347 55.9327 84.662 55.0507 84.662H52.9157V88.729ZM71.0735 92.334C71.1201 92.334 71.1598 92.3503 71.1925 92.383L71.4725 92.684C71.2671 92.9033 71.0431 93.1017 70.8005 93.279C70.5578 93.4517 70.2918 93.601 70.0025 93.727C69.7178 93.8483 69.4028 93.9417 69.0575 94.007C68.7168 94.077 68.3411 94.112 67.9305 94.112C67.2445 94.112 66.6145 93.993 66.0405 93.755C65.4711 93.5123 64.9811 93.1717 64.5705 92.733C64.1645 92.2897 63.8471 91.7553 63.6185 91.13C63.3898 90.5047 63.2755 89.8093 63.2755 89.044C63.2755 88.2927 63.3921 87.6067 63.6255 86.986C63.8635 86.3653 64.1948 85.8333 64.6195 85.39C65.0488 84.942 65.5598 84.5967 66.1525 84.354C66.7498 84.1067 67.4078 83.983 68.1265 83.983C68.4858 83.983 68.8148 84.011 69.1135 84.067C69.4121 84.1183 69.6898 84.1953 69.9465 84.298C70.2078 84.396 70.4528 84.5197 70.6815 84.669C70.9101 84.8183 71.1341 84.991 71.3535 85.187L71.1365 85.502C71.0991 85.558 71.0408 85.586 70.9615 85.586C70.9195 85.586 70.8658 85.5627 70.8005 85.516C70.7351 85.4647 70.6511 85.404 70.5485 85.334C70.4505 85.2593 70.3291 85.18 70.1845 85.096C70.0445 85.0073 69.8765 84.928 69.6805 84.858C69.4845 84.7833 69.2581 84.7227 69.0015 84.676C68.7448 84.6247 68.4531 84.599 68.1265 84.599C67.5245 84.599 66.9715 84.704 66.4675 84.914C65.9635 85.1193 65.5295 85.4157 65.1655 85.803C64.8015 86.1857 64.5168 86.6523 64.3115 87.203C64.1108 87.749 64.0105 88.3627 64.0105 89.044C64.0105 89.744 64.1108 90.3693 64.3115 90.92C64.5121 91.4707 64.7898 91.9373 65.1445 92.32C65.4991 92.698 65.9168 92.9897 66.3975 93.195C66.8828 93.3957 67.4078 93.496 67.9725 93.496C68.3271 93.496 68.6421 93.4727 68.9175 93.426C69.1975 93.3793 69.4541 93.3093 69.6875 93.216C69.9208 93.1227 70.1378 93.0083 70.3385 92.873C70.5391 92.7377 70.7375 92.579 70.9335 92.397C70.9568 92.3783 70.9778 92.3643 70.9965 92.355C71.0198 92.341 71.0455 92.334 71.0735 92.334ZM82.5552 89.044C82.5552 89.8093 82.4409 90.5047 82.2122 91.13C81.9836 91.7507 81.6616 92.2827 81.2462 92.726C80.8309 93.1647 80.3339 93.5053 79.7552 93.748C79.1766 93.986 78.5349 94.105 77.8302 94.105C77.1349 94.105 76.4979 93.986 75.9192 93.748C75.3406 93.5053 74.8436 93.1647 74.4282 92.726C74.0129 92.2827 73.6886 91.7507 73.4552 91.13C73.2266 90.5047 73.1122 89.8093 73.1122 89.044C73.1122 88.2833 73.2266 87.5927 73.4552 86.972C73.6886 86.3467 74.0129 85.8147 74.4282 85.376C74.8436 84.9327 75.3406 84.5897 75.9192 84.347C76.4979 84.1043 77.1349 83.983 77.8302 83.983C78.5349 83.983 79.1766 84.1043 79.7552 84.347C80.3339 84.585 80.8309 84.9257 81.2462 85.369C81.6616 85.8123 81.9836 86.3467 82.2122 86.972C82.4409 87.5927 82.5552 88.2833 82.5552 89.044ZM81.8132 89.044C81.8132 88.3533 81.7176 87.7327 81.5262 87.182C81.3349 86.6313 81.0642 86.1647 80.7142 85.782C80.3689 85.3993 79.9512 85.1077 79.4612 84.907C78.9712 84.7017 78.4276 84.599 77.8302 84.599C77.2422 84.599 76.7032 84.7017 76.2132 84.907C75.7279 85.1077 75.3079 85.3993 74.9532 85.782C74.6032 86.1647 74.3302 86.6313 74.1342 87.182C73.9429 87.7327 73.8472 88.3533 73.8472 89.044C73.8472 89.7393 73.9429 90.3623 74.1342 90.913C74.3302 91.459 74.6032 91.9233 74.9532 92.306C75.3079 92.6887 75.7279 92.9803 76.2132 93.181C76.7032 93.3817 77.2422 93.482 77.8302 93.482C78.4276 93.482 78.9712 93.3817 79.4612 93.181C79.9512 92.9803 80.3689 92.6887 80.7142 92.306C81.0642 91.9233 81.3349 91.459 81.5262 90.913C81.7176 90.3623 81.8132 89.7393 81.8132 89.044ZM89.6511 91.116C89.7211 91.2467 89.7818 91.3867 89.8331 91.536C89.8611 91.4613 89.8891 91.389 89.9171 91.319C89.9498 91.2443 89.9848 91.1743 90.0221 91.109L93.9141 84.228C93.9515 84.1673 93.9888 84.13 94.0261 84.116C94.0635 84.102 94.1148 84.095 94.1801 84.095H94.6771V94H94.0471V85.558C94.0471 85.4367 94.0541 85.3083 94.0681 85.173L90.1691 92.096C90.1038 92.2173 90.0105 92.278 89.8891 92.278H89.7771C89.6605 92.278 89.5671 92.2173 89.4971 92.096L85.4931 85.166C85.5071 85.3013 85.5141 85.432 85.5141 85.558V94H84.8911V84.095H85.3811C85.4465 84.095 85.4978 84.102 85.5351 84.116C85.5771 84.13 85.6168 84.1673 85.6541 84.228L89.6511 91.116ZM98.5437 90.01V94H97.8297V84.095H100.385C101.547 84.095 102.422 84.3493 103.01 84.858C103.602 85.3667 103.899 86.0923 103.899 87.035C103.899 87.469 103.817 87.868 103.654 88.232C103.495 88.596 103.264 88.911 102.961 89.177C102.657 89.4383 102.289 89.6437 101.855 89.793C101.421 89.9377 100.931 90.01 100.385 90.01H98.5437ZM98.5437 89.436H100.385C100.823 89.436 101.215 89.3753 101.561 89.254C101.906 89.1327 102.198 88.9647 102.436 88.75C102.678 88.5353 102.863 88.2833 102.989 87.994C103.119 87.7 103.185 87.3803 103.185 87.035C103.185 86.2743 102.949 85.6887 102.478 85.278C102.011 84.8673 101.313 84.662 100.385 84.662H98.5437V89.436ZM106.646 93.391H111.343V94H105.932V84.095H106.646V93.391ZM119.032 84.095V84.69H113.817V88.694H118.157V89.275H113.817V93.405H119.032V94H113.096V84.095H119.032ZM127.836 84.095V84.704H124.357V94H123.643V84.704H120.143V84.095H127.836ZM137.557 89.044C137.557 89.8093 137.443 90.5047 137.214 91.13C136.986 91.7507 136.664 92.2827 136.248 92.726C135.833 93.1647 135.336 93.5053 134.757 93.748C134.179 93.986 133.537 94.105 132.832 94.105C132.137 94.105 131.5 93.986 130.921 93.748C130.343 93.5053 129.846 93.1647 129.43 92.726C129.015 92.2827 128.691 91.7507 128.457 91.13C128.229 90.5047 128.114 89.8093 128.114 89.044C128.114 88.2833 128.229 87.5927 128.457 86.972C128.691 86.3467 129.015 85.8147 129.43 85.376C129.846 84.9327 130.343 84.5897 130.921 84.347C131.5 84.1043 132.137 83.983 132.832 83.983C133.537 83.983 134.179 84.1043 134.757 84.347C135.336 84.585 135.833 84.9257 136.248 85.369C136.664 85.8123 136.986 86.3467 137.214 86.972C137.443 87.5927 137.557 88.2833 137.557 89.044ZM136.815 89.044C136.815 88.3533 136.72 87.7327 136.528 87.182C136.337 86.6313 136.066 86.1647 135.716 85.782C135.371 85.3993 134.953 85.1077 134.463 84.907C133.973 84.7017 133.43 84.599 132.832 84.599C132.244 84.599 131.705 84.7017 131.215 84.907C130.73 85.1077 130.31 85.3993 129.955 85.782C129.605 86.1647 129.332 86.6313 129.136 87.182C128.945 87.7327 128.849 88.3533 128.849 89.044C128.849 89.7393 128.945 90.3623 129.136 90.913C129.332 91.459 129.605 91.9233 129.955 92.306C130.31 92.6887 130.73 92.9803 131.215 93.181C131.705 93.3817 132.244 93.482 132.832 93.482C133.43 93.482 133.973 93.3817 134.463 93.181C134.953 92.9803 135.371 92.6887 135.716 92.306C136.066 91.9233 136.337 91.459 136.528 90.913C136.72 90.3623 136.815 89.7393 136.815 89.044ZM151.434 89.044C151.434 89.8093 151.32 90.5047 151.091 91.13C150.862 91.7507 150.54 92.2827 150.125 92.726C149.71 93.1647 149.213 93.5053 148.634 93.748C148.055 93.986 147.414 94.105 146.709 94.105C146.014 94.105 145.377 93.986 144.798 93.748C144.219 93.5053 143.722 93.1647 143.307 92.726C142.892 92.2827 142.567 91.7507 142.334 91.13C142.105 90.5047 141.991 89.8093 141.991 89.044C141.991 88.2833 142.105 87.5927 142.334 86.972C142.567 86.3467 142.892 85.8147 143.307 85.376C143.722 84.9327 144.219 84.5897 144.798 84.347C145.377 84.1043 146.014 83.983 146.709 83.983C147.414 83.983 148.055 84.1043 148.634 84.347C149.213 84.585 149.71 84.9257 150.125 85.369C150.54 85.8123 150.862 86.3467 151.091 86.972C151.32 87.5927 151.434 88.2833 151.434 89.044ZM150.692 89.044C150.692 88.3533 150.596 87.7327 150.405 87.182C150.214 86.6313 149.943 86.1647 149.593 85.782C149.248 85.3993 148.83 85.1077 148.34 84.907C147.85 84.7017 147.306 84.599 146.709 84.599C146.121 84.599 145.582 84.7017 145.092 84.907C144.607 85.1077 144.187 85.3993 143.832 85.782C143.482 86.1647 143.209 86.6313 143.013 87.182C142.822 87.7327 142.726 88.3533 142.726 89.044C142.726 89.7393 142.822 90.3623 143.013 90.913C143.209 91.459 143.482 91.9233 143.832 92.306C144.187 92.6887 144.607 92.9803 145.092 93.181C145.582 93.3817 146.121 93.482 146.709 93.482C147.306 93.482 147.85 93.3817 148.34 93.181C148.83 92.9803 149.248 92.6887 149.593 92.306C149.943 91.9233 150.214 91.459 150.405 90.913C150.596 90.3623 150.692 89.7393 150.692 89.044ZM56.8786 106.52V111H56.1646V101.095H58.6916C59.835 101.095 60.689 101.317 61.2536 101.76C61.8183 102.199 62.1006 102.845 62.1006 103.699C62.1006 104.077 62.0353 104.422 61.9046 104.735C61.774 105.048 61.585 105.323 61.3376 105.561C61.095 105.794 60.801 105.988 60.4556 106.142C60.1103 106.291 59.7206 106.389 59.2866 106.436C59.3986 106.506 59.499 106.599 59.5876 106.716L62.9966 111H62.3736C62.299 111 62.2336 110.986 62.1776 110.958C62.1263 110.93 62.075 110.883 62.0236 110.818L58.8526 106.8C58.7733 106.697 58.687 106.625 58.5936 106.583C58.505 106.541 58.365 106.52 58.1736 106.52H56.8786ZM56.8786 105.988H58.6006C59.0393 105.988 59.4313 105.937 59.7766 105.834C60.1266 105.727 60.4206 105.575 60.6586 105.379C60.9013 105.183 61.0856 104.947 61.2116 104.672C61.3376 104.397 61.4006 104.086 61.4006 103.741C61.4006 103.036 61.1696 102.514 60.7076 102.173C60.2456 101.832 59.5736 101.662 58.6916 101.662H56.8786V105.988ZM70.7227 101.095V101.69H65.5077V105.694H69.8477V106.275H65.5077V110.405H70.7227V111H64.7867V101.095H70.7227ZM81.3951 106.044C81.3951 106.809 81.2808 107.498 81.0521 108.109C80.8235 108.72 80.5015 109.241 80.0861 109.67C79.6708 110.099 79.1738 110.428 78.5951 110.657C78.0165 110.886 77.3748 111 76.6701 111H73.0581V101.095H76.6701C77.3748 101.095 78.0165 101.209 78.5951 101.438C79.1738 101.667 79.6708 101.996 80.0861 102.425C80.5015 102.854 80.8235 103.375 81.0521 103.986C81.2808 104.597 81.3951 105.283 81.3951 106.044ZM80.6531 106.044C80.6531 105.353 80.5575 104.737 80.3661 104.196C80.1748 103.655 79.9041 103.197 79.5541 102.824C79.2088 102.451 78.7911 102.166 78.3011 101.97C77.8111 101.774 77.2675 101.676 76.6701 101.676H73.7791V110.419H76.6701C77.2675 110.419 77.8111 110.321 78.3011 110.125C78.7911 109.929 79.2088 109.644 79.5541 109.271C79.9041 108.898 80.1748 108.44 80.3661 107.899C80.5575 107.358 80.6531 106.739 80.6531 106.044ZM84.6749 111H83.9539V101.095H84.6749V111ZM92.6664 102.299C92.6244 102.378 92.5638 102.418 92.4844 102.418C92.4238 102.418 92.3444 102.376 92.2464 102.292C92.1531 102.203 92.0248 102.108 91.8614 102.005C91.6981 101.898 91.4928 101.8 91.2454 101.711C91.0028 101.622 90.7018 101.578 90.3424 101.578C89.9831 101.578 89.6658 101.629 89.3904 101.732C89.1198 101.835 88.8911 101.975 88.7044 102.152C88.5224 102.329 88.3824 102.535 88.2844 102.768C88.1911 103.001 88.1444 103.246 88.1444 103.503C88.1444 103.839 88.2144 104.117 88.3544 104.336C88.4991 104.555 88.6881 104.742 88.9214 104.896C89.1548 105.05 89.4184 105.181 89.7124 105.288C90.0111 105.391 90.3168 105.493 90.6294 105.596C90.9421 105.699 91.2454 105.813 91.5394 105.939C91.8381 106.06 92.1041 106.214 92.3374 106.401C92.5708 106.588 92.7574 106.819 92.8974 107.094C93.0421 107.365 93.1144 107.703 93.1144 108.109C93.1144 108.524 93.0421 108.916 92.8974 109.285C92.7574 109.649 92.5521 109.966 92.2814 110.237C92.0108 110.508 91.6794 110.722 91.2874 110.881C90.8954 111.035 90.4474 111.112 89.9434 111.112C89.2901 111.112 88.7278 110.998 88.2564 110.769C87.7851 110.536 87.3721 110.218 87.0174 109.817L87.2134 109.509C87.2694 109.439 87.3348 109.404 87.4094 109.404C87.4514 109.404 87.5051 109.432 87.5704 109.488C87.6358 109.544 87.7151 109.614 87.8084 109.698C87.9018 109.777 88.0138 109.866 88.1444 109.964C88.2751 110.057 88.4268 110.146 88.5994 110.23C88.7721 110.309 88.9704 110.377 89.1944 110.433C89.4184 110.489 89.6728 110.517 89.9574 110.517C90.3494 110.517 90.6994 110.459 91.0074 110.342C91.3154 110.221 91.5744 110.057 91.7844 109.852C91.9991 109.647 92.1624 109.404 92.2744 109.124C92.3864 108.839 92.4424 108.536 92.4424 108.214C92.4424 107.864 92.3701 107.577 92.2254 107.353C92.0854 107.124 91.8988 106.935 91.6654 106.786C91.4321 106.632 91.1661 106.504 90.8674 106.401C90.5734 106.298 90.2701 106.198 89.9574 106.1C89.6448 106.002 89.3391 105.892 89.0404 105.771C88.7464 105.65 88.4828 105.496 88.2494 105.309C88.0161 105.118 87.8271 104.882 87.6824 104.602C87.5424 104.317 87.4724 103.963 87.4724 103.538C87.4724 103.207 87.5354 102.887 87.6614 102.579C87.7874 102.271 87.9718 102 88.2144 101.767C88.4571 101.529 88.7558 101.34 89.1104 101.2C89.4698 101.055 89.8781 100.983 90.3354 100.983C90.8488 100.983 91.3084 101.065 91.7144 101.228C92.1251 101.391 92.4984 101.641 92.8344 101.977L92.6664 102.299ZM101.129 101.095V101.69H95.9139V105.694H100.254V106.275H95.9139V110.405H101.129V111H95.1929V101.095H101.129ZM103.814 101.095C103.88 101.095 103.931 101.104 103.968 101.123C104.006 101.137 104.045 101.172 104.087 101.228L110.499 109.81C110.485 109.67 110.478 109.535 110.478 109.404V101.095H111.108V111H110.765C110.658 111 110.572 110.953 110.506 110.86L104.066 102.264C104.08 102.404 104.087 102.537 104.087 102.663V111H103.464V101.095H103.814ZM108.378 99.688C108.574 99.688 108.724 99.625 108.826 99.499C108.929 99.3683 108.983 99.2027 108.987 99.002H109.365C109.365 99.1653 109.344 99.317 109.302 99.457C109.26 99.5923 109.2 99.7137 109.12 99.821C109.041 99.9237 108.938 100.005 108.812 100.066C108.691 100.122 108.551 100.15 108.392 100.15C108.238 100.15 108.091 100.113 107.951 100.038C107.811 99.9633 107.676 99.884 107.545 99.8C107.415 99.7113 107.286 99.6297 107.16 99.555C107.039 99.4803 106.915 99.443 106.789 99.443C106.593 99.443 106.444 99.5083 106.341 99.639C106.243 99.7697 106.19 99.933 106.18 100.129H105.788C105.788 99.9703 105.809 99.821 105.851 99.681C105.898 99.541 105.963 99.4197 106.047 99.317C106.131 99.2097 106.234 99.128 106.355 99.072C106.477 99.0113 106.617 98.981 106.775 98.981C106.934 98.981 107.083 99.0183 107.223 99.093C107.363 99.1677 107.499 99.2493 107.629 99.338C107.76 99.422 107.886 99.5013 108.007 99.576C108.129 99.6507 108.252 99.688 108.378 99.688ZM122.88 106.044C122.88 106.809 122.766 107.505 122.537 108.13C122.309 108.751 121.987 109.283 121.571 109.726C121.156 110.165 120.659 110.505 120.08 110.748C119.502 110.986 118.86 111.105 118.155 111.105C117.46 111.105 116.823 110.986 116.244 110.748C115.666 110.505 115.169 110.165 114.753 109.726C114.338 109.283 114.014 108.751 113.78 108.13C113.552 107.505 113.437 106.809 113.437 106.044C113.437 105.283 113.552 104.593 113.78 103.972C114.014 103.347 114.338 102.815 114.753 102.376C115.169 101.933 115.666 101.59 116.244 101.347C116.823 101.104 117.46 100.983 118.155 100.983C118.86 100.983 119.502 101.104 120.08 101.347C120.659 101.585 121.156 101.926 121.571 102.369C121.987 102.812 122.309 103.347 122.537 103.972C122.766 104.593 122.88 105.283 122.88 106.044ZM122.138 106.044C122.138 105.353 122.043 104.733 121.851 104.182C121.66 103.631 121.389 103.165 121.039 102.782C120.694 102.399 120.276 102.108 119.786 101.907C119.296 101.702 118.753 101.599 118.155 101.599C117.567 101.599 117.028 101.702 116.538 101.907C116.053 102.108 115.633 102.399 115.278 102.782C114.928 103.165 114.655 103.631 114.459 104.182C114.268 104.733 114.172 105.353 114.172 106.044C114.172 106.739 114.268 107.362 114.459 107.913C114.655 108.459 114.928 108.923 115.278 109.306C115.633 109.689 116.053 109.98 116.538 110.181C117.028 110.382 117.567 110.482 118.155 110.482C118.753 110.482 119.296 110.382 119.786 110.181C120.276 109.98 120.694 109.689 121.039 109.306C121.389 108.923 121.66 108.459 121.851 107.913C122.043 107.362 122.138 106.739 122.138 106.044ZM56.4241 143.334C56.4707 143.334 56.5104 143.35 56.5431 143.383L56.8231 143.684C56.6177 143.903 56.3937 144.102 56.1511 144.279C55.9084 144.452 55.6424 144.601 55.3531 144.727C55.0684 144.848 54.7534 144.942 54.4081 145.007C54.0674 145.077 53.6917 145.112 53.2811 145.112C52.5951 145.112 51.9651 144.993 51.3911 144.755C50.8217 144.512 50.3317 144.172 49.9211 143.733C49.5151 143.29 49.1977 142.755 48.9691 142.13C48.7404 141.505 48.6261 140.809 48.6261 140.044C48.6261 139.293 48.7427 138.607 48.9761 137.986C49.2141 137.365 49.5454 136.833 49.9701 136.39C50.3994 135.942 50.9104 135.597 51.5031 135.354C52.1004 135.107 52.7584 134.983 53.4771 134.983C53.8364 134.983 54.1654 135.011 54.4641 135.067C54.7627 135.118 55.0404 135.195 55.2971 135.298C55.5584 135.396 55.8034 135.52 56.0321 135.669C56.2607 135.818 56.4847 135.991 56.7041 136.187L56.4871 136.502C56.4497 136.558 56.3914 136.586 56.3121 136.586C56.2701 136.586 56.2164 136.563 56.1511 136.516C56.0857 136.465 56.0017 136.404 55.8991 136.334C55.8011 136.259 55.6797 136.18 55.5351 136.096C55.3951 136.007 55.2271 135.928 55.0311 135.858C54.8351 135.783 54.6087 135.723 54.3521 135.676C54.0954 135.625 53.8037 135.599 53.4771 135.599C52.8751 135.599 52.3221 135.704 51.8181 135.914C51.3141 136.119 50.8801 136.416 50.5161 136.803C50.1521 137.186 49.8674 137.652 49.6621 138.203C49.4614 138.749 49.3611 139.363 49.3611 140.044C49.3611 140.744 49.4614 141.369 49.6621 141.92C49.8627 142.471 50.1404 142.937 50.4951 143.32C50.8497 143.698 51.2674 143.99 51.7481 144.195C52.2334 144.396 52.7584 144.496 53.3231 144.496C53.6777 144.496 53.9927 144.473 54.2681 144.426C54.5481 144.379 54.8047 144.309 55.0381 144.216C55.2714 144.123 55.4884 144.008 55.6891 143.873C55.8897 143.738 56.0881 143.579 56.2841 143.397C56.3074 143.378 56.3284 143.364 56.3471 143.355C56.3704 143.341 56.3961 143.334 56.4241 143.334ZM59.9958 140.52V145H59.2818V135.095H61.8088C62.9521 135.095 63.8061 135.317 64.3708 135.76C64.9355 136.199 65.2178 136.845 65.2178 137.699C65.2178 138.077 65.1525 138.422 65.0218 138.735C64.8911 139.048 64.7021 139.323 64.4548 139.561C64.2121 139.794 63.9181 139.988 63.5728 140.142C63.2275 140.291 62.8378 140.389 62.4038 140.436C62.5158 140.506 62.6161 140.599 62.7048 140.716L66.1138 145H65.4908C65.4161 145 65.3508 144.986 65.2948 144.958C65.2435 144.93 65.1921 144.883 65.1408 144.818L61.9698 140.8C61.8905 140.697 61.8041 140.625 61.7108 140.583C61.6221 140.541 61.4821 140.52 61.2908 140.52H59.9958ZM59.9958 139.988H61.7178C62.1565 139.988 62.5485 139.937 62.8938 139.834C63.2438 139.727 63.5378 139.575 63.7758 139.379C64.0185 139.183 64.2028 138.947 64.3288 138.672C64.4548 138.397 64.5178 138.086 64.5178 137.741C64.5178 137.036 64.2868 136.514 63.8248 136.173C63.3628 135.832 62.6908 135.662 61.8088 135.662H59.9958V139.988ZM73.8398 135.095V135.69H68.6248V139.694H72.9648V140.275H68.6248V144.405H73.8398V145H67.9038V135.095H73.8398ZM83.6303 145H83.0773C83.012 145 82.9583 144.984 82.9163 144.951C82.8743 144.914 82.8417 144.867 82.8183 144.811L81.6493 141.934H76.7843L75.6223 144.811C75.6037 144.862 75.571 144.907 75.5243 144.944C75.4777 144.981 75.4217 145 75.3563 145H74.8103L78.8633 135.095H79.5773L83.6303 145ZM77.0013 141.402H81.4393L79.4163 136.397C79.3837 136.318 79.351 136.229 79.3183 136.131C79.2857 136.028 79.253 135.921 79.2203 135.809C79.1877 135.921 79.155 136.028 79.1223 136.131C79.0897 136.229 79.057 136.32 79.0243 136.404L77.0013 141.402ZM92.1897 143.334C92.2363 143.334 92.276 143.35 92.3087 143.383L92.5887 143.684C92.3833 143.903 92.1593 144.102 91.9167 144.279C91.674 144.452 91.408 144.601 91.1187 144.727C90.834 144.848 90.519 144.942 90.1737 145.007C89.833 145.077 89.4573 145.112 89.0467 145.112C88.3607 145.112 87.7307 144.993 87.1567 144.755C86.5873 144.512 86.0973 144.172 85.6867 143.733C85.2807 143.29 84.9633 142.755 84.7347 142.13C84.506 141.505 84.3917 140.809 84.3917 140.044C84.3917 139.293 84.5083 138.607 84.7417 137.986C84.9797 137.365 85.311 136.833 85.7357 136.39C86.165 135.942 86.676 135.597 87.2687 135.354C87.866 135.107 88.524 134.983 89.2427 134.983C89.602 134.983 89.931 135.011 90.2297 135.067C90.5283 135.118 90.806 135.195 91.0627 135.298C91.324 135.396 91.569 135.52 91.7977 135.669C92.0263 135.818 92.2503 135.991 92.4697 136.187L92.2527 136.502C92.2153 136.558 92.157 136.586 92.0777 136.586C92.0357 136.586 91.982 136.563 91.9167 136.516C91.8513 136.465 91.7673 136.404 91.6647 136.334C91.5667 136.259 91.4453 136.18 91.3007 136.096C91.1607 136.007 90.9927 135.928 90.7967 135.858C90.6007 135.783 90.3743 135.723 90.1177 135.676C89.861 135.625 89.5693 135.599 89.2427 135.599C88.6407 135.599 88.0877 135.704 87.5837 135.914C87.0797 136.119 86.6457 136.416 86.2817 136.803C85.9177 137.186 85.633 137.652 85.4277 138.203C85.227 138.749 85.1267 139.363 85.1267 140.044C85.1267 140.744 85.227 141.369 85.4277 141.92C85.6283 142.471 85.906 142.937 86.2607 143.32C86.6153 143.698 87.033 143.99 87.5137 144.195C87.999 144.396 88.524 144.496 89.0887 144.496C89.4433 144.496 89.7583 144.473 90.0337 144.426C90.3137 144.379 90.5703 144.309 90.8037 144.216C91.037 144.123 91.254 144.008 91.4547 143.873C91.6553 143.738 91.8537 143.579 92.0497 143.397C92.073 143.378 92.094 143.364 92.1127 143.355C92.136 143.341 92.1617 143.334 92.1897 143.334ZM95.8174 145H95.0964V135.095H95.8174V145ZM107.855 140.044C107.855 140.809 107.741 141.505 107.512 142.13C107.283 142.751 106.961 143.283 106.546 143.726C106.131 144.165 105.634 144.505 105.055 144.748C104.476 144.986 103.835 145.105 103.13 145.105C102.435 145.105 101.798 144.986 101.219 144.748C100.64 144.505 100.143 144.165 99.728 143.726C99.3127 143.283 98.9884 142.751 98.755 142.13C98.5264 141.505 98.412 140.809 98.412 140.044C98.412 139.283 98.5264 138.593 98.755 137.972C98.9884 137.347 99.3127 136.815 99.728 136.376C100.143 135.933 100.64 135.59 101.219 135.347C101.798 135.104 102.435 134.983 103.13 134.983C103.835 134.983 104.476 135.104 105.055 135.347C105.634 135.585 106.131 135.926 106.546 136.369C106.961 136.812 107.283 137.347 107.512 137.972C107.741 138.593 107.855 139.283 107.855 140.044ZM107.113 140.044C107.113 139.353 107.017 138.733 106.826 138.182C106.635 137.631 106.364 137.165 106.014 136.782C105.669 136.399 105.251 136.108 104.761 135.907C104.271 135.702 103.727 135.599 103.13 135.599C102.542 135.599 102.003 135.702 101.513 135.907C101.028 136.108 100.608 136.399 100.253 136.782C99.903 137.165 99.63 137.631 99.434 138.182C99.2427 138.733 99.147 139.353 99.147 140.044C99.147 140.739 99.2427 141.362 99.434 141.913C99.63 142.459 99.903 142.923 100.253 143.306C100.608 143.689 101.028 143.98 101.513 144.181C102.003 144.382 102.542 144.482 103.13 144.482C103.727 144.482 104.271 144.382 104.761 144.181C105.251 143.98 105.669 143.689 106.014 143.306C106.364 142.923 106.635 142.459 106.826 141.913C107.017 141.362 107.113 140.739 107.113 140.044ZM105.167 132.61L103.123 134.122C103.076 134.155 103.032 134.178 102.99 134.192C102.953 134.201 102.906 134.206 102.85 134.206H102.36L103.949 132.764C104.014 132.703 104.075 132.664 104.131 132.645C104.187 132.622 104.271 132.61 104.383 132.61H105.167ZM110.541 135.095C110.606 135.095 110.658 135.104 110.695 135.123C110.732 135.137 110.772 135.172 110.814 135.228L117.226 143.81C117.212 143.67 117.205 143.535 117.205 143.404V135.095H117.835V145H117.492C117.385 145 117.298 144.953 117.233 144.86L110.793 136.264C110.807 136.404 110.814 136.537 110.814 136.663V145H110.191V135.095H110.541ZM132.314 140.044C132.314 140.809 132.2 141.505 131.971 142.13C131.742 142.751 131.42 143.283 131.005 143.726C130.59 144.165 130.093 144.505 129.514 144.748C128.935 144.986 128.294 145.105 127.589 145.105C126.894 145.105 126.257 144.986 125.678 144.748C125.099 144.505 124.602 144.165 124.187 143.726C123.772 143.283 123.447 142.751 123.214 142.13C122.985 141.505 122.871 140.809 122.871 140.044C122.871 139.283 122.985 138.593 123.214 137.972C123.447 137.347 123.772 136.815 124.187 136.376C124.602 135.933 125.099 135.59 125.678 135.347C126.257 135.104 126.894 134.983 127.589 134.983C128.294 134.983 128.935 135.104 129.514 135.347C130.093 135.585 130.59 135.926 131.005 136.369C131.42 136.812 131.742 137.347 131.971 137.972C132.2 138.593 132.314 139.283 132.314 140.044ZM131.572 140.044C131.572 139.353 131.476 138.733 131.285 138.182C131.094 137.631 130.823 137.165 130.473 136.782C130.128 136.399 129.71 136.108 129.22 135.907C128.73 135.702 128.186 135.599 127.589 135.599C127.001 135.599 126.462 135.702 125.972 135.907C125.487 136.108 125.067 136.399 124.712 136.782C124.362 137.165 124.089 137.631 123.893 138.182C123.702 138.733 123.606 139.353 123.606 140.044C123.606 140.739 123.702 141.362 123.893 141.913C124.089 142.459 124.362 142.923 124.712 143.306C125.067 143.689 125.487 143.98 125.972 144.181C126.462 144.382 127.001 144.482 127.589 144.482C128.186 144.482 128.73 144.382 129.22 144.181C129.71 143.98 130.128 143.689 130.473 143.306C130.823 142.923 131.094 142.459 131.285 141.913C131.476 141.362 131.572 140.739 131.572 140.044ZM29.7358 162H29.1828C29.1175 162 29.0638 161.984 29.0218 161.951C28.9798 161.914 28.9471 161.867 28.9238 161.811L27.7548 158.934H22.8898L21.7278 161.811C21.7091 161.862 21.6765 161.907 21.6298 161.944C21.5831 161.981 21.5271 162 21.4618 162H20.9158L24.9688 152.095H25.6828L29.7358 162ZM23.1068 158.402H27.5448L25.5218 153.397C25.4891 153.318 25.4565 153.229 25.4238 153.131C25.3911 153.028 25.3585 152.921 25.3258 152.809C25.2931 152.921 25.2605 153.028 25.2278 153.131C25.1951 153.229 25.1625 153.32 25.1298 153.404L23.1068 158.402ZM38.2952 160.334C38.3418 160.334 38.3815 160.35 38.4142 160.383L38.6942 160.684C38.4888 160.903 38.2648 161.102 38.0222 161.279C37.7795 161.452 37.5135 161.601 37.2242 161.727C36.9395 161.848 36.6245 161.942 36.2792 162.007C35.9385 162.077 35.5628 162.112 35.1522 162.112C34.4662 162.112 33.8362 161.993 33.2622 161.755C32.6928 161.512 32.2028 161.172 31.7922 160.733C31.3862 160.29 31.0688 159.755 30.8402 159.13C30.6115 158.505 30.4972 157.809 30.4972 157.044C30.4972 156.293 30.6138 155.607 30.8472 154.986C31.0852 154.365 31.4165 153.833 31.8412 153.39C32.2705 152.942 32.7815 152.597 33.3742 152.354C33.9715 152.107 34.6295 151.983 35.3482 151.983C35.7075 151.983 36.0365 152.011 36.3352 152.067C36.6338 152.118 36.9115 152.195 37.1682 152.298C37.4295 152.396 37.6745 152.52 37.9032 152.669C38.1318 152.818 38.3558 152.991 38.5752 153.187L38.3582 153.502C38.3208 153.558 38.2625 153.586 38.1832 153.586C38.1412 153.586 38.0875 153.563 38.0222 153.516C37.9568 153.465 37.8728 153.404 37.7702 153.334C37.6722 153.259 37.5508 153.18 37.4062 153.096C37.2662 153.007 37.0982 152.928 36.9022 152.858C36.7062 152.783 36.4798 152.723 36.2232 152.676C35.9665 152.625 35.6748 152.599 35.3482 152.599C34.7462 152.599 34.1932 152.704 33.6892 152.914C33.1852 153.119 32.7512 153.416 32.3872 153.803C32.0232 154.186 31.7385 154.652 31.5332 155.203C31.3325 155.749 31.2322 156.363 31.2322 157.044C31.2322 157.744 31.3325 158.369 31.5332 158.92C31.7338 159.471 32.0115 159.937 32.3662 160.32C32.7208 160.698 33.1385 160.99 33.6192 161.195C34.1045 161.396 34.6295 161.496 35.1942 161.496C35.5488 161.496 35.8638 161.473 36.1392 161.426C36.4192 161.379 36.6758 161.309 36.9092 161.216C37.1425 161.123 37.3595 161.008 37.5602 160.873C37.7608 160.738 37.9592 160.579 38.1552 160.397C38.1785 160.378 38.1995 160.364 38.2182 160.355C38.2415 160.341 38.2672 160.334 38.2952 160.334ZM47.4109 152.095V152.704H43.9319V162H43.2179V152.704H39.7179V152.095H47.4109ZM52.7934 161.489C53.2694 161.489 53.694 161.407 54.0674 161.244C54.4454 161.076 54.765 160.845 55.0264 160.551C55.2877 160.257 55.486 159.912 55.6214 159.515C55.7614 159.114 55.8314 158.682 55.8314 158.22V152.095H56.5454V158.22C56.5454 158.766 56.459 159.277 56.2864 159.753C56.1137 160.224 55.864 160.637 55.5374 160.992C55.2154 161.342 54.821 161.617 54.3544 161.818C53.8924 162.019 53.372 162.119 52.7934 162.119C52.2147 162.119 51.692 162.019 51.2254 161.818C50.7634 161.617 50.369 161.342 50.0424 160.992C49.7204 160.637 49.473 160.224 49.3004 159.753C49.1277 159.277 49.0414 158.766 49.0414 158.22V152.095H49.7624V158.213C49.7624 158.675 49.83 159.107 49.9654 159.508C50.1054 159.905 50.3037 160.25 50.5604 160.544C50.8217 160.838 51.139 161.069 51.5124 161.237C51.8904 161.405 52.3174 161.489 52.7934 161.489ZM66.4448 162H65.8918C65.8264 162 65.7728 161.984 65.7308 161.951C65.6888 161.914 65.6561 161.867 65.6328 161.811L64.4638 158.934H59.5988L58.4368 161.811C58.4181 161.862 58.3854 161.907 58.3388 161.944C58.2921 161.981 58.2361 162 58.1708 162H57.6248L61.6778 152.095H62.3918L66.4448 162ZM59.8158 158.402H64.2538L62.2308 153.397C62.1981 153.318 62.1654 153.229 62.1328 153.131C62.1001 153.028 62.0674 152.921 62.0348 152.809C62.0021 152.921 61.9694 153.028 61.9368 153.131C61.9041 153.229 61.8714 153.32 61.8388 153.404L59.8158 158.402ZM68.7272 161.391H73.4242V162H68.0132V152.095H68.7272V161.391ZM76.1573 162H75.4363V152.095H76.1573V162ZM86.0319 152.095V152.34C86.0319 152.438 85.9992 152.534 85.9339 152.627L79.6479 161.405H85.9759V162H78.6959V161.741C78.6959 161.652 78.7239 161.568 78.7799 161.489L85.0799 152.69H78.8779V152.095H86.0319ZM95.6752 162H95.1222C95.0569 162 95.0032 161.984 94.9612 161.951C94.9192 161.914 94.8866 161.867 94.8632 161.811L93.6942 158.934H88.8292L87.6672 161.811C87.6486 161.862 87.6159 161.907 87.5692 161.944C87.5226 161.981 87.4666 162 87.4012 162H86.8552L90.9082 152.095H91.6222L95.6752 162ZM89.0462 158.402H93.4842L91.4612 153.397C91.4286 153.318 91.3959 153.229 91.3632 153.131C91.3306 153.028 91.2979 152.921 91.2652 152.809C91.2326 152.921 91.1999 153.028 91.1672 153.131C91.1346 153.229 91.1019 153.32 91.0692 153.404L89.0462 158.402ZM104.235 160.334C104.281 160.334 104.321 160.35 104.354 160.383L104.634 160.684C104.428 160.903 104.204 161.102 103.962 161.279C103.719 161.452 103.453 161.601 103.164 161.727C102.879 161.848 102.564 161.942 102.219 162.007C101.878 162.077 101.502 162.112 101.092 162.112C100.406 162.112 99.7756 161.993 99.2016 161.755C98.6323 161.512 98.1423 161.172 97.7316 160.733C97.3256 160.29 97.0083 159.755 96.7796 159.13C96.5509 158.505 96.4366 157.809 96.4366 157.044C96.4366 156.293 96.5533 155.607 96.7866 154.986C97.0246 154.365 97.3559 153.833 97.7806 153.39C98.2099 152.942 98.7209 152.597 99.3136 152.354C99.9109 152.107 100.569 151.983 101.288 151.983C101.647 151.983 101.976 152.011 102.275 152.067C102.573 152.118 102.851 152.195 103.108 152.298C103.369 152.396 103.614 152.52 103.843 152.669C104.071 152.818 104.295 152.991 104.515 153.187L104.298 153.502C104.26 153.558 104.202 153.586 104.123 153.586C104.081 153.586 104.027 153.563 103.962 153.516C103.896 153.465 103.812 153.404 103.71 153.334C103.612 153.259 103.49 153.18 103.346 153.096C103.206 153.007 103.038 152.928 102.842 152.858C102.646 152.783 102.419 152.723 102.163 152.676C101.906 152.625 101.614 152.599 101.288 152.599C100.686 152.599 100.133 152.704 99.6286 152.914C99.1246 153.119 98.6906 153.416 98.3266 153.803C97.9626 154.186 97.6779 154.652 97.4726 155.203C97.2719 155.749 97.1716 156.363 97.1716 157.044C97.1716 157.744 97.2719 158.369 97.4726 158.92C97.6733 159.471 97.9509 159.937 98.3056 160.32C98.6603 160.698 99.0779 160.99 99.5586 161.195C100.044 161.396 100.569 161.496 101.134 161.496C101.488 161.496 101.803 161.473 102.079 161.426C102.359 161.379 102.615 161.309 102.849 161.216C103.082 161.123 103.299 161.008 103.5 160.873C103.7 160.738 103.899 160.579 104.095 160.397C104.118 160.378 104.139 160.364 104.158 160.355C104.181 160.341 104.207 160.334 104.235 160.334ZM107.862 162H107.141V152.095H107.862V162ZM119.9 157.044C119.9 157.809 119.786 158.505 119.557 159.13C119.328 159.751 119.006 160.283 118.591 160.726C118.176 161.165 117.679 161.505 117.1 161.748C116.521 161.986 115.88 162.105 115.175 162.105C114.48 162.105 113.843 161.986 113.264 161.748C112.685 161.505 112.188 161.165 111.773 160.726C111.358 160.283 111.033 159.751 110.8 159.13C110.571 158.505 110.457 157.809 110.457 157.044C110.457 156.283 110.571 155.593 110.8 154.972C111.033 154.347 111.358 153.815 111.773 153.376C112.188 152.933 112.685 152.59 113.264 152.347C113.843 152.104 114.48 151.983 115.175 151.983C115.88 151.983 116.521 152.104 117.1 152.347C117.679 152.585 118.176 152.926 118.591 153.369C119.006 153.812 119.328 154.347 119.557 154.972C119.786 155.593 119.9 156.283 119.9 157.044ZM119.158 157.044C119.158 156.353 119.062 155.733 118.871 155.182C118.68 154.631 118.409 154.165 118.059 153.782C117.714 153.399 117.296 153.108 116.806 152.907C116.316 152.702 115.772 152.599 115.175 152.599C114.587 152.599 114.048 152.702 113.558 152.907C113.073 153.108 112.653 153.399 112.298 153.782C111.948 154.165 111.675 154.631 111.479 155.182C111.288 155.733 111.192 156.353 111.192 157.044C111.192 157.739 111.288 158.362 111.479 158.913C111.675 159.459 111.948 159.923 112.298 160.306C112.653 160.689 113.073 160.98 113.558 161.181C114.048 161.382 114.587 161.482 115.175 161.482C115.772 161.482 116.316 161.382 116.806 161.181C117.296 160.98 117.714 160.689 118.059 160.306C118.409 159.923 118.68 159.459 118.871 158.913C119.062 158.362 119.158 157.739 119.158 157.044ZM117.212 149.61L115.168 151.122C115.121 151.155 115.077 151.178 115.035 151.192C114.998 151.201 114.951 151.206 114.895 151.206H114.405L115.994 149.764C116.059 149.703 116.12 149.664 116.176 149.645C116.232 149.622 116.316 149.61 116.428 149.61H117.212ZM122.586 152.095C122.651 152.095 122.703 152.104 122.74 152.123C122.777 152.137 122.817 152.172 122.859 152.228L129.271 160.81C129.257 160.67 129.25 160.535 129.25 160.404V152.095H129.88V162H129.537C129.43 162 129.343 161.953 129.278 161.86L122.838 153.264C122.852 153.404 122.859 153.537 122.859 153.663V162H122.236V152.095H122.586ZM143.862 157.044C143.862 157.809 143.748 158.498 143.519 159.109C143.29 159.72 142.968 160.241 142.553 160.67C142.138 161.099 141.641 161.428 141.062 161.657C140.483 161.886 139.842 162 139.137 162H135.525V152.095H139.137C139.842 152.095 140.483 152.209 141.062 152.438C141.641 152.667 142.138 152.996 142.553 153.425C142.968 153.854 143.29 154.375 143.519 154.986C143.748 155.597 143.862 156.283 143.862 157.044ZM143.12 157.044C143.12 156.353 143.024 155.737 142.833 155.196C142.642 154.655 142.371 154.197 142.021 153.824C141.676 153.451 141.258 153.166 140.768 152.97C140.278 152.774 139.734 152.676 139.137 152.676H136.246V161.419H139.137C139.734 161.419 140.278 161.321 140.768 161.125C141.258 160.929 141.676 160.644 142.021 160.271C142.371 159.898 142.642 159.44 142.833 158.899C143.024 158.358 143.12 157.739 143.12 157.044ZM152.098 152.095V152.69H146.883V156.694H151.223V157.275H146.883V161.405H152.098V162H146.162V152.095H152.098ZM155.147 161.391H159.844V162H154.433V152.095H155.147V161.391ZM33.7954 170.299C33.7534 170.378 33.6927 170.418 33.6134 170.418C33.5527 170.418 33.4734 170.376 33.3754 170.292C33.282 170.203 33.1537 170.108 32.9904 170.005C32.827 169.898 32.6217 169.8 32.3744 169.711C32.1317 169.622 31.8307 169.578 31.4714 169.578C31.112 169.578 30.7947 169.629 30.5194 169.732C30.2487 169.835 30.02 169.975 29.8334 170.152C29.6514 170.329 29.5114 170.535 29.4134 170.768C29.32 171.001 29.2734 171.246 29.2734 171.503C29.2734 171.839 29.3434 172.117 29.4834 172.336C29.628 172.555 29.817 172.742 30.0504 172.896C30.2837 173.05 30.5474 173.181 30.8414 173.288C31.14 173.391 31.4457 173.493 31.7584 173.596C32.071 173.699 32.3744 173.813 32.6684 173.939C32.967 174.06 33.233 174.214 33.4664 174.401C33.6997 174.588 33.8864 174.819 34.0264 175.094C34.171 175.365 34.2434 175.703 34.2434 176.109C34.2434 176.524 34.171 176.916 34.0264 177.285C33.8864 177.649 33.681 177.966 33.4104 178.237C33.1397 178.508 32.8084 178.722 32.4164 178.881C32.0244 179.035 31.5764 179.112 31.0724 179.112C30.419 179.112 29.8567 178.998 29.3854 178.769C28.914 178.536 28.501 178.218 28.1464 177.817L28.3424 177.509C28.3984 177.439 28.4637 177.404 28.5384 177.404C28.5804 177.404 28.634 177.432 28.6994 177.488C28.7647 177.544 28.844 177.614 28.9374 177.698C29.0307 177.777 29.1427 177.866 29.2734 177.964C29.404 178.057 29.5557 178.146 29.7284 178.23C29.901 178.309 30.0994 178.377 30.3234 178.433C30.5474 178.489 30.8017 178.517 31.0864 178.517C31.4784 178.517 31.8284 178.459 32.1364 178.342C32.4444 178.221 32.7034 178.057 32.9134 177.852C33.128 177.647 33.2914 177.404 33.4034 177.124C33.5154 176.839 33.5714 176.536 33.5714 176.214C33.5714 175.864 33.499 175.577 33.3544 175.353C33.2144 175.124 33.0277 174.935 32.7944 174.786C32.561 174.632 32.295 174.504 31.9964 174.401C31.7024 174.298 31.399 174.198 31.0864 174.1C30.7737 174.002 30.468 173.892 30.1694 173.771C29.8754 173.65 29.6117 173.496 29.3784 173.309C29.145 173.118 28.956 172.882 28.8114 172.602C28.6714 172.317 28.6014 171.963 28.6014 171.538C28.6014 171.207 28.6644 170.887 28.7904 170.579C28.9164 170.271 29.1007 170 29.3434 169.767C29.586 169.529 29.8847 169.34 30.2394 169.2C30.5987 169.055 31.007 168.983 31.4644 168.983C31.9777 168.983 32.4374 169.065 32.8434 169.228C33.254 169.391 33.6274 169.641 33.9634 169.977L33.7954 170.299ZM37.3018 179H36.5808V169.095H37.3018V179ZM46.9734 169.095V169.704H43.4944V179H42.7804V169.704H39.2804V169.095H46.9734ZM49.6749 179H48.9539V169.095H49.6749V179ZM61.7124 174.044C61.7124 174.809 61.5981 175.505 61.3694 176.13C61.1408 176.751 60.8188 177.283 60.4034 177.726C59.9881 178.165 59.4911 178.505 58.9124 178.748C58.3338 178.986 57.6921 179.105 56.9874 179.105C56.2921 179.105 55.6551 178.986 55.0764 178.748C54.4978 178.505 54.0008 178.165 53.5854 177.726C53.1701 177.283 52.8458 176.751 52.6124 176.13C52.3838 175.505 52.2694 174.809 52.2694 174.044C52.2694 173.283 52.3838 172.593 52.6124 171.972C52.8458 171.347 53.1701 170.815 53.5854 170.376C54.0008 169.933 54.4978 169.59 55.0764 169.347C55.6551 169.104 56.2921 168.983 56.9874 168.983C57.6921 168.983 58.3338 169.104 58.9124 169.347C59.4911 169.585 59.9881 169.926 60.4034 170.369C60.8188 170.812 61.1408 171.347 61.3694 171.972C61.5981 172.593 61.7124 173.283 61.7124 174.044ZM60.9704 174.044C60.9704 173.353 60.8748 172.733 60.6834 172.182C60.4921 171.631 60.2214 171.165 59.8714 170.782C59.5261 170.399 59.1084 170.108 58.6184 169.907C58.1284 169.702 57.5848 169.599 56.9874 169.599C56.3994 169.599 55.8604 169.702 55.3704 169.907C54.8851 170.108 54.4651 170.399 54.1104 170.782C53.7604 171.165 53.4874 171.631 53.2914 172.182C53.1001 172.733 53.0044 173.353 53.0044 174.044C53.0044 174.739 53.1001 175.362 53.2914 175.913C53.4874 176.459 53.7604 176.923 54.1104 177.306C54.4651 177.689 54.8851 177.98 55.3704 178.181C55.8604 178.382 56.3994 178.482 56.9874 178.482C57.5848 178.482 58.1284 178.382 58.6184 178.181C59.1084 177.98 59.5261 177.689 59.8714 177.306C60.2214 176.923 60.4921 176.459 60.6834 175.913C60.8748 175.362 60.9704 174.739 60.9704 174.044ZM73.9514 177.334C73.9981 177.334 74.0377 177.35 74.0704 177.383L74.3504 177.684C74.1451 177.903 73.9211 178.102 73.6784 178.279C73.4357 178.452 73.1697 178.601 72.8804 178.727C72.5957 178.848 72.2807 178.942 71.9354 179.007C71.5947 179.077 71.2191 179.112 70.8084 179.112C70.1224 179.112 69.4924 178.993 68.9184 178.755C68.3491 178.512 67.8591 178.172 67.4484 177.733C67.0424 177.29 66.7251 176.755 66.4964 176.13C66.2677 175.505 66.1534 174.809 66.1534 174.044C66.1534 173.293 66.2701 172.607 66.5034 171.986C66.7414 171.365 67.0727 170.833 67.4974 170.39C67.9267 169.942 68.4377 169.597 69.0304 169.354C69.6277 169.107 70.2857 168.983 71.0044 168.983C71.3637 168.983 71.6927 169.011 71.9914 169.067C72.2901 169.118 72.5677 169.195 72.8244 169.298C73.0857 169.396 73.3307 169.52 73.5594 169.669C73.7881 169.818 74.0121 169.991 74.2314 170.187L74.0144 170.502C73.9771 170.558 73.9187 170.586 73.8394 170.586C73.7974 170.586 73.7437 170.563 73.6784 170.516C73.6131 170.465 73.5291 170.404 73.4264 170.334C73.3284 170.259 73.2071 170.18 73.0624 170.096C72.9224 170.007 72.7544 169.928 72.5584 169.858C72.3624 169.783 72.1361 169.723 71.8794 169.676C71.6227 169.625 71.3311 169.599 71.0044 169.599C70.4024 169.599 69.8494 169.704 69.3454 169.914C68.8414 170.119 68.4074 170.416 68.0434 170.803C67.6794 171.186 67.3947 171.652 67.1894 172.203C66.9887 172.749 66.8884 173.363 66.8884 174.044C66.8884 174.744 66.9887 175.369 67.1894 175.92C67.3901 176.471 67.6677 176.937 68.0224 177.32C68.3771 177.698 68.7947 177.99 69.2754 178.195C69.7607 178.396 70.2857 178.496 70.8504 178.496C71.2051 178.496 71.5201 178.473 71.7954 178.426C72.0754 178.379 72.3321 178.309 72.5654 178.216C72.7987 178.123 73.0157 178.008 73.2164 177.873C73.4171 177.738 73.6154 177.579 73.8114 177.397C73.8347 177.378 73.8557 177.364 73.8744 177.355C73.8977 177.341 73.9234 177.334 73.9514 177.334ZM85.4332 174.044C85.4332 174.809 85.3188 175.505 85.0902 176.13C84.8615 176.751 84.5395 177.283 84.1242 177.726C83.7088 178.165 83.2118 178.505 82.6332 178.748C82.0545 178.986 81.4128 179.105 80.7082 179.105C80.0128 179.105 79.3758 178.986 78.7972 178.748C78.2185 178.505 77.7215 178.165 77.3062 177.726C76.8908 177.283 76.5665 176.751 76.3332 176.13C76.1045 175.505 75.9902 174.809 75.9902 174.044C75.9902 173.283 76.1045 172.593 76.3332 171.972C76.5665 171.347 76.8908 170.815 77.3062 170.376C77.7215 169.933 78.2185 169.59 78.7972 169.347C79.3758 169.104 80.0128 168.983 80.7082 168.983C81.4128 168.983 82.0545 169.104 82.6332 169.347C83.2118 169.585 83.7088 169.926 84.1242 170.369C84.5395 170.812 84.8615 171.347 85.0902 171.972C85.3188 172.593 85.4332 173.283 85.4332 174.044ZM84.6912 174.044C84.6912 173.353 84.5955 172.733 84.4042 172.182C84.2128 171.631 83.9422 171.165 83.5922 170.782C83.2468 170.399 82.8292 170.108 82.3392 169.907C81.8492 169.702 81.3055 169.599 80.7082 169.599C80.1202 169.599 79.5812 169.702 79.0912 169.907C78.6058 170.108 78.1858 170.399 77.8312 170.782C77.4812 171.165 77.2082 171.631 77.0122 172.182C76.8208 172.733 76.7252 173.353 76.7252 174.044C76.7252 174.739 76.8208 175.362 77.0122 175.913C77.2082 176.459 77.4812 176.923 77.8312 177.306C78.1858 177.689 78.6058 177.98 79.0912 178.181C79.5812 178.382 80.1202 178.482 80.7082 178.482C81.3055 178.482 81.8492 178.382 82.3392 178.181C82.8292 177.98 83.2468 177.689 83.5922 177.306C83.9422 176.923 84.2128 176.459 84.4042 175.913C84.5955 175.362 84.6912 174.739 84.6912 174.044ZM88.1191 169.095C88.1844 169.095 88.2357 169.104 88.2731 169.123C88.3104 169.137 88.3501 169.172 88.3921 169.228L94.8041 177.81C94.7901 177.67 94.7831 177.535 94.7831 177.404V169.095H95.4131V179H95.0701C94.9627 179 94.8764 178.953 94.8111 178.86L88.3711 170.264C88.3851 170.404 88.3921 170.537 88.3921 170.663V179H87.7691V169.095H88.1191ZM101.408 169.095C101.473 169.095 101.525 169.104 101.562 169.123C101.599 169.137 101.639 169.172 101.681 169.228L108.093 177.81C108.079 177.67 108.072 177.535 108.072 177.404V169.095H108.702V179H108.359C108.252 179 108.165 178.953 108.1 178.86L101.66 170.264C101.674 170.404 101.681 170.537 101.681 170.663V179H101.058V169.095H101.408ZM115.301 178.489C115.777 178.489 116.202 178.407 116.575 178.244C116.953 178.076 117.273 177.845 117.534 177.551C117.795 177.257 117.994 176.912 118.129 176.515C118.269 176.114 118.339 175.682 118.339 175.22V169.095H119.053V175.22C119.053 175.766 118.967 176.277 118.794 176.753C118.621 177.224 118.372 177.637 118.045 177.992C117.723 178.342 117.329 178.617 116.862 178.818C116.4 179.019 115.88 179.119 115.301 179.119C114.722 179.119 114.2 179.019 113.733 178.818C113.271 178.617 112.877 178.342 112.55 177.992C112.228 177.637 111.981 177.224 111.808 176.753C111.635 176.277 111.549 175.766 111.549 175.22V169.095H112.27V175.213C112.27 175.675 112.338 176.107 112.473 176.508C112.613 176.905 112.811 177.25 113.068 177.544C113.329 177.838 113.647 178.069 114.02 178.237C114.398 178.405 114.825 178.489 115.301 178.489ZM127.844 169.095V169.69H122.629V173.694H126.969V174.275H122.629V178.405H127.844V179H121.908V169.095H127.844ZM128.814 169.095H129.381C129.447 169.095 129.5 169.114 129.542 169.151C129.584 169.184 129.617 169.228 129.64 169.284L133.014 177.502C133.103 177.717 133.175 177.945 133.231 178.188C133.283 177.936 133.35 177.707 133.434 177.502L136.801 169.284C136.825 169.233 136.857 169.188 136.899 169.151C136.946 169.114 137.002 169.095 137.067 169.095H137.627L133.539 179H132.902L128.814 169.095ZM145.988 179H145.435C145.369 179 145.316 178.984 145.274 178.951C145.232 178.914 145.199 178.867 145.176 178.811L144.007 175.934H139.142L137.98 178.811C137.961 178.862 137.928 178.907 137.882 178.944C137.835 178.981 137.779 179 137.714 179H137.168L141.221 169.095H141.935L145.988 179ZM139.359 175.402H143.797L141.774 170.397C141.741 170.318 141.708 170.229 141.676 170.131C141.643 170.028 141.61 169.921 141.578 169.809C141.545 169.921 141.512 170.028 141.48 170.131C141.447 170.229 141.414 170.32 141.382 170.404L139.359 175.402ZM152.344 170.299C152.302 170.378 152.242 170.418 152.162 170.418C152.102 170.418 152.022 170.376 151.924 170.292C151.831 170.203 151.703 170.108 151.539 170.005C151.376 169.898 151.171 169.8 150.923 169.711C150.681 169.622 150.38 169.578 150.02 169.578C149.661 169.578 149.344 169.629 149.068 169.732C148.798 169.835 148.569 169.975 148.382 170.152C148.2 170.329 148.06 170.535 147.962 170.768C147.869 171.001 147.822 171.246 147.822 171.503C147.822 171.839 147.892 172.117 148.032 172.336C148.177 172.555 148.366 172.742 148.599 172.896C148.833 173.05 149.096 173.181 149.39 173.288C149.689 173.391 149.995 173.493 150.307 173.596C150.62 173.699 150.923 173.813 151.217 173.939C151.516 174.06 151.782 174.214 152.015 174.401C152.249 174.588 152.435 174.819 152.575 175.094C152.72 175.365 152.792 175.703 152.792 176.109C152.792 176.524 152.72 176.916 152.575 177.285C152.435 177.649 152.23 177.966 151.959 178.237C151.689 178.508 151.357 178.722 150.965 178.881C150.573 179.035 150.125 179.112 149.621 179.112C148.968 179.112 148.406 178.998 147.934 178.769C147.463 178.536 147.05 178.218 146.695 177.817L146.891 177.509C146.947 177.439 147.013 177.404 147.087 177.404C147.129 177.404 147.183 177.432 147.248 177.488C147.314 177.544 147.393 177.614 147.486 177.698C147.58 177.777 147.692 177.866 147.822 177.964C147.953 178.057 148.105 178.146 148.277 178.23C148.45 178.309 148.648 178.377 148.872 178.433C149.096 178.489 149.351 178.517 149.635 178.517C150.027 178.517 150.377 178.459 150.685 178.342C150.993 178.221 151.252 178.057 151.462 177.852C151.677 177.647 151.84 177.404 151.952 177.124C152.064 176.839 152.12 176.536 152.12 176.214C152.12 175.864 152.048 175.577 151.903 175.353C151.763 175.124 151.577 174.935 151.343 174.786C151.11 174.632 150.844 174.504 150.545 174.401C150.251 174.298 149.948 174.198 149.635 174.1C149.323 174.002 149.017 173.892 148.718 173.771C148.424 173.65 148.161 173.496 147.927 173.309C147.694 173.118 147.505 172.882 147.36 172.602C147.22 172.317 147.15 171.963 147.15 171.538C147.15 171.207 147.213 170.887 147.339 170.579C147.465 170.271 147.65 170 147.892 169.767C148.135 169.529 148.434 169.34 148.788 169.2C149.148 169.055 149.556 168.983 150.013 168.983C150.527 168.983 150.986 169.065 151.392 169.228C151.803 169.391 152.176 169.641 152.512 169.977L152.344 170.299ZM47.0693 196H46.3483V191.254H40.1463V196H39.4253V186.095H40.1463V190.715H46.3483V186.095H47.0693V196ZM55.9434 186.095V186.69H50.7284V190.694H55.0684V191.275H50.7284V195.405H55.9434V196H50.0074V186.095H55.9434ZM59.2028 191.52V196H58.4888V186.095H61.0158C62.1592 186.095 63.0132 186.317 63.5778 186.76C64.1425 187.199 64.4248 187.845 64.4248 188.699C64.4248 189.077 64.3595 189.422 64.2288 189.735C64.0982 190.048 63.9092 190.323 63.6618 190.561C63.4192 190.794 63.1252 190.988 62.7798 191.142C62.4345 191.291 62.0448 191.389 61.6108 191.436C61.7228 191.506 61.8232 191.599 61.9118 191.716L65.3208 196H64.6978C64.6232 196 64.5578 195.986 64.5018 195.958C64.4505 195.93 64.3992 195.883 64.3478 195.818L61.1768 191.8C61.0975 191.697 61.0112 191.625 60.9178 191.583C60.8292 191.541 60.6892 191.52 60.4978 191.52H59.2028ZM59.2028 190.988H60.9248C61.3635 190.988 61.7555 190.937 62.1008 190.834C62.4508 190.727 62.7448 190.575 62.9828 190.379C63.2255 190.183 63.4098 189.947 63.5358 189.672C63.6618 189.397 63.7248 189.086 63.7248 188.741C63.7248 188.036 63.4938 187.514 63.0318 187.173C62.5698 186.832 61.8978 186.662 61.0158 186.662H59.2028V190.988ZM68.0349 191.52V196H67.3209V186.095H69.8479C70.9912 186.095 71.8452 186.317 72.4099 186.76C72.9745 187.199 73.2569 187.845 73.2569 188.699C73.2569 189.077 73.1915 189.422 73.0609 189.735C72.9302 190.048 72.7412 190.323 72.4939 190.561C72.2512 190.794 71.9572 190.988 71.6119 191.142C71.2665 191.291 70.8769 191.389 70.4429 191.436C70.5549 191.506 70.6552 191.599 70.7439 191.716L74.1529 196H73.5299C73.4552 196 73.3899 195.986 73.3339 195.958C73.2825 195.93 73.2312 195.883 73.1799 195.818L70.0089 191.8C69.9295 191.697 69.8432 191.625 69.7499 191.583C69.6612 191.541 69.5212 191.52 69.3299 191.52H68.0349ZM68.0349 190.988H69.7569C70.1955 190.988 70.5875 190.937 70.9329 190.834C71.2829 190.727 71.5769 190.575 71.8149 190.379C72.0575 190.183 72.2419 189.947 72.3679 189.672C72.4939 189.397 72.5569 189.086 72.5569 188.741C72.5569 188.036 72.3259 187.514 71.8639 187.173C71.4019 186.832 70.7299 186.662 69.8479 186.662H68.0349V190.988ZM83.3979 196H82.8449C82.7796 196 82.7259 195.984 82.6839 195.951C82.6419 195.914 82.6092 195.867 82.5859 195.811L81.4169 192.934H76.5519L75.3899 195.811C75.3712 195.862 75.3386 195.907 75.2919 195.944C75.2452 195.981 75.1892 196 75.1239 196H74.5779L78.6309 186.095H79.3449L83.3979 196ZM76.7689 192.402H81.2069L79.1839 187.397C79.1512 187.318 79.1186 187.229 79.0859 187.131C79.0532 187.028 79.0206 186.921 78.9879 186.809C78.9552 186.921 78.9226 187.028 78.8899 187.131C78.8572 187.229 78.8246 187.32 78.7919 187.404L76.7689 192.402ZM89.7263 193.116C89.7963 193.247 89.857 193.387 89.9083 193.536C89.9363 193.461 89.9643 193.389 89.9923 193.319C90.025 193.244 90.06 193.174 90.0973 193.109L93.9893 186.228C94.0267 186.167 94.064 186.13 94.1013 186.116C94.1387 186.102 94.19 186.095 94.2553 186.095H94.7523V196H94.1223V187.558C94.1223 187.437 94.1293 187.308 94.1433 187.173L90.2443 194.096C90.179 194.217 90.0857 194.278 89.9643 194.278H89.8523C89.7357 194.278 89.6423 194.217 89.5723 194.096L85.5683 187.166C85.5823 187.301 85.5893 187.432 85.5893 187.558V196H84.9663V186.095H85.4563C85.5217 186.095 85.573 186.102 85.6103 186.116C85.6523 186.13 85.692 186.167 85.7293 186.228L89.7263 193.116ZM98.6749 196H97.9539V186.095H98.6749V196ZM107.814 186.095V186.69H102.599V190.694H106.939V191.275H102.599V195.405H107.814V196H101.878V186.095H107.814ZM110.5 186.095C110.565 186.095 110.617 186.104 110.654 186.123C110.691 186.137 110.731 186.172 110.773 186.228L117.185 194.81C117.171 194.67 117.164 194.535 117.164 194.404V186.095H117.794V196H117.451C117.344 196 117.257 195.953 117.192 195.86L110.752 187.264C110.766 187.404 110.773 187.537 110.773 187.663V196H110.15V186.095H110.5ZM127.2 186.095V186.704H123.721V196H123.007V186.704H119.507V186.095H127.2ZM135.57 196H135.017C134.951 196 134.898 195.984 134.856 195.951C134.814 195.914 134.781 195.867 134.758 195.811L133.589 192.934H128.724L127.562 195.811C127.543 195.862 127.51 195.907 127.464 195.944C127.417 195.981 127.361 196 127.296 196H126.75L130.803 186.095H131.517L135.57 196ZM128.941 192.402H133.379L131.356 187.397C131.323 187.318 131.29 187.229 131.258 187.131C131.225 187.028 131.192 186.921 131.16 186.809C131.127 186.921 131.094 187.028 131.062 187.131C131.029 187.229 130.996 187.32 130.964 187.404L128.941 192.402ZM141.926 187.299C141.884 187.378 141.824 187.418 141.744 187.418C141.684 187.418 141.604 187.376 141.506 187.292C141.413 187.203 141.285 187.108 141.121 187.005C140.958 186.898 140.753 186.8 140.505 186.711C140.263 186.622 139.962 186.578 139.602 186.578C139.243 186.578 138.926 186.629 138.65 186.732C138.38 186.835 138.151 186.975 137.964 187.152C137.782 187.329 137.642 187.535 137.544 187.768C137.451 188.001 137.404 188.246 137.404 188.503C137.404 188.839 137.474 189.117 137.614 189.336C137.759 189.555 137.948 189.742 138.181 189.896C138.415 190.05 138.678 190.181 138.972 190.288C139.271 190.391 139.577 190.493 139.889 190.596C140.202 190.699 140.505 190.813 140.799 190.939C141.098 191.06 141.364 191.214 141.597 191.401C141.831 191.588 142.017 191.819 142.157 192.094C142.302 192.365 142.374 192.703 142.374 193.109C142.374 193.524 142.302 193.916 142.157 194.285C142.017 194.649 141.812 194.966 141.541 195.237C141.271 195.508 140.939 195.722 140.547 195.881C140.155 196.035 139.707 196.112 139.203 196.112C138.55 196.112 137.988 195.998 137.516 195.769C137.045 195.536 136.632 195.218 136.277 194.817L136.473 194.509C136.529 194.439 136.595 194.404 136.669 194.404C136.711 194.404 136.765 194.432 136.83 194.488C136.896 194.544 136.975 194.614 137.068 194.698C137.162 194.777 137.274 194.866 137.404 194.964C137.535 195.057 137.687 195.146 137.859 195.23C138.032 195.309 138.23 195.377 138.454 195.433C138.678 195.489 138.933 195.517 139.217 195.517C139.609 195.517 139.959 195.459 140.267 195.342C140.575 195.221 140.834 195.057 141.044 194.852C141.259 194.647 141.422 194.404 141.534 194.124C141.646 193.839 141.702 193.536 141.702 193.214C141.702 192.864 141.63 192.577 141.485 192.353C141.345 192.124 141.159 191.935 140.925 191.786C140.692 191.632 140.426 191.504 140.127 191.401C139.833 191.298 139.53 191.198 139.217 191.1C138.905 191.002 138.599 190.892 138.3 190.771C138.006 190.65 137.743 190.496 137.509 190.309C137.276 190.118 137.087 189.882 136.942 189.602C136.802 189.317 136.732 188.963 136.732 188.538C136.732 188.207 136.795 187.887 136.921 187.579C137.047 187.271 137.232 187 137.474 186.767C137.717 186.529 138.016 186.34 138.37 186.2C138.73 186.055 139.138 185.983 139.595 185.983C140.109 185.983 140.568 186.065 140.974 186.228C141.385 186.391 141.758 186.641 142.094 186.977L141.926 187.299Z" fill="#161413"/>
<defs>
<filter id="filter0_d" x="58.469" y="232" width="54" height="60" filterUnits="userSpaceOnUse" color-interpolation-filters="sRGB">
<feFlood flood-opacity="0" result="BackgroundImageFix"/>
<feColorMatrix in="SourceAlpha" type="matrix" values="0 0 0 0 0 0 0 0 0 0 0 0 0 0 0 0 0 0 127 0"/>
<feOffset dx="-5" dy="5"/>
<feGaussianBlur stdDeviation="2.5"/>
<feColorMatrix type="matrix" values="0 0 0 0 0 0 0 0 0 0 0 0 0 0 0 0 0 0 0.25 0"/>
<feBlend mode="normal" in2="BackgroundImageFix" result="effect1_dropShadow"/>
<feBlend mode="normal" in="SourceGraphic" in2="effect1_dropShadow" result="shape"/>
</filter>
<filter id="filter1_d" x="6.80902" y="21.816" width="156.324" height="30.952" filterUnits="userSpaceOnUse" color-interpolation-filters="sRGB">
<feFlood flood-opacity="0" result="BackgroundImageFix"/>
<feColorMatrix in="SourceAlpha" type="matrix" values="0 0 0 0 0 0 0 0 0 0 0 0 0 0 0 0 0 0 127 0"/>
<feOffset dx="-5" dy="5"/>
<feGaussianBlur stdDeviation="2.5"/>
<feColorMatrix type="matrix" values="0 0 0 0 0 0 0 0 0 0 0 0 0 0 0 0 0 0 0.25 0"/>
<feBlend mode="normal" in2="BackgroundImageFix" result="effect1_dropShadow"/>
<feBlend mode="normal" in="SourceGraphic" in2="effect1_dropShadow" result="shape"/>
</filter>
</defs>
</svg>
